<?xml version="1.0" encoding="UTF-8" standalone="no"?>
<!-- Created with Inkscape (http://www.inkscape.org/) -->

<svg
   xmlns:dc="http://purl.org/dc/elements/1.1/"
   xmlns:cc="http://creativecommons.org/ns#"
   xmlns:rdf="http://www.w3.org/1999/02/22-rdf-syntax-ns#"
   xmlns:svg="http://www.w3.org/2000/svg"
   xmlns="http://www.w3.org/2000/svg"
   xmlns:sodipodi="http://sodipodi.sourceforge.net/DTD/sodipodi-0.dtd"
   xmlns:inkscape="http://www.inkscape.org/namespaces/inkscape"
   width="35.433071"
   height="70.866142"
   id="svg2"
   version="1.1"
   inkscape:version="0.48.5 r10040"
   sodipodi:docname="labels_front.svg">
  <defs
     id="defs4">
    <marker
       inkscape:stockid="TriangleOutM"
       orient="auto"
       refY="0"
       refX="0"
       id="TriangleOutM"
       style="overflow:visible">
      <path
         id="path3932"
         d="m 5.77,0 -8.65,5 0,-10 8.65,5 z"
         style="fill-rule:evenodd;stroke:#000000;stroke-width:1pt"
         transform="scale(0.4,0.4)"
         inkscape:connector-curvature="0" />
    </marker>
    <marker
       inkscape:stockid="Arrow1Mend"
       orient="auto"
       refY="0"
       refX="0"
       id="Arrow1Mend"
       style="overflow:visible">
      <path
         id="path3796"
         d="M 0,0 5,-5 -12.5,0 5,5 0,0 z"
         style="fill-rule:evenodd;stroke:#000000;stroke-width:1pt"
         transform="matrix(-0.4,0,0,-0.4,-4,0)"
         inkscape:connector-curvature="0" />
    </marker>
    <marker
       inkscape:stockid="Arrow1Send"
       orient="auto"
       refY="0"
       refX="0"
       id="Arrow1Send"
       style="overflow:visible">
      <path
         id="path3802"
         d="M 0,0 5,-5 -12.5,0 5,5 0,0 z"
         style="fill-rule:evenodd;stroke:#000000;stroke-width:1pt"
         transform="matrix(-0.2,0,0,-0.2,-1.2,0)"
         inkscape:connector-curvature="0" />
    </marker>
    <marker
       inkscape:stockid="Arrow2Send"
       orient="auto"
       refY="0"
       refX="0"
       id="Arrow2Send"
       style="overflow:visible">
      <path
         id="path3820"
         style="fill-rule:evenodd;stroke-width:0.625;stroke-linejoin:round"
         d="M 8.7185878,4.0337352 -2.2072895,0.01601326 8.7185884,-4.0017078 c -1.7454984,2.3720609 -1.7354408,5.6174519 -6e-7,8.035443 z"
         transform="matrix(-0.3,0,0,-0.3,0.69,0)"
         inkscape:connector-curvature="0" />
    </marker>
    <marker
       inkscape:stockid="Arrow2Mend"
       orient="auto"
       refY="0"
       refX="0"
       id="Arrow2Mend"
       style="overflow:visible">
      <path
         id="path3814"
         style="fill-rule:evenodd;stroke-width:0.625;stroke-linejoin:round"
         d="M 8.7185878,4.0337352 -2.2072895,0.01601326 8.7185884,-4.0017078 c -1.7454984,2.3720609 -1.7354408,5.6174519 -6e-7,8.035443 z"
         transform="scale(-0.6,-0.6)"
         inkscape:connector-curvature="0" />
    </marker>
  </defs>
  <sodipodi:namedview
     id="base"
     pagecolor="#ffffff"
     bordercolor="#666666"
     borderopacity="1.0"
     inkscape:pageopacity="0.0"
     inkscape:pageshadow="2"
     inkscape:zoom="7.919596"
     inkscape:cx="6.2203923"
     inkscape:cy="32.547809"
     inkscape:document-units="mm"
     inkscape:current-layer="layer1"
     showgrid="true"
     inkscape:window-width="1600"
     inkscape:window-height="836"
     inkscape:window-x="0"
     inkscape:window-y="27"
     inkscape:window-maximized="1"
     units="mm">
    <inkscape:grid
       type="xygrid"
       id="grid3004"
       empspacing="5"
       visible="true"
       enabled="true"
       snapvisiblegridlinesonly="true"
       units="mm"
       spacingx="0.1mm"
       spacingy="0.1mm" />
  </sodipodi:namedview>
  <metadata
     id="metadata7">
    <rdf:RDF>
      <cc:Work
         rdf:about="">
        <dc:format>image/svg+xml</dc:format>
        <dc:type
           rdf:resource="http://purl.org/dc/dcmitype/StillImage" />
        <dc:title></dc:title>
      </cc:Work>
    </rdf:RDF>
  </metadata>
  <g
     inkscape:label="Layer 1"
     inkscape:groupmode="layer"
     id="layer1"
     transform="translate(0,-981.49604)">
    <path
       style="fill:#000000;fill-opacity:1;stroke:none"
       d="m 18.180365,986.9985 c 0.242185,10e-6 0.398435,0.0879 0.5,0.3125 0.103513,0.22266 0.156247,0.60942 0.15625,1.15622 -3e-6,0.5528 -0.05274,0.961 -0.15625,1.1876 -0.103518,0.2265 -0.259768,0.3437 -0.5,0.3437 -0.242189,0 -0.427736,-0.1172 -0.53125,-0.3437 -0.103517,-0.2266 -0.156251,-0.6348 -0.15625,-1.1876 -10e-7,-0.5468 0.05273,-0.93356 0.15625,-1.15622 0.103514,-0.2246 0.289061,-0.31249 0.53125,-0.3125 z m 2.46875,-0.6875 0,0.8125 2.125,0 -1.625,3.53132 1.09375,0 1.71875,-3.71882 0,-0.625 -3.3125,0 z m -2.46875,-0.0937 c -0.576173,10e-6 -1.031251,0.19923 -1.34375,0.59375 -0.3125,0.39258 -0.46875,0.96094 -0.46875,1.68747 0,0.7246 0.15625,1.2618 0.46875,1.6564 0.312499,0.3926 0.767577,0.5937 1.34375,0.5937 0.574216,0 0.999997,-0.2011 1.3125,-0.5937 0.312496,-0.3946 0.468746,-0.9318 0.46875,-1.6564 -4e-6,-0.72653 -0.156254,-1.29489 -0.46875,-1.68747 -0.312503,-0.39452 -0.738284,-0.59374 -1.3125,-0.59375 z m -1.3125,-1.28125 7.0625,0 c 0.981496,0 1.78125,0.79975 1.78125,1.78125 l 0,3.53132 c 0,0.9815 -0.799754,1.7813 -1.78125,1.7813 l -7.0625,0 c -0.981496,0 -1.78125,-0.7998 -1.78125,-1.7813 l 0,-3.53132 c 0,-0.9815 0.799754,-1.78125 1.78125,-1.78125 z"
       id="rect2986-8"
       inkscape:connector-curvature="0" />
    <path
       style="fill:#000000;fill-opacity:1;stroke:none"
       d="m 9.9303646,986.9985 c 0.2421854,0 0.4296854,0.0879 0.5312504,0.3125 0.103513,0.2227 0.156247,0.60932 0.15625,1.15622 -3e-6,0.5527 -0.05274,0.9609 -0.15625,1.1876 -0.103518,0.2265 -0.291018,0.3437 -0.5312504,0.3437 -0.24219,0 -0.396486,-0.1172 -0.5,-0.3437 -0.103518,-0.2267 -0.156252,-0.6349 -0.15625,-1.1876 -2e-6,-0.5469 0.05273,-0.93352 0.15625,-1.15622 0.103514,-0.2246 0.25781,-0.3125 0.5,-0.3125 z m -4.1562504,0 c 0.2421852,0 0.398435,0.0879 0.5,0.3125 0.1035134,0.2227 0.1562473,0.60932 0.15625,1.15622 -2.7e-6,0.5527 -0.052737,0.9609 -0.15625,1.1876 -0.1035181,0.2265 -0.259768,0.3437 -0.5,0.3437 -0.2421893,0 -0.427736,-0.1172 -0.53125,-0.3437 -0.1035174,-0.2267 -0.1562514,-0.6349 -0.15625,-1.1876 -1.4e-6,-0.5469 0.052733,-0.93352 0.15625,-1.15622 0.103514,-0.2246 0.2890607,-0.3125 0.53125,-0.3125 z m 4.1562504,-0.78125 c -0.576174,0 -1.0000015,0.19925 -1.3125004,0.59375 -0.3125005,0.3926 -0.4687503,0.9609 -0.46875,1.68752 -3e-7,0.7246 0.1562495,1.2618 0.46875,1.6563 0.3124989,0.3926 0.7363264,0.5937 1.3125004,0.5937 0.5742164,0 1.0312474,-0.2011 1.3437504,-0.5937 0.312496,-0.3945 0.468746,-0.9317 0.46875,-1.6563 -4e-6,-0.72662 -0.156254,-1.29492 -0.46875,-1.68752 -0.312503,-0.3945 -0.769534,-0.59375 -1.3437504,-0.59375 z m -4.1562504,0 c -0.5761734,0 -1.0312511,0.19925 -1.34375,0.59375 -0.3125005,0.3926 -0.4687503,0.9609 -0.46875,1.68752 -3e-7,0.7246 0.1562495,1.2618 0.46875,1.6563 0.3124989,0.3926 0.7675766,0.5937 1.34375,0.5937 0.5742161,0 0.9999969,-0.2011 1.3125,-0.5937 0.3124963,-0.3945 0.4687461,-0.9317 0.46875,-1.6563 -3.9e-6,-0.72662 -0.1562537,-1.29492 -0.46875,-1.68752 -0.3125031,-0.3945 -0.7382839,-0.59375 -1.3125,-0.59375 z m -1.3125,-1.28125 7.0625008,0 c 0.981496,0 1.78125,0.79975 1.78125,1.78125 l 0,3.53127 c 0,0.9815 -0.799754,1.7813 -1.78125,1.7813 l -7.0625008,0 c -0.981496,0 -1.78125,-0.7998 -1.78125,-1.7813 l 0,-3.53127 c 0,-0.9815 0.799754,-1.78125 1.78125,-1.78125 z"
       id="path2997"
       inkscape:connector-curvature="0" />
    <path
       style="fill:#000000;fill-opacity:1;stroke:none"
       d="m 21.930364,995.15482 -1,0.2187 0,0.75 1.03125,-0.1875 0,2.8125 -1,0 0,0.7813 3.0625,0 0,-0.7813 -1,0 0,-3.5937 -1.09375,0 z m -4.15625,0 -1.03125,0.2187 0,0.75 1.03125,-0.1875 0,2.8125 -1,0 0,0.7813 3.0625,0 0,-0.7813 -1,0 0,-3.5937 -1.0625,0 z m -0.90625,-1.375 7.0625,0 c 0.981496,0 1.78125,0.7997 1.78125,1.7812 l 0,3.5313 c 0,0.98148 -0.799754,1.78118 -1.78125,1.78118 l -7.0625,0 c -0.981496,0 -1.78125,-0.7997 -1.78125,-1.78118 l 0,-3.5313 c 0,-0.9815 0.799754,-1.7812 1.78125,-1.7812 z"
       id="path3003"
       inkscape:connector-curvature="0" />
    <path
       style="fill:#000000;fill-opacity:1;stroke:none"
       d="m 9.9303646,997.56102 c 0.2089824,0 0.3886694,0.072 0.5000004,0.1875 0.111325,0.1133 0.156247,0.2832 0.15625,0.5 -3e-6,0.2149 -0.04493,0.3848 -0.15625,0.5 -0.111331,0.1133 -0.291018,0.1563 -0.5000004,0.1563 -0.21094,0 -0.355471,-0.043 -0.46875,-0.1563 -0.113283,-0.1152 -0.187502,-0.2851 -0.1875,-0.5 -2e-6,-0.2148 0.07422,-0.3847 0.1875,-0.5 0.113279,-0.1152 0.25781,-0.1875 0.46875,-0.1875 z m -4.1562504,-1.7187 c 0.2421852,0 0.398435,0.1191 0.5,0.3437 0.1035129,0.2227 0.1562472,0.6094 0.15625,1.1563 -2.8e-6,0.5527 -0.052737,0.9297 -0.15625,1.1562 -0.1035181,0.2266 -0.259768,0.3438 -0.5,0.3438 -0.2421893,0 -0.427736,-0.1172 -0.53125,-0.3438 -0.1035171,-0.2265 -0.1562514,-0.6035 -0.15625,-1.1562 -1.4e-6,-0.5469 0.052733,-0.9336 0.15625,-1.1563 0.103514,-0.2246 0.2890607,-0.3437 0.53125,-0.3437 z m 4.1562504,-0.062 c 0.1757794,0 0.3105444,0.062 0.4062504,0.1562 0.0957,0.092 0.156247,0.2012 0.15625,0.375 -3e-6,0.1739 -0.06055,0.3125 -0.15625,0.4063 -0.09571,0.094 -0.230471,0.1562 -0.4062504,0.1562 -0.17969,0 -0.308596,-0.062 -0.40625,-0.1562 -0.09571,-0.094 -0.156252,-0.2324 -0.15625,-0.4063 -2e-6,-0.1718 0.06054,-0.2812 0.15625,-0.375 0.09765,-0.094 0.22656,-0.1562 0.40625,-0.1562 z m 0,-0.7188 c -0.533205,0 -0.9433609,0.1192 -1.2187504,0.3125 -0.2753912,0.1934 -0.4062505,0.4746 -0.40625,0.8438 -5e-7,0.248 0.083984,0.459 0.21875,0.625 0.1347648,0.166 0.328124,0.2636 0.59375,0.3437 -0.296876,0.082 -0.535157,0.2207 -0.6875,0.4063 -0.1503911,0.1836 -0.2187504,0.4375 -0.21875,0.7187 -4e-7,0.4336 0.148437,0.7461 0.4375,0.9688 0.2910145,0.2207 0.7128894,0.3437 1.2812504,0.3437 0.5664034,0 0.9941374,-0.123 1.2812504,-0.3437 0.289059,-0.2227 0.437496,-0.5352 0.4375,-0.9688 -4e-6,-0.2812 -0.06641,-0.5351 -0.21875,-0.7187 -0.150394,-0.1856 -0.390629,-0.3242 -0.6875,-0.4063 0.265621,-0.08 0.490231,-0.1777 0.625,-0.3437 0.136715,-0.166 0.187496,-0.377 0.1875,-0.625 -4e-6,-0.3711 -0.130863,-0.6524 -0.40625,-0.8438 -0.275394,-0.1933 -0.689456,-0.3125 -1.2187504,-0.3125 z m -4.1562504,0 c -0.5761734,0 -1.0312511,0.1992 -1.34375,0.5938 -0.3125004,0.3926 -0.4687503,0.9609 -0.46875,1.6875 -3e-7,0.7246 0.1562496,1.2929 0.46875,1.6875 0.3124989,0.3926 0.7675766,0.5937 1.34375,0.5937 0.5742161,0 0.9999969,-0.2011 1.3125,-0.5937 0.3124963,-0.3946 0.4687461,-0.9629 0.46875,-1.6875 -3.9e-6,-0.7266 -0.1562537,-1.2949 -0.46875,-1.6875 -0.3125031,-0.3946 -0.7382839,-0.5938 -1.3125,-0.5938 z m -1.3125,-1.2812 7.0625008,0 c 0.981496,0 1.78125,0.7997 1.78125,1.7812 l 0,3.5313 c 0,0.98148 -0.799754,1.78118 -1.78125,1.78118 l -7.0625008,0 c -0.981496,0 -1.78125,-0.7997 -1.78125,-1.78118 l 0,-3.5313 c 0,-0.9815 0.799754,-1.7812 1.78125,-1.7812 z"
       id="path3009"
       inkscape:connector-curvature="0" />
    <path
       style="fill:#000000;fill-opacity:1;stroke:none"
       d="m 10.180365,1004.4048 1.34375,3.6562 1.125,0 1.34375,-3.6562 -0.9375,0 -0.96875,2.6875 -0.96875,-2.6875 -0.9375,0 z m -5.5625008,0 -0.84375,0.1875 0,0.625 0.84375,-0.1563 0,2.3438 -0.84375,0 0,0.6562 2.5625,0 0,-0.6562 -0.84375,0 0,-3 -0.875,0 z m 3.6875,-0.062 c -0.1985692,0 -0.3870455,0.025 -0.59375,0.062 -0.2067066,0.036 -0.4134121,0.086 -0.625,0.1562 l 0,0.8125 c 0.1985671,-0.1237 0.3883456,-0.2194 0.5625,-0.2812 0.1741525,-0.064 0.3222643,-0.094 0.46875,-0.094 0.1904281,0 0.3548159,0.052 0.46875,0.1563 0.1155579,0.1041 0.1562479,0.2353 0.15625,0.4062 -2.1e-6,0.1107 -0.00554,0.21 -0.0625,0.3125 -0.056968,0.1026 -0.1624367,0.2051 -0.28125,0.3125 l -1.3125,1.1875 0,0.6875 2.6250004,0 0,-0.6875 -1.5937504,0 0.78125,-0.6875 c 0.3287734,-0.2881 0.5537084,-0.5166 0.6562504,-0.6875 0.102536,-0.1725 0.156247,-0.3639 0.15625,-0.5625 -3e-6,-0.3434 -0.13249,-0.6204 -0.375,-0.8125 -0.2408882,-0.192 -0.5950546,-0.2812 -1.0312504,-0.2812 z m -3.84375,-1.6875 8.8437508,0 c 0.981496,0 1.78125,0.7997 1.78125,1.7812 l 0,3.5313 c 0,0.9815 -0.799754,1.7812 -1.78125,1.7812 l -8.8437508,0 c -0.981496,0 -1.78125,-0.7997 -1.78125,-1.7812 l 0,-3.5313 c 0,-0.9815 0.799754,-1.7812 1.78125,-1.7812 z"
       id="path3015"
       inkscape:connector-curvature="0" />
    <path
       style="fill:#000000;fill-opacity:1;stroke:none"
       d="m 21.117864,1004.9985 0.59375,1.75 -1.21875,0 0.625,-1.75 z m 7.15625,-1.0312 1.46875,2.1562 -1.53125,2.2188 1.1875,0 1.03125,-1.5 1,1.5 1.1875,0 -1.53125,-2.2188 1.46875,-2.1562 -1.1875,0 -0.9375,1.4062 -0.96875,-1.4062 -1.1875,0 z m -4.5,0 0,2.625 c -1e-6,0.6191 0.158202,1.0722 0.46875,1.375 0.310546,0.3027 0.802733,0.4687 1.4375,0.4687 0.636716,0 1.0957,-0.166 1.40625,-0.4687 0.310543,-0.3028 0.468746,-0.7559 0.46875,-1.375 l 0,-2.625 -1.125,0 0,2.625 c -3e-6,0.3613 -0.06836,0.625 -0.1875,0.7812 -0.11719,0.1543 -0.292971,0.2188 -0.5625,0.2188 -0.26758,0 -0.474611,-0.065 -0.59375,-0.2188 -0.117189,-0.1562 -0.187502,-0.4199 -0.1875,-0.7812 l 0,-2.625 -1.125,0 z m -3.34375,0 -1.625,4.375 1.125,0 0.28125,-0.7813 1.78125,0 0.28125,0.7813 1.125,0 -1.625,-4.375 -1.34375,0 z m -1.8125,-1.3125 14.1875,0 c 0.981496,0 1.78125,0.7997 1.78125,1.7812 l 0,3.5313 c 0,0.9815 -0.799754,1.7812 -1.78125,1.7812 l -14.1875,0 c -0.981496,0 -1.78125,-0.7997 -1.78125,-1.7812 l 0,-3.5313 c 0,-0.9815 0.799754,-1.7812 1.78125,-1.7812 z"
       id="path3021"
       inkscape:connector-curvature="0" />
    <path
       style="fill:#000000;fill-opacity:1;stroke:none"
       d="m 17.09375,60.0625 0,0.8125 -1.15625,-0.40625 1.15625,-0.40625 z m -3.8125,-0.65625 c -0.244791,0 -0.429687,0.08205 -0.5625,0.21875 -0.132811,0.1367 -0.24739,0.3633 -0.3125,0.6875 l -0.0625,0.3125 c -0.03125,0.1524 -0.05078,0.28475 -0.09375,0.34375 -0.04427,0.057 -0.10937,0.0625 -0.1875,0.0625 -0.104165,0 -0.20052,-0.039 -0.25,-0.125 -0.04948,-0.086 -0.0625,-0.22655 -0.0625,-0.40625 0,-0.1354 0.02604,-0.25395 0.0625,-0.40625 0.03646,-0.1524 0.08464,-0.30855 0.15625,-0.46875 l -0.625,0 c -0.04817,0.181 -0.07031,0.3307 -0.09375,0.5 -0.02474,0.1693 -0.03125,0.3398 -0.03125,0.5 3e-6,0.3515 0.0625,0.625 0.21875,0.8125 0.156253,0.1873 0.365888,0.28125 0.65625,0.28125 0.231773,0 0.425782,-0.0534 0.5625,-0.1875 0.13672,-0.1354 0.25,-0.36455 0.3125,-0.65625 l 0.0625,-0.28125 c 0.03906,-0.1771 0.07552,-0.28475 0.125,-0.34375 0.04948,-0.06 0.1276,-0.09375 0.21875,-0.09375 0.101563,0 0.16406,0.038 0.21875,0.125 0.05469,0.0872 0.09375,0.211 0.09375,0.375 0,0.1615 -0.01302,0.3256 -0.0625,0.5 -0.05078,0.1732 -0.15104,0.34505 -0.25,0.53125 l 0.65625,0 c 0.06901,-0.1862 0.12109,-0.3763 0.15625,-0.5625 0.03515,-0.1862 0.03125,-0.34635 0.03125,-0.53125 0,-0.392 -0.0625,-0.6849 -0.21875,-0.875 -0.157552,-0.1911 -0.397135,-0.3125 -0.71875,-0.3125 z m 7.28125,-0.375 0,1.15625 0.5,0 0,-0.46875 0.5625,0 c 0.02083,0.0534 0.02083,0.1195 0.03125,0.1875 0.0091,0.0664 0.03125,0.14075 0.03125,0.21875 1e-6,0.2877 -0.08203,0.5312 -0.25,0.6875 -0.167968,0.1563 -0.410155,0.21875 -0.71875,0.21875 -0.311196,0 -0.552081,-0.0886 -0.71875,-0.25 -0.167963,-0.1628 -0.249997,-0.388 -0.25,-0.6875 0,-0.1615 0.01693,-0.30865 0.0625,-0.46875 0.04557,-0.1615 0.1263,-0.3372 0.21875,-0.5 l -0.625,0 c -0.07161,0.1576 -0.11979,0.3216 -0.15625,0.5 -0.03646,0.177 -0.03125,0.3685 -0.03125,0.5625 3e-6,0.5026 0.105472,0.8984 0.375,1.1875 0.269534,0.2891 0.65495,0.4375 1.125,0.4375 0.464845,0 0.821615,-0.1536 1.09375,-0.4375 0.270833,-0.2838 0.40625,-0.67055 0.40625,-1.15625 0,-0.2148 -0.01693,-0.4232 -0.0625,-0.625 -0.04557,-0.2018 -0.09635,-0.375 -0.1875,-0.5625 l -1.40625,0 z M 18.1875,58.9375 15.25,60 l 0,0.90625 2.9375,1.09375 0,-0.78125 -0.53125,-0.15625 0,-1.1875 0.53125,-0.1875 0,-0.75 z M 11.25,58 l 0,0.75 2.9375,0 0,-0.75 -2.9375,0 z m 4,-1.84375 0,0.75 1.75,0 c 0.240886,0 0.427084,0.046 0.53125,0.125 0.102867,0.0781 0.15625,0.1953 0.15625,0.375 0,0.1784 -0.05338,0.32725 -0.15625,0.40625 C 17.427084,57.8907 17.240886,57.90625 17,57.90625 l -1.75,0 0,0.78125 1.75,0 c 0.412761,0 0.735677,-0.1054 0.9375,-0.3125 0.201822,-0.207 0.28125,-0.54555 0.28125,-0.96875 0,-0.4245 -0.07943,-0.7304 -0.28125,-0.9375 -0.201823,-0.207 -0.524739,-0.3125 -0.9375,-0.3125 l -1.75,0 z m 4,-0.40625 0,0.71875 2,0 -2,1.0625 0,0.84375 2.9375,0 0,-0.71875 -2,0 2,-1.0625 0,-0.84375 -2.9375,0 z m -6.6875,-1.09375 0,1.15625 0.5,0 0,-0.46875 0.5625,0 c 0.02083,0.0534 0.02083,0.1195 0.03125,0.1875 0.0091,0.0664 0.03125,0.14075 0.03125,0.21875 10e-7,0.2877 -0.08203,0.5312 -0.25,0.6875 -0.167968,0.1563 -0.410155,0.21875 -0.71875,0.21875 -0.311196,0 -0.552081,-0.0886 -0.71875,-0.25 -0.167963,-0.1628 -0.249997,-0.388 -0.25,-0.6875 0,-0.1615 0.01693,-0.30865 0.0625,-0.46875 0.04557,-0.1615 0.1263,-0.3372 0.21875,-0.5 l -0.625,0 c -0.07161,0.1576 -0.11979,0.3216 -0.15625,0.5 -0.03646,0.177 -0.03125,0.3685 -0.03125,0.5625 3e-6,0.5026 0.105472,0.8984 0.375,1.1875 0.269534,0.2891 0.65495,0.4375 1.125,0.4375 0.464845,0 0.821615,-0.1536 1.09375,-0.4375 0.270833,-0.2838 0.40625,-0.67055 0.40625,-1.15625 0,-0.2148 -0.01693,-0.4232 -0.0625,-0.625 -0.04557,-0.2018 -0.09635,-0.375 -0.1875,-0.5625 l -1.40625,0 z m 8.15625,-1.625 c 0.290366,0 0.503907,0.0872 0.65625,0.25 0.152346,0.1615 0.21875,0.41145 0.21875,0.71875 l 0,0.25 -1.78125,0 0,-0.25 c 2e-6,-0.3086 0.09896,-0.55725 0.25,-0.71875 0.151043,-0.1611 0.367189,-0.25 0.65625,-0.25 z m -2.53125,-0.25 -1.5,1.03125 -1.4375,-1 0,0.8125 0.9375,0.625 -0.9375,0.625 0,0.8125 1.4375,-1 1.5,1.03125 0,-0.78125 -1,-0.6875 1,-0.6875 0,-0.78125 z M 20.71875,52.25 c -0.217446,0 -0.421873,0.059 -0.59375,0.125 -0.171872,0.0664 -0.305987,0.14445 -0.4375,0.28125 -0.151039,0.1549 -0.28125,0.345 -0.34375,0.5625 -0.0638,0.2161 -0.09375,0.5573 -0.09375,1 l 0,0.78125 2.9375,0 0,-0.78125 c 0,-0.4375 -0.03125,-0.7813 -0.09375,-1 -0.0638,-0.2188 -0.192708,-0.4063 -0.34375,-0.5625 C 21.61849,52.51945 21.484375,52.441 21.3125,52.375 21.139323,52.308 20.938803,52.25 20.71875,52.25 z m 0.59375,-4.21875 0,1 1,0 0,-1 -1,0 z m -2,0 0,1 1,0 0,-1 -1,0 z m -2,0 0,1 1,0 0,-1 -1,0 z m -2,0 0,1 1,0 0,-1 -1,0 z m -2,0 0,1 1,0 0,-1 -1,0 z m -1.96875,0 0,1 1,0 0,-1 -1,0 z m 0.71875,-4.84375 1.78125,0 0,0.28125 c -2e-6,0.3086 -0.09896,0.5261 -0.25,0.6875 -0.151043,0.1612 -0.367189,0.25 -0.65625,0.25 -0.290366,0 -0.503908,-0.0873 -0.65625,-0.25 -0.152346,-0.1615 -0.21875,-0.3802 -0.21875,-0.6875 l 0,-0.28125 z M 18.40625,42.53125 15.5,43.625 l 0,0.875 2.90625,1.09375 0,-0.75 -2.15625,-0.78125 2.15625,-0.78125 0,-0.75 z M 11.5,42.4375 l 0,0.78125 c 0,0.4375 0.03125,0.7813 0.09375,1 0.0638,0.2188 0.161458,0.4063 0.3125,0.5625 0.13151,0.1367 0.265625,0.21525 0.4375,0.28125 0.173176,0.067 0.373697,0.125 0.59375,0.125 0.217446,0 0.421873,-0.059 0.59375,-0.125 0.171872,-0.0664 0.337237,-0.14455 0.46875,-0.28125 0.151039,-0.1549 0.25,-0.345 0.3125,-0.5625 0.0638,-0.2161 0.09375,-0.5572 0.09375,-1 l 0,-0.78125 -2.90625,0 z m 4.125,-2.40625 c -0.0651,0.1601 -0.125,0.3385 -0.15625,0.5 -0.03255,0.1627 -0.03125,0.3346 -0.03125,0.5 0,0.3828 0.07161,0.6601 0.25,0.875 0.178385,0.2161 0.434895,0.34375 0.75,0.34375 0.317707,0 0.572915,-0.1146 0.75,-0.3125 0.178388,-0.1979 0.249998,-0.457 0.25,-0.8125 0,-0.0625 0.0091,-0.1285 0,-0.1875 -0.0078,-0.0573 -0.01563,-0.1305 -0.03125,-0.1875 l 0.4375,0 0,1.28125 0.5625,0 0,-1.875 -1.65625,0 c 0.0586,0.1406 0.1289,0.28385 0.15625,0.40625 0.02865,0.1224 0.03125,0.23575 0.03125,0.34375 -1e-6,0.1823 -0.03646,0.3333 -0.125,0.4375 -0.08854,0.1052 -0.221356,0.15625 -0.375,0.15625 -0.152345,0 -0.28516,-0.05075 -0.375,-0.15625 -0.08854,-0.1042 -0.125001,-0.2552 -0.125,-0.4375 0,-0.1263 0.01693,-0.26295 0.0625,-0.40625 0.04557,-0.1419 0.1276,-0.30995 0.21875,-0.46875 l -0.59375,0 z M 20.9375,40 c -0.464845,0 -0.821615,0.1536 -1.09375,0.4375 -0.270833,0.2838 -0.40625,0.67055 -0.40625,1.15625 0,0.2148 0.01693,0.4231 0.0625,0.625 0.04557,0.2018 0.1276,0.375 0.21875,0.5625 l 1.375,0 0,-1.15625 -0.5,0 0,0.46875 -0.5625,0 C 20.01042,42.04035 20.01042,41.97425 20,41.90625 c -0.0091,-0.0664 -0.03125,-0.14075 -0.03125,-0.21875 -1e-6,-0.2877 0.08203,-0.49995 0.25,-0.65625 0.167968,-0.1564 0.410155,-0.25 0.71875,-0.25 0.311196,0 0.552081,0.0886 0.71875,0.25 0.167963,0.1628 0.249997,0.388 0.25,0.6875 0,0.1614 -0.01693,0.30855 -0.0625,0.46875 -0.04557,0.1615 -0.1263,0.3373 -0.21875,0.5 l 0.625,0 c 0.07161,-0.1575 0.11979,-0.3216 0.15625,-0.5 0.03646,-0.1771 0.0625,-0.3685 0.0625,-0.5625 -3e-6,-0.5026 -0.136722,-0.8984 -0.40625,-1.1875 C 21.792966,40.1484 21.40755,40 20.9375,40 z M 11.5,39.09375 l 0,0.6875 2,0 -2,1.0625 0,0.84375 2.90625,0 0,-0.71875 -2,0 2,-1.0625 0,-0.8125 -2.90625,0 z m 8,-0.40625 0,0.75 2.90625,0 0,-0.75 -2.90625,0 z m -4,-0.0625 0,0.6875 0.75,0 0,-0.6875 -0.75,0 z m 0.125,-2.875 c -0.0651,0.1601 -0.125,0.30725 -0.15625,0.46875 -0.03255,0.1628 -0.03125,0.3346 -0.03125,0.5 0,0.3828 0.07161,0.69135 0.25,0.90625 0.178385,0.2161 0.434895,0.3125 0.75,0.3125 0.317707,0 0.572915,-0.1146 0.75,-0.3125 0.178388,-0.1979 0.249998,-0.457 0.25,-0.8125 0,-0.0625 0.0091,-0.1285 0,-0.1875 -0.0078,-0.0573 -0.01563,-0.09925 -0.03125,-0.15625 l 0.4375,0 0,1.25 0.5625,0 0,-1.875 -1.65625,0 c 0.0586,0.1406 0.1289,0.28385 0.15625,0.40625 0.02865,0.1224 0.03125,0.23575 0.03125,0.34375 -1e-6,0.1823 -0.03646,0.3334 -0.125,0.4375 -0.08854,0.1052 -0.221356,0.15625 -0.375,0.15625 -0.152345,0 -0.28516,-0.05075 -0.375,-0.15625 -0.08854,-0.1041 -0.125001,-0.2552 -0.125,-0.4375 0,-0.1263 0.01693,-0.26295 0.0625,-0.40625 0.04557,-0.1419 0.1276,-0.2787 0.21875,-0.4375 l -0.59375,0 z m 5.9375,-0.03125 c -0.231773,0 -0.425782,0.0533 -0.5625,0.1875 -0.13672,0.1354 -0.25,0.36455 -0.3125,0.65625 l -0.0625,0.28125 c -0.03906,0.1771 -0.07552,0.316 -0.125,0.375 -0.04948,0.06 -0.1276,0.0625 -0.21875,0.0625 -0.101563,0 -0.16406,-0.038 -0.21875,-0.125 -0.05469,-0.0872 -0.09375,-0.2109 -0.09375,-0.375 0,-0.1614 0.04427,-0.3255 0.09375,-0.5 0.05078,-0.1731 0.11979,-0.34505 0.21875,-0.53125 l -0.65625,0 c -0.06901,0.1862 -0.12109,0.3763 -0.15625,0.5625 -0.03515,0.1862 -0.03125,0.3776 -0.03125,0.5625 0,0.3919 0.0625,0.65365 0.21875,0.84375 0.157552,0.1911 0.397135,0.3125 0.71875,0.3125 0.244791,0 0.429686,-0.08205 0.5625,-0.21875 0.132811,-0.1367 0.24739,-0.3633 0.3125,-0.6875 l 0.0625,-0.3125 c 0.03125,-0.1524 0.08203,-0.2535 0.125,-0.3125 0.04427,-0.057 0.07812,-0.09375 0.15625,-0.09375 0.104165,0 0.20052,0.039 0.25,0.125 0.04948,0.086 0.0625,0.22655 0.0625,0.40625 -10e-6,0.1354 -0.02604,0.2852 -0.0625,0.4375 -0.03646,0.1524 -0.08464,0.30855 -0.15625,0.46875 l 0.625,0 c 0.04817,-0.181 0.07031,-0.36205 0.09375,-0.53125 0.02474,-0.1693 0.0625,-0.3398 0.0625,-0.5 -3e-6,-0.3515 -0.09375,-0.625 -0.25,-0.8125 -0.156253,-0.1872 -0.365888,-0.28125 -0.65625,-0.28125 z M 12.9375,35.625 c -0.464845,0 -0.821615,0.1536 -1.09375,0.4375 -0.270833,0.2838 -0.40625,0.67055 -0.40625,1.15625 0,0.2148 0.01693,0.4231 0.0625,0.625 0.04557,0.2018 0.1276,0.375 0.21875,0.5625 l 1.375,0 0,-1.15625 -0.5,0 0,0.46875 -0.5625,0 C 12.01042,37.66535 12.01042,37.59925 12,37.53125 c -0.0091,-0.0664 -0.03125,-0.14075 -0.03125,-0.21875 -10e-7,-0.2877 0.08203,-0.49995 0.25,-0.65625 0.167968,-0.1564 0.410155,-0.25 0.71875,-0.25 0.311196,0 0.552081,0.0886 0.71875,0.25 0.167963,0.1628 0.249997,0.388 0.25,0.6875 0,0.1614 -0.01693,0.30855 -0.0625,0.46875 -0.04557,0.1615 -0.1263,0.3373 -0.21875,0.5 l 0.625,0 c 0.07161,-0.1575 0.11979,-0.3216 0.15625,-0.5 0.03646,-0.1771 0.0625,-0.3685 0.0625,-0.5625 -3e-6,-0.5026 -0.136722,-0.8984 -0.40625,-1.1875 -0.269534,-0.2891 -0.65495,-0.4375 -1.125,-0.4375 z m -0.53125,-1.96875 8.84375,0 c 0.981496,0 1.78125,0.79975 1.78125,1.78125 l 0,26.5625 c 0,0.9815 -0.799754,1.78125 -1.78125,1.78125 l -8.84375,0 C 11.424754,63.78125 10.625,62.9815 10.625,62 l 0,-26.5625 c 0,-0.9815 0.799754,-1.78125 1.78125,-1.78125 z"
       transform="translate(0,981.49604)"
       id="rect2989" />
    <g
       transform="matrix(0,-1,1,0,0,0)"
       style="font-size:40px;font-style:normal;font-weight:normal;line-height:100%;letter-spacing:0px;word-spacing:0px;fill:#ffffff;fill-opacity:1;stroke:none;font-family:Sans"
       id="text3759" />
    <g
       transform="matrix(0,1,-1,0,0,0)"
       style="font-size:40px;font-style:normal;font-weight:normal;line-height:100%;letter-spacing:0px;word-spacing:0px;fill:#ffffff;fill-opacity:1;stroke:none;font-family:Sans"
       id="text3769" />
    <g
       id="g5353">
      <path
         style="font-size:medium;font-style:normal;font-variant:normal;font-weight:normal;font-stretch:normal;text-indent:0;text-align:start;text-decoration:none;line-height:normal;letter-spacing:normal;word-spacing:normal;text-transform:none;direction:ltr;block-progression:tb;writing-mode:lr-tb;text-anchor:start;baseline-shift:baseline;color:#000000;fill:#000000;fill-opacity:1;stroke:none;stroke-width:0.70866144;marker:none;visibility:visible;display:inline;overflow:visible;enable-background:accumulate;font-family:Sans;-inkscape-font-specification:Sans"
         d="m 3.90625,1016.5625 0,0.7187 6,0 0,-0.7187 -6,0 z"
         id="path3781"
         inkscape:connector-curvature="0" />
      <path
         inkscape:connector-curvature="0"
         style="fill-rule:evenodd;stroke:#000000;stroke-width:0.28346457pt"
         d="m 2.2620459,1016.9291 2.4519686,-1.4173 0,2.8346 -2.4519686,-1.4173 z"
         id="path5359" />
    </g>
    <g
       id="g5361">
      <path
         style="font-size:medium;font-style:normal;font-variant:normal;font-weight:normal;font-stretch:normal;text-indent:0;text-align:start;text-decoration:none;line-height:normal;letter-spacing:normal;word-spacing:normal;text-transform:none;direction:ltr;block-progression:tb;writing-mode:lr-tb;text-anchor:start;baseline-shift:baseline;color:#000000;fill:#000000;fill-opacity:1;stroke:none;stroke-width:0.70866144;marker:none;visibility:visible;display:inline;overflow:visible;enable-background:accumulate;font-family:Sans;-inkscape-font-specification:Sans"
         d="m 23.75,1043.1562 0,0.6876 6,0 0,-0.6876 -6,0 z"
         id="path5351"
         inkscape:connector-curvature="0" />
      <path
         inkscape:connector-curvature="0"
         style="fill-rule:evenodd;stroke:#000000;stroke-width:0.28346457pt"
         d="m 31.39937,1043.5039 -2.451969,1.4173 0,-2.8346 2.451969,1.4173 z"
         id="path5367" />
    </g>
  </g>
</svg>
