<?xml version="1.0" encoding="UTF-8" standalone="no"?>
<!-- Created with Inkscape (http://www.inkscape.org/) -->

<svg
   xmlns:dc="http://purl.org/dc/elements/1.1/"
   xmlns:cc="http://creativecommons.org/ns#"
   xmlns:rdf="http://www.w3.org/1999/02/22-rdf-syntax-ns#"
   xmlns:svg="http://www.w3.org/2000/svg"
   xmlns="http://www.w3.org/2000/svg"
   xmlns:sodipodi="http://sodipodi.sourceforge.net/DTD/sodipodi-0.dtd"
   xmlns:inkscape="http://www.inkscape.org/namespaces/inkscape"
   width="35.433071"
   height="42.519684"
   id="svg2"
   version="1.1"
   inkscape:version="0.48.5 r10040"
   sodipodi:docname="labels_front.svg">
  <defs
     id="defs4" />
  <sodipodi:namedview
     id="base"
     pagecolor="#ffffff"
     bordercolor="#666666"
     borderopacity="1.0"
     inkscape:pageopacity="0.0"
     inkscape:pageshadow="2"
     inkscape:zoom="15.839192"
     inkscape:cx="23.120274"
     inkscape:cy="35.701727"
     inkscape:document-units="mm"
     inkscape:current-layer="layer1"
     showgrid="true"
     inkscape:window-width="1600"
     inkscape:window-height="836"
     inkscape:window-x="0"
     inkscape:window-y="27"
     inkscape:window-maximized="1"
     units="mm">
    <inkscape:grid
       type="xygrid"
       id="grid3004"
       empspacing="5"
       visible="true"
       enabled="true"
       snapvisiblegridlinesonly="true"
       units="mm"
       spacingx="0.1mm"
       spacingy="0.1mm" />
  </sodipodi:namedview>
  <metadata
     id="metadata7">
    <rdf:RDF>
      <cc:Work
         rdf:about="">
        <dc:format>image/svg+xml</dc:format>
        <dc:type
           rdf:resource="http://purl.org/dc/dcmitype/StillImage" />
        <dc:title></dc:title>
      </cc:Work>
    </rdf:RDF>
  </metadata>
  <g
     inkscape:label="Layer 1"
     inkscape:groupmode="layer"
     id="layer1"
     transform="translate(0,-1009.8425)">
    <path
       style="fill:#000000;fill-opacity:1;stroke:none"
       d="m 15.5,2.0625 c 0.242185,3.7e-6 0.398435,0.087894 0.5,0.3125 0.103513,0.2226594 0.156247,0.6093777 0.15625,1.15625 -3e-6,0.552736 -0.05274,0.9609387 -0.15625,1.1875 -0.103518,0.2265633 -0.259768,0.3437507 -0.5,0.34375 -0.242189,7e-7 -0.427736,-0.1171867 -0.53125,-0.34375 C 14.865233,4.4921887 14.812499,4.083986 14.8125,3.53125 14.812499,2.9843777 14.865233,2.5976594 14.96875,2.375 15.072264,2.1503942 15.257811,2.0625037 15.5,2.0625 z m 2.46875,-0.6875 0,0.8125 2.125,0 -1.625,3.53125 1.09375,0 L 21.28125,2 l 0,-0.625 -3.3125,0 z M 15.5,1.28125 c -0.576173,4.5e-6 -1.031251,0.199223 -1.34375,0.59375 -0.3125,0.3925816 -0.46875,0.9609404 -0.46875,1.6875 0,0.7246108 0.15625,1.2617196 0.46875,1.65625 0.312499,0.3925782 0.767577,0.5937499 1.34375,0.59375 0.574216,-1e-7 0.999997,-0.2011718 1.3125,-0.59375 C 17.124996,4.8242196 17.281246,4.2871108 17.28125,3.5625 17.281246,2.8359404 17.124996,2.2675816 16.8125,1.875 16.499997,1.480473 16.074216,1.2812545 15.5,1.28125 z M 14.1875,0 21.25,0 c 0.981496,0 1.78125,0.79975 1.78125,1.78125 l 0,3.53125 c 0,0.9815 -0.799754,1.78125 -1.78125,1.78125 l -7.0625,0 c -0.981496,0 -1.78125,-0.79975 -1.78125,-1.78125 l 0,-3.53125 C 12.40625,0.79975 13.206004,0 14.1875,0 z"
       transform="translate(0,1009.8425)"
       id="rect2986-8" />
    <path
       style="fill:#000000;fill-opacity:1;stroke:none"
       d="m 7.25,2.0625 c 0.2421852,0 0.429685,0.0879 0.53125,0.3125 0.1035134,0.2227 0.1562473,0.60935 0.15625,1.15625 -2.7e-6,0.5527 -0.052737,0.9609 -0.15625,1.1875 C 7.6777319,4.94525 7.490232,5.0625 7.25,5.0625 7.0078107,5.0625 6.853514,4.94525 6.75,4.71875 6.6464826,4.49215 6.5937486,4.08395 6.59375,3.53125 6.5937486,2.98435 6.6464829,2.5977 6.75,2.375 6.853514,2.1504 7.0078107,2.0625 7.25,2.0625 z m -4.15625,0 c 0.2421852,0 0.398435,0.0879 0.5,0.3125 0.1035134,0.2227 0.1562473,0.60935 0.15625,1.15625 -2.7e-6,0.5527 -0.052737,0.9609 -0.15625,1.1875 C 3.4902319,4.94525 3.333982,5.0625 3.09375,5.0625 2.8515607,5.0625 2.666014,4.94525 2.5625,4.71875 2.4589826,4.49215 2.4062486,4.08395 2.40625,3.53125 2.4062486,2.98435 2.4589829,2.5977 2.5625,2.375 2.666014,2.1504 2.8515607,2.0625 3.09375,2.0625 z M 7.25,1.28125 C 6.6738266,1.28125 6.2499989,1.4805 5.9375,1.875 5.6249995,2.2676 5.4687497,2.8359 5.46875,3.5625 5.4687497,4.2871 5.6249995,4.82425 5.9375,5.21875 6.2499989,5.61135 6.6738266,5.8125 7.25,5.8125 7.8242161,5.8125 8.2812469,5.61135 8.59375,5.21875 8.9062463,4.82425 9.0624961,4.2871 9.0625,3.5625 9.0624961,2.8359 8.9062463,2.2676 8.59375,1.875 8.2812469,1.4805 7.8242161,1.28125 7.25,1.28125 z m -4.15625,0 C 2.5175766,1.28125 2.0624989,1.4805 1.75,1.875 1.4374995,2.2676 1.2812497,2.8359 1.28125,3.5625 1.2812497,4.2871 1.4374995,4.82425 1.75,5.21875 2.0624989,5.61135 2.5175766,5.8125 3.09375,5.8125 3.6679661,5.8125 4.0937469,5.61135 4.40625,5.21875 4.7187463,4.82425 4.8749961,4.2871 4.875,3.5625 4.8749961,2.8359 4.7187463,2.2676 4.40625,1.875 4.0937469,1.4805 3.6679661,1.28125 3.09375,1.28125 z M 1.78125,0 8.84375,0 C 9.825246,0 10.625,0.79975 10.625,1.78125 l 0,3.53125 c 0,0.9815 -0.799754,1.78125 -1.78125,1.78125 l -7.0625,0 C 0.79975404,7.09375 0,6.294 0,5.3125 L 0,1.78125 C 0,0.79975 0.79975404,0 1.78125,0 z"
       transform="translate(0,1009.8425)"
       id="path2997" />
    <path
       style="fill:#000000;fill-opacity:1;stroke:none"
       d="m 19.25,10.21875 -1,0.21875 0,0.75 1.03125,-0.1875 0,2.8125 -1,0 0,0.78125 3.0625,0 0,-0.78125 -1,0 0,-3.59375 -1.09375,0 z m -4.15625,0 -1.03125,0.21875 0,0.75 1.03125,-0.1875 0,2.8125 -1,0 0,0.78125 3.0625,0 0,-0.78125 -1,0 0,-3.59375 -1.0625,0 z m -0.90625,-1.375 7.0625,0 c 0.981496,0 1.78125,0.79975 1.78125,1.78125 l 0,3.53125 c 0,0.9815 -0.799754,1.78125 -1.78125,1.78125 l -7.0625,0 c -0.981496,0 -1.78125,-0.79975 -1.78125,-1.78125 l 0,-3.53125 c 0,-0.9815 0.799754,-1.78125 1.78125,-1.78125 z"
       transform="translate(0,1009.8425)"
       id="path3003" />
    <path
       style="fill:#000000;fill-opacity:1;stroke:none"
       d="m 7.25,12.625 c 0.2089821,2e-6 0.3886694,0.07227 0.5,0.1875 0.1113254,0.113283 0.1562473,0.283205 0.15625,0.5 -2.7e-6,0.214845 -0.044925,0.384767 -0.15625,0.5 -0.1113306,0.113282 -0.2910179,0.156251 -0.5,0.15625 -0.2109394,10e-7 -0.3554705,-0.04297 -0.46875,-0.15625 -0.1132827,-0.115233 -0.1875014,-0.285155 -0.1875,-0.5 -1.4e-6,-0.214842 0.074217,-0.384764 0.1875,-0.5 C 6.8945295,12.697268 7.0390606,12.625002 7.25,12.625 z M 3.09375,10.90625 c 0.2421852,4e-6 0.398435,0.119144 0.5,0.34375 0.1035129,0.222659 0.1562472,0.609378 0.15625,1.15625 -2.8e-6,0.552736 -0.052737,0.929689 -0.15625,1.15625 -0.1035181,0.226563 -0.259768,0.343751 -0.5,0.34375 C 2.8515607,13.906251 2.666014,13.789063 2.5625,13.5625 2.4589829,13.335939 2.4062486,12.958986 2.40625,12.40625 2.4062486,11.859378 2.4589829,11.472659 2.5625,11.25 2.666014,11.025394 2.8515607,10.906254 3.09375,10.90625 z M 7.25,10.84375 c 0.175779,4e-6 0.3105445,0.0625 0.40625,0.15625 0.095701,0.0918 0.1562474,0.201175 0.15625,0.375 -2.6e-6,0.173831 -0.060549,0.312503 -0.15625,0.40625 -0.095706,0.09375 -0.230471,0.156253 -0.40625,0.15625 -0.1796894,3e-6 -0.3085955,-0.0625 -0.40625,-0.15625 C 6.7480453,11.687503 6.6874985,11.548831 6.6875,11.375 6.6874985,11.203128 6.7480453,11.093754 6.84375,11 6.9414045,10.906254 7.0703106,10.843754 7.25,10.84375 z m 0,-0.71875 c -0.5332047,4e-6 -0.9433605,0.119145 -1.21875,0.3125 -0.2753912,0.193363 -0.4062505,0.474613 -0.40625,0.84375 -5e-7,0.24805 0.083984,0.458987 0.21875,0.625 0.1347648,0.166018 0.328124,0.263674 0.59375,0.34375 -0.296876,0.08203 -0.535157,0.220705 -0.6875,0.40625 -0.1503911,0.183595 -0.2187504,0.437502 -0.21875,0.71875 -4e-7,0.433595 0.148437,0.746094 0.4375,0.96875 0.2910145,0.220703 0.7128891,0.34375 1.28125,0.34375 0.5664036,0 0.9941375,-0.123047 1.28125,-0.34375 C 8.8203088,14.121094 8.9687462,13.808595 8.96875,13.375 8.9687462,13.093752 8.90234,12.839845 8.75,12.65625 8.599606,12.470705 8.3593718,12.332033 8.0625,12.25 8.3281218,12.169924 8.552731,12.072268 8.6875,11.90625 8.8242151,11.740237 8.8749963,11.5293 8.875,11.28125 8.8749963,10.91016 8.7441371,10.62891 8.46875,10.4375 8.1933564,10.244145 7.7792943,10.125004 7.25,10.125 z m -4.15625,0 c -0.5761734,4e-6 -1.0312511,0.199223 -1.34375,0.59375 -0.3125004,0.392582 -0.4687503,0.96094 -0.46875,1.6875 -3e-7,0.724611 0.1562496,1.29297 0.46875,1.6875 0.3124989,0.392578 0.7675766,0.59375 1.34375,0.59375 0.5742161,0 0.9999969,-0.201172 1.3125,-0.59375 C 4.7187463,13.69922 4.8749961,13.130861 4.875,12.40625 4.8749961,11.67969 4.7187463,11.111332 4.40625,10.71875 4.0937469,10.324223 3.6679661,10.125004 3.09375,10.125 z m -1.3125,-1.28125 7.0625,0 c 0.981496,0 1.78125,0.79975 1.78125,1.78125 l 0,3.53125 c 0,0.9815 -0.799754,1.78125 -1.78125,1.78125 l -7.0625,0 C 0.79975408,15.9375 0,15.13775 0,14.15625 L 0,10.625 C 0,9.6435 0.79975408,8.84375 1.78125,8.84375 z"
       transform="translate(0,1009.8425)"
       id="path3009" />
    <path
       style="fill:#000000;fill-opacity:1;stroke:none"
       d="m 7.5,19.46875 1.34375,3.65625 1.125,0 1.34375,-3.65625 -0.9375,0 -0.96875,2.6875 -0.96875,-2.6875 -0.9375,0 z m -5.5625,0 -0.84375,0.1875 0,0.625 0.84375,-0.15625 0,2.34375 -0.84375,0 0,0.65625 2.5625,0 0,-0.65625 -0.84375,0 0,-3 -0.875,0 z m 3.6875,-0.0625 c -0.1985692,4e-6 -0.3870455,0.02507 -0.59375,0.0625 -0.2067066,0.03581 -0.4134121,0.08627 -0.625,0.15625 l 0,0.8125 c 0.1985671,-0.123695 0.3883456,-0.219398 0.5625,-0.28125 0.1741525,-0.06347 0.3222643,-0.09375 0.46875,-0.09375 0.1904281,3e-6 0.3548159,0.05209 0.46875,0.15625 0.1155579,0.104169 0.1562479,0.235354 0.15625,0.40625 -2.1e-6,0.110679 -0.00554,0.209963 -0.0625,0.3125 -0.056968,0.102541 -0.1624367,0.20508 -0.28125,0.3125 l -1.3125,1.1875 0,0.6875 2.625,0 0,-0.6875 -1.59375,0 L 6.21875,21.75 C 6.5475235,21.461916 6.7724582,21.2334 6.875,21.0625 6.9775361,20.889976 7.031247,20.69857 7.03125,20.5 7.031247,20.156578 6.8987601,19.879561 6.65625,19.6875 6.4153622,19.495446 6.0611958,19.406254 5.625,19.40625 z m -3.84375,-1.6875 8.84375,0 c 0.981496,0 1.78125,0.79975 1.78125,1.78125 l 0,3.53125 c 0,0.9815 -0.799754,1.78125 -1.78125,1.78125 l -8.84375,0 C 0.79975404,24.8125 0,24.01275 0,23.03125 L 0,19.5 c 0,-0.9815 0.79975404,-1.78125 1.78125,-1.78125 z"
       transform="translate(0,1009.8425)"
       id="path3015" />
    <path
       style="fill:#000000;fill-opacity:1;stroke:none"
       d="m 18.4375,20.0625 0.59375,1.75 -1.21875,0 0.625,-1.75 z m 7.15625,-1.03125 1.46875,2.15625 -1.53125,2.21875 1.1875,0 1.03125,-1.5 1,1.5 1.1875,0 -1.53125,-2.21875 1.46875,-2.15625 -1.1875,0 -0.9375,1.40625 -0.96875,-1.40625 -1.1875,0 z m -4.5,0 0,2.625 c -1e-6,0.619142 0.158202,1.072266 0.46875,1.375 C 21.873046,23.333984 22.365233,23.5 23,23.5 c 0.636716,0 1.0957,-0.166016 1.40625,-0.46875 0.310543,-0.302734 0.468746,-0.755858 0.46875,-1.375 l 0,-2.625 -1.125,0 0,2.625 c -3e-6,0.36133 -0.06836,0.625001 -0.1875,0.78125 -0.11719,0.154298 -0.292971,0.218751 -0.5625,0.21875 -0.26758,1e-6 -0.474611,-0.06445 -0.59375,-0.21875 -0.117189,-0.156249 -0.187502,-0.41992 -0.1875,-0.78125 l 0,-2.625 -1.125,0 z m -3.34375,0 -1.625,4.375 1.125,0 0.28125,-0.78125 1.78125,0 0.28125,0.78125 1.125,0 -1.625,-4.375 -1.34375,0 z m -1.8125,-1.3125 14.1875,0 c 0.981496,0 1.78125,0.79975 1.78125,1.78125 l 0,3.53125 c 0,0.9815 -0.799754,1.78125 -1.78125,1.78125 l -14.1875,0 c -0.981496,0 -1.78125,-0.79975 -1.78125,-1.78125 l 0,-3.53125 c 0,-0.9815 0.799754,-1.78125 1.78125,-1.78125 z"
       transform="translate(0,1009.8425)"
       id="path3021" />
  </g>
</svg>
