G04 start of page 10 for group -4079 idx -4079 *
G04 Title: (unknown), topsilk *
G04 Creator: pcb 1.99z *
G04 CreationDate: Wed 03 Sep 2014 19:39:49 GMT UTC *
G04 For: rbarlow *
G04 Format: Gerber/RS-274X *
G04 PCB-Dimensions (mm): 70.00 74.00 *
G04 PCB-Coordinate-Origin: lower left *
%MOMM*%
%FSLAX43Y43*%
%LNTOPSILK*%
%ADD145C,1.250*%
%ADD144C,0.500*%
%ADD143C,0.640*%
%ADD142C,0.250*%
%ADD141C,0.350*%
%ADD140C,0.300*%
%ADD139C,0.200*%
%ADD138C,0.150*%
%ADD137C,0.002*%
G54D137*G36*
X11790Y59031D02*X12034Y58943D01*
X11790Y58855D01*
Y59031D01*
G37*
G36*
Y59790D02*X12280D01*
X12474Y59750D01*
X12635Y59642D01*
X12744Y59482D01*
X12784Y59287D01*
Y56792D01*
X12744Y56596D01*
X12635Y56436D01*
X12474Y56327D01*
X12280Y56289D01*
X11790D01*
Y56836D01*
X12122D01*
Y56597D01*
X12306D01*
Y57321D01*
X12122D01*
Y57082D01*
X11790D01*
Y57888D01*
X12111Y57532D01*
X12306D01*
Y58273D01*
X12111D01*
Y57824D01*
X11917Y58044D01*
X11808Y58160D01*
X11790Y58176D01*
Y58595D01*
X12306Y58784D01*
Y59103D01*
X11790Y59292D01*
Y59790D01*
G37*
G36*
X10780Y56792D02*Y59287D01*
X10819Y59482D01*
X10928Y59642D01*
X11088Y59750D01*
X11285Y59790D01*
X11790D01*
Y59292D01*
X11273Y59482D01*
Y59217D01*
X11790Y59031D01*
Y58855D01*
X11273Y58670D01*
Y58405D01*
X11790Y58595D01*
Y58176D01*
X11726Y58229D01*
X11564Y58273D01*
X11433Y58245D01*
X11335Y58167D01*
X11275Y58041D01*
X11256Y57876D01*
X11273Y57708D01*
X11318Y57532D01*
X11549D01*
X11468Y57691D01*
X11442Y57824D01*
X11486Y57956D01*
X11600Y58000D01*
X11688Y57982D01*
X11777Y57902D01*
X11790Y57888D01*
Y57082D01*
X11273D01*
Y56836D01*
X11328Y56597D01*
X11505D01*
X11461Y56836D01*
X11790D01*
Y56289D01*
X11285D01*
X11088Y56327D01*
X10928Y56436D01*
X10819Y56596D01*
X10780Y56792D01*
G37*
G36*
X25590Y27187D02*X25723D01*
X25590Y26900D01*
Y27187D01*
G37*
G36*
Y27805D02*X26049D01*
X26244Y27766D01*
X26403Y27657D01*
X26512Y27498D01*
X26552Y27302D01*
Y26305D01*
X26512Y26111D01*
X26403Y25951D01*
X26244Y25842D01*
X26049Y25802D01*
X25590D01*
Y26229D01*
X26058Y27238D01*
Y27415D01*
X25590D01*
Y27805D01*
G37*
G36*
X24422D02*X25590D01*
Y27415D01*
X25123D01*
Y27187D01*
X25590D01*
Y26900D01*
X25264Y26191D01*
X25572D01*
X25590Y26229D01*
Y25802D01*
X24422D01*
Y26166D01*
X24426Y26165D01*
X24638Y26207D01*
X24796Y26332D01*
X24896Y26532D01*
X24929Y26797D01*
X24896Y27073D01*
X24796Y27276D01*
X24638Y27401D01*
X24426Y27444D01*
X24422Y27443D01*
Y27805D01*
G37*
G36*
X24057D02*X24422D01*
Y27443D01*
X24208Y27401D01*
X24047Y27276D01*
X23948Y27073D01*
X23915Y26797D01*
X23948Y26532D01*
X24047Y26332D01*
X24208Y26207D01*
X24422Y26166D01*
Y25802D01*
X24057D01*
X23861Y25842D01*
X23701Y25951D01*
X23592Y26111D01*
X23554Y26305D01*
Y27302D01*
X23592Y27498D01*
X23701Y27657D01*
X23861Y27766D01*
X24057Y27805D01*
G37*
G36*
X24426Y27223D02*X24511Y27204D01*
X24568Y27135D01*
X24600Y27007D01*
X24612Y26808D01*
X24600Y26606D01*
X24568Y26474D01*
X24511Y26400D01*
X24426Y26376D01*
X24336Y26400D01*
X24277Y26474D01*
X24242Y26606D01*
X24233Y26808D01*
X24242Y27007D01*
X24277Y27135D01*
X24336Y27204D01*
X24426Y27223D01*
G37*
G36*
X45439Y32909D02*X45849D01*
X46044Y32870D01*
X46203Y32762D01*
X46312Y32602D01*
X46352Y32406D01*
Y31410D01*
X46312Y31215D01*
X46203Y31056D01*
X46044Y30947D01*
X45849Y30907D01*
X45439D01*
Y31286D01*
X45875D01*
Y31506D01*
X45593D01*
Y32520D01*
X45439D01*
Y32909D01*
G37*
G36*
X44258D02*X45439D01*
Y32520D01*
X45284D01*
X45003Y32457D01*
Y32247D01*
X45294Y32300D01*
Y31506D01*
X45012D01*
Y31286D01*
X45439D01*
Y30907D01*
X44258D01*
Y31286D01*
X44695D01*
Y31506D01*
X44412D01*
Y32520D01*
X44258D01*
Y32909D01*
G37*
G36*
X43857D02*X44258D01*
Y32520D01*
X44112D01*
X43821Y32457D01*
Y32247D01*
X44112Y32300D01*
Y31506D01*
X43829D01*
Y31286D01*
X44258D01*
Y30907D01*
X43857D01*
X43661Y30947D01*
X43501Y31056D01*
X43392Y31215D01*
X43354Y31410D01*
Y32406D01*
X43392Y32602D01*
X43501Y32762D01*
X43661Y32870D01*
X43857Y32909D01*
G37*
G36*
X25607Y50607D02*X26052D01*
X26247Y50569D01*
X26407Y50460D01*
X26515Y50300D01*
X26555Y50104D01*
Y49108D01*
X26515Y48914D01*
X26407Y48754D01*
X26247Y48645D01*
X26052Y48605D01*
X25607D01*
Y48968D01*
X25819Y49010D01*
X25982Y49134D01*
X26081Y49334D01*
X26114Y49600D01*
X26081Y49876D01*
X25982Y50078D01*
X25819Y50204D01*
X25607Y50245D01*
Y50607D01*
G37*
G36*
X24425D02*X25607D01*
Y50245D01*
X25603Y50246D01*
X25390Y50204D01*
X25232Y50078D01*
X25133Y49876D01*
X25100Y49600D01*
X25133Y49334D01*
X25232Y49134D01*
X25390Y49010D01*
X25603Y48967D01*
X25607Y48968D01*
Y48605D01*
X24425D01*
Y48968D01*
X24430Y48967D01*
X24641Y49010D01*
X24800Y49134D01*
X24899Y49334D01*
X24932Y49600D01*
X24899Y49876D01*
X24800Y50078D01*
X24641Y50204D01*
X24430Y50246D01*
X24425Y50245D01*
Y50607D01*
G37*
G36*
X24060D02*X24425D01*
Y50245D01*
X24211Y50204D01*
X24050Y50078D01*
X23951Y49876D01*
X23918Y49600D01*
X23951Y49334D01*
X24050Y49134D01*
X24211Y49010D01*
X24425Y48968D01*
Y48605D01*
X24060D01*
X23864Y48645D01*
X23704Y48754D01*
X23595Y48914D01*
X23557Y49108D01*
Y50104D01*
X23595Y50300D01*
X23704Y50460D01*
X23864Y50569D01*
X24060Y50607D01*
G37*
G36*
X25603Y50026D02*X25693Y50006D01*
X25753Y49938D01*
X25785Y49809D01*
X25798Y49611D01*
X25785Y49408D01*
X25753Y49276D01*
X25691Y49203D01*
X25603Y49178D01*
X25518Y49203D01*
X25461Y49276D01*
X25428Y49408D01*
X25417Y49611D01*
X25428Y49809D01*
X25461Y49938D01*
X25518Y50006D01*
X25603Y50026D01*
G37*
G36*
X24430D02*X24514Y50006D01*
X24571Y49938D01*
X24603Y49809D01*
X24615Y49611D01*
X24603Y49408D01*
X24571Y49276D01*
X24514Y49203D01*
X24430Y49178D01*
X24340Y49203D01*
X24280Y49276D01*
X24247Y49408D01*
X24236Y49611D01*
X24247Y49809D01*
X24280Y49938D01*
X24340Y50006D01*
X24430Y50026D01*
G37*
G36*
X30795Y41401D02*X31487Y41800D01*
Y41504D01*
X32951D01*
Y41302D01*
X31487D01*
Y41001D01*
X30795Y41401D01*
G37*
G36*
X39018Y33700D02*X38326Y33301D01*
Y33605D01*
X36860D01*
Y33799D01*
X38326D01*
Y34101D01*
X39018Y33700D01*
G37*
G36*
X34875Y35040D02*X34954D01*
X35104Y35006D01*
X35148Y34900D01*
X35104Y34785D01*
X34954Y34758D01*
X34875D01*
Y35040D01*
G37*
G36*
X36004Y35164D02*X36154D01*
X36004Y35084D01*
Y35164D01*
G37*
G36*
Y34114D02*X36100D01*
Y34246D01*
X36259D01*
X36268Y34194D01*
X36277Y34132D01*
X36259Y34022D01*
X36206Y33938D01*
X36120Y33891D01*
X36004Y33876D01*
X36004Y33876D01*
Y34114D01*
G37*
G36*
X36312Y40796D02*X36321Y40791D01*
X36339Y40677D01*
X36321Y40552D01*
X36312Y40525D01*
Y40796D01*
G37*
G36*
Y39401D02*X36339Y39327D01*
X36321Y39195D01*
X36312Y39174D01*
Y39401D01*
G37*
G36*
Y41571D02*X36348Y41564D01*
X36508Y41455D01*
X36616Y41295D01*
X36656Y41099D01*
Y33603D01*
X36616Y33409D01*
X36508Y33249D01*
X36348Y33140D01*
X36312Y33132D01*
Y33779D01*
X36312Y33780D01*
X36398Y33921D01*
X36427Y34106D01*
X36409Y34282D01*
X36357Y34441D01*
X36312D01*
Y34626D01*
X36419D01*
Y34830D01*
X36312D01*
Y35072D01*
X36419Y35128D01*
Y35367D01*
X36312D01*
Y35579D01*
X36419D01*
Y35800D01*
X36410Y35964D01*
X36391Y36081D01*
X36312Y36212D01*
Y37263D01*
X36453D01*
Y37546D01*
X36312D01*
Y39053D01*
X36435D01*
X36479Y39195D01*
X36497Y39354D01*
X36468Y39544D01*
X36383Y39688D01*
X36312Y39737D01*
Y39971D01*
X36479D01*
Y40182D01*
X36312D01*
Y40420D01*
X36453D01*
X36479Y40570D01*
X36497Y40711D01*
X36478Y40843D01*
X36427Y40941D01*
X36348Y41000D01*
X36312Y41007D01*
Y41571D01*
G37*
G36*
Y40182D02*X36004D01*
Y40406D01*
X36066Y40430D01*
X36154Y40623D01*
X36170Y40711D01*
X36206Y40799D01*
X36250Y40827D01*
X36312Y40796D01*
Y40525D01*
X36277Y40420D01*
X36312D01*
Y40182D01*
G37*
G36*
Y39737D02*X36245Y39782D01*
X36066Y39812D01*
X36004Y39801D01*
Y39971D01*
X36312D01*
Y39737D01*
G37*
G36*
Y36212D02*X36295Y36240D01*
X36170Y36319D01*
X36004Y36355D01*
X36004Y36355D01*
Y39027D01*
X36110D01*
Y39354D01*
X36004D01*
Y39582D01*
X36066Y39592D01*
X36182Y39574D01*
X36268Y39520D01*
X36312Y39401D01*
Y39174D01*
X36259Y39053D01*
X36312D01*
Y37546D01*
X36170D01*
Y37263D01*
X36312D01*
Y36212D01*
G37*
G36*
Y35367D02*X36004D01*
Y35579D01*
X36312D01*
Y35367D01*
G37*
G36*
Y34830D02*X36004D01*
Y34909D01*
X36312Y35072D01*
Y34830D01*
G37*
G36*
Y34441D02*X36004D01*
Y34626D01*
X36312D01*
Y34441D01*
G37*
G36*
Y33132D02*X36154Y33100D01*
X36004D01*
Y33655D01*
X36004Y33655D01*
X36178Y33688D01*
X36312Y33779D01*
Y33132D01*
G37*
G36*
X36004Y41602D02*X36154D01*
X36312Y41571D01*
Y41007D01*
X36242Y41020D01*
X36082Y40967D01*
X36004Y40802D01*
Y41602D01*
G37*
G36*
Y39354D02*X35968D01*
Y39221D01*
X35810D01*
X35801Y39274D01*
X35792Y39336D01*
X35862Y39520D01*
X35949Y39573D01*
X36004Y39582D01*
Y39354D01*
G37*
G36*
Y34830D02*X35854D01*
X36004Y34909D01*
Y34830D01*
G37*
G36*
X35748Y33737D02*X35823Y33687D01*
X36004Y33655D01*
Y33100D01*
X35748D01*
Y33737D01*
G37*
G36*
Y34626D02*X36004D01*
Y34441D01*
X35960D01*
Y34114D01*
X36004D01*
Y33876D01*
X35801Y33947D01*
X35748Y34090D01*
Y34274D01*
X35810Y34415D01*
X35748D01*
Y34626D01*
G37*
G36*
Y35164D02*X36004D01*
Y35084D01*
X35748Y34948D01*
Y35164D01*
G37*
G36*
Y35579D02*X36004D01*
Y35367D01*
X35748D01*
Y35579D01*
G37*
G36*
Y39027D02*X36004D01*
Y36355D01*
X35836Y36319D01*
X35748Y36263D01*
Y37263D01*
X35890D01*
Y37546D01*
X35748D01*
Y39027D01*
G37*
G36*
Y39971D02*X36004D01*
Y39801D01*
X35890Y39781D01*
X35757Y39688D01*
X35748Y39674D01*
Y39971D01*
G37*
G36*
Y40422D02*X35787Y40393D01*
X35906Y40368D01*
X36004Y40406D01*
Y40182D01*
X35748D01*
Y40422D01*
G37*
G36*
Y41602D02*X36004D01*
Y40802D01*
X35994Y40782D01*
X35978Y40703D01*
X35942Y40596D01*
X35880Y40578D01*
X35818Y40614D01*
X35792Y40720D01*
X35818Y40861D01*
X35880Y41011D01*
X35748D01*
Y41602D01*
G37*
G36*
Y34090D02*X35730Y34140D01*
X35748Y34273D01*
X35748Y34274D01*
Y34090D01*
G37*
G36*
X35183Y41602D02*X35748D01*
Y41011D01*
X35695D01*
X35651Y40853D01*
X35641Y40694D01*
X35655Y40554D01*
X35703Y40456D01*
X35748Y40422D01*
Y40182D01*
X35659D01*
Y39971D01*
X35748D01*
Y39674D01*
X35670Y39548D01*
X35641Y39362D01*
X35659Y39185D01*
X35721Y39027D01*
X35748D01*
Y37546D01*
X35607D01*
Y37263D01*
X35748D01*
Y36263D01*
X35713Y36240D01*
X35615Y36081D01*
X35589Y35800D01*
Y35579D01*
X35748D01*
Y35367D01*
X35589D01*
Y35164D01*
X35748D01*
Y34948D01*
X35589Y34864D01*
Y34626D01*
X35748D01*
Y34415D01*
X35633D01*
X35589Y34273D01*
X35581Y34114D01*
X35604Y33924D01*
X35686Y33780D01*
X35748Y33737D01*
Y33100D01*
X35183D01*
Y33642D01*
X35289Y33603D01*
Y33823D01*
X35183Y33855D01*
Y34218D01*
X35289Y34256D01*
Y34467D01*
X35183Y34429D01*
Y34605D01*
X35218Y34626D01*
X35279Y34740D01*
X35298Y34900D01*
X35279Y35055D01*
X35218Y35164D01*
X35183Y35185D01*
Y35448D01*
X35289Y35375D01*
Y35596D01*
X35183Y35668D01*
Y35911D01*
X35289Y35984D01*
Y36205D01*
X35183Y36132D01*
Y37263D01*
X35324D01*
Y37546D01*
X35183D01*
Y38296D01*
X35351Y38233D01*
Y38445D01*
X35183Y38506D01*
Y38826D01*
X35351Y38886D01*
Y39097D01*
X35183Y39034D01*
Y39600D01*
X35192D01*
Y39239D01*
X35351D01*
Y39768D01*
X35183D01*
Y40809D01*
X35192D01*
Y40456D01*
X35351D01*
Y40985D01*
X35183D01*
Y41602D01*
G37*
G36*
Y39768D02*X34883D01*
X34928Y39652D01*
X34936Y39556D01*
X34902Y39432D01*
X34875Y39421D01*
Y40409D01*
X34915Y40418D01*
X35007Y40482D01*
X35061Y40580D01*
X35078Y40711D01*
Y40765D01*
X35068Y40809D01*
X35183D01*
Y39768D01*
G37*
G36*
Y39034D02*X34875Y38918D01*
Y39193D01*
X34915Y39201D01*
X35007Y39265D01*
X35061Y39363D01*
X35078Y39494D01*
Y39548D01*
X35068Y39600D01*
X35183D01*
Y39034D01*
G37*
G36*
Y38506D02*X34875Y38618D01*
Y38714D01*
X35183Y38826D01*
Y38506D01*
G37*
G36*
Y36132D02*X34875Y35920D01*
Y38412D01*
X35183Y38296D01*
Y37546D01*
X35042D01*
Y37263D01*
X35183D01*
Y36132D01*
G37*
G36*
Y35668D02*X35007Y35790D01*
X35183Y35911D01*
Y35668D01*
G37*
G36*
Y35185D02*X35108Y35230D01*
X34954Y35252D01*
X34875D01*
Y35661D01*
X35183Y35448D01*
Y35185D01*
G37*
G36*
Y34429D02*X34875Y34318D01*
Y34537D01*
X34954D01*
X35108Y34561D01*
X35183Y34605D01*
Y34429D01*
G37*
G36*
Y33855D02*X35140Y33868D01*
Y34202D01*
X35183Y34218D01*
Y33855D01*
G37*
G36*
Y33100D02*X34875D01*
Y33757D01*
X35183Y33642D01*
Y33100D01*
G37*
G36*
X34875Y41602D02*X35183D01*
Y40985D01*
X34883D01*
X34928Y40871D01*
X34936Y40773D01*
X34902Y40650D01*
X34875Y40639D01*
Y41602D01*
G37*
G36*
Y38618D02*X34743Y38666D01*
X34875Y38714D01*
Y38618D01*
G37*
G36*
X33746Y39873D02*X33966D01*
X33746Y39756D01*
Y39873D01*
G37*
G36*
Y35349D02*X33843D01*
Y35481D01*
X34002D01*
X34010Y35429D01*
X34019Y35367D01*
X34002Y35257D01*
X33949Y35173D01*
X33861Y35126D01*
X33746Y35110D01*
Y35349D01*
G37*
G36*
X34619Y33852D02*X34875Y33757D01*
Y33100D01*
X34619D01*
Y33852D01*
G37*
G36*
Y34537D02*X34875D01*
Y34318D01*
X34619Y34225D01*
Y34537D01*
G37*
G36*
Y35040D02*X34875D01*
Y34758D01*
X34619D01*
Y35040D01*
G37*
G36*
Y35495D02*X34865Y35667D01*
X34875Y35661D01*
Y35252D01*
X34619D01*
Y35495D01*
G37*
G36*
Y35861D02*X34725Y35790D01*
X34619Y35719D01*
Y35861D01*
G37*
G36*
Y38509D02*X34875Y38412D01*
Y35920D01*
X34865Y35914D01*
X34619Y36086D01*
Y37263D01*
X34760D01*
Y37546D01*
X34619D01*
Y38509D01*
G37*
G36*
Y39246D02*X34674Y39203D01*
X34795Y39177D01*
X34875Y39193D01*
Y38918D01*
X34619Y38822D01*
Y39246D01*
G37*
G36*
Y40456D02*X34674Y40416D01*
X34795Y40394D01*
X34875Y40409D01*
Y39421D01*
X34795Y39388D01*
X34689Y39432D01*
X34655Y39556D01*
X34671Y39670D01*
X34733Y39803D01*
X34619D01*
Y40005D01*
X34743D01*
Y40200D01*
X34619D01*
Y40456D01*
G37*
G36*
Y41602D02*X34875D01*
Y40639D01*
X34795Y40606D01*
X34689Y40650D01*
X34655Y40773D01*
X34671Y40887D01*
X34733Y41011D01*
X34619D01*
Y41602D01*
G37*
G36*
X34055Y40634D02*X34081Y40562D01*
X34064Y40430D01*
X34055Y40410D01*
Y40634D01*
G37*
G36*
Y41602D02*X34619D01*
Y41011D01*
X34566D01*
X34522Y40879D01*
X34513Y40738D01*
X34529Y40592D01*
X34583Y40482D01*
X34619Y40456D01*
Y40200D01*
X34531D01*
Y40005D01*
X34619D01*
Y39803D01*
X34566D01*
X34522Y39662D01*
X34513Y39520D01*
X34529Y39380D01*
X34583Y39274D01*
X34619Y39246D01*
Y38822D01*
X34531Y38789D01*
Y38542D01*
X34619Y38509D01*
Y37546D01*
X34478D01*
Y37263D01*
X34619D01*
Y36086D01*
X34460Y36196D01*
Y35966D01*
X34619Y35861D01*
Y35719D01*
X34460Y35614D01*
Y35385D01*
X34619Y35495D01*
Y35252D01*
X34460D01*
Y35040D01*
X34619D01*
Y34758D01*
X34460D01*
Y34537D01*
X34619D01*
Y34225D01*
X34460Y34168D01*
Y33912D01*
X34619Y33852D01*
Y33100D01*
X34055D01*
Y33691D01*
X34116D01*
X34160Y33850D01*
X34170Y34000D01*
X34154Y34144D01*
X34108Y34246D01*
X34055Y34287D01*
Y34521D01*
X34160D01*
Y34731D01*
X34055D01*
Y35016D01*
X34141Y35156D01*
X34170Y35341D01*
X34152Y35517D01*
X34098Y35676D01*
X34055D01*
Y37263D01*
X34196D01*
Y37546D01*
X34055D01*
Y38431D01*
X34108Y38462D01*
X34196Y38622D01*
X34222Y38903D01*
Y39123D01*
X34055D01*
Y39336D01*
X34222D01*
Y39538D01*
X34055D01*
Y39750D01*
X34222Y39839D01*
Y40067D01*
X34055D01*
Y40288D01*
X34178D01*
X34222Y40430D01*
X34240Y40588D01*
X34211Y40778D01*
X34126Y40923D01*
X34055Y40971D01*
Y41602D01*
G37*
G36*
Y40067D02*X33746D01*
Y40262D01*
X33851D01*
Y40588D01*
X33746D01*
Y40817D01*
X33807Y40827D01*
X33923Y40809D01*
X34010Y40755D01*
X34055Y40634D01*
Y40410D01*
X34002Y40288D01*
X34055D01*
Y40067D01*
G37*
G36*
Y39538D02*X33746D01*
Y39585D01*
X34055Y39750D01*
Y39538D01*
G37*
G36*
Y39123D02*X33746D01*
Y39336D01*
X34055D01*
Y39123D01*
G37*
G36*
Y35676D02*X33746D01*
Y38361D01*
X33807Y38348D01*
X33975Y38384D01*
X34055Y38431D01*
Y37546D01*
X33913D01*
Y37263D01*
X34055D01*
Y35676D01*
G37*
G36*
Y34731D02*X33746D01*
Y34890D01*
X33920Y34923D01*
X34054Y35014D01*
X34055Y35016D01*
Y34731D01*
G37*
G36*
Y34287D02*X34022Y34311D01*
X33905Y34335D01*
X33746Y34273D01*
Y34521D01*
X34055D01*
Y34287D01*
G37*
G36*
Y33100D02*X33746D01*
Y33771D01*
X33817Y33920D01*
X33833Y34000D01*
X33869Y34096D01*
X33931Y34124D01*
X33993Y34088D01*
X34019Y33982D01*
X34002Y33841D01*
X33931Y33691D01*
X34055D01*
Y33100D01*
G37*
G36*
X33746Y41602D02*X34055D01*
Y40971D01*
X33986Y41017D01*
X33807Y41047D01*
X33746Y41036D01*
Y41602D01*
G37*
G36*
Y40588D02*X33711D01*
Y40456D01*
X33552D01*
X33543Y40508D01*
X33534Y40570D01*
X33605Y40755D01*
X33690Y40807D01*
X33746Y40817D01*
Y40588D01*
G37*
G36*
Y39538D02*X33657D01*
X33746Y39585D01*
Y39538D01*
G37*
G36*
X33499Y33696D02*X33569Y33683D01*
X33729Y33735D01*
X33746Y33771D01*
Y33100D01*
X33657D01*
X33499Y33132D01*
Y33696D01*
G37*
G36*
Y34521D02*X33746D01*
Y34273D01*
X33745Y34273D01*
X33657Y34080D01*
X33640Y33992D01*
X33613Y33894D01*
X33561Y33876D01*
X33499Y33907D01*
Y34167D01*
X33534Y34273D01*
X33499D01*
Y34521D01*
G37*
G36*
Y34966D02*X33565Y34922D01*
X33745Y34890D01*
X33746Y34890D01*
Y34731D01*
X33499D01*
Y34966D01*
G37*
G36*
Y38493D02*X33516Y38462D01*
X33640Y38384D01*
X33746Y38361D01*
Y35676D01*
X33701D01*
Y35349D01*
X33746D01*
Y35110D01*
X33745Y35110D01*
X33628Y35130D01*
X33543Y35182D01*
X33499Y35302D01*
Y35528D01*
X33552Y35649D01*
X33499D01*
Y37263D01*
X33640D01*
Y37546D01*
X33499D01*
Y38493D01*
G37*
G36*
Y39336D02*X33746D01*
Y39123D01*
X33499D01*
Y39336D01*
G37*
G36*
Y39873D02*X33746D01*
Y39756D01*
X33499Y39625D01*
Y39873D01*
G37*
G36*
Y40262D02*X33746D01*
Y40067D01*
X33499D01*
Y40262D01*
G37*
G36*
X33657Y41602D02*X33746D01*
Y41036D01*
X33632Y41015D01*
X33499Y40924D01*
Y41571D01*
X33657Y41602D01*
G37*
G36*
X33499Y33907D02*X33490Y33912D01*
X33472Y34026D01*
X33490Y34140D01*
X33499Y34167D01*
Y33907D01*
G37*
G36*
Y35302D02*X33472Y35375D01*
X33490Y35507D01*
X33499Y35528D01*
Y35302D01*
G37*
G36*
Y40924D02*X33499Y40923D01*
X33412Y40782D01*
X33384Y40596D01*
X33402Y40420D01*
X33464Y40262D01*
X33499D01*
Y40067D01*
X33402D01*
Y39873D01*
X33499D01*
Y39625D01*
X33402Y39574D01*
Y39336D01*
X33499D01*
Y39123D01*
X33402D01*
Y38903D01*
X33408Y38740D01*
X33428Y38622D01*
X33499Y38493D01*
Y37546D01*
X33358D01*
Y37263D01*
X33499D01*
Y35649D01*
X33376D01*
X33332Y35507D01*
X33322Y35349D01*
X33346Y35159D01*
X33428Y35014D01*
X33499Y34966D01*
Y34731D01*
X33332D01*
Y34521D01*
X33499D01*
Y34273D01*
X33358D01*
X33332Y34132D01*
X33322Y33992D01*
X33336Y33861D01*
X33384Y33761D01*
X33461Y33704D01*
X33499Y33696D01*
Y33132D01*
X33461Y33140D01*
X33302Y33249D01*
X33194Y33409D01*
X33156Y33603D01*
Y41099D01*
X33194Y41295D01*
X33302Y41455D01*
X33461Y41564D01*
X33499Y41571D01*
Y40924D01*
G37*
G36*
X34980Y34150D02*Y33920D01*
X34655Y34036D01*
X34980Y34150D01*
G37*
G36*
X36004Y36134D02*X36188Y36064D01*
X36235Y35977D01*
X36250Y35860D01*
Y35790D01*
X35748D01*
Y35860D01*
X35765Y35979D01*
X35818Y36064D01*
X36004Y36134D01*
G37*
G36*
X33561Y38912D02*X34064D01*
Y38832D01*
X34044Y38721D01*
X33993Y38638D01*
X33807Y38568D01*
X33623Y38638D01*
X33574Y38721D01*
X33561Y38832D01*
Y38912D01*
G37*
G36*
X58486Y49355D02*X58607D01*
X58738Y49341D01*
X58827Y49302D01*
X58874Y49239D01*
X58889Y49142D01*
X58874Y49043D01*
X58827Y48976D01*
X58738Y48936D01*
X58607Y48922D01*
X58486D01*
Y49355D01*
G37*
G36*
Y51656D02*X58996D01*
X59190Y51616D01*
X59351Y51509D01*
X59460Y51349D01*
X59500Y51154D01*
Y47150D01*
X59460Y46954D01*
X59351Y46794D01*
X59190Y46686D01*
X58996Y46647D01*
X58486D01*
Y47432D01*
X59103Y47202D01*
Y47521D01*
X58882Y47599D01*
Y48102D01*
X59103Y48182D01*
Y48499D01*
X58486Y48270D01*
Y48605D01*
X58607D01*
X58834Y48638D01*
X58996Y48737D01*
X59093Y48906D01*
X59128Y49142D01*
X59093Y49375D01*
X58996Y49540D01*
X58834Y49639D01*
X58607Y49672D01*
X58486D01*
Y50282D01*
X59103Y49858D01*
Y50193D01*
X58677Y50483D01*
X59103Y50766D01*
Y51101D01*
X58486Y50677D01*
Y51656D01*
G37*
G36*
X57496Y47150D02*Y51154D01*
X57535Y51349D01*
X57644Y51509D01*
X57804Y51616D01*
X58001Y51656D01*
X58486D01*
Y50677D01*
X58475Y50670D01*
X57868Y51083D01*
Y50748D01*
X58265Y50483D01*
X57868Y50211D01*
Y49876D01*
X58475Y50289D01*
X58486Y50282D01*
Y49672D01*
X57868D01*
Y49355D01*
X58486D01*
Y48922D01*
X57868D01*
Y48605D01*
X58486D01*
Y48270D01*
X57868Y48040D01*
Y47661D01*
X58486Y47432D01*
Y46647D01*
X58001D01*
X57804Y46686D01*
X57644Y46794D01*
X57535Y46954D01*
X57496Y47150D01*
G37*
G36*
X58158Y47856D02*X58651Y48024D01*
Y47679D01*
X58158Y47856D01*
G37*
G36*
X45398Y44439D02*X45539Y44389D01*
X45583Y44248D01*
X45539Y44106D01*
X45398Y44062D01*
X45266Y44106D01*
X45212Y44248D01*
X45266Y44389D01*
X45398Y44439D01*
G37*
G36*
Y44944D02*X45513Y44900D01*
X45557Y44793D01*
X45513Y44679D01*
X45398Y44636D01*
X45284Y44679D01*
X45240Y44793D01*
X45284Y44900D01*
X45398Y44944D01*
G37*
G36*
X45398Y45509D02*X45848D01*
X46042Y45470D01*
X46202Y45362D01*
X46311Y45201D01*
X46351Y45006D01*
Y44010D01*
X46311Y43815D01*
X46202Y43656D01*
X46042Y43547D01*
X45848Y43507D01*
X45398D01*
Y43860D01*
X45398Y43860D01*
X45608Y43884D01*
X45760Y43954D01*
X45852Y44072D01*
X45883Y44230D01*
X45822Y44433D01*
X45627Y44547D01*
X45804Y44645D01*
X45857Y44821D01*
X45828Y44959D01*
X45742Y45057D01*
X45597Y45123D01*
X45398Y45145D01*
X45398Y45145D01*
Y45509D01*
G37*
G36*
X44220D02*X45398D01*
Y45145D01*
X45199Y45123D01*
X45054Y45057D01*
X44967Y44959D01*
X44940Y44821D01*
X45002Y44645D01*
X45168Y44547D01*
X44975Y44433D01*
X44913Y44230D01*
X44944Y44072D01*
X45036Y43954D01*
X45188Y43884D01*
X45398Y43860D01*
Y43507D01*
X44220D01*
Y43861D01*
X44226Y43860D01*
X44437Y43902D01*
X44595Y44028D01*
X44694Y44230D01*
X44727Y44503D01*
X44694Y44777D01*
X44595Y44980D01*
X44437Y45105D01*
X44226Y45145D01*
X44220Y45144D01*
Y45509D01*
G37*
G36*
X43855D02*X44220D01*
Y45144D01*
X44007Y45105D01*
X43845Y44980D01*
X43746Y44777D01*
X43713Y44503D01*
X43746Y44230D01*
X43845Y44028D01*
X44007Y43902D01*
X44220Y43861D01*
Y43507D01*
X43855D01*
X43659Y43547D01*
X43500Y43656D01*
X43391Y43815D01*
X43352Y44010D01*
Y45006D01*
X43391Y45201D01*
X43500Y45362D01*
X43659Y45470D01*
X43855Y45509D01*
G37*
G36*
X44226Y44925D02*X44310Y44901D01*
X44366Y44830D01*
X44398Y44702D01*
X44410Y44503D01*
X44398Y44306D01*
X44366Y44175D01*
X44310Y44105D01*
X44226Y44080D01*
X44135Y44105D01*
X44075Y44175D01*
X44042Y44306D01*
X44032Y44503D01*
X44042Y44702D01*
X44075Y44830D01*
X44135Y44901D01*
X44226Y44925D01*
G37*
G54D138*X49500Y12343D02*X49703Y12546D01*
Y11530D01*
X49500D02*X49881D01*
X43450Y46200D02*X45350D01*
X43450Y47200D02*X45350D01*
Y46200D01*
X43450Y47200D02*Y46200D01*
G54D139*X43050Y50550D02*X45750D01*
X43050Y47250D02*X45750D01*
X43050Y50550D02*Y47250D01*
X45750Y50550D02*Y47250D01*
X46400Y47000D02*X50800D01*
X46400Y50600D02*X50800D01*
Y47000D01*
X46400Y50600D02*Y47000D01*
G54D140*X50900Y47900D02*Y46900D01*
X49900D02*X50900D01*
G54D138*X47250Y51800D02*X49150D01*
X47250Y50800D02*X49150D01*
X47250Y51800D02*Y50800D01*
X49150Y51800D02*Y50800D01*
G54D139*X52350Y55600D02*X57050D01*
X52350Y52400D02*X57050D01*
X52350Y55600D02*Y52400D01*
X57050Y55600D02*Y52400D01*
X46000Y55750D02*X52000D01*
X46000Y52250D02*X52000D01*
X46000Y55750D02*Y52250D01*
X52000Y55750D02*Y52250D01*
X52100Y55850D02*Y52150D01*
X49800Y55850D02*X52100D01*
G54D141*X50200Y55550D02*X51900D01*
G54D139*X49800Y52150D02*X52100D01*
G54D141*X50200Y52450D02*X51900D01*
G54D142*X44800Y68000D02*Y56000D01*
X56000Y68000D02*Y56000D01*
X44800D02*X56000D01*
X44800Y68000D02*X56000D01*
X53760Y64000D02*X56000D01*
X49280D02*X51520D01*
X44800D02*X47040D01*
G54D139*X57550Y63450D02*Y60350D01*
X56050Y63450D02*Y60350D01*
Y63450D02*X57550D01*
X56050Y60350D02*X57550D01*
G54D138*X58600Y54150D02*Y52250D01*
X59600Y54150D02*Y52250D01*
X58600D02*X59600D01*
X58600Y54150D02*X59600D01*
G54D139*X56200Y60300D02*Y55900D01*
X59800Y60300D02*Y55900D01*
X56200D02*X59800D01*
X56200Y60300D02*X59800D01*
G54D140*X56100Y55800D02*X57100D01*
X56100Y56800D02*Y55800D01*
G54D138*X57400Y54400D02*X59800D01*
X57400Y55600D02*X59800D01*
Y54400D01*
X57400Y55600D02*Y54400D01*
X57300Y55700D02*Y54300D01*
X58100D01*
X57300Y55700D02*X58100D01*
G54D139*X33150Y42050D02*X37850D01*
X33150Y44350D02*X37850D01*
Y42050D01*
X33150Y44350D02*Y42050D01*
Y44350D02*X37850D01*
X33150Y46650D02*X37850D01*
Y44350D01*
X33150Y46650D02*Y44350D01*
G54D138*X31200Y53750D02*Y51850D01*
X32200Y53750D02*Y51850D01*
X31200D02*X32200D01*
X31200Y53750D02*X32200D01*
X32480Y51420D02*X44680D01*
X32480Y63620D02*X44680D01*
X32480D02*Y51420D01*
X44680Y63620D02*Y51420D01*
X44880Y52520D02*Y51220D01*
X43580D02*X44880D01*
Y52520D02*X43580Y51220D01*
X44880Y52320D02*X43780Y51220D01*
X44880Y52120D02*X43980Y51220D01*
X44880Y51920D02*X44180Y51220D01*
X44880Y51720D02*X44380Y51220D01*
X44880Y51520D02*X44580Y51220D01*
X44880Y51320D02*X44780Y51220D01*
G54D139*X33150Y46650D02*X37850D01*
X33150Y48950D02*X37850D01*
Y46650D01*
X33150Y48950D02*Y46650D01*
Y48950D02*X37850D01*
X33150Y51250D02*X37850D01*
Y48950D01*
X33150Y51250D02*Y48950D01*
X38050Y51300D02*X42750D01*
X38050Y48100D02*X42750D01*
X38050Y51300D02*Y48100D01*
X42750Y51300D02*Y48100D01*
X38050D02*X42750D01*
X38050Y44900D02*X42750D01*
X38050Y48100D02*Y44900D01*
X42750Y48100D02*Y44900D01*
X38050D02*X42750D01*
X38050Y41700D02*X42750D01*
X38050Y44900D02*Y41700D01*
X42750Y44900D02*Y41700D01*
X43150Y43000D02*X46650D01*
X43150Y41000D02*X46650D01*
X43150Y43000D02*Y41000D01*
X46650Y43000D02*Y41000D01*
G54D140*X42900Y42000D02*X43050D01*
G54D139*X45025Y43000D02*Y41000D01*
X44725Y42000D02*X45025D01*
G54D138*X51750Y51800D02*X53650D01*
X51750Y50800D02*X53650D01*
X51750Y51800D02*Y50800D01*
X53650Y51800D02*Y50800D01*
X55550D01*
X53650Y51800D02*X55550D01*
Y50800D01*
X53650Y51800D02*Y50800D01*
G54D139*X52700Y50600D02*X57100D01*
X52700Y47000D02*X57100D01*
X52700Y50600D02*Y47000D01*
X57100Y50600D02*Y47000D01*
G54D140*X52600Y50700D02*Y49700D01*
Y50700D02*X53600D01*
G54D138*X49200Y51900D02*X51600D01*
X49200Y50700D02*X51600D01*
X49200Y51900D02*Y50700D01*
X51600Y51900D02*Y50700D01*
X51700Y52000D02*Y50600D01*
X50900Y52000D02*X51700D01*
X50900Y50600D02*X51700D01*
X49000Y46100D02*Y43700D01*
X47800Y46100D02*Y43700D01*
Y46100D02*X49000D01*
X47800Y43700D02*X49000D01*
X47700Y43600D02*X49100D01*
Y44400D02*Y43600D01*
X47700Y44400D02*Y43600D01*
X58500Y45850D02*Y43950D01*
X59500Y45850D02*Y43950D01*
X58500D02*X59500D01*
X58500Y45850D02*X59500D01*
G54D139*X54650Y45900D02*X58150D01*
X54650Y43900D02*X58150D01*
X54650Y45900D02*Y43900D01*
X58150Y45900D02*Y43900D01*
G54D140*X54400Y44900D02*X54550D01*
G54D139*X56525Y45900D02*Y43900D01*
X56225Y44900D02*X56525D01*
X49450Y43400D02*X54150D01*
X49450Y46600D02*X54150D01*
Y43400D01*
X49450Y46600D02*Y43400D01*
G54D138*X30350Y62700D02*X32250D01*
X30350Y63700D02*X32250D01*
Y62700D01*
X30350Y63700D02*Y62700D01*
Y62300D02*X32250D01*
X30350Y61300D02*X32250D01*
X30350Y62300D02*Y61300D01*
X32250Y62300D02*Y61300D01*
X30000Y63450D02*Y61550D01*
X29000Y63450D02*Y61550D01*
Y63450D02*X30000D01*
X29000Y61550D02*X30000D01*
G54D139*X28800Y60700D02*Y56300D01*
X32400Y60700D02*Y56300D01*
X28800D02*X32400D01*
X28800Y60700D02*X32400D01*
G54D140*X28700Y56200D02*X29700D01*
X28700Y57200D02*Y56200D01*
G54D138*X29900Y54000D02*X32300D01*
X29900Y55200D02*X32300D01*
Y54000D01*
X29900Y55200D02*Y54000D01*
X29800Y55300D02*Y53900D01*
X30600D01*
X29800Y55300D02*X30600D01*
G54D139*X23500Y52450D02*X27700D01*
X23500Y55950D02*X27700D01*
Y52450D01*
X23500Y55950D02*Y52450D01*
G54D140*X27800Y53350D02*Y52350D01*
X26800D02*X27800D01*
G54D139*X17400Y55750D02*X23400D01*
X17400Y52250D02*X23400D01*
X17400Y55750D02*Y52250D01*
X23400Y55750D02*Y52250D01*
X23500Y55850D02*Y52150D01*
X21200Y55850D02*X23500D01*
G54D141*X21600Y55550D02*X23300D01*
G54D139*X21200Y52150D02*X23500D01*
G54D141*X21600Y52450D02*X23300D01*
G54D138*X27900Y55150D02*Y53250D01*
X28900Y55150D02*Y53250D01*
X27900D02*X28900D01*
X27900Y55150D02*X28900D01*
G54D142*X13500Y68000D02*Y56000D01*
X28500Y68000D02*Y56000D01*
X13500D02*X28500D01*
X13500Y68000D02*X28500D01*
X25500Y64000D02*X28500D01*
X19500D02*X22500D01*
X13500D02*X16500D01*
G54D139*X11950Y63150D02*Y60050D01*
X13450Y63150D02*Y60050D01*
X11950D02*X13450D01*
X11950Y63150D02*X13450D01*
G54D138*X10800Y52750D02*Y50850D01*
X11800Y52750D02*Y50850D01*
X10800D02*X11800D01*
X10800Y52750D02*X11800D01*
G54D139*X12050Y56050D02*Y52950D01*
X10550Y56050D02*Y52950D01*
Y56050D02*X12050D01*
X10550Y52950D02*X12050D01*
X17325Y55900D02*Y51100D01*
X12125Y55900D02*Y51100D01*
Y55900D02*X17325D01*
X12125Y51100D02*X17325D01*
G54D138*X11500Y50650D02*Y48750D01*
X10500Y50650D02*Y48750D01*
Y50650D02*X11500D01*
X10500Y48750D02*X11500D01*
G54D139*X11850Y48700D02*X15350D01*
X11850Y50700D02*X15350D01*
Y48700D01*
X11850Y50700D02*Y48700D01*
G54D140*X15450Y49700D02*X15600D01*
G54D139*X13475Y50700D02*Y48700D01*
Y49700D02*X13775D01*
G54D138*X25450Y52200D02*X27350D01*
X25450Y51200D02*X27350D01*
X25450Y52200D02*Y51200D01*
X27350Y52200D02*Y51200D01*
X23550D02*X25450D01*
X23550Y52200D02*X25450D01*
Y51200D01*
X23550Y52200D02*Y51200D01*
X27350Y52200D02*X29250D01*
X27350Y51200D02*X29250D01*
X27350Y52200D02*Y51200D01*
X29250Y52200D02*Y51200D01*
G54D139*X23350Y45600D02*X26850D01*
X23350Y43600D02*X26850D01*
X23350Y45600D02*Y43600D01*
X26850Y45600D02*Y43600D01*
G54D140*X23100Y44600D02*X23250D01*
G54D139*X25225Y45600D02*Y43600D01*
X24925Y44600D02*X25225D01*
X23350Y48100D02*X26850D01*
X23350Y46100D02*X26850D01*
X23350Y48100D02*Y46100D01*
X26850Y48100D02*Y46100D01*
G54D140*X23100Y47100D02*X23250D01*
G54D139*X25225Y48100D02*Y46100D01*
X24925Y47100D02*X25225D01*
X28450Y50400D02*X33150D01*
X28450Y47200D02*X33150D01*
X28450Y50400D02*Y47200D01*
X33150Y50400D02*Y47200D01*
X30350Y41150D02*Y37850D01*
X26850Y41150D02*Y37850D01*
Y41150D02*X30350D01*
X26850Y37850D02*X30350D01*
Y46250D02*Y42950D01*
X26850Y46250D02*Y42950D01*
Y46250D02*X30350D01*
X26850Y42950D02*X30350D01*
X23350Y40500D02*X26850D01*
X23350Y38500D02*X26850D01*
X23350Y40500D02*Y38500D01*
X26850Y40500D02*Y38500D01*
G54D140*X23100Y39500D02*X23250D01*
G54D139*X25225Y40500D02*Y38500D01*
X24925Y39500D02*X25225D01*
X23350Y43000D02*X26850D01*
X23350Y41000D02*X26850D01*
X23350Y43000D02*Y41000D01*
X26850Y43000D02*Y41000D01*
G54D140*X23100Y42000D02*X23250D01*
G54D139*X25225Y43000D02*Y41000D01*
X24925Y42000D02*X25225D01*
X30350Y36050D02*Y32750D01*
X26850Y36050D02*Y32750D01*
Y36050D02*X30350D01*
X26850Y32750D02*X30350D01*
X23350Y32900D02*X26850D01*
X23350Y30900D02*X26850D01*
X23350Y32900D02*Y30900D01*
X26850Y32900D02*Y30900D01*
G54D140*X23100Y31900D02*X23250D01*
G54D139*X25225Y32900D02*Y30900D01*
X24925Y31900D02*X25225D01*
X23350Y35400D02*X26850D01*
X23350Y33400D02*X26850D01*
X23350Y35400D02*Y33400D01*
X26850Y35400D02*Y33400D01*
G54D140*X23100Y34400D02*X23250D01*
G54D139*X25225Y35400D02*Y33400D01*
X24925Y34400D02*X25225D01*
X23350Y38000D02*X26850D01*
X23350Y36000D02*X26850D01*
X23350Y38000D02*Y36000D01*
X26850Y38000D02*Y36000D01*
G54D140*X23100Y37000D02*X23250D01*
G54D139*X25225Y38000D02*Y36000D01*
X24925Y37000D02*X25225D01*
G54D142*X23310Y48350D02*Y28030D01*
X15440Y48350D02*Y28030D01*
X12900Y48350D02*X23310D01*
X12900Y28030D02*X23310D01*
X12900Y48350D02*Y28030D01*
X10000Y48350D02*Y45810D01*
Y30570D02*Y28030D01*
G54D143*X7360Y47080D02*X12710D01*
X7360Y44540D02*X12710D01*
X7360Y42000D02*X12710D01*
X7360Y39460D02*X12710D01*
X7360Y36920D02*X12710D01*
X7360Y34380D02*X12710D01*
X7360Y31840D02*X12710D01*
X7360Y29300D02*X12710D01*
G54D144*X15440Y48350D02*Y45810D01*
X18230Y48350D02*Y45810D01*
X15440Y48350D02*X18230D01*
X15440Y45810D02*X18230D01*
G54D138*X21700Y51180D02*Y48780D01*
X20500Y51180D02*Y48780D01*
Y51180D02*X21700D01*
X20500Y48780D02*X21700D01*
X20400Y48680D02*X21800D01*
Y49480D02*Y48680D01*
X20400Y49480D02*Y48680D01*
G54D139*X16550Y50580D02*X20050D01*
X16550Y48580D02*X20050D01*
X16550Y50580D02*Y48580D01*
X20050Y50580D02*Y48580D01*
G54D138*X40850Y23000D02*X42750D01*
X40850Y22000D02*X42750D01*
X40850Y23000D02*Y22000D01*
X42750Y23000D02*Y22000D01*
X40900Y26850D02*Y24950D01*
X41900Y26850D02*Y24950D01*
X40900D02*X41900D01*
X40900Y26850D02*X41900D01*
Y24950D02*Y23050D01*
X40900Y24950D02*Y23050D01*
Y24950D02*X41900D01*
X40900Y23050D02*X41900D01*
G54D139*X39150Y21350D02*X43050D01*
X39150Y17850D02*X43050D01*
X39150Y21350D02*Y17850D01*
X43050Y21350D02*Y17850D01*
G54D140*X39050Y21450D02*Y20450D01*
Y21450D02*X40050D01*
G54D139*X31800Y32700D02*X40800D01*
X31800Y21700D02*X40800D01*
X31800Y32700D02*Y21700D01*
X40800Y32700D02*Y21700D01*
G54D140*X31700Y32800D02*Y31800D01*
Y32800D02*X32700D01*
G54D138*X31700Y28650D02*Y26750D01*
X30700Y28650D02*Y26750D01*
Y28650D02*X31700D01*
X30700Y26750D02*X31700D01*
G54D139*X33250Y21700D02*X36750D01*
X33250Y19700D02*X36750D01*
X33250Y21700D02*Y19700D01*
X36750Y21700D02*Y19700D01*
G54D140*X33000Y20700D02*X33150D01*
G54D139*X35125Y21700D02*Y19700D01*
X34825Y20700D02*X35125D01*
G54D138*X37800Y21650D02*Y19750D01*
X36800Y21650D02*Y19750D01*
Y21650D02*X37800D01*
X36800Y19750D02*X37800D01*
X30700Y24150D02*Y22250D01*
X31700Y24150D02*Y22250D01*
X30700D02*X31700D01*
X30700Y24150D02*X31700D01*
G54D139*X40850Y30250D02*Y26950D01*
X44350Y30250D02*Y26950D01*
X40850D02*X44350D01*
X40850Y30250D02*X44350D01*
G54D138*X44950Y25900D02*Y23900D01*
X42450Y25900D02*Y23900D01*
Y25900D02*X44950D01*
X42450Y23900D02*X44950D01*
X45400Y30250D02*Y28350D01*
X44400Y30250D02*Y28350D01*
Y30250D02*X45400D01*
X44400Y28350D02*X45400D01*
X45100Y19550D02*Y17650D01*
X44100Y19550D02*Y17650D01*
Y19550D02*X45100D01*
X44100Y17650D02*X45100D01*
G54D139*X49450Y29700D02*X54150D01*
X49450Y32900D02*X54150D01*
Y29700D01*
X49450Y32900D02*Y29700D01*
G54D138*X36900Y38950D02*X38900D01*
X36900Y36450D02*X38900D01*
X36900Y38950D02*Y36450D01*
X38900Y38950D02*Y36450D01*
X30900Y32950D02*X32900D01*
X30900Y35450D02*X32900D01*
Y32950D01*
X30900Y35450D02*Y32950D01*
Y38250D02*X32900D01*
X30900Y40750D02*X32900D01*
Y38250D01*
X30900Y40750D02*Y38250D01*
X42200Y32150D02*Y30250D01*
X41200Y32150D02*Y30250D01*
Y32150D02*X42200D01*
X41200Y30250D02*X42200D01*
G54D139*X39250Y36050D02*Y32750D01*
X42750Y36050D02*Y32750D01*
X39250D02*X42750D01*
X39250Y36050D02*X42750D01*
X39250Y41150D02*Y37850D01*
X42750Y41150D02*Y37850D01*
X39250D02*X42750D01*
X39250Y41150D02*X42750D01*
X43150Y35400D02*X46650D01*
X43150Y33400D02*X46650D01*
X43150Y35400D02*Y33400D01*
X46650Y35400D02*Y33400D01*
G54D140*X42900Y34400D02*X43050D01*
G54D139*X45025Y35400D02*Y33400D01*
X44725Y34400D02*X45025D01*
X43150Y37900D02*X46650D01*
X43150Y35900D02*X46650D01*
X43150Y37900D02*Y35900D01*
X46650Y37900D02*Y35900D01*
G54D140*X42900Y36900D02*X43050D01*
G54D139*X45025Y37900D02*Y35900D01*
X44725Y36900D02*X45025D01*
X43150Y40500D02*X46650D01*
X43150Y38500D02*X46650D01*
X43150Y40500D02*Y38500D01*
X46650Y40500D02*Y38500D01*
G54D140*X42900Y39500D02*X43050D01*
G54D139*X45025Y40500D02*Y38500D01*
X44725Y39500D02*X45025D01*
G54D142*X46690Y43270D02*Y33110D01*
X54560Y43270D02*Y33110D01*
X46690D02*X57100D01*
X46690Y43270D02*X57100D01*
Y33110D01*
X60000Y35650D02*Y33110D01*
Y43270D02*Y40730D01*
G54D143*X57290Y34380D02*X62640D01*
X57290Y36920D02*X62640D01*
X57290Y39460D02*X62640D01*
X57290Y42000D02*X62640D01*
G54D144*X54560Y35650D02*Y33110D01*
X51770Y35650D02*Y33110D01*
X54560D01*
X51770Y35650D02*X54560D01*
G54D139*X45150Y17800D02*X53050D01*
X45150Y25700D02*X53050D01*
Y17800D01*
X45150Y25700D02*Y17800D01*
G54D140*X53150Y18700D02*Y17700D01*
X52150D02*X53150D01*
G54D138*X45400Y28350D02*Y26450D01*
X44400Y28350D02*Y26450D01*
Y28350D02*X45400D01*
X44400Y26450D02*X45400D01*
Y25800D02*X47300D01*
X45400Y26800D02*X47300D01*
Y25800D01*
X45400Y26800D02*Y25800D01*
X47950D02*X49850D01*
X47950Y26800D02*X49850D01*
Y25800D01*
X47950Y26800D02*Y25800D01*
G54D139*X48250Y29400D02*X51750D01*
X48250Y27400D02*X51750D01*
X48250Y29400D02*Y27400D01*
X51750Y29400D02*Y27400D01*
G54D140*X48000Y28400D02*X48150D01*
G54D139*X50000Y29400D02*Y27400D01*
X49700Y28400D02*X50000D01*
G54D138*X46050Y29400D02*X47950D01*
X46050Y28400D02*X47950D01*
X46050Y29400D02*Y28400D01*
X47950Y29400D02*Y28400D01*
X46050D02*X47950D01*
X46050Y27400D02*X47950D01*
X46050Y28400D02*Y27400D01*
X47950Y28400D02*Y27400D01*
X57050Y24900D02*X58950D01*
X57050Y25900D02*X58950D01*
Y24900D01*
X57050Y25900D02*Y24900D01*
G54D139*X56150Y32350D02*X59450D01*
X56150Y28850D02*X59450D01*
X56150Y32350D02*Y28850D01*
X59450Y32350D02*Y28850D01*
G54D138*X53500Y26850D02*X55500D01*
X53500Y24350D02*X55500D01*
X53500Y26850D02*Y24350D01*
X55500Y26850D02*Y24350D01*
X53500Y29350D02*X55500D01*
X53500Y26850D02*X55500D01*
X53500Y29350D02*Y26850D01*
X55500Y29350D02*Y26850D01*
G54D139*X59650Y23850D02*Y17150D01*
X55350Y23850D02*Y17150D01*
Y23850D02*X59650D01*
X55350Y17150D02*X59650D01*
G54D138*X57750Y23900D02*X59650D01*
X57750Y24900D02*X59650D01*
Y23900D01*
X57750Y24900D02*Y23900D01*
X53250Y20900D02*X55150D01*
X53250Y21900D02*X55150D01*
Y20900D01*
X53250Y21900D02*Y20900D01*
Y22700D02*X55150D01*
X53250Y23700D02*X55150D01*
Y22700D01*
X53250Y23700D02*Y22700D01*
G54D139*X53300Y19650D02*Y16150D01*
X55300Y19650D02*Y16150D01*
X53300D02*X55300D01*
X53300Y19650D02*X55300D01*
G54D138*X56550Y17100D02*X58450D01*
X56550Y16100D02*X58450D01*
X56550Y17100D02*Y16100D01*
X58450Y17100D02*Y16100D01*
X50350Y17700D02*X52250D01*
X50350Y16700D02*X52250D01*
X50350Y17700D02*Y16700D01*
X52250Y17700D02*Y16700D01*
X45300Y17350D02*Y15450D01*
X44300Y17350D02*Y15450D01*
Y17350D02*X45300D01*
X44300Y15450D02*X45300D01*
G54D139*X47550Y13350D02*Y10250D01*
X49050Y13350D02*Y10250D01*
X47550D02*X49050D01*
X47550Y13350D02*X49050D01*
G54D138*X48800Y15250D02*Y13350D01*
X47800Y15250D02*Y13350D01*
Y15250D02*X48800D01*
X47800Y13350D02*X48800D01*
G54D139*X47300Y15400D02*Y8470D01*
X36900Y15400D02*Y8470D01*
Y15400D02*X47300D01*
X36900Y8470D02*X47300D01*
X36900Y10000D02*X38980D01*
X41060D02*X43140D01*
X45220D02*X47300D01*
G54D138*X44100Y17900D02*Y15500D01*
X42900Y17900D02*Y15500D01*
Y17900D02*X44100D01*
X42900Y15500D02*X44100D01*
X42800Y15400D02*X44200D01*
Y16200D02*Y15400D01*
X42800Y16200D02*Y15400D01*
G54D139*X33100Y15450D02*X39100D01*
X33100Y18950D02*X39100D01*
Y15450D01*
X33100Y18950D02*Y15450D01*
X33000Y19050D02*Y15350D01*
X35300D01*
G54D141*X33200Y15650D02*X34900D01*
G54D139*X33000Y19050D02*X35300D01*
G54D141*X33200Y18750D02*X34900D01*
G54D139*X50360Y15050D02*X56830D01*
X50360Y11600D02*X56830D01*
X50360Y15050D02*Y11600D01*
X56830Y15050D02*Y11600D01*
G54D140*X50310Y11500D02*X51700D01*
X50310Y13340D02*Y11500D01*
G54D139*X30550Y15100D02*Y10300D01*
X35750Y15100D02*Y10300D01*
X30550D02*X35750D01*
X30550Y15100D02*X35750D01*
G54D142*X17900Y26500D02*X18000D01*
X11400D02*X15100D01*
X17900Y19300D02*X18000D01*
X11400D02*X15100D01*
X18000Y26500D02*Y19300D01*
X11400Y26500D02*Y19300D01*
G54D145*X10775Y24650D02*Y21150D01*
G54D142*Y25150D02*X11400D01*
X10775Y20650D02*X11400D01*
G54D138*X18350Y21400D02*X20250D01*
X18350Y20400D02*X20250D01*
X18350Y21400D02*Y20400D01*
X20250Y21400D02*Y20400D01*
X18350Y22400D02*X20250D01*
X18350Y23400D02*X20250D01*
Y22400D01*
X18350Y23400D02*Y22400D01*
Y24400D02*X20250D01*
X18350Y23400D02*X20250D01*
X18350Y24400D02*Y23400D01*
X20250Y24400D02*Y23400D01*
X18350Y24400D02*X20250D01*
X18350Y25400D02*X20250D01*
Y24400D01*
X18350Y25400D02*Y24400D01*
X21400Y25350D02*Y23450D01*
X22400Y25350D02*Y23450D01*
X21400D02*X22400D01*
X21400Y25350D02*X22400D01*
G54D139*X18250Y28000D02*X21750D01*
X18250Y26000D02*X21750D01*
X18250Y28000D02*Y26000D01*
X21750Y28000D02*Y26000D01*
G54D138*X18350Y21400D02*X20250D01*
X18350Y22400D02*X20250D01*
Y21400D01*
X18350Y22400D02*Y21400D01*
X30700Y26750D02*Y24850D01*
X31700Y26750D02*Y24850D01*
X30700D02*X31700D01*
X30700Y26750D02*X31700D01*
G54D139*X30350Y30950D02*Y27650D01*
X26850Y30950D02*Y27650D01*
Y30950D02*X30350D01*
X26850Y27650D02*X30350D01*
X23350Y30300D02*X26850D01*
X23350Y28300D02*X26850D01*
X23350Y30300D02*Y28300D01*
X26850Y30300D02*Y28300D01*
G54D140*X23100Y29300D02*X23250D01*
G54D139*X25225Y30300D02*Y28300D01*
X24925Y29300D02*X25225D01*
G54D138*X28450Y25400D02*X30350D01*
X28450Y26400D02*X30350D01*
Y25400D01*
X28450Y26400D02*Y25400D01*
G54D139*X22600Y25200D02*X30600D01*
X22600Y19600D02*X30600D01*
X22600Y25200D02*Y19600D01*
X30600Y25200D02*Y19600D01*
G54D140*X22500Y25300D02*Y24300D01*
Y25300D02*X23500D01*
G54D142*X30415Y15200D02*Y6000D01*
X13785Y15200D02*Y6000D01*
Y15200D02*X30415D01*
X13785Y6000D02*X30415D01*
X13785Y10000D02*X17111D01*
X20437D02*X23763D01*
X27089D02*X30415D01*
G54D138*X35800Y12650D02*Y10750D01*
X36800Y12650D02*Y10750D01*
X35800D02*X36800D01*
X35800Y12650D02*X36800D01*
Y14650D02*Y12750D01*
X35800Y14650D02*Y12750D01*
Y14650D02*X36800D01*
X35800Y12750D02*X36800D01*
G54D139*X30450Y18850D02*Y15550D01*
X26950Y18850D02*Y15550D01*
Y18850D02*X30450D01*
X26950Y15550D02*X30450D01*
X30650Y20050D02*Y15350D01*
X32950Y20050D02*Y15350D01*
X30650D02*X32950D01*
X30650Y20050D02*X32950D01*
X26950Y18750D02*Y15650D01*
X25450Y18750D02*Y15650D01*
Y18750D02*X26950D01*
X25450Y15650D02*X26950D01*
G54D138*X24900Y19150D02*Y17250D01*
X23900Y19150D02*Y17250D01*
Y19150D02*X24900D01*
X23900Y17250D02*X24900D01*
X23900D02*Y15350D01*
X24900Y17250D02*Y15350D01*
X23900D02*X24900D01*
X23900Y17250D02*X24900D01*
X23900Y19150D02*Y17250D01*
X22900Y19150D02*Y17250D01*
Y19150D02*X23900D01*
X22900Y17250D02*X23900D01*
G54D139*X18550Y18850D02*X21850D01*
X18550Y15350D02*X21850D01*
X18550Y18850D02*Y15350D01*
X21850Y18850D02*Y15350D01*
G54D138*X22900Y17250D02*Y15350D01*
X21900Y17250D02*Y15350D01*
Y17250D02*X22900D01*
X21900Y15350D02*X22900D01*
X18500Y17250D02*Y15350D01*
X17500Y17250D02*Y15350D01*
Y17250D02*X18500D01*
X17500Y15350D02*X18500D01*
X16500Y17250D02*Y15350D01*
X17500Y17250D02*Y15350D01*
X16500D02*X17500D01*
X16500Y17250D02*X17500D01*
X22900D02*Y15350D01*
X23900Y17250D02*Y15350D01*
X22900D02*X23900D01*
X22900Y17250D02*X23900D01*
X18350Y20400D02*X20250D01*
X18350Y19400D02*X20250D01*
X18350Y20400D02*Y19400D01*
X20250Y20400D02*Y19400D01*
X22500Y21350D02*Y19450D01*
X21500Y21350D02*Y19450D01*
Y21350D02*X22500D01*
X21500Y19450D02*X22500D01*
Y23350D02*Y21450D01*
X21500Y23350D02*Y21450D01*
Y23350D02*X22500D01*
X21500Y21450D02*X22500D01*
G54D139*X13750Y18750D02*Y15650D01*
X15250Y18750D02*Y15650D01*
X13750D02*X15250D01*
X13750Y18750D02*X15250D01*
X10250Y18850D02*Y15550D01*
X13750Y18850D02*Y15550D01*
X10250D02*X13750D01*
X10250Y18850D02*X13750D01*
X13350Y15150D02*Y12050D01*
X11850Y15150D02*Y12050D01*
Y15150D02*X13350D01*
X11850Y12050D02*X13350D01*
G54D138*X10800Y15150D02*Y13250D01*
X11800Y15150D02*Y13250D01*
X10800D02*X11800D01*
X10800Y15150D02*X11800D01*
X15500Y17250D02*Y15350D01*
X16500Y17250D02*Y15350D01*
X15500D02*X16500D01*
X15500Y17250D02*X16500D01*
X53876Y53543D02*X54203D01*
X53700Y53719D02*X53876Y53543D01*
X53700Y54373D02*Y53719D01*
Y54373D02*X53876Y54549D01*
X54203D01*
X54505Y54423D02*X54630Y54549D01*
X54882D01*
X55008Y54423D01*
X54882Y53543D02*X55008Y53668D01*
X54630Y53543D02*X54882D01*
X54505Y53668D02*X54630Y53543D01*
Y54096D02*X54882D01*
X55008Y54423D02*Y54222D01*
Y53970D02*Y53668D01*
Y53970D02*X54882Y54096D01*
X55008Y54222D02*X54882Y54096D01*
X55309Y54423D02*X55435Y54549D01*
X55687D01*
X55812Y54423D01*
X55687Y53543D02*X55812Y53668D01*
X55435Y53543D02*X55687D01*
X55309Y53668D02*X55435Y53543D01*
Y54096D02*X55687D01*
X55812Y54423D02*Y54222D01*
Y53970D02*Y53668D01*
Y53970D02*X55687Y54096D01*
X55812Y54222D02*X55687Y54096D01*
X57178Y61391D02*Y61137D01*
X57041Y61000D02*X57178Y61137D01*
X56532Y61000D02*X57041D01*
X56532D02*X56396Y61137D01*
Y61391D02*Y61137D01*
X56493Y61626D02*X56396Y61724D01*
Y61919D02*Y61724D01*
Y61919D02*X56493Y62017D01*
X57178Y61919D02*X57080Y62017D01*
X57178Y61919D02*Y61724D01*
X57080Y61626D02*X57178Y61724D01*
X56748Y61919D02*Y61724D01*
X56493Y62017D02*X56650D01*
X56845D02*X57080D01*
X56845D02*X56748Y61919D01*
X56650Y62017D02*X56748Y61919D01*
X56885Y62252D02*X56396Y62643D01*
X56885Y62741D02*Y62252D01*
X56396Y62643D02*X57178D01*
X57500Y58519D02*Y57757D01*
Y58519D02*X57627Y58646D01*
X57881D01*
X58008Y58519D01*
Y57884D01*
X57754Y57630D02*X58008Y57884D01*
X57627Y57630D02*X57754D01*
X57500Y57757D02*X57627Y57630D01*
X57754Y58011D02*X58008Y57630D01*
X58313Y58519D02*X58440Y58646D01*
X58694D01*
X58821Y58519D01*
X58694Y57630D02*X58821Y57757D01*
X58440Y57630D02*X58694D01*
X58313Y57757D02*X58440Y57630D01*
Y58189D02*X58694D01*
X58821Y58519D02*Y58316D01*
Y58062D02*Y57757D01*
Y58062D02*X58694Y58189D01*
X58821Y58316D02*X58694Y58189D01*
X58098Y55404D02*Y54622D01*
X58352Y55404D02*X58489Y55268D01*
Y54759D01*
X58352Y54622D02*X58489Y54759D01*
X58000Y54622D02*X58352D01*
X58000Y55404D02*X58352D01*
X58821Y54622D02*X59115Y55013D01*
Y55307D02*Y55013D01*
X59017Y55404D02*X59115Y55307D01*
X58821Y55404D02*X59017D01*
X58724Y55307D02*X58821Y55404D01*
X58724Y55307D02*Y55111D01*
X58821Y55013D01*
X59115D01*
X52296Y51014D02*X52474D01*
X52200Y51110D02*X52296Y51014D01*
X52200Y51467D02*Y51110D01*
Y51467D02*X52296Y51563D01*
X52474D01*
X52639Y51494D02*X52707Y51563D01*
X52845D01*
X52913Y51494D01*
X52845Y51014D02*X52913Y51083D01*
X52707Y51014D02*X52845D01*
X52639Y51083D02*X52707Y51014D01*
Y51316D02*X52845D01*
X52913Y51494D02*Y51385D01*
Y51247D02*Y51083D01*
Y51247D02*X52845Y51316D01*
X52913Y51385D02*X52845Y51316D01*
X53078Y51563D02*X53352D01*
X53078D02*Y51289D01*
X53146Y51357D01*
X53284D01*
X53352Y51289D01*
Y51083D01*
X53284Y51014D02*X53352Y51083D01*
X53146Y51014D02*X53284D01*
X53078Y51083D02*X53146Y51014D01*
X53900Y51563D02*X54174D01*
X54243Y51494D01*
Y51357D01*
X54174Y51289D02*X54243Y51357D01*
X53969Y51289D02*X54174D01*
X53969Y51563D02*Y51014D01*
X54078Y51289D02*X54243Y51014D01*
X54407Y51494D02*X54476Y51563D01*
X54682D01*
X54750Y51494D01*
Y51357D01*
X54407Y51014D02*X54750Y51357D01*
X54407Y51014D02*X54750D01*
X54915Y51494D02*X54984Y51563D01*
X55189D01*
X55258Y51494D01*
Y51357D01*
X54915Y51014D02*X55258Y51357D01*
X54915Y51014D02*X55258D01*
X58837Y52874D02*Y52600D01*
Y52874D02*X58906Y52943D01*
X59043D01*
X59111Y52874D02*X59043Y52943D01*
X59111Y52874D02*Y52669D01*
X58837D02*X59386D01*
X59111Y52778D02*X59386Y52943D01*
X58906Y53107D02*X58837Y53176D01*
Y53382D02*Y53176D01*
Y53382D02*X58906Y53450D01*
X59043D01*
X59386Y53107D02*X59043Y53450D01*
X59386D02*Y53107D01*
X58906Y53615D02*X58837Y53684D01*
Y53821D02*Y53684D01*
Y53821D02*X58906Y53889D01*
X59386Y53821D02*X59317Y53889D01*
X59386Y53821D02*Y53684D01*
X59317Y53615D02*X59386Y53684D01*
X59084Y53821D02*Y53684D01*
X58906Y53889D02*X59015D01*
X59153D02*X59317D01*
X59153D02*X59084Y53821D01*
X59015Y53889D02*X59084Y53821D01*
X50878Y44530D02*X51208D01*
X50700Y44708D02*X50878Y44530D01*
X50700Y45368D02*Y44708D01*
Y45368D02*X50878Y45546D01*
X51208D01*
X51513Y44911D02*X52021Y45546D01*
X51513Y44911D02*X52148D01*
X52021Y45546D02*Y44530D01*
X52453Y45343D02*X52656Y45546D01*
Y44530D01*
X52453D02*X52834D01*
X48527Y54546D02*Y53530D01*
X48857Y54546D02*X49035Y54368D01*
Y53708D01*
X48857Y53530D02*X49035Y53708D01*
X48400Y53530D02*X48857D01*
X48400Y54546D02*X48857D01*
X49340Y53657D02*X49467Y53530D01*
X49340Y53860D02*Y53657D01*
Y53860D02*X49518Y54038D01*
X49670D01*
X49848Y53860D01*
Y53657D01*
X49721Y53530D02*X49848Y53657D01*
X49467Y53530D02*X49721D01*
X49340Y54216D02*X49518Y54038D01*
X49340Y54419D02*Y54216D01*
Y54419D02*X49467Y54546D01*
X49721D01*
X49848Y54419D01*
Y54216D01*
X49670Y54038D02*X49848Y54216D01*
X50178Y59746D02*X50381D01*
Y58857D01*
X50254Y58730D02*X50381Y58857D01*
X50127Y58730D02*X50254D01*
X50000Y58857D02*X50127Y58730D01*
X50000Y58984D02*Y58857D01*
X50686Y59746D02*X51194D01*
X50686D02*Y59238D01*
X50813Y59365D01*
X51067D01*
X51194Y59238D01*
Y58857D01*
X51067Y58730D02*X51194Y58857D01*
X50813Y58730D02*X51067D01*
X50686Y58857D02*X50813Y58730D01*
X49697Y51707D02*Y50935D01*
X49947Y51707D02*X50083Y51572D01*
Y51070D01*
X49947Y50935D02*X50083Y51070D01*
X49600Y50935D02*X49947D01*
X49600Y51707D02*X49947D01*
X50314Y51553D02*X50469Y51707D01*
Y50935D01*
X50314D02*X50604D01*
X50835Y51031D02*X50932Y50935D01*
X50835Y51610D02*Y51031D01*
Y51610D02*X50932Y51707D01*
X51125D01*
X51222Y51610D01*
Y51031D01*
X51125Y50935D02*X51222Y51031D01*
X50932Y50935D02*X51125D01*
X50835Y51128D02*X51222Y51514D01*
X58737Y44574D02*Y44300D01*
Y44574D02*X58806Y44643D01*
X58943D01*
X59011Y44574D02*X58943Y44643D01*
X59011Y44574D02*Y44369D01*
X58737D02*X59286D01*
X59011Y44478D02*X59286Y44643D01*
X58806Y44807D02*X58737Y44876D01*
Y45013D02*Y44876D01*
Y45013D02*X58806Y45082D01*
X59286Y45013D02*X59217Y45082D01*
X59286Y45013D02*Y44876D01*
X59217Y44807D02*X59286Y44876D01*
X58984Y45013D02*Y44876D01*
X58806Y45082D02*X58915D01*
X59053D02*X59217D01*
X59053D02*X58984Y45013D01*
X58915Y45082D02*X58984Y45013D01*
X59217Y45246D02*X59286Y45315D01*
X58806Y45246D02*X59217D01*
X58806D02*X58737Y45315D01*
Y45452D02*Y45315D01*
Y45452D02*X58806Y45521D01*
X59217D01*
X59286Y45452D02*X59217Y45521D01*
X59286Y45452D02*Y45315D01*
X59149Y45246D02*X58874Y45521D01*
X57137Y44069D02*X57686D01*
X57137Y44247D02*X57233Y44343D01*
X57590D01*
X57686Y44247D02*X57590Y44343D01*
X57686Y44247D02*Y44000D01*
X57137Y44247D02*Y44000D01*
Y44782D02*X57206Y44850D01*
X57137Y44782D02*Y44576D01*
X57206Y44507D02*X57137Y44576D01*
X57206Y44507D02*X57343D01*
X57411Y44576D01*
Y44782D02*Y44576D01*
Y44782D02*X57480Y44850D01*
X57617D01*
X57686Y44782D02*X57617Y44850D01*
X57686Y44782D02*Y44576D01*
X57617Y44507D02*X57686Y44576D01*
X57247Y45015D02*X57137Y45125D01*
X57686D01*
Y45221D02*Y45015D01*
X57137Y45591D02*X57206Y45660D01*
X57137Y45591D02*Y45454D01*
X57206Y45385D02*X57137Y45454D01*
X57206Y45385D02*X57617D01*
X57686Y45454D01*
X57384Y45591D02*X57453Y45660D01*
X57384Y45591D02*Y45385D01*
X57686Y45591D02*Y45454D01*
Y45591D02*X57617Y45660D01*
X57453D02*X57617D01*
X41200Y22763D02*X41474D01*
X41543Y22694D01*
Y22557D01*
X41474Y22489D02*X41543Y22557D01*
X41269Y22489D02*X41474D01*
X41269Y22763D02*Y22214D01*
X41378Y22489D02*X41543Y22214D01*
X41707Y22694D02*X41776Y22763D01*
X41982D01*
X42050Y22694D01*
Y22557D01*
X41707Y22214D02*X42050Y22557D01*
X41707Y22214D02*X42050D01*
X42215Y22763D02*X42489D01*
X42215D02*Y22489D01*
X42284Y22557D01*
X42421D01*
X42489Y22489D01*
Y22283D01*
X42421Y22214D02*X42489Y22283D01*
X42284Y22214D02*X42421D01*
X42215Y22283D02*X42284Y22214D01*
X41137Y25474D02*Y25200D01*
Y25474D02*X41206Y25543D01*
X41343D01*
X41411Y25474D02*X41343Y25543D01*
X41411Y25474D02*Y25269D01*
X41137D02*X41686D01*
X41411Y25378D02*X41686Y25543D01*
X41206Y25707D02*X41137Y25776D01*
Y25982D02*Y25776D01*
Y25982D02*X41206Y26050D01*
X41343D01*
X41686Y25707D02*X41343Y26050D01*
X41686D02*Y25707D01*
Y26284D02*X41137Y26558D01*
Y26215D01*
Y23574D02*Y23300D01*
Y23574D02*X41206Y23643D01*
X41343D01*
X41411Y23574D02*X41343Y23643D01*
X41411Y23574D02*Y23369D01*
X41137D02*X41686D01*
X41411Y23478D02*X41686Y23643D01*
X41206Y23807D02*X41137Y23876D01*
Y24082D02*Y23876D01*
Y24082D02*X41206Y24150D01*
X41343D01*
X41686Y23807D02*X41343Y24150D01*
X41686D02*Y23807D01*
X41617Y24315D02*X41686Y24384D01*
X41507Y24315D02*X41617D01*
X41507D02*X41411Y24411D01*
Y24493D02*Y24411D01*
Y24493D02*X41507Y24589D01*
X41617D01*
X41686Y24521D02*X41617Y24589D01*
X41686Y24521D02*Y24384D01*
X41315Y24315D02*X41411Y24411D01*
X41206Y24315D02*X41315D01*
X41206D02*X41137Y24384D01*
Y24521D02*Y24384D01*
Y24521D02*X41206Y24589D01*
X41315D01*
X41411Y24493D02*X41315Y24589D01*
X42800Y25304D02*X43191D01*
X43289Y25207D01*
Y25011D01*
X43191Y24913D02*X43289Y25011D01*
X42898Y24913D02*X43191D01*
X42898Y25304D02*Y24522D01*
X43054Y24913D02*X43289Y24522D01*
X43524Y25304D02*Y24522D01*
Y25304D02*X44013Y24522D01*
Y25304D02*Y24522D01*
X44247Y25207D02*X44345Y25304D01*
X44541D01*
X44638Y25207D01*
X44541Y24522D02*X44638Y24620D01*
X44345Y24522D02*X44541D01*
X44247Y24620D02*X44345Y24522D01*
Y24952D02*X44541D01*
X44638Y25207D02*Y25050D01*
Y24855D02*Y24620D01*
Y24855D02*X44541Y24952D01*
X44638Y25050D02*X44541Y24952D01*
X41900Y28919D02*Y28157D01*
Y28919D02*X42027Y29046D01*
X42281D01*
X42408Y28919D01*
Y28284D01*
X42154Y28030D02*X42408Y28284D01*
X42027Y28030D02*X42154D01*
X41900Y28157D02*X42027Y28030D01*
X42154Y28411D02*X42408Y28030D01*
X42840D02*X43348Y29046D01*
X42713D02*X43348D01*
X44637Y28874D02*Y28600D01*
Y28874D02*X44706Y28943D01*
X44843D01*
X44911Y28874D02*X44843Y28943D01*
X44911Y28874D02*Y28669D01*
X44637D02*X45186D01*
X44911Y28778D02*X45186Y28943D01*
X44706Y29107D02*X44637Y29176D01*
Y29313D02*Y29176D01*
Y29313D02*X44706Y29382D01*
X45186Y29313D02*X45117Y29382D01*
X45186Y29313D02*Y29176D01*
X45117Y29107D02*X45186Y29176D01*
X44884Y29313D02*Y29176D01*
X44706Y29382D02*X44815D01*
X44953D02*X45117D01*
X44953D02*X44884Y29313D01*
X44815Y29382D02*X44884Y29313D01*
X44706Y29546D02*X44637Y29615D01*
Y29821D02*Y29615D01*
Y29821D02*X44706Y29889D01*
X44843D01*
X45186Y29546D02*X44843Y29889D01*
X45186D02*Y29546D01*
X44637Y27074D02*Y26800D01*
Y27074D02*X44706Y27143D01*
X44843D01*
X44911Y27074D02*X44843Y27143D01*
X44911Y27074D02*Y26869D01*
X44637D02*X45186D01*
X44911Y26978D02*X45186Y27143D01*
X44706Y27307D02*X44637Y27376D01*
Y27513D02*Y27376D01*
Y27513D02*X44706Y27582D01*
X45186Y27513D02*X45117Y27582D01*
X45186Y27513D02*Y27376D01*
X45117Y27307D02*X45186Y27376D01*
X44884Y27513D02*Y27376D01*
X44706Y27582D02*X44815D01*
X44953D02*X45117D01*
X44953D02*X44884Y27513D01*
X44815Y27582D02*X44884Y27513D01*
X44747Y27746D02*X44637Y27856D01*
X45186D01*
Y27952D02*Y27746D01*
X41578Y13646D02*X41781D01*
Y12757D01*
X41654Y12630D02*X41781Y12757D01*
X41527Y12630D02*X41654D01*
X41400Y12757D02*X41527Y12630D01*
X41400Y12884D02*Y12757D01*
X42086Y13519D02*X42213Y13646D01*
X42594D01*
X42721Y13519D01*
Y13265D01*
X42086Y12630D02*X42721Y13265D01*
X42086Y12630D02*X42721D01*
X43090Y16195D02*X43852D01*
X43090Y16443D02*X43224Y16576D01*
X43719D01*
X43852Y16443D02*X43719Y16576D01*
X43852Y16443D02*Y16100D01*
X43090Y16443D02*Y16100D01*
Y17186D02*Y16805D01*
X43472D01*
X43376Y16900D01*
Y17091D02*Y16900D01*
Y17091D02*X43472Y17186D01*
X43757D01*
X43852Y17091D02*X43757Y17186D01*
X43852Y17091D02*Y16900D01*
X43757Y16805D02*X43852Y16900D01*
X43800Y49219D02*Y48457D01*
Y49219D02*X43927Y49346D01*
X44181D01*
X44308Y49219D01*
Y48584D01*
X44054Y48330D02*X44308Y48584D01*
X43927Y48330D02*X44054D01*
X43800Y48457D02*X43927Y48330D01*
X44054Y48711D02*X44308Y48330D01*
X44994Y49346D02*X45121Y49219D01*
X44740Y49346D02*X44994D01*
X44613Y49219D02*X44740Y49346D01*
X44613Y49219D02*Y48457D01*
X44740Y48330D01*
X44994Y48889D02*X45121Y48762D01*
X44613Y48889D02*X44994D01*
X44740Y48330D02*X44994D01*
X45121Y48457D01*
Y48762D02*Y48457D01*
X47900Y49219D02*Y48457D01*
Y49219D02*X48027Y49346D01*
X48281D01*
X48408Y49219D01*
Y48584D01*
X48154Y48330D02*X48408Y48584D01*
X48027Y48330D02*X48154D01*
X47900Y48457D02*X48027Y48330D01*
X48154Y48711D02*X48408Y48330D01*
X48713Y49346D02*X49221D01*
X48713D02*Y48838D01*
X48840Y48965D01*
X49094D01*
X49221Y48838D01*
Y48457D01*
X49094Y48330D02*X49221Y48457D01*
X48840Y48330D02*X49094D01*
X48713Y48457D02*X48840Y48330D01*
X54300Y49119D02*Y48357D01*
Y49119D02*X54427Y49246D01*
X54681D01*
X54808Y49119D01*
Y48484D01*
X54554Y48230D02*X54808Y48484D01*
X54427Y48230D02*X54554D01*
X54300Y48357D02*X54427Y48230D01*
X54554Y48611D02*X54808Y48230D01*
X55113Y48611D02*X55621Y49246D01*
X55113Y48611D02*X55748D01*
X55621Y49246D02*Y48230D01*
X47600Y51563D02*X47874D01*
X47943Y51494D01*
Y51357D01*
X47874Y51289D02*X47943Y51357D01*
X47669Y51289D02*X47874D01*
X47669Y51563D02*Y51014D01*
X47778Y51289D02*X47943Y51014D01*
X48107Y51494D02*X48176Y51563D01*
X48313D01*
X48382Y51494D01*
X48313Y51014D02*X48382Y51083D01*
X48176Y51014D02*X48313D01*
X48107Y51083D02*X48176Y51014D01*
Y51316D02*X48313D01*
X48382Y51494D02*Y51385D01*
Y51247D02*Y51083D01*
Y51247D02*X48313Y51316D01*
X48382Y51385D02*X48313Y51316D01*
X48546Y51494D02*X48615Y51563D01*
X48752D01*
X48821Y51494D01*
X48752Y51014D02*X48821Y51083D01*
X48615Y51014D02*X48752D01*
X48546Y51083D02*X48615Y51014D01*
Y51316D02*X48752D01*
X48821Y51494D02*Y51385D01*
Y51247D02*Y51083D01*
Y51247D02*X48752Y51316D01*
X48821Y51385D02*X48752Y51316D01*
X47996Y44198D02*X48778D01*
X47996Y44452D02*X48132Y44589D01*
X48641D01*
X48778Y44452D02*X48641Y44589D01*
X48778Y44452D02*Y44100D01*
X47996Y44452D02*Y44100D01*
X48152Y44824D02*X47996Y44980D01*
X48778D01*
Y45117D02*Y44824D01*
X48152Y45352D02*X47996Y45508D01*
X48778D01*
Y45645D02*Y45352D01*
X43700Y46963D02*X43974D01*
X44043Y46894D01*
Y46757D01*
X43974Y46689D02*X44043Y46757D01*
X43769Y46689D02*X43974D01*
X43769Y46963D02*Y46414D01*
X43878Y46689D02*X44043Y46414D01*
X44207Y46894D02*X44276Y46963D01*
X44482D01*
X44550Y46894D01*
Y46757D01*
X44207Y46414D02*X44550Y46757D01*
X44207Y46414D02*X44550D01*
X44715Y46620D02*X44989Y46963D01*
X44715Y46620D02*X45058D01*
X44989Y46963D02*Y46414D01*
X39678Y45930D02*X40008D01*
X39500Y46108D02*X39678Y45930D01*
X39500Y46768D02*Y46108D01*
Y46768D02*X39678Y46946D01*
X40008D01*
X40313Y46819D02*X40440Y46946D01*
X40821D01*
X40948Y46819D01*
Y46565D01*
X40313Y45930D02*X40948Y46565D01*
X40313Y45930D02*X40948D01*
X41253Y46946D02*X41761D01*
X41253D02*Y46438D01*
X41380Y46565D01*
X41634D01*
X41761Y46438D01*
Y46057D01*
X41634Y45930D02*X41761Y46057D01*
X41380Y45930D02*X41634D01*
X41253Y46057D02*X41380Y45930D01*
X39578Y42730D02*X39908D01*
X39400Y42908D02*X39578Y42730D01*
X39400Y43568D02*Y42908D01*
Y43568D02*X39578Y43746D01*
X39908D01*
X40213Y43619D02*X40340Y43746D01*
X40721D01*
X40848Y43619D01*
Y43365D01*
X40213Y42730D02*X40848Y43365D01*
X40213Y42730D02*X40848D01*
X41153Y43111D02*X41661Y43746D01*
X41153Y43111D02*X41788D01*
X41661Y43746D02*Y42730D01*
X40027Y40046D02*Y39030D01*
X40357Y40046D02*X40535Y39868D01*
Y39208D01*
X40357Y39030D02*X40535Y39208D01*
X39900Y39030D02*X40357D01*
X39900Y40046D02*X40357D01*
X40840Y39843D02*X41043Y40046D01*
Y39030D01*
X40840D02*X41221D01*
X41526Y39919D02*X41653Y40046D01*
X42034D01*
X42161Y39919D01*
Y39665D01*
X41526Y39030D02*X42161Y39665D01*
X41526Y39030D02*X42161D01*
X45637Y36069D02*X46186D01*
X45637Y36247D02*X45733Y36343D01*
X46090D01*
X46186Y36247D02*X46090Y36343D01*
X46186Y36247D02*Y36000D01*
X45637Y36247D02*Y36000D01*
Y36782D02*X45706Y36850D01*
X45637Y36782D02*Y36576D01*
X45706Y36507D02*X45637Y36576D01*
X45706Y36507D02*X45843D01*
X45911Y36576D01*
Y36782D02*Y36576D01*
Y36782D02*X45980Y36850D01*
X46117D01*
X46186Y36782D02*X46117Y36850D01*
X46186Y36782D02*Y36576D01*
X46117Y36507D02*X46186Y36576D01*
X45747Y37015D02*X45637Y37125D01*
X46186D01*
Y37221D02*Y37015D01*
X45706Y37385D02*X45637Y37454D01*
Y37591D02*Y37454D01*
Y37591D02*X45706Y37660D01*
X46186Y37591D02*X46117Y37660D01*
X46186Y37591D02*Y37454D01*
X46117Y37385D02*X46186Y37454D01*
X45884Y37591D02*Y37454D01*
X45706Y37660D02*X45815D01*
X45953D02*X46117D01*
X45953D02*X45884Y37591D01*
X45815Y37660D02*X45884Y37591D01*
X50238Y38666D02*X50441D01*
Y37777D01*
X50314Y37650D02*X50441Y37777D01*
X50187Y37650D02*X50314D01*
X50060Y37777D02*X50187Y37650D01*
X50060Y37904D02*Y37777D01*
X51127Y38666D02*X51254Y38539D01*
X50873Y38666D02*X51127D01*
X50746Y38539D02*X50873Y38666D01*
X50746Y38539D02*Y37777D01*
X50873Y37650D01*
X51127Y38209D02*X51254Y38082D01*
X50746Y38209D02*X51127D01*
X50873Y37650D02*X51127D01*
X51254Y37777D01*
Y38082D02*Y37777D01*
X45637Y38669D02*X46186D01*
X45637Y38847D02*X45733Y38943D01*
X46090D01*
X46186Y38847D02*X46090Y38943D01*
X46186Y38847D02*Y38600D01*
X45637Y38847D02*Y38600D01*
Y39382D02*X45706Y39450D01*
X45637Y39382D02*Y39176D01*
X45706Y39107D02*X45637Y39176D01*
X45706Y39107D02*X45843D01*
X45911Y39176D01*
Y39382D02*Y39176D01*
Y39382D02*X45980Y39450D01*
X46117D01*
X46186Y39382D02*X46117Y39450D01*
X46186Y39382D02*Y39176D01*
X46117Y39107D02*X46186Y39176D01*
X45747Y39615D02*X45637Y39725D01*
X46186D01*
Y39821D02*Y39615D01*
X45706Y39985D02*X45637Y40054D01*
Y40260D02*Y40054D01*
Y40260D02*X45706Y40328D01*
X45843D01*
X46186Y39985D02*X45843Y40328D01*
X46186D02*Y39985D01*
X45637Y41169D02*X46186D01*
X45637Y41347D02*X45733Y41443D01*
X46090D01*
X46186Y41347D02*X46090Y41443D01*
X46186Y41347D02*Y41100D01*
X45637Y41347D02*Y41100D01*
Y41882D02*X45706Y41950D01*
X45637Y41882D02*Y41676D01*
X45706Y41607D02*X45637Y41676D01*
X45706Y41607D02*X45843D01*
X45911Y41676D01*
Y41882D02*Y41676D01*
Y41882D02*X45980Y41950D01*
X46117D01*
X46186Y41882D02*X46117Y41950D01*
X46186Y41882D02*Y41676D01*
X46117Y41607D02*X46186Y41676D01*
X45747Y42115D02*X45637Y42225D01*
X46186D01*
Y42321D02*Y42115D01*
X45747Y42485D02*X45637Y42595D01*
X46186D01*
Y42691D02*Y42485D01*
X44886Y18474D02*Y18296D01*
X44790Y18200D02*X44886Y18296D01*
X44433Y18200D02*X44790D01*
X44433D02*X44337Y18296D01*
Y18474D02*Y18296D01*
X44680Y18639D02*X44337Y18913D01*
X44680Y18982D02*Y18639D01*
X44337Y18913D02*X44886D01*
X51096Y16914D02*X51274D01*
X51000Y17010D02*X51096Y16914D01*
X51000Y17367D02*Y17010D01*
Y17367D02*X51096Y17463D01*
X51274D01*
X51439D02*X51713D01*
X51439D02*Y17189D01*
X51507Y17257D01*
X51645D01*
X51713Y17189D01*
Y16983D01*
X51645Y16914D02*X51713Y16983D01*
X51507Y16914D02*X51645D01*
X51439Y16983D02*X51507Y16914D01*
X48500Y22296D02*Y21407D01*
X48627Y21280D01*
X48881D01*
X49008Y21407D01*
Y22296D02*Y21407D01*
X49313Y22169D02*X49440Y22296D01*
X49821D01*
X49948Y22169D01*
Y21915D01*
X49313Y21280D02*X49948Y21915D01*
X49313Y21280D02*X49948D01*
X57600Y25663D02*Y25114D01*
X57874D01*
X58039Y25594D02*X58107Y25663D01*
X58313D01*
X58382Y25594D01*
Y25457D01*
X58039Y25114D02*X58382Y25457D01*
X58039Y25114D02*X58382D01*
X56800Y21046D02*X57054Y20538D01*
X57308Y21046D01*
X57054Y20538D02*Y20030D01*
X57613Y20843D02*X57816Y21046D01*
Y20030D01*
X57613D02*X57994D01*
X57096Y16314D02*X57274D01*
X57000Y16410D02*X57096Y16314D01*
X57000Y16767D02*Y16410D01*
Y16767D02*X57096Y16863D01*
X57274D01*
X57439Y16753D02*X57549Y16863D01*
Y16314D01*
X57439D02*X57645D01*
X58015Y16863D02*X58084Y16794D01*
X57878Y16863D02*X58015D01*
X57809Y16794D02*X57878Y16863D01*
X57809Y16794D02*Y16383D01*
X57878Y16314D01*
X58015Y16616D02*X58084Y16547D01*
X57809Y16616D02*X58015D01*
X57878Y16314D02*X58015D01*
X58084Y16383D01*
Y16547D02*Y16383D01*
X53800Y21663D02*X54074D01*
X54143Y21594D01*
Y21457D01*
X54074Y21389D02*X54143Y21457D01*
X53869Y21389D02*X54074D01*
X53869Y21663D02*Y21114D01*
X53978Y21389D02*X54143Y21114D01*
X54307Y21183D02*X54376Y21114D01*
X54307Y21293D02*Y21183D01*
Y21293D02*X54404Y21389D01*
X54486D01*
X54582Y21293D01*
Y21183D01*
X54513Y21114D02*X54582Y21183D01*
X54376Y21114D02*X54513D01*
X54307Y21485D02*X54404Y21389D01*
X54307Y21594D02*Y21485D01*
Y21594D02*X54376Y21663D01*
X54513D01*
X54582Y21594D01*
Y21485D01*
X54486Y21389D02*X54582Y21485D01*
X54870Y17708D02*Y17378D01*
X54692Y17200D02*X54870Y17378D01*
X54032Y17200D02*X54692D01*
X54032D02*X53854Y17378D01*
Y17708D02*Y17378D01*
Y18394D02*X53981Y18521D01*
X53854Y18394D02*Y18140D01*
X53981Y18013D02*X53854Y18140D01*
X53981Y18013D02*X54743D01*
X54870Y18140D01*
X54311Y18394D02*X54438Y18521D01*
X54311Y18394D02*Y18013D01*
X54870Y18394D02*Y18140D01*
Y18394D02*X54743Y18521D01*
X54438D02*X54743D01*
X53278Y13786D02*X53481D01*
Y12897D01*
X53354Y12770D02*X53481Y12897D01*
X53227Y12770D02*X53354D01*
X53100Y12897D02*X53227Y12770D01*
X53100Y13024D02*Y12897D01*
X53786Y13659D02*X53913Y13786D01*
X54167D01*
X54294Y13659D01*
X54167Y12770D02*X54294Y12897D01*
X53913Y12770D02*X54167D01*
X53786Y12897D02*X53913Y12770D01*
Y13329D02*X54167D01*
X54294Y13659D02*Y13456D01*
Y13202D02*Y12897D01*
Y13202D02*X54167Y13329D01*
X54294Y13456D02*X54167Y13329D01*
X53896Y22914D02*X54074D01*
X53800Y23010D02*X53896Y22914D01*
X53800Y23367D02*Y23010D01*
Y23367D02*X53896Y23463D01*
X54074D01*
X54239Y22983D02*X54307Y22914D01*
X54239Y23093D02*Y22983D01*
Y23093D02*X54335Y23189D01*
X54417D01*
X54513Y23093D01*
Y22983D01*
X54445Y22914D02*X54513Y22983D01*
X54307Y22914D02*X54445D01*
X54239Y23285D02*X54335Y23189D01*
X54239Y23394D02*Y23285D01*
Y23394D02*X54307Y23463D01*
X54445D01*
X54513Y23394D01*
Y23285D01*
X54417Y23189D02*X54513Y23285D01*
X45086Y16174D02*Y15996D01*
X44990Y15900D02*X45086Y15996D01*
X44633Y15900D02*X44990D01*
X44633D02*X44537Y15996D01*
Y16174D02*Y15996D01*
X44647Y16339D02*X44537Y16449D01*
X45086D01*
Y16545D02*Y16339D01*
X44647Y16709D02*X44537Y16819D01*
X45086D01*
Y16915D02*Y16709D01*
X48678Y11391D02*Y11137D01*
X48541Y11000D02*X48678Y11137D01*
X48032Y11000D02*X48541D01*
X48032D02*X47896Y11137D01*
Y11391D02*Y11137D01*
X48052Y11626D02*X47896Y11782D01*
X48678D01*
Y11919D02*Y11626D01*
X48385Y12154D02*X47896Y12545D01*
X48385Y12643D02*Y12154D01*
X47896Y12545D02*X48678D01*
X48037Y14174D02*Y13900D01*
Y14174D02*X48106Y14243D01*
X48243D01*
X48311Y14174D02*X48243Y14243D01*
X48311Y14174D02*Y13969D01*
X48037D02*X48586D01*
X48311Y14078D02*X48586Y14243D01*
X48037Y14613D02*X48106Y14682D01*
X48037Y14613D02*Y14476D01*
X48106Y14407D02*X48037Y14476D01*
X48106Y14407D02*X48517D01*
X48586Y14476D01*
X48284Y14613D02*X48353Y14682D01*
X48284Y14613D02*Y14407D01*
X48586Y14613D02*Y14476D01*
Y14613D02*X48517Y14682D01*
X48353D02*X48517D01*
X41437Y30874D02*Y30600D01*
Y30874D02*X41506Y30943D01*
X41643D01*
X41711Y30874D02*X41643Y30943D01*
X41711Y30874D02*Y30669D01*
X41437D02*X41986D01*
X41711Y30778D02*X41986Y30943D01*
X41547Y31107D02*X41437Y31217D01*
X41986D01*
Y31313D02*Y31107D01*
Y31546D02*X41437Y31821D01*
Y31478D01*
X50778Y30730D02*X51108D01*
X50600Y30908D02*X50778Y30730D01*
X50600Y31568D02*Y30908D01*
Y31568D02*X50778Y31746D01*
X51108D01*
X51413Y31111D02*X51921Y31746D01*
X51413Y31111D02*X52048D01*
X51921Y31746D02*Y30730D01*
X52353Y31619D02*X52480Y31746D01*
X52861D01*
X52988Y31619D01*
Y31365D01*
X52353Y30730D02*X52988Y31365D01*
X52353Y30730D02*X52988D01*
X45637Y33569D02*X46186D01*
X45637Y33747D02*X45733Y33843D01*
X46090D01*
X46186Y33747D02*X46090Y33843D01*
X46186Y33747D02*Y33500D01*
X45637Y33747D02*Y33500D01*
Y34282D02*X45706Y34350D01*
X45637Y34282D02*Y34076D01*
X45706Y34007D02*X45637Y34076D01*
X45706Y34007D02*X45843D01*
X45911Y34076D01*
Y34282D02*Y34076D01*
Y34282D02*X45980Y34350D01*
X46117D01*
X46186Y34282D02*X46117Y34350D01*
X46186Y34282D02*Y34076D01*
X46117Y34007D02*X46186Y34076D01*
X45747Y34515D02*X45637Y34625D01*
X46186D01*
Y34721D02*Y34515D01*
X45980Y34885D02*X45637Y35160D01*
X45980Y35228D02*Y34885D01*
X45637Y35160D02*X46186D01*
X57227Y31046D02*Y30030D01*
X57557Y31046D02*X57735Y30868D01*
Y30208D01*
X57557Y30030D02*X57735Y30208D01*
X57100Y30030D02*X57557D01*
X57100Y31046D02*X57557D01*
X58040Y30411D02*X58548Y31046D01*
X58040Y30411D02*X58675D01*
X58548Y31046D02*Y30030D01*
X54196Y24991D02*Y24600D01*
Y24991D02*X54293Y25089D01*
X54489D01*
X54587Y24991D02*X54489Y25089D01*
X54587Y24991D02*Y24698D01*
X54196D02*X54978D01*
X54587Y24854D02*X54978Y25089D01*
X54196Y25324D02*X54978D01*
X54196D02*X54978Y25813D01*
X54196D02*X54978D01*
X54293Y26047D02*X54196Y26145D01*
Y26438D02*Y26145D01*
Y26438D02*X54293Y26536D01*
X54489D01*
X54978Y26047D02*X54489Y26536D01*
X54978D02*Y26047D01*
X54196Y27591D02*Y27200D01*
Y27591D02*X54293Y27689D01*
X54489D01*
X54587Y27591D02*X54489Y27689D01*
X54587Y27591D02*Y27298D01*
X54196D02*X54978D01*
X54587Y27454D02*X54978Y27689D01*
X54196Y27924D02*X54978D01*
X54196D02*X54978Y28413D01*
X54196D02*X54978D01*
X54352Y28647D02*X54196Y28804D01*
X54978D01*
Y28941D02*Y28647D01*
X58296Y24114D02*X58474D01*
X58200Y24210D02*X58296Y24114D01*
X58200Y24567D02*Y24210D01*
Y24567D02*X58296Y24663D01*
X58474D01*
X58639Y24553D02*X58749Y24663D01*
Y24114D01*
X58639D02*X58845D01*
X59009Y24663D02*X59284D01*
X59009D02*Y24389D01*
X59078Y24457D01*
X59215D01*
X59284Y24389D01*
Y24183D01*
X59215Y24114D02*X59284Y24183D01*
X59078Y24114D02*X59215D01*
X59009Y24183D02*X59078Y24114D01*
X46146Y26014D02*X46324D01*
X46050Y26110D02*X46146Y26014D01*
X46050Y26467D02*Y26110D01*
Y26467D02*X46146Y26563D01*
X46324D01*
X46489Y26494D02*X46557Y26563D01*
X46695D01*
X46763Y26494D01*
X46695Y26014D02*X46763Y26083D01*
X46557Y26014D02*X46695D01*
X46489Y26083D02*X46557Y26014D01*
Y26316D02*X46695D01*
X46763Y26494D02*Y26385D01*
Y26247D02*Y26083D01*
Y26247D02*X46695Y26316D01*
X46763Y26385D02*X46695Y26316D01*
X48500Y26563D02*X48774D01*
X48843Y26494D01*
Y26357D01*
X48774Y26289D02*X48843Y26357D01*
X48569Y26289D02*X48774D01*
X48569Y26563D02*Y26014D01*
X48678Y26289D02*X48843Y26014D01*
X49076D02*X49350Y26563D01*
X49007D02*X49350D01*
X50637Y27569D02*X51186D01*
X50637Y27747D02*X50733Y27843D01*
X51090D01*
X51186Y27747D02*X51090Y27843D01*
X51186Y27747D02*Y27500D01*
X50637Y27747D02*Y27500D01*
Y28282D02*X50706Y28350D01*
X50637Y28282D02*Y28076D01*
X50706Y28007D02*X50637Y28076D01*
X50706Y28007D02*X50843D01*
X50911Y28076D01*
Y28282D02*Y28076D01*
Y28282D02*X50980Y28350D01*
X51117D01*
X51186Y28282D02*X51117Y28350D01*
X51186Y28282D02*Y28076D01*
X51117Y28007D02*X51186Y28076D01*
X50747Y28515D02*X50637Y28625D01*
X51186D01*
Y28721D02*Y28515D01*
X51117Y28885D02*X51186Y28954D01*
X50706Y28885D02*X51117D01*
X50706D02*X50637Y28954D01*
Y29091D02*Y28954D01*
Y29091D02*X50706Y29160D01*
X51117D01*
X51186Y29091D02*X51117Y29160D01*
X51186Y29091D02*Y28954D01*
X51049Y28885D02*X50774Y29160D01*
X46600Y29163D02*X46874D01*
X46943Y29094D01*
Y28957D01*
X46874Y28889D02*X46943Y28957D01*
X46669Y28889D02*X46874D01*
X46669Y29163D02*Y28614D01*
X46778Y28889D02*X46943Y28614D01*
X47107Y28820D02*X47382Y29163D01*
X47107Y28820D02*X47450D01*
X47382Y29163D02*Y28614D01*
X46600Y28163D02*X46874D01*
X46943Y28094D01*
Y27957D01*
X46874Y27889D02*X46943Y27957D01*
X46669Y27889D02*X46874D01*
X46669Y28163D02*Y27614D01*
X46778Y27889D02*X46943Y27614D01*
X47107Y28163D02*X47382D01*
X47107D02*Y27889D01*
X47176Y27957D01*
X47313D01*
X47382Y27889D01*
Y27683D01*
X47313Y27614D02*X47382Y27683D01*
X47176Y27614D02*X47313D01*
X47107Y27683D02*X47176Y27614D01*
X13078Y61091D02*Y60837D01*
X12941Y60700D02*X13078Y60837D01*
X12432Y60700D02*X12941D01*
X12432D02*X12296Y60837D01*
Y61091D02*Y60837D01*
X12393Y61326D02*X12296Y61424D01*
Y61717D02*Y61424D01*
Y61717D02*X12393Y61815D01*
X12589D01*
X13078Y61326D02*X12589Y61815D01*
X13078D02*Y61326D01*
X12452Y62050D02*X12296Y62206D01*
X13078D01*
Y62343D02*Y62050D01*
X30700Y63463D02*X30974D01*
X31043Y63394D01*
Y63257D01*
X30974Y63189D02*X31043Y63257D01*
X30769Y63189D02*X30974D01*
X30769Y63463D02*Y62914D01*
X30878Y63189D02*X31043Y62914D01*
X31207Y63394D02*X31276Y63463D01*
X31482D01*
X31550Y63394D01*
Y63257D01*
X31207Y62914D02*X31550Y63257D01*
X31207Y62914D02*X31550D01*
X31715Y62983D02*X31784Y62914D01*
X31715Y63394D02*Y62983D01*
Y63394D02*X31784Y63463D01*
X31921D01*
X31989Y63394D01*
Y62983D01*
X31921Y62914D02*X31989Y62983D01*
X31784Y62914D02*X31921D01*
X31715Y63051D02*X31989Y63326D01*
X30700Y62063D02*X30974D01*
X31043Y61994D01*
Y61857D01*
X30974Y61789D02*X31043Y61857D01*
X30769Y61789D02*X30974D01*
X30769Y62063D02*Y61514D01*
X30878Y61789D02*X31043Y61514D01*
X31207Y61953D02*X31317Y62063D01*
Y61514D01*
X31207D02*X31413D01*
X31784Y62063D02*X31852Y61994D01*
X31646Y62063D02*X31784D01*
X31578Y61994D02*X31646Y62063D01*
X31578Y61994D02*Y61583D01*
X31646Y61514D01*
X31784Y61816D02*X31852Y61747D01*
X31578Y61816D02*X31784D01*
X31646Y61514D02*X31784D01*
X31852Y61583D01*
Y61747D02*Y61583D01*
X29786Y62174D02*Y61996D01*
X29690Y61900D02*X29786Y61996D01*
X29333Y61900D02*X29690D01*
X29333D02*X29237Y61996D01*
Y62174D02*Y61996D01*
X29306Y62339D02*X29237Y62407D01*
Y62545D02*Y62407D01*
Y62545D02*X29306Y62613D01*
X29786Y62545D02*X29717Y62613D01*
X29786Y62545D02*Y62407D01*
X29717Y62339D02*X29786Y62407D01*
X29484Y62545D02*Y62407D01*
X29306Y62613D02*X29415D01*
X29553D02*X29717D01*
X29553D02*X29484Y62545D01*
X29415Y62613D02*X29484Y62545D01*
X29717Y62778D02*X29786Y62846D01*
X29306Y62778D02*X29717D01*
X29306D02*X29237Y62846D01*
Y62984D02*Y62846D01*
Y62984D02*X29306Y63052D01*
X29717D01*
X29786Y62984D02*X29717Y63052D01*
X29786Y62984D02*Y62846D01*
X29649Y62778D02*X29374Y63052D01*
X31437Y52474D02*Y52200D01*
Y52474D02*X31506Y52543D01*
X31643D01*
X31711Y52474D02*X31643Y52543D01*
X31711Y52474D02*Y52269D01*
X31437D02*X31986D01*
X31711Y52378D02*X31986Y52543D01*
X31547Y52707D02*X31437Y52817D01*
X31986D01*
Y52913D02*Y52707D01*
X31437Y53352D02*Y53078D01*
X31711D01*
X31643Y53146D01*
Y53284D02*Y53146D01*
Y53284D02*X31711Y53352D01*
X31917D01*
X31986Y53284D02*X31917Y53352D01*
X31986Y53284D02*Y53146D01*
X31917Y53078D02*X31986Y53146D01*
X24900Y54846D02*Y53957D01*
X25027Y53830D01*
X25281D01*
X25408Y53957D01*
Y54846D02*Y53957D01*
X26094Y54846D02*X26221Y54719D01*
X25840Y54846D02*X26094D01*
X25713Y54719D02*X25840Y54846D01*
X25713Y54719D02*Y53957D01*
X25840Y53830D01*
X26094Y54389D02*X26221Y54262D01*
X25713Y54389D02*X26094D01*
X25840Y53830D02*X26094D01*
X26221Y53957D01*
Y54262D02*Y53957D01*
X30598Y55004D02*Y54222D01*
X30852Y55004D02*X30989Y54868D01*
Y54359D01*
X30852Y54222D02*X30989Y54359D01*
X30500Y54222D02*X30852D01*
X30500Y55004D02*X30852D01*
X31321Y54222D02*X31713Y55004D01*
X31224D02*X31713D01*
X28686Y53974D02*Y53796D01*
X28590Y53700D02*X28686Y53796D01*
X28233Y53700D02*X28590D01*
X28233D02*X28137Y53796D01*
Y53974D02*Y53796D01*
X28206Y54139D02*X28137Y54207D01*
Y54345D02*Y54207D01*
Y54345D02*X28206Y54413D01*
X28686Y54345D02*X28617Y54413D01*
X28686Y54345D02*Y54207D01*
X28617Y54139D02*X28686Y54207D01*
X28384Y54345D02*Y54207D01*
X28206Y54413D02*X28315D01*
X28453D02*X28617D01*
X28453D02*X28384Y54345D01*
X28315Y54413D02*X28384Y54345D01*
X28247Y54578D02*X28137Y54688D01*
X28686D01*
Y54784D02*Y54578D01*
X20619Y58254D02*X20822D01*
X20619Y59143D02*Y58254D01*
X20746Y59270D02*X20619Y59143D01*
X20746Y59270D02*X20873D01*
X21000Y59143D02*X20873Y59270D01*
X21000Y59143D02*Y59016D01*
X20314Y58889D02*X19806Y58254D01*
X19679Y58889D02*X20314D01*
X19806Y59270D02*Y58254D01*
X30000Y58919D02*Y58157D01*
Y58919D02*X30127Y59046D01*
X30381D01*
X30508Y58919D01*
Y58284D01*
X30254Y58030D02*X30508Y58284D01*
X30127Y58030D02*X30254D01*
X30000Y58157D02*X30127Y58030D01*
X30254Y58411D02*X30508Y58030D01*
X30813Y58919D02*X30940Y59046D01*
X31321D01*
X31448Y58919D01*
Y58665D01*
X30813Y58030D02*X31448Y58665D01*
X30813Y58030D02*X31448D01*
X38020Y58226D02*Y57337D01*
X38147Y57210D01*
X38401D01*
X38528Y57337D01*
Y58226D02*Y57337D01*
X38833Y58226D02*X39341D01*
X38833D02*Y57718D01*
X38960Y57845D01*
X39214D01*
X39341Y57718D01*
Y57337D01*
X39214Y57210D02*X39341Y57337D01*
X38960Y57210D02*X39214D01*
X38833Y57337D02*X38960Y57210D01*
X39678Y49130D02*X40008D01*
X39500Y49308D02*X39678Y49130D01*
X39500Y49968D02*Y49308D01*
Y49968D02*X39678Y50146D01*
X40008D01*
X40313Y50019D02*X40440Y50146D01*
X40821D01*
X40948Y50019D01*
Y49765D01*
X40313Y49130D02*X40948Y49765D01*
X40313Y49130D02*X40948D01*
X41253Y50019D02*X41380Y50146D01*
X41634D01*
X41761Y50019D01*
X41634Y49130D02*X41761Y49257D01*
X41380Y49130D02*X41634D01*
X41253Y49257D02*X41380Y49130D01*
Y49689D02*X41634D01*
X41761Y50019D02*Y49816D01*
Y49562D02*Y49257D01*
Y49562D02*X41634Y49689D01*
X41761Y49816D02*X41634Y49689D01*
X11586Y51374D02*Y51196D01*
X11490Y51100D02*X11586Y51196D01*
X11133Y51100D02*X11490D01*
X11133D02*X11037Y51196D01*
Y51374D02*Y51196D01*
X11106Y51539D02*X11037Y51607D01*
Y51813D02*Y51607D01*
Y51813D02*X11106Y51882D01*
X11243D01*
X11586Y51539D02*X11243Y51882D01*
X11586D02*Y51539D01*
X11106Y52046D02*X11037Y52115D01*
Y52321D02*Y52115D01*
Y52321D02*X11106Y52389D01*
X11243D01*
X11586Y52046D02*X11243Y52389D01*
X11586D02*Y52046D01*
X11678Y53991D02*Y53737D01*
X11541Y53600D02*X11678Y53737D01*
X11032Y53600D02*X11541D01*
X11032D02*X10896Y53737D01*
Y53991D02*Y53737D01*
X10993Y54226D02*X10896Y54324D01*
Y54617D02*Y54324D01*
Y54617D02*X10993Y54715D01*
X11189D01*
X11678Y54226D02*X11189Y54715D01*
X11678D02*Y54226D01*
X11580Y54950D02*X11678Y55047D01*
X10993Y54950D02*X11580D01*
X10993D02*X10896Y55047D01*
Y55243D02*Y55047D01*
Y55243D02*X10993Y55341D01*
X11580D01*
X11678Y55243D02*X11580Y55341D01*
X11678Y55243D02*Y55047D01*
X11482Y54950D02*X11091Y55341D01*
X13800Y54021D02*Y53132D01*
X13927Y53005D01*
X14181D01*
X14308Y53132D01*
Y54021D02*Y53132D01*
X14613Y53386D02*X15121Y54021D01*
X14613Y53386D02*X15248D01*
X15121Y54021D02*Y53005D01*
X19727Y54546D02*Y53530D01*
X20057Y54546D02*X20235Y54368D01*
Y53708D01*
X20057Y53530D02*X20235Y53708D01*
X19600Y53530D02*X20057D01*
X19600Y54546D02*X20057D01*
X20921D02*X21048Y54419D01*
X20667Y54546D02*X20921D01*
X20540Y54419D02*X20667Y54546D01*
X20540Y54419D02*Y53657D01*
X20667Y53530D01*
X20921Y54089D02*X21048Y53962D01*
X20540Y54089D02*X20921D01*
X20667Y53530D02*X20921D01*
X21048Y53657D01*
Y53962D02*Y53657D01*
X10737Y49274D02*Y49000D01*
Y49274D02*X10806Y49343D01*
X10943D01*
X11011Y49274D02*X10943Y49343D01*
X11011Y49274D02*Y49069D01*
X10737D02*X11286D01*
X11011Y49178D02*X11286Y49343D01*
X10806Y49507D02*X10737Y49576D01*
Y49782D02*Y49576D01*
Y49782D02*X10806Y49850D01*
X10943D01*
X11286Y49507D02*X10943Y49850D01*
X11286D02*Y49507D01*
Y50084D02*X11011Y50289D01*
X10806D02*X11011D01*
X10737Y50221D02*X10806Y50289D01*
X10737Y50221D02*Y50084D01*
X10806Y50015D02*X10737Y50084D01*
X10806Y50015D02*X10943D01*
X11011Y50084D01*
Y50289D02*Y50084D01*
X12237Y48869D02*X12786D01*
X12237Y49047D02*X12333Y49143D01*
X12690D01*
X12786Y49047D02*X12690Y49143D01*
X12786Y49047D02*Y48800D01*
X12237Y49047D02*Y48800D01*
Y49582D02*X12306Y49650D01*
X12237Y49582D02*Y49376D01*
X12306Y49307D02*X12237Y49376D01*
X12306Y49307D02*X12443D01*
X12511Y49376D01*
Y49582D02*Y49376D01*
Y49582D02*X12580Y49650D01*
X12717D01*
X12786Y49582D02*X12717Y49650D01*
X12786Y49582D02*Y49376D01*
X12717Y49307D02*X12786Y49376D01*
X12347Y49815D02*X12237Y49925D01*
X12786D01*
Y50021D02*Y49815D01*
X12237Y50460D02*Y50185D01*
X12511D01*
X12443Y50254D01*
Y50391D02*Y50254D01*
Y50391D02*X12511Y50460D01*
X12717D01*
X12786Y50391D02*X12717Y50460D01*
X12786Y50391D02*Y50254D01*
X12717Y50185D02*X12786Y50254D01*
X36586Y13574D02*Y13396D01*
X36490Y13300D02*X36586Y13396D01*
X36133Y13300D02*X36490D01*
X36133D02*X36037Y13396D01*
Y13574D02*Y13396D01*
X36106Y13739D02*X36037Y13807D01*
Y14013D02*Y13807D01*
Y14013D02*X36106Y14082D01*
X36243D01*
X36586Y13739D02*X36243Y14082D01*
X36586D02*Y13739D01*
X31496Y33691D02*Y33300D01*
Y33691D02*X31593Y33789D01*
X31789D01*
X31887Y33691D02*X31789Y33789D01*
X31887Y33691D02*Y33398D01*
X31496D02*X32278D01*
X31887Y33554D02*X32278Y33789D01*
X31496Y34024D02*X32278D01*
X31496D02*X32278Y34513D01*
X31496D02*X32278D01*
X31496Y35041D02*X31593Y35138D01*
X31496Y35041D02*Y34845D01*
X31593Y34747D02*X31496Y34845D01*
X31593Y34747D02*X32180D01*
X32278Y34845D01*
X31848Y35041D02*X31945Y35138D01*
X31848Y35041D02*Y34747D01*
X32278Y35041D02*Y34845D01*
Y35041D02*X32180Y35138D01*
X31945D02*X32180D01*
X31486Y27374D02*Y27196D01*
X31390Y27100D02*X31486Y27196D01*
X31033Y27100D02*X31390D01*
X31033D02*X30937Y27196D01*
Y27374D02*Y27196D01*
X31006Y27539D02*X30937Y27607D01*
Y27745D02*Y27607D01*
Y27745D02*X31006Y27813D01*
X31486Y27745D02*X31417Y27813D01*
X31486Y27745D02*Y27607D01*
X31417Y27539D02*X31486Y27607D01*
X31184Y27745D02*Y27607D01*
X31006Y27813D02*X31115D01*
X31253D02*X31417D01*
X31253D02*X31184Y27745D01*
X31115Y27813D02*X31184Y27745D01*
X31486Y28046D02*X30937Y28321D01*
Y27978D01*
X31486Y25474D02*Y25296D01*
X31390Y25200D02*X31486Y25296D01*
X31033Y25200D02*X31390D01*
X31033D02*X30937Y25296D01*
Y25474D02*Y25296D01*
X31006Y25639D02*X30937Y25707D01*
Y25845D02*Y25707D01*
Y25845D02*X31006Y25913D01*
X31486Y25845D02*X31417Y25913D01*
X31486Y25845D02*Y25707D01*
X31417Y25639D02*X31486Y25707D01*
X31184Y25845D02*Y25707D01*
X31006Y25913D02*X31115D01*
X31253D02*X31417D01*
X31253D02*X31184Y25845D01*
X31115Y25913D02*X31184Y25845D01*
X31417Y26078D02*X31486Y26146D01*
X31307Y26078D02*X31417D01*
X31307D02*X31211Y26174D01*
Y26256D02*Y26174D01*
Y26256D02*X31307Y26352D01*
X31417D01*
X31486Y26284D02*X31417Y26352D01*
X31486Y26284D02*Y26146D01*
X31115Y26078D02*X31211Y26174D01*
X31006Y26078D02*X31115D01*
X31006D02*X30937Y26146D01*
Y26284D02*Y26146D01*
Y26284D02*X31006Y26352D01*
X31115D01*
X31211Y26256D02*X31115Y26352D01*
X30937Y22774D02*Y22500D01*
Y22774D02*X31006Y22843D01*
X31143D01*
X31211Y22774D02*X31143Y22843D01*
X31211Y22774D02*Y22569D01*
X30937D02*X31486D01*
X31211Y22678D02*X31486Y22843D01*
X31006Y23007D02*X30937Y23076D01*
Y23282D02*Y23076D01*
Y23282D02*X31006Y23350D01*
X31143D01*
X31486Y23007D02*X31143Y23350D01*
X31486D02*Y23007D01*
X30937Y23721D02*X31006Y23789D01*
X30937Y23721D02*Y23584D01*
X31006Y23515D02*X30937Y23584D01*
X31006Y23515D02*X31417D01*
X31486Y23584D01*
X31184Y23721D02*X31253Y23789D01*
X31184Y23721D02*Y23515D01*
X31486Y23721D02*Y23584D01*
Y23721D02*X31417Y23789D01*
X31253D02*X31417D01*
X31254Y17100D02*X32270D01*
X31254Y17608D02*Y17100D01*
X31711Y17481D02*Y17100D01*
X31457Y17913D02*X31254Y18116D01*
X32270D01*
Y18294D02*Y17913D01*
X36586Y11674D02*Y11496D01*
X36490Y11400D02*X36586Y11496D01*
X36133Y11400D02*X36490D01*
X36133D02*X36037Y11496D01*
Y11674D02*Y11496D01*
X36147Y11839D02*X36037Y11949D01*
X36586D01*
Y12045D02*Y11839D01*
X36300Y26946D02*Y26057D01*
X36427Y25930D01*
X36681D01*
X36808Y26057D01*
Y26946D02*Y26057D01*
X37240Y25930D02*X37748Y26946D01*
X37113D02*X37748D01*
X35737Y20169D02*X36286D01*
X35737Y20347D02*X35833Y20443D01*
X36190D01*
X36286Y20347D02*X36190Y20443D01*
X36286Y20347D02*Y20100D01*
X35737Y20347D02*Y20100D01*
Y20882D02*X35806Y20950D01*
X35737Y20882D02*Y20676D01*
X35806Y20607D02*X35737Y20676D01*
X35806Y20607D02*X35943D01*
X36011Y20676D01*
Y20882D02*Y20676D01*
Y20882D02*X36080Y20950D01*
X36217D01*
X36286Y20882D02*X36217Y20950D01*
X36286Y20882D02*Y20676D01*
X36217Y20607D02*X36286Y20676D01*
X35847Y21115D02*X35737Y21225D01*
X36286D01*
Y21321D02*Y21115D01*
X37037Y20574D02*Y20300D01*
Y20574D02*X37106Y20643D01*
X37243D01*
X37311Y20574D02*X37243Y20643D01*
X37311Y20574D02*Y20369D01*
X37037D02*X37586D01*
X37311Y20478D02*X37586Y20643D01*
X37147Y20807D02*X37037Y20917D01*
X37586D01*
Y21013D02*Y20807D01*
X40500Y20046D02*Y19157D01*
X40627Y19030D01*
X40881D01*
X41008Y19157D01*
Y20046D02*Y19157D01*
X41313Y19919D02*X41440Y20046D01*
X41694D01*
X41821Y19919D01*
X41694Y19030D02*X41821Y19157D01*
X41440Y19030D02*X41694D01*
X41313Y19157D02*X41440Y19030D01*
Y19589D02*X41694D01*
X41821Y19919D02*Y19716D01*
Y19462D02*Y19157D01*
Y19462D02*X41694Y19589D01*
X41821Y19716D02*X41694Y19589D01*
X32700Y13246D02*Y12357D01*
X32827Y12230D01*
X33081D01*
X33208Y12357D01*
Y13246D02*Y12357D01*
X33513Y13043D02*X33716Y13246D01*
Y12230D01*
X33513D02*X33894D01*
X35527Y17846D02*Y16830D01*
X35857Y17846D02*X36035Y17668D01*
Y17008D01*
X35857Y16830D02*X36035Y17008D01*
X35400Y16830D02*X35857D01*
X35400Y17846D02*X35857D01*
X36340Y17719D02*X36467Y17846D01*
X36848D01*
X36975Y17719D01*
Y17465D01*
X36340Y16830D02*X36975Y17465D01*
X36340Y16830D02*X36975D01*
X37496Y37091D02*Y36700D01*
Y37091D02*X37593Y37189D01*
X37789D01*
X37887Y37091D02*X37789Y37189D01*
X37887Y37091D02*Y36798D01*
X37496D02*X38278D01*
X37887Y36954D02*X38278Y37189D01*
X37496Y37424D02*X38278D01*
X37496D02*X38278Y37913D01*
X37496D02*X38278D01*
X37985Y38147D02*X37496Y38538D01*
X37985Y38636D02*Y38147D01*
X37496Y38538D02*X38278D01*
X31496Y38891D02*Y38500D01*
Y38891D02*X31593Y38989D01*
X31789D01*
X31887Y38891D02*X31789Y38989D01*
X31887Y38891D02*Y38598D01*
X31496D02*X32278D01*
X31887Y38754D02*X32278Y38989D01*
X31496Y39224D02*X32278D01*
X31496D02*X32278Y39713D01*
X31496D02*X32278D01*
X31496Y40338D02*Y39947D01*
X31887D01*
X31789Y40045D01*
Y40241D02*Y40045D01*
Y40241D02*X31887Y40338D01*
X32180D01*
X32278Y40241D02*X32180Y40338D01*
X32278Y40241D02*Y40045D01*
X32180Y39947D02*X32278Y40045D01*
X34578Y42630D02*X34908D01*
X34400Y42808D02*X34578Y42630D01*
X34400Y43468D02*Y42808D01*
Y43468D02*X34578Y43646D01*
X34908D01*
X35213Y43519D02*X35340Y43646D01*
X35721D01*
X35848Y43519D01*
Y43265D01*
X35213Y42630D02*X35848Y43265D01*
X35213Y42630D02*X35848D01*
X36280D02*X36661Y43138D01*
Y43519D02*Y43138D01*
X36534Y43646D02*X36661Y43519D01*
X36280Y43646D02*X36534D01*
X36153Y43519D02*X36280Y43646D01*
X36153Y43519D02*Y43265D01*
X36280Y43138D01*
X36661D01*
X34578Y44930D02*X34908D01*
X34400Y45108D02*X34578Y44930D01*
X34400Y45768D02*Y45108D01*
Y45768D02*X34578Y45946D01*
X34908D01*
X35213Y45819D02*X35340Y45946D01*
X35721D01*
X35848Y45819D01*
Y45565D01*
X35213Y44930D02*X35848Y45565D01*
X35213Y44930D02*X35848D01*
X36153Y45057D02*X36280Y44930D01*
X36153Y45260D02*Y45057D01*
Y45260D02*X36330Y45438D01*
X36483D01*
X36661Y45260D01*
Y45057D01*
X36534Y44930D02*X36661Y45057D01*
X36280Y44930D02*X36534D01*
X36153Y45616D02*X36330Y45438D01*
X36153Y45819D02*Y45616D01*
Y45819D02*X36280Y45946D01*
X36534D01*
X36661Y45819D01*
Y45616D01*
X36483Y45438D02*X36661Y45616D01*
X34578Y47230D02*X34908D01*
X34400Y47408D02*X34578Y47230D01*
X34400Y48068D02*Y47408D01*
Y48068D02*X34578Y48246D01*
X34908D01*
X35213Y48119D02*X35340Y48246D01*
X35721D01*
X35848Y48119D01*
Y47865D01*
X35213Y47230D02*X35848Y47865D01*
X35213Y47230D02*X35848D01*
X36280D02*X36788Y48246D01*
X36153D02*X36788D01*
X34578Y49530D02*X34908D01*
X34400Y49708D02*X34578Y49530D01*
X34400Y50368D02*Y49708D01*
Y50368D02*X34578Y50546D01*
X34908D01*
X35213Y50419D02*X35340Y50546D01*
X35721D01*
X35848Y50419D01*
Y50165D01*
X35213Y49530D02*X35848Y50165D01*
X35213Y49530D02*X35848D01*
X36534Y50546D02*X36661Y50419D01*
X36280Y50546D02*X36534D01*
X36153Y50419D02*X36280Y50546D01*
X36153Y50419D02*Y49657D01*
X36280Y49530D01*
X36534Y50089D02*X36661Y49962D01*
X36153Y50089D02*X36534D01*
X36280Y49530D02*X36534D01*
X36661Y49657D01*
Y49962D02*Y49657D01*
X29800Y49246D02*X30308D01*
X30435Y49119D01*
Y48865D01*
X30308Y48738D02*X30435Y48865D01*
X29927Y48738D02*X30308D01*
X29927Y49246D02*Y48230D01*
X30130Y48738D02*X30435Y48230D01*
X30740Y49043D02*X30943Y49246D01*
Y48230D01*
X30740D02*X31121D01*
X31426Y48357D02*X31553Y48230D01*
X31426Y48560D02*Y48357D01*
Y48560D02*X31603Y48738D01*
X31756D01*
X31934Y48560D01*
Y48357D01*
X31807Y48230D02*X31934Y48357D01*
X31553Y48230D02*X31807D01*
X31426Y48916D02*X31603Y48738D01*
X31426Y49119D02*Y48916D01*
Y49119D02*X31553Y49246D01*
X31807D01*
X31934Y49119D01*
Y48916D01*
X31756Y48738D02*X31934Y48916D01*
X25896Y51414D02*X26074D01*
X25800Y51510D02*X25896Y51414D01*
X25800Y51867D02*Y51510D01*
Y51867D02*X25896Y51963D01*
X26074D01*
X26239Y51894D02*X26307Y51963D01*
X26445D01*
X26513Y51894D01*
X26445Y51414D02*X26513Y51483D01*
X26307Y51414D02*X26445D01*
X26239Y51483D02*X26307Y51414D01*
Y51716D02*X26445D01*
X26513Y51894D02*Y51785D01*
Y51647D02*Y51483D01*
Y51647D02*X26445Y51716D01*
X26513Y51785D02*X26445Y51716D01*
X26678Y51894D02*X26746Y51963D01*
X26952D01*
X27021Y51894D01*
Y51757D01*
X26678Y51414D02*X27021Y51757D01*
X26678Y51414D02*X27021D01*
X23900Y51963D02*X24174D01*
X24243Y51894D01*
Y51757D01*
X24174Y51689D02*X24243Y51757D01*
X23969Y51689D02*X24174D01*
X23969Y51963D02*Y51414D01*
X24078Y51689D02*X24243Y51414D01*
X24407Y51894D02*X24476Y51963D01*
X24682D01*
X24750Y51894D01*
Y51757D01*
X24407Y51414D02*X24750Y51757D01*
X24407Y51414D02*X24750D01*
X24915Y51853D02*X25025Y51963D01*
Y51414D01*
X24915D02*X25121D01*
X27700Y51963D02*X27974D01*
X28043Y51894D01*
Y51757D01*
X27974Y51689D02*X28043Y51757D01*
X27769Y51689D02*X27974D01*
X27769Y51963D02*Y51414D01*
X27878Y51689D02*X28043Y51414D01*
X28207Y51853D02*X28317Y51963D01*
Y51414D01*
X28207D02*X28413D01*
X28646D02*X28852Y51689D01*
Y51894D02*Y51689D01*
X28784Y51963D02*X28852Y51894D01*
X28646Y51963D02*X28784D01*
X28578Y51894D02*X28646Y51963D01*
X28578Y51894D02*Y51757D01*
X28646Y51689D01*
X28852D01*
X20696Y49318D02*X21478D01*
X20696Y49572D02*X20832Y49709D01*
X21341D01*
X21478Y49572D02*X21341Y49709D01*
X21478Y49572D02*Y49220D01*
X20696Y49572D02*Y49220D01*
X20852Y49944D02*X20696Y50100D01*
X21478D01*
Y50237D02*Y49944D01*
X20696Y50765D02*X20793Y50863D01*
X20696Y50765D02*Y50570D01*
X20793Y50472D02*X20696Y50570D01*
X20793Y50472D02*X21380D01*
X21478Y50570D01*
X21048Y50765D02*X21145Y50863D01*
X21048Y50765D02*Y50472D01*
X21478Y50765D02*Y50570D01*
Y50765D02*X21380Y50863D01*
X21145D02*X21380D01*
X17378Y49010D02*X17708D01*
X17200Y49188D02*X17378Y49010D01*
X17200Y49848D02*Y49188D01*
Y49848D02*X17378Y50026D01*
X17708D01*
X18013Y49391D02*X18521Y50026D01*
X18013Y49391D02*X18648D01*
X18521Y50026D02*Y49010D01*
X18953Y49899D02*X19080Y50026D01*
X19334D01*
X19461Y49899D01*
X19334Y49010D02*X19461Y49137D01*
X19080Y49010D02*X19334D01*
X18953Y49137D02*X19080Y49010D01*
Y49569D02*X19334D01*
X19461Y49899D02*Y49696D01*
Y49442D02*Y49137D01*
Y49442D02*X19334Y49569D01*
X19461Y49696D02*X19334Y49569D01*
X27627Y39946D02*Y38930D01*
X27957Y39946D02*X28135Y39768D01*
Y39108D01*
X27957Y38930D02*X28135Y39108D01*
X27500Y38930D02*X27957D01*
X27500Y39946D02*X27957D01*
X28440Y39743D02*X28643Y39946D01*
Y38930D01*
X28440D02*X28821D01*
X29126Y39946D02*X29634D01*
X29126D02*Y39438D01*
X29253Y39565D01*
X29507D01*
X29634Y39438D01*
Y39057D01*
X29507Y38930D02*X29634Y39057D01*
X29253Y38930D02*X29507D01*
X29126Y39057D02*X29253Y38930D01*
X18738Y38726D02*X18941D01*
Y37837D01*
X18814Y37710D02*X18941Y37837D01*
X18687Y37710D02*X18814D01*
X18560Y37837D02*X18687Y37710D01*
X18560Y37964D02*Y37837D01*
X19373Y37710D02*X19881Y38726D01*
X19246D02*X19881D01*
X27627Y45146D02*Y44130D01*
X27957Y45146D02*X28135Y44968D01*
Y44308D01*
X27957Y44130D02*X28135Y44308D01*
X27500Y44130D02*X27957D01*
X27500Y45146D02*X27957D01*
X28440Y44943D02*X28643Y45146D01*
Y44130D01*
X28440D02*X28821D01*
X29126Y44511D02*X29634Y45146D01*
X29126Y44511D02*X29761D01*
X29634Y45146D02*Y44130D01*
X25737Y43969D02*X26286D01*
X25737Y44147D02*X25833Y44243D01*
X26190D01*
X26286Y44147D02*X26190Y44243D01*
X26286Y44147D02*Y43900D01*
X25737Y44147D02*Y43900D01*
Y44682D02*X25806Y44750D01*
X25737Y44682D02*Y44476D01*
X25806Y44407D02*X25737Y44476D01*
X25806Y44407D02*X25943D01*
X26011Y44476D01*
Y44682D02*Y44476D01*
Y44682D02*X26080Y44750D01*
X26217D01*
X26286Y44682D02*X26217Y44750D01*
X26286Y44682D02*Y44476D01*
X26217Y44407D02*X26286Y44476D01*
X25806Y44915D02*X25737Y44984D01*
Y45121D02*Y44984D01*
Y45121D02*X25806Y45189D01*
X26286Y45121D02*X26217Y45189D01*
X26286Y45121D02*Y44984D01*
X26217Y44915D02*X26286Y44984D01*
X25984Y45121D02*Y44984D01*
X25806Y45189D02*X25915D01*
X26053D02*X26217D01*
X26053D02*X25984Y45121D01*
X25915Y45189D02*X25984Y45121D01*
X25737Y36369D02*X26286D01*
X25737Y36547D02*X25833Y36643D01*
X26190D01*
X26286Y36547D02*X26190Y36643D01*
X26286Y36547D02*Y36300D01*
X25737Y36547D02*Y36300D01*
Y37082D02*X25806Y37150D01*
X25737Y37082D02*Y36876D01*
X25806Y36807D02*X25737Y36876D01*
X25806Y36807D02*X25943D01*
X26011Y36876D01*
Y37082D02*Y36876D01*
Y37082D02*X26080Y37150D01*
X26217D01*
X26286Y37082D02*X26217Y37150D01*
X26286Y37082D02*Y36876D01*
X26217Y36807D02*X26286Y36876D01*
X25737Y37521D02*X25806Y37589D01*
X25737Y37521D02*Y37384D01*
X25806Y37315D02*X25737Y37384D01*
X25806Y37315D02*X26217D01*
X26286Y37384D01*
X25984Y37521D02*X26053Y37589D01*
X25984Y37521D02*Y37315D01*
X26286Y37521D02*Y37384D01*
Y37521D02*X26217Y37589D01*
X26053D02*X26217D01*
X25737Y38869D02*X26286D01*
X25737Y39047D02*X25833Y39143D01*
X26190D01*
X26286Y39047D02*X26190Y39143D01*
X26286Y39047D02*Y38800D01*
X25737Y39047D02*Y38800D01*
Y39582D02*X25806Y39650D01*
X25737Y39582D02*Y39376D01*
X25806Y39307D02*X25737Y39376D01*
X25806Y39307D02*X25943D01*
X26011Y39376D01*
Y39582D02*Y39376D01*
Y39582D02*X26080Y39650D01*
X26217D01*
X26286Y39582D02*X26217Y39650D01*
X26286Y39582D02*Y39376D01*
X26217Y39307D02*X26286Y39376D01*
X25737Y40089D02*Y39815D01*
X26011D01*
X25943Y39884D01*
Y40021D02*Y39884D01*
Y40021D02*X26011Y40089D01*
X26217D01*
X26286Y40021D02*X26217Y40089D01*
X26286Y40021D02*Y39884D01*
X26217Y39815D02*X26286Y39884D01*
X25737Y41369D02*X26286D01*
X25737Y41547D02*X25833Y41643D01*
X26190D01*
X26286Y41547D02*X26190Y41643D01*
X26286Y41547D02*Y41300D01*
X25737Y41547D02*Y41300D01*
Y42082D02*X25806Y42150D01*
X25737Y42082D02*Y41876D01*
X25806Y41807D02*X25737Y41876D01*
X25806Y41807D02*X25943D01*
X26011Y41876D01*
Y42082D02*Y41876D01*
Y42082D02*X26080Y42150D01*
X26217D01*
X26286Y42082D02*X26217Y42150D01*
X26286Y42082D02*Y41876D01*
X26217Y41807D02*X26286Y41876D01*
X26080Y42315D02*X25737Y42589D01*
X26080Y42658D02*Y42315D01*
X25737Y42589D02*X26286D01*
X25737Y46469D02*X26286D01*
X25737Y46647D02*X25833Y46743D01*
X26190D01*
X26286Y46647D02*X26190Y46743D01*
X26286Y46647D02*Y46400D01*
X25737Y46647D02*Y46400D01*
Y47182D02*X25806Y47250D01*
X25737Y47182D02*Y46976D01*
X25806Y46907D02*X25737Y46976D01*
X25806Y46907D02*X25943D01*
X26011Y46976D01*
Y47182D02*Y46976D01*
Y47182D02*X26080Y47250D01*
X26217D01*
X26286Y47182D02*X26217Y47250D01*
X26286Y47182D02*Y46976D01*
X26217Y46907D02*X26286Y46976D01*
X25806Y47415D02*X25737Y47484D01*
Y47689D02*Y47484D01*
Y47689D02*X25806Y47758D01*
X25943D01*
X26286Y47415D02*X25943Y47758D01*
X26286D02*Y47415D01*
X18700Y20163D02*X18974D01*
X19043Y20094D01*
Y19957D01*
X18974Y19889D02*X19043Y19957D01*
X18769Y19889D02*X18974D01*
X18769Y20163D02*Y19614D01*
X18878Y19889D02*X19043Y19614D01*
X19207Y20053D02*X19317Y20163D01*
Y19614D01*
X19207D02*X19413D01*
X19578Y20094D02*X19646Y20163D01*
X19784D01*
X19852Y20094D01*
X19784Y19614D02*X19852Y19683D01*
X19646Y19614D02*X19784D01*
X19578Y19683D02*X19646Y19614D01*
Y19916D02*X19784D01*
X19852Y20094D02*Y19985D01*
Y19847D02*Y19683D01*
Y19847D02*X19784Y19916D01*
X19852Y19985D02*X19784Y19916D01*
X18700Y21163D02*X18974D01*
X19043Y21094D01*
Y20957D01*
X18974Y20889D02*X19043Y20957D01*
X18769Y20889D02*X18974D01*
X18769Y21163D02*Y20614D01*
X18878Y20889D02*X19043Y20614D01*
X19207Y21053D02*X19317Y21163D01*
Y20614D01*
X19207D02*X19413D01*
X19578Y20820D02*X19852Y21163D01*
X19578Y20820D02*X19921D01*
X19852Y21163D02*Y20614D01*
X25796Y16600D02*X26578D01*
Y16991D02*Y16600D01*
X25796Y17617D02*Y17226D01*
X26187D01*
X26089Y17324D01*
Y17519D02*Y17324D01*
Y17519D02*X26187Y17617D01*
X26480D01*
X26578Y17519D02*X26480Y17617D01*
X26578Y17519D02*Y17324D01*
X26480Y17226D02*X26578Y17324D01*
X24686Y17874D02*Y17696D01*
X24590Y17600D02*X24686Y17696D01*
X24233Y17600D02*X24590D01*
X24233D02*X24137Y17696D01*
Y17874D02*Y17696D01*
X24247Y18039D02*X24137Y18149D01*
X24686D01*
Y18245D02*Y18039D01*
X24206Y18409D02*X24137Y18478D01*
Y18684D02*Y18478D01*
Y18684D02*X24206Y18752D01*
X24343D01*
X24686Y18409D02*X24343Y18752D01*
X24686D02*Y18409D01*
X24137Y16174D02*Y15900D01*
Y16174D02*X24206Y16243D01*
X24343D01*
X24411Y16174D02*X24343Y16243D01*
X24411Y16174D02*Y15969D01*
X24137D02*X24686D01*
X24411Y16078D02*X24686Y16243D01*
X24206Y16407D02*X24137Y16476D01*
Y16613D02*Y16476D01*
Y16613D02*X24206Y16682D01*
X24686Y16613D02*X24617Y16682D01*
X24686Y16613D02*Y16476D01*
X24617Y16407D02*X24686Y16476D01*
X24384Y16613D02*Y16476D01*
X24206Y16682D02*X24315D01*
X24453D02*X24617D01*
X24453D02*X24384Y16613D01*
X24315Y16682D02*X24384Y16613D01*
X23686Y17874D02*Y17696D01*
X23590Y17600D02*X23686Y17696D01*
X23233Y17600D02*X23590D01*
X23233D02*X23137Y17696D01*
Y17874D02*Y17696D01*
X23247Y18039D02*X23137Y18149D01*
X23686D01*
Y18245D02*Y18039D01*
X23206Y18409D02*X23137Y18478D01*
Y18615D02*Y18478D01*
Y18615D02*X23206Y18684D01*
X23686Y18615D02*X23617Y18684D01*
X23686Y18615D02*Y18478D01*
X23617Y18409D02*X23686Y18478D01*
X23384Y18615D02*Y18478D01*
X23206Y18684D02*X23315D01*
X23453D02*X23617D01*
X23453D02*X23384Y18615D01*
X23315Y18684D02*X23384Y18615D01*
X23686Y15974D02*Y15796D01*
X23590Y15700D02*X23686Y15796D01*
X23233Y15700D02*X23590D01*
X23233D02*X23137Y15796D01*
Y15974D02*Y15796D01*
X23247Y16139D02*X23137Y16249D01*
X23686D01*
Y16345D02*Y16139D01*
X23617Y16509D02*X23686Y16578D01*
X23206Y16509D02*X23617D01*
X23206D02*X23137Y16578D01*
Y16715D02*Y16578D01*
Y16715D02*X23206Y16784D01*
X23617D01*
X23686Y16715D02*X23617Y16784D01*
X23686Y16715D02*Y16578D01*
X23549Y16509D02*X23274Y16784D01*
X13746Y22392D02*X13619Y22265D01*
X13746Y22773D02*Y22392D01*
X13619Y22900D02*X13746Y22773D01*
X13365Y22900D02*X13619D01*
X13365D02*X13238Y22773D01*
Y22392D01*
X13111Y22265D01*
X12857D02*X13111D01*
X12730Y22392D02*X12857Y22265D01*
X12730Y22773D02*Y22392D01*
X12857Y22900D02*X12730Y22773D01*
X13543Y21960D02*X13746Y21757D01*
X12730D02*X13746D01*
X12730Y21960D02*Y21579D01*
X18796Y21614D02*X18974D01*
X18700Y21710D02*X18796Y21614D01*
X18700Y22067D02*Y21710D01*
Y22067D02*X18796Y22163D01*
X18974D01*
X19139Y22053D02*X19249Y22163D01*
Y21614D01*
X19139D02*X19345D01*
X19509Y21683D02*X19578Y21614D01*
X19509Y21793D02*Y21683D01*
Y21793D02*X19605Y21889D01*
X19688D01*
X19784Y21793D01*
Y21683D01*
X19715Y21614D02*X19784Y21683D01*
X19578Y21614D02*X19715D01*
X19509Y21985D02*X19605Y21889D01*
X19509Y22094D02*Y21985D01*
Y22094D02*X19578Y22163D01*
X19715D01*
X19784Y22094D01*
Y21985D01*
X19688Y21889D02*X19784Y21985D01*
X18700Y23163D02*X18974D01*
X19043Y23094D01*
Y22957D01*
X18974Y22889D02*X19043Y22957D01*
X18769Y22889D02*X18974D01*
X18769Y23163D02*Y22614D01*
X18878Y22889D02*X19043Y22614D01*
X19207Y23053D02*X19317Y23163D01*
Y22614D01*
X19207D02*X19413D01*
X19578Y23094D02*X19646Y23163D01*
X19852D01*
X19921Y23094D01*
Y22957D01*
X19578Y22614D02*X19921Y22957D01*
X19578Y22614D02*X19921D01*
X21737Y22074D02*Y21800D01*
Y22074D02*X21806Y22143D01*
X21943D01*
X22011Y22074D02*X21943Y22143D01*
X22011Y22074D02*Y21869D01*
X21737D02*X22286D01*
X22011Y21978D02*X22286Y22143D01*
X21847Y22307D02*X21737Y22417D01*
X22286D01*
Y22513D02*Y22307D01*
X22217Y22678D02*X22286Y22746D01*
X21806Y22678D02*X22217D01*
X21806D02*X21737Y22746D01*
Y22884D02*Y22746D01*
Y22884D02*X21806Y22952D01*
X22217D01*
X22286Y22884D02*X22217Y22952D01*
X22286Y22884D02*Y22746D01*
X22149Y22678D02*X21874Y22952D01*
X40127Y34946D02*Y33930D01*
X40457Y34946D02*X40635Y34768D01*
Y34108D01*
X40457Y33930D02*X40635Y34108D01*
X40000Y33930D02*X40457D01*
X40000Y34946D02*X40457D01*
X40940Y34743D02*X41143Y34946D01*
Y33930D01*
X40940D02*X41321D01*
X41626Y34819D02*X41753Y34946D01*
X42007D01*
X42134Y34819D01*
X42007Y33930D02*X42134Y34057D01*
X41753Y33930D02*X42007D01*
X41626Y34057D02*X41753Y33930D01*
Y34489D02*X42007D01*
X42134Y34819D02*Y34616D01*
Y34362D02*Y34057D01*
Y34362D02*X42007Y34489D01*
X42134Y34616D02*X42007Y34489D01*
X27627Y34846D02*Y33830D01*
X27957Y34846D02*X28135Y34668D01*
Y34008D01*
X27957Y33830D02*X28135Y34008D01*
X27500Y33830D02*X27957D01*
X27500Y34846D02*X27957D01*
X28440Y34643D02*X28643Y34846D01*
Y33830D01*
X28440D02*X28821D01*
X29126Y33957D02*X29253Y33830D01*
X29126Y34160D02*Y33957D01*
Y34160D02*X29303Y34338D01*
X29456D01*
X29634Y34160D01*
Y33957D01*
X29507Y33830D02*X29634Y33957D01*
X29253Y33830D02*X29507D01*
X29126Y34516D02*X29303Y34338D01*
X29126Y34719D02*Y34516D01*
Y34719D02*X29253Y34846D01*
X29507D01*
X29634Y34719D01*
Y34516D01*
X29456Y34338D02*X29634Y34516D01*
X25737Y33769D02*X26286D01*
X25737Y33947D02*X25833Y34043D01*
X26190D01*
X26286Y33947D02*X26190Y34043D01*
X26286Y33947D02*Y33700D01*
X25737Y33947D02*Y33700D01*
Y34482D02*X25806Y34550D01*
X25737Y34482D02*Y34276D01*
X25806Y34207D02*X25737Y34276D01*
X25806Y34207D02*X25943D01*
X26011Y34276D01*
Y34482D02*Y34276D01*
Y34482D02*X26080Y34550D01*
X26217D01*
X26286Y34482D02*X26217Y34550D01*
X26286Y34482D02*Y34276D01*
X26217Y34207D02*X26286Y34276D01*
Y34784D02*X25737Y35058D01*
Y34715D01*
X27627Y29746D02*Y28730D01*
X27957Y29746D02*X28135Y29568D01*
Y28908D01*
X27957Y28730D02*X28135Y28908D01*
X27500Y28730D02*X27957D01*
X27500Y29746D02*X27957D01*
X28440Y29543D02*X28643Y29746D01*
Y28730D01*
X28440D02*X28821D01*
X29253D02*X29761Y29746D01*
X29126D02*X29761D01*
X25737Y28669D02*X26286D01*
X25737Y28847D02*X25833Y28943D01*
X26190D01*
X26286Y28847D02*X26190Y28943D01*
X26286Y28847D02*Y28600D01*
X25737Y28847D02*Y28600D01*
Y29382D02*X25806Y29450D01*
X25737Y29382D02*Y29176D01*
X25806Y29107D02*X25737Y29176D01*
X25806Y29107D02*X25943D01*
X26011Y29176D01*
Y29382D02*Y29176D01*
Y29382D02*X26080Y29450D01*
X26217D01*
X26286Y29382D02*X26217Y29450D01*
X26286Y29382D02*Y29176D01*
X26217Y29107D02*X26286Y29176D01*
Y29684D02*X26011Y29889D01*
X25806D02*X26011D01*
X25737Y29821D02*X25806Y29889D01*
X25737Y29821D02*Y29684D01*
X25806Y29615D02*X25737Y29684D01*
X25806Y29615D02*X25943D01*
X26011Y29684D01*
Y29889D02*Y29684D01*
X25737Y31269D02*X26286D01*
X25737Y31447D02*X25833Y31543D01*
X26190D01*
X26286Y31447D02*X26190Y31543D01*
X26286Y31447D02*Y31200D01*
X25737Y31447D02*Y31200D01*
Y31982D02*X25806Y32050D01*
X25737Y31982D02*Y31776D01*
X25806Y31707D02*X25737Y31776D01*
X25806Y31707D02*X25943D01*
X26011Y31776D01*
Y31982D02*Y31776D01*
Y31982D02*X26080Y32050D01*
X26217D01*
X26286Y31982D02*X26217Y32050D01*
X26286Y31982D02*Y31776D01*
X26217Y31707D02*X26286Y31776D01*
X26217Y32215D02*X26286Y32284D01*
X26107Y32215D02*X26217D01*
X26107D02*X26011Y32311D01*
Y32393D02*Y32311D01*
Y32393D02*X26107Y32489D01*
X26217D01*
X26286Y32421D02*X26217Y32489D01*
X26286Y32421D02*Y32284D01*
X25915Y32215D02*X26011Y32311D01*
X25806Y32215D02*X25915D01*
X25806D02*X25737Y32284D01*
Y32421D02*Y32284D01*
Y32421D02*X25806Y32489D01*
X25915D01*
X26011Y32393D02*X25915Y32489D01*
X28896Y25614D02*X29074D01*
X28800Y25710D02*X28896Y25614D01*
X28800Y26067D02*Y25710D01*
Y26067D02*X28896Y26163D01*
X29074D01*
X29239Y25820D02*X29513Y26163D01*
X29239Y25820D02*X29582D01*
X29513Y26163D02*Y25614D01*
X29746Y25683D02*X29815Y25614D01*
X29746Y26094D02*Y25683D01*
Y26094D02*X29815Y26163D01*
X29952D01*
X30021Y26094D01*
Y25683D01*
X29952Y25614D02*X30021Y25683D01*
X29815Y25614D02*X29952D01*
X29746Y25751D02*X30021Y26026D01*
X14878Y16791D02*Y16537D01*
X14741Y16400D02*X14878Y16537D01*
X14232Y16400D02*X14741D01*
X14232D02*X14096Y16537D01*
Y16791D02*Y16537D01*
X14252Y17026D02*X14096Y17182D01*
X14878D01*
Y17319D02*Y17026D01*
Y17652D02*X14096Y18043D01*
Y17554D01*
X11500Y17619D02*Y16857D01*
Y17619D02*X11627Y17746D01*
X11881D01*
X12008Y17619D01*
Y16984D01*
X11754Y16730D02*X12008Y16984D01*
X11627Y16730D02*X11754D01*
X11500Y16857D02*X11627Y16730D01*
X11754Y17111D02*X12008Y16730D01*
X12313Y17543D02*X12516Y17746D01*
Y16730D01*
X12313D02*X12694D01*
X28227Y17646D02*Y16630D01*
X28557Y17646D02*X28735Y17468D01*
Y16808D01*
X28557Y16630D02*X28735Y16808D01*
X28100Y16630D02*X28557D01*
X28100Y17646D02*X28557D01*
X29040Y17443D02*X29243Y17646D01*
Y16630D01*
X29040D02*X29421D01*
X18978Y26530D02*X19308D01*
X18800Y26708D02*X18978Y26530D01*
X18800Y27368D02*Y26708D01*
Y27368D02*X18978Y27546D01*
X19308D01*
X19613Y26911D02*X20121Y27546D01*
X19613Y26911D02*X20248D01*
X20121Y27546D02*Y26530D01*
X20553Y26911D02*X21061Y27546D01*
X20553Y26911D02*X21188D01*
X21061Y27546D02*Y26530D01*
X22186Y24074D02*Y23896D01*
X22090Y23800D02*X22186Y23896D01*
X21733Y23800D02*X22090D01*
X21733D02*X21637Y23896D01*
Y24074D02*Y23896D01*
X21706Y24239D02*X21637Y24307D01*
Y24445D02*Y24307D01*
Y24445D02*X21706Y24513D01*
X22186Y24445D02*X22117Y24513D01*
X22186Y24445D02*Y24307D01*
X22117Y24239D02*X22186Y24307D01*
X21884Y24445D02*Y24307D01*
X21706Y24513D02*X21815D01*
X21953D02*X22117D01*
X21953D02*X21884Y24445D01*
X21815Y24513D02*X21884Y24445D01*
X22186Y24746D02*X21911Y24952D01*
X21706D02*X21911D01*
X21637Y24884D02*X21706Y24952D01*
X21637Y24884D02*Y24746D01*
X21706Y24678D02*X21637Y24746D01*
X21706Y24678D02*X21843D01*
X21911Y24746D01*
Y24952D02*Y24746D01*
X21737Y20274D02*Y20000D01*
Y20274D02*X21806Y20343D01*
X21943D01*
X22011Y20274D02*X21943Y20343D01*
X22011Y20274D02*Y20069D01*
X21737D02*X22286D01*
X22011Y20178D02*X22286Y20343D01*
Y20576D02*X22011Y20782D01*
X21806D02*X22011D01*
X21737Y20713D02*X21806Y20782D01*
X21737Y20713D02*Y20576D01*
X21806Y20507D02*X21737Y20576D01*
X21806Y20507D02*X21943D01*
X22011Y20576D01*
Y20782D02*Y20576D01*
X18896Y23614D02*X19074D01*
X18800Y23710D02*X18896Y23614D01*
X18800Y24067D02*Y23710D01*
Y24067D02*X18896Y24163D01*
X19074D01*
X19239Y24053D02*X19349Y24163D01*
Y23614D01*
X19239D02*X19445D01*
X19678D02*X19884Y23889D01*
Y24094D02*Y23889D01*
X19815Y24163D02*X19884Y24094D01*
X19678Y24163D02*X19815D01*
X19609Y24094D02*X19678Y24163D01*
X19609Y24094D02*Y23957D01*
X19678Y23889D01*
X19884D01*
X18800Y25163D02*X19074D01*
X19143Y25094D01*
Y24957D01*
X19074Y24889D02*X19143Y24957D01*
X18869Y24889D02*X19074D01*
X18869Y25163D02*Y24614D01*
X18978Y24889D02*X19143Y24614D01*
X19307Y25053D02*X19417Y25163D01*
Y24614D01*
X19307D02*X19513D01*
X19678Y25053D02*X19788Y25163D01*
Y24614D01*
X19678D02*X19884D01*
X25900Y22846D02*Y21957D01*
X26027Y21830D01*
X26281D01*
X26408Y21957D01*
Y22846D02*Y21957D01*
X26713D02*X26840Y21830D01*
X26713Y22160D02*Y21957D01*
Y22160D02*X26891Y22338D01*
X27043D01*
X27221Y22160D01*
Y21957D01*
X27094Y21830D02*X27221Y21957D01*
X26840Y21830D02*X27094D01*
X26713Y22516D02*X26891Y22338D01*
X26713Y22719D02*Y22516D01*
Y22719D02*X26840Y22846D01*
X27094D01*
X27221Y22719D01*
Y22516D01*
X27043Y22338D02*X27221Y22516D01*
X21678Y13146D02*X21881D01*
Y12257D01*
X21754Y12130D02*X21881Y12257D01*
X21627Y12130D02*X21754D01*
X21500Y12257D02*X21627Y12130D01*
X21500Y12384D02*Y12257D01*
X22186Y12943D02*X22389Y13146D01*
Y12130D01*
X22186D02*X22567D01*
X12196Y13100D02*X12978D01*
Y13491D02*Y13100D01*
X12352Y13726D02*X12196Y13882D01*
X12978D01*
Y14019D02*Y13726D01*
X11586Y14074D02*Y13896D01*
X11490Y13800D02*X11586Y13896D01*
X11133Y13800D02*X11490D01*
X11133D02*X11037Y13896D01*
Y14074D02*Y13896D01*
X11586Y14307D02*X11037Y14582D01*
Y14239D01*
X15737Y16174D02*Y15900D01*
Y16174D02*X15806Y16243D01*
X15943D01*
X16011Y16174D02*X15943Y16243D01*
X16011Y16174D02*Y15969D01*
X15737D02*X16286D01*
X16011Y16078D02*X16286Y16243D01*
X15806Y16407D02*X15737Y16476D01*
Y16682D02*Y16476D01*
Y16682D02*X15806Y16750D01*
X15943D01*
X16286Y16407D02*X15943Y16750D01*
X16286D02*Y16407D01*
X19627Y17546D02*Y16530D01*
X19957Y17546D02*X20135Y17368D01*
Y16708D01*
X19957Y16530D02*X20135Y16708D01*
X19500Y16530D02*X19957D01*
X19500Y17546D02*X19957D01*
X20440Y17419D02*X20567Y17546D01*
X20821D01*
X20948Y17419D01*
X20821Y16530D02*X20948Y16657D01*
X20567Y16530D02*X20821D01*
X20440Y16657D02*X20567Y16530D01*
Y17089D02*X20821D01*
X20948Y17419D02*Y17216D01*
Y16962D02*Y16657D01*
Y16962D02*X20821Y17089D01*
X20948Y17216D02*X20821Y17089D01*
X22137Y15900D02*X22686D01*
Y16174D02*Y15900D01*
X22480Y16339D02*X22137Y16613D01*
X22480Y16682D02*Y16339D01*
X22137Y16613D02*X22686D01*
X17737Y15900D02*X18286D01*
Y16174D02*Y15900D01*
X17806Y16339D02*X17737Y16407D01*
Y16545D02*Y16407D01*
Y16545D02*X17806Y16613D01*
X18286Y16545D02*X18217Y16613D01*
X18286Y16545D02*Y16407D01*
X18217Y16339D02*X18286Y16407D01*
X17984Y16545D02*Y16407D01*
X17806Y16613D02*X17915D01*
X18053D02*X18217D01*
X18053D02*X17984Y16545D01*
X17915Y16613D02*X17984Y16545D01*
X17286Y16174D02*Y15996D01*
X17190Y15900D02*X17286Y15996D01*
X16833Y15900D02*X17190D01*
X16833D02*X16737Y15996D01*
Y16174D02*Y15996D01*
X17286Y16407D02*X17011Y16613D01*
X16806D02*X17011D01*
X16737Y16545D02*X16806Y16613D01*
X16737Y16545D02*Y16407D01*
X16806Y16339D02*X16737Y16407D01*
X16806Y16339D02*X16943D01*
X17011Y16407D01*
Y16613D02*Y16407D01*
M02*
