M48
METRIC,000.000
T101C0.300
T100C0.650
T99C0.800
T98C1.600
T97C1.200
T96C1.000
T95C1.300
%
T101
X050800Y073700
X050800Y072300
X050800Y070900
X050800Y069500
X050800Y040500
X050800Y039100
X050800Y037700
X050800Y036300
X050800Y034900
X050800Y033500
X050800Y032100
X050800Y029100
X051000Y061400
X051300Y026000
X051300Y025300
X052000Y031100
X052000Y030200
X052100Y024300
X052200Y064100
X053100Y069300
X053100Y064100
X053200Y023800
X053600Y028300
X053800Y027400
X054100Y068100
X054400Y027800
X054400Y027000
X054500Y061400
X055000Y068100
X055200Y028400
X055200Y023800
X056600Y023800
X056800Y061400
X057300Y041000
X057400Y061400
X057700Y041400
X057700Y040600
X058000Y061400
X058000Y037900
X058000Y036900
X058000Y033900
X058000Y028000
X058000Y023800
X058100Y041800
X058100Y041000
X058100Y040200
X058500Y041400
X059200Y031100
X059400Y023800
X059600Y069400
X059900Y069900
X060200Y069400
X060400Y063500
X060600Y037900
X060600Y036000
X060600Y034600
X060800Y023800
X061100Y037200
X061100Y035300
X061100Y033800
X061100Y032900
X061200Y031100
X061800Y063500
X062400Y028000
X062500Y031900
X062600Y030800
X063100Y060900
X063100Y058300
X063100Y055800
X063100Y053300
X063100Y050800
X063100Y048200
X063100Y045700
X063100Y043100
X063300Y065600
X063400Y038200
X064000Y032500
X065000Y065600
X065200Y029300
X065400Y068000
X065600Y067100
X065800Y028400
X065900Y068700
X065900Y037800
X065900Y037100
X065900Y035700
X065900Y035000
X066200Y027800
X066600Y028400
X067100Y060100
X067100Y057600
X067100Y055000
X067100Y052500
X067100Y050000
X067100Y047400
X067100Y044900
X067100Y042300
X067200Y063000
X067200Y062200
X067200Y061400
X067600Y034400
X067600Y033700
X067700Y062600
X067700Y061800
X067700Y061000
X068000Y069100
X068100Y038900
X068200Y063000
X068200Y062200
X068200Y061400
X068200Y060600
X068400Y069700
X068400Y068500
X068400Y065900
X068400Y059800
X068600Y057600
X068600Y052500
X068600Y047400
X068600Y042300
X068800Y069100
X068800Y029300
X068800Y028500
X069000Y059800
X069200Y068500
X069200Y067200
X069400Y028900
X069600Y069100
X069600Y067900
X070000Y068500
X070000Y025300
X070000Y024700
X070400Y069100
X070400Y059500
X070500Y026200
X070500Y025600
X070500Y025000
X070500Y024400
X070800Y068500
X070800Y065300
X071200Y069100
X071200Y042000
X071200Y037500
X071300Y059500
X071600Y068500
X072000Y069100
X072000Y027400
X072000Y024000
X072235Y070065
X072300Y060000
X072700Y059600
X072800Y027400
X072800Y024000
X073000Y033700
X073300Y076200
X073600Y027400
X073600Y024000
X073900Y038400
X073900Y036600
X073900Y035400
X074700Y076200
X074900Y037600
X075000Y040100
X075700Y028400
X075800Y067900
X076100Y076200
X076200Y068400
X076200Y067400
X076300Y028800
X076300Y028000
X076600Y067900
X077000Y068400
X077000Y067400
X077400Y067900
X077500Y076200
X077800Y073500
X077800Y072500
X077800Y071500
X077800Y068400
X077800Y067400
X078200Y073000
X078200Y072000
X078200Y067900
X078200Y034100
X078600Y073500
X078600Y072500
X078600Y071500
X078600Y068400
X078600Y067400
X078700Y037300
X078900Y076200
X079000Y073000
X079000Y072000
X079000Y067900
X079400Y073500
X079400Y072500
X079400Y071500
X079800Y045500
X080300Y076200
X080600Y064700
X080700Y045500
X080800Y025900
X080900Y064100
X080900Y040100
X081000Y052500
X081000Y047400
X081100Y042900
X081200Y064700
X081600Y045500
X081700Y076200
X081800Y064700
X081900Y030300
X082300Y029700
X082400Y064700
X082600Y043100
X082600Y039700
X082700Y030300
X082900Y054100
X082900Y052500
X082900Y049900
X082900Y047400
X083000Y064700
X083100Y076200
X083300Y039200
X083400Y034000
X083400Y031200
X083600Y064700
X083700Y034900
X083700Y032000
X083800Y058800
X084000Y039700
X084200Y064700
X084300Y072800
X084300Y070500
X084400Y066900
X084400Y066100
X084400Y065300
X084500Y076200
X084500Y034500
X084600Y032900
X084800Y066500
X084800Y065700
X085000Y039100
X085200Y058800
X085400Y063600
X085400Y062600
X085600Y038400
X085700Y063100
X085700Y062100
X085700Y060100
X085700Y028900
X085900Y076200
X086000Y063600
X086000Y062600
X086000Y061600
X086000Y060600
X086200Y030500
X086300Y063100
X086300Y062100
X086300Y061100
X086300Y060100
X086300Y029300
X086300Y028500
X086600Y063600
X086900Y055900
X086900Y053300
X086900Y050800
X086900Y048200
X087300Y076200
X087400Y027600
X087400Y024800
X087700Y058700
X087700Y058100
X088200Y035700
X088200Y033800
X088600Y030600
X088700Y076200
X088900Y040100
X089300Y030000
X089600Y023800
X089800Y040100
X090000Y035700
X090000Y033800
X090000Y030600
X090100Y076200
X090100Y063500
X090500Y040100
X090900Y029300
X091000Y023800
X091500Y076200
X092100Y060500
X092200Y041800
X092400Y030600
X092400Y023800
X092600Y031300
X092700Y056200
X092700Y046100
X092900Y076200
X093100Y030800
X093300Y056200
X093300Y046100
X093500Y060100
X093700Y035300
X093800Y023800
X093900Y056200
X093900Y046100
X093900Y028900
X094200Y068000
X094200Y067400
X094200Y066800
X094200Y066200
X094200Y065600
X094300Y076200
X094700Y035300
X094700Y028900
X095200Y023800
X095500Y056600
X095600Y029800
X095700Y076200
X095700Y068900
X095800Y042100
X095800Y040900
X095800Y039600
X095800Y038400
X096100Y069400
X096300Y032900
X096400Y068900
X096500Y041500
X096500Y040300
X096500Y039000
X096500Y037800
X096600Y023800
X097400Y067000
X097400Y066000
X097400Y065000
X097500Y063000
X097500Y062200
X097500Y061400
X097500Y060600
X097500Y043600
X097600Y041500
X097800Y066500
X097800Y065500
X098000Y063400
X098000Y062600
X098000Y061800
X098000Y061000
X098000Y060200
X098000Y024200
X098100Y075600
X098100Y043600
X098200Y067000
X098200Y066000
X098200Y065000
X098500Y063000
X098500Y062200
X098500Y061400
X098500Y060600
X098500Y041500
X098700Y034100
X098900Y025300
X099100Y068700
X099200Y029400
X099200Y028100
X099200Y026700
X099300Y064900
X099300Y038400
T100
X091060Y026970
X091060Y025700
X092330Y026970
X092330Y025700
X093600Y026970
X093600Y025700
X094870Y026970
X094870Y025700
X096140Y026970
X096140Y025700
T99
X079675Y027330
X084525Y027330
T96
X054000Y038150
X054000Y033650
X056960Y060080
X056960Y057540
X056960Y055000
X056960Y052460
X056960Y049920
X056960Y047380
X056960Y044840
X056960Y042300
X059500Y060080
X059500Y057540
X059500Y055000
X059500Y052460
X059500Y049920
X059500Y047380
X059500Y044840
X059500Y042300
X062040Y060080
X062040Y057540
X062040Y055000
X062040Y052460
X062040Y049920
X062040Y047380
X062040Y044840
X062040Y042300
X087960Y055000
X087960Y052460
X087960Y049920
X087960Y047380
X090500Y055000
X090500Y052460
X090500Y049920
X090500Y047380
X093040Y055000
X093040Y052460
X093040Y049920
X093040Y047380
T97
X056385Y027000
X060195Y027000
X064005Y027000
X067815Y027000
X078000Y024250
X086200Y024250
T95
X056500Y039400
X056500Y032400
T98
X057250Y071000
X064750Y071000
X087900Y071000
X092900Y071000
M30
