G04 start of page 10 for group -4079 idx -4079 *
G04 Title: (unknown), topsilk *
G04 Creator: pcb 1.99z *
G04 CreationDate: Wed 03 Sep 2014 19:40:39 GMT UTC *
G04 For: rbarlow *
G04 Format: Gerber/RS-274X *
G04 PCB-Dimensions (mm): 70.00 74.00 *
G04 PCB-Coordinate-Origin: lower left *
%MOMM*%
%FSLAX43Y43*%
%LNTOPSILK*%
%ADD145C,1.250*%
%ADD144C,0.500*%
%ADD143C,0.640*%
%ADD142C,0.250*%
%ADD141C,0.350*%
%ADD140C,0.300*%
%ADD139C,0.200*%
%ADD138C,0.150*%
%ADD137C,0.002*%
G54D137*G36*
X11790Y59031D02*X12034Y58943D01*
X11790Y58855D01*
Y59031D01*
G37*
G36*
Y59790D02*X12280D01*
X12474Y59750D01*
X12635Y59642D01*
X12744Y59482D01*
X12784Y59287D01*
Y56792D01*
X12744Y56596D01*
X12635Y56436D01*
X12474Y56327D01*
X12280Y56289D01*
X11790D01*
Y56836D01*
X12122D01*
Y56597D01*
X12306D01*
Y57321D01*
X12122D01*
Y57082D01*
X11790D01*
Y57888D01*
X12111Y57532D01*
X12306D01*
Y58273D01*
X12111D01*
Y57824D01*
X11917Y58044D01*
X11808Y58160D01*
X11790Y58176D01*
Y58595D01*
X12306Y58784D01*
Y59103D01*
X11790Y59292D01*
Y59790D01*
G37*
G36*
X10780Y56792D02*Y59287D01*
X10819Y59482D01*
X10928Y59642D01*
X11088Y59750D01*
X11285Y59790D01*
X11790D01*
Y59292D01*
X11273Y59482D01*
Y59217D01*
X11790Y59031D01*
Y58855D01*
X11273Y58670D01*
Y58405D01*
X11790Y58595D01*
Y58176D01*
X11726Y58229D01*
X11564Y58273D01*
X11433Y58245D01*
X11335Y58167D01*
X11275Y58041D01*
X11256Y57876D01*
X11273Y57708D01*
X11318Y57532D01*
X11549D01*
X11468Y57691D01*
X11442Y57824D01*
X11486Y57956D01*
X11600Y58000D01*
X11688Y57982D01*
X11777Y57902D01*
X11790Y57888D01*
Y57082D01*
X11273D01*
Y56836D01*
X11328Y56597D01*
X11505D01*
X11461Y56836D01*
X11790D01*
Y56289D01*
X11285D01*
X11088Y56327D01*
X10928Y56436D01*
X10819Y56596D01*
X10780Y56792D01*
G37*
G36*
X25590Y27187D02*X25723D01*
X25590Y26900D01*
Y27187D01*
G37*
G36*
Y27805D02*X26049D01*
X26244Y27766D01*
X26403Y27657D01*
X26512Y27498D01*
X26552Y27302D01*
Y26305D01*
X26512Y26111D01*
X26403Y25951D01*
X26244Y25842D01*
X26049Y25802D01*
X25590D01*
Y26229D01*
X26058Y27238D01*
Y27415D01*
X25590D01*
Y27805D01*
G37*
G36*
X24422D02*X25590D01*
Y27415D01*
X25123D01*
Y27187D01*
X25590D01*
Y26900D01*
X25264Y26191D01*
X25572D01*
X25590Y26229D01*
Y25802D01*
X24422D01*
Y26166D01*
X24426Y26165D01*
X24638Y26207D01*
X24796Y26332D01*
X24896Y26532D01*
X24929Y26797D01*
X24896Y27073D01*
X24796Y27276D01*
X24638Y27401D01*
X24426Y27444D01*
X24422Y27443D01*
Y27805D01*
G37*
G36*
X24057D02*X24422D01*
Y27443D01*
X24208Y27401D01*
X24047Y27276D01*
X23948Y27073D01*
X23915Y26797D01*
X23948Y26532D01*
X24047Y26332D01*
X24208Y26207D01*
X24422Y26166D01*
Y25802D01*
X24057D01*
X23861Y25842D01*
X23701Y25951D01*
X23592Y26111D01*
X23554Y26305D01*
Y27302D01*
X23592Y27498D01*
X23701Y27657D01*
X23861Y27766D01*
X24057Y27805D01*
G37*
G36*
X24426Y27223D02*X24511Y27204D01*
X24568Y27135D01*
X24600Y27007D01*
X24612Y26808D01*
X24600Y26606D01*
X24568Y26474D01*
X24511Y26400D01*
X24426Y26376D01*
X24336Y26400D01*
X24277Y26474D01*
X24242Y26606D01*
X24233Y26808D01*
X24242Y27007D01*
X24277Y27135D01*
X24336Y27204D01*
X24426Y27223D01*
G37*
G36*
X45439Y32909D02*X45849D01*
X46044Y32870D01*
X46203Y32762D01*
X46312Y32602D01*
X46352Y32406D01*
Y31410D01*
X46312Y31215D01*
X46203Y31056D01*
X46044Y30947D01*
X45849Y30907D01*
X45439D01*
Y31286D01*
X45875D01*
Y31506D01*
X45593D01*
Y32520D01*
X45439D01*
Y32909D01*
G37*
G36*
X44258D02*X45439D01*
Y32520D01*
X45284D01*
X45003Y32457D01*
Y32247D01*
X45294Y32300D01*
Y31506D01*
X45012D01*
Y31286D01*
X45439D01*
Y30907D01*
X44258D01*
Y31286D01*
X44695D01*
Y31506D01*
X44412D01*
Y32520D01*
X44258D01*
Y32909D01*
G37*
G36*
X43857D02*X44258D01*
Y32520D01*
X44112D01*
X43821Y32457D01*
Y32247D01*
X44112Y32300D01*
Y31506D01*
X43829D01*
Y31286D01*
X44258D01*
Y30907D01*
X43857D01*
X43661Y30947D01*
X43501Y31056D01*
X43392Y31215D01*
X43354Y31410D01*
Y32406D01*
X43392Y32602D01*
X43501Y32762D01*
X43661Y32870D01*
X43857Y32909D01*
G37*
G36*
X25607Y50607D02*X26052D01*
X26247Y50569D01*
X26407Y50460D01*
X26515Y50300D01*
X26555Y50104D01*
Y49108D01*
X26515Y48914D01*
X26407Y48754D01*
X26247Y48645D01*
X26052Y48605D01*
X25607D01*
Y48968D01*
X25819Y49010D01*
X25982Y49134D01*
X26081Y49334D01*
X26114Y49600D01*
X26081Y49876D01*
X25982Y50078D01*
X25819Y50204D01*
X25607Y50245D01*
Y50607D01*
G37*
G36*
X24425D02*X25607D01*
Y50245D01*
X25603Y50246D01*
X25390Y50204D01*
X25232Y50078D01*
X25133Y49876D01*
X25100Y49600D01*
X25133Y49334D01*
X25232Y49134D01*
X25390Y49010D01*
X25603Y48967D01*
X25607Y48968D01*
Y48605D01*
X24425D01*
Y48968D01*
X24430Y48967D01*
X24641Y49010D01*
X24800Y49134D01*
X24899Y49334D01*
X24932Y49600D01*
X24899Y49876D01*
X24800Y50078D01*
X24641Y50204D01*
X24430Y50246D01*
X24425Y50245D01*
Y50607D01*
G37*
G36*
X24060D02*X24425D01*
Y50245D01*
X24211Y50204D01*
X24050Y50078D01*
X23951Y49876D01*
X23918Y49600D01*
X23951Y49334D01*
X24050Y49134D01*
X24211Y49010D01*
X24425Y48968D01*
Y48605D01*
X24060D01*
X23864Y48645D01*
X23704Y48754D01*
X23595Y48914D01*
X23557Y49108D01*
Y50104D01*
X23595Y50300D01*
X23704Y50460D01*
X23864Y50569D01*
X24060Y50607D01*
G37*
G36*
X25603Y50026D02*X25693Y50006D01*
X25753Y49938D01*
X25785Y49809D01*
X25798Y49611D01*
X25785Y49408D01*
X25753Y49276D01*
X25691Y49203D01*
X25603Y49178D01*
X25518Y49203D01*
X25461Y49276D01*
X25428Y49408D01*
X25417Y49611D01*
X25428Y49809D01*
X25461Y49938D01*
X25518Y50006D01*
X25603Y50026D01*
G37*
G36*
X24430D02*X24514Y50006D01*
X24571Y49938D01*
X24603Y49809D01*
X24615Y49611D01*
X24603Y49408D01*
X24571Y49276D01*
X24514Y49203D01*
X24430Y49178D01*
X24340Y49203D01*
X24280Y49276D01*
X24247Y49408D01*
X24236Y49611D01*
X24247Y49809D01*
X24280Y49938D01*
X24340Y50006D01*
X24430Y50026D01*
G37*
G36*
X30795Y41401D02*X31487Y41800D01*
Y41504D01*
X32951D01*
Y41302D01*
X31487D01*
Y41001D01*
X30795Y41401D01*
G37*
G36*
X39018Y33700D02*X38326Y33301D01*
Y33605D01*
X36860D01*
Y33799D01*
X38326D01*
Y34101D01*
X39018Y33700D01*
G37*
G36*
X34875Y35040D02*X34954D01*
X35104Y35006D01*
X35148Y34900D01*
X35104Y34785D01*
X34954Y34758D01*
X34875D01*
Y35040D01*
G37*
G36*
X36004Y35164D02*X36154D01*
X36004Y35084D01*
Y35164D01*
G37*
G36*
Y34114D02*X36100D01*
Y34246D01*
X36259D01*
X36268Y34194D01*
X36277Y34132D01*
X36259Y34022D01*
X36206Y33938D01*
X36120Y33891D01*
X36004Y33876D01*
X36004Y33876D01*
Y34114D01*
G37*
G36*
X36312Y40796D02*X36321Y40791D01*
X36339Y40677D01*
X36321Y40552D01*
X36312Y40525D01*
Y40796D01*
G37*
G36*
Y39401D02*X36339Y39327D01*
X36321Y39195D01*
X36312Y39174D01*
Y39401D01*
G37*
G36*
Y41571D02*X36348Y41564D01*
X36508Y41455D01*
X36616Y41295D01*
X36656Y41099D01*
Y33603D01*
X36616Y33409D01*
X36508Y33249D01*
X36348Y33140D01*
X36312Y33132D01*
Y33779D01*
X36312Y33780D01*
X36398Y33921D01*
X36427Y34106D01*
X36409Y34282D01*
X36357Y34441D01*
X36312D01*
Y34626D01*
X36419D01*
Y34830D01*
X36312D01*
Y35072D01*
X36419Y35128D01*
Y35367D01*
X36312D01*
Y35579D01*
X36419D01*
Y35800D01*
X36410Y35964D01*
X36391Y36081D01*
X36312Y36212D01*
Y37263D01*
X36453D01*
Y37546D01*
X36312D01*
Y39053D01*
X36435D01*
X36479Y39195D01*
X36497Y39354D01*
X36468Y39544D01*
X36383Y39688D01*
X36312Y39737D01*
Y39971D01*
X36479D01*
Y40182D01*
X36312D01*
Y40420D01*
X36453D01*
X36479Y40570D01*
X36497Y40711D01*
X36478Y40843D01*
X36427Y40941D01*
X36348Y41000D01*
X36312Y41007D01*
Y41571D01*
G37*
G36*
Y40182D02*X36004D01*
Y40406D01*
X36066Y40430D01*
X36154Y40623D01*
X36170Y40711D01*
X36206Y40799D01*
X36250Y40827D01*
X36312Y40796D01*
Y40525D01*
X36277Y40420D01*
X36312D01*
Y40182D01*
G37*
G36*
Y39737D02*X36245Y39782D01*
X36066Y39812D01*
X36004Y39801D01*
Y39971D01*
X36312D01*
Y39737D01*
G37*
G36*
Y36212D02*X36295Y36240D01*
X36170Y36319D01*
X36004Y36355D01*
X36004Y36355D01*
Y39027D01*
X36110D01*
Y39354D01*
X36004D01*
Y39582D01*
X36066Y39592D01*
X36182Y39574D01*
X36268Y39520D01*
X36312Y39401D01*
Y39174D01*
X36259Y39053D01*
X36312D01*
Y37546D01*
X36170D01*
Y37263D01*
X36312D01*
Y36212D01*
G37*
G36*
Y35367D02*X36004D01*
Y35579D01*
X36312D01*
Y35367D01*
G37*
G36*
Y34830D02*X36004D01*
Y34909D01*
X36312Y35072D01*
Y34830D01*
G37*
G36*
Y34441D02*X36004D01*
Y34626D01*
X36312D01*
Y34441D01*
G37*
G36*
Y33132D02*X36154Y33100D01*
X36004D01*
Y33655D01*
X36004Y33655D01*
X36178Y33688D01*
X36312Y33779D01*
Y33132D01*
G37*
G36*
X36004Y41602D02*X36154D01*
X36312Y41571D01*
Y41007D01*
X36242Y41020D01*
X36082Y40967D01*
X36004Y40802D01*
Y41602D01*
G37*
G36*
Y39354D02*X35968D01*
Y39221D01*
X35810D01*
X35801Y39274D01*
X35792Y39336D01*
X35862Y39520D01*
X35949Y39573D01*
X36004Y39582D01*
Y39354D01*
G37*
G36*
Y34830D02*X35854D01*
X36004Y34909D01*
Y34830D01*
G37*
G36*
X35748Y33737D02*X35823Y33687D01*
X36004Y33655D01*
Y33100D01*
X35748D01*
Y33737D01*
G37*
G36*
Y34626D02*X36004D01*
Y34441D01*
X35960D01*
Y34114D01*
X36004D01*
Y33876D01*
X35801Y33947D01*
X35748Y34090D01*
Y34274D01*
X35810Y34415D01*
X35748D01*
Y34626D01*
G37*
G36*
Y35164D02*X36004D01*
Y35084D01*
X35748Y34948D01*
Y35164D01*
G37*
G36*
Y35579D02*X36004D01*
Y35367D01*
X35748D01*
Y35579D01*
G37*
G36*
Y39027D02*X36004D01*
Y36355D01*
X35836Y36319D01*
X35748Y36263D01*
Y37263D01*
X35890D01*
Y37546D01*
X35748D01*
Y39027D01*
G37*
G36*
Y39971D02*X36004D01*
Y39801D01*
X35890Y39781D01*
X35757Y39688D01*
X35748Y39674D01*
Y39971D01*
G37*
G36*
Y40422D02*X35787Y40393D01*
X35906Y40368D01*
X36004Y40406D01*
Y40182D01*
X35748D01*
Y40422D01*
G37*
G36*
Y41602D02*X36004D01*
Y40802D01*
X35994Y40782D01*
X35978Y40703D01*
X35942Y40596D01*
X35880Y40578D01*
X35818Y40614D01*
X35792Y40720D01*
X35818Y40861D01*
X35880Y41011D01*
X35748D01*
Y41602D01*
G37*
G36*
Y34090D02*X35730Y34140D01*
X35748Y34273D01*
X35748Y34274D01*
Y34090D01*
G37*
G36*
X35183Y41602D02*X35748D01*
Y41011D01*
X35695D01*
X35651Y40853D01*
X35641Y40694D01*
X35655Y40554D01*
X35703Y40456D01*
X35748Y40422D01*
Y40182D01*
X35659D01*
Y39971D01*
X35748D01*
Y39674D01*
X35670Y39548D01*
X35641Y39362D01*
X35659Y39185D01*
X35721Y39027D01*
X35748D01*
Y37546D01*
X35607D01*
Y37263D01*
X35748D01*
Y36263D01*
X35713Y36240D01*
X35615Y36081D01*
X35589Y35800D01*
Y35579D01*
X35748D01*
Y35367D01*
X35589D01*
Y35164D01*
X35748D01*
Y34948D01*
X35589Y34864D01*
Y34626D01*
X35748D01*
Y34415D01*
X35633D01*
X35589Y34273D01*
X35581Y34114D01*
X35604Y33924D01*
X35686Y33780D01*
X35748Y33737D01*
Y33100D01*
X35183D01*
Y33642D01*
X35289Y33603D01*
Y33823D01*
X35183Y33855D01*
Y34218D01*
X35289Y34256D01*
Y34467D01*
X35183Y34429D01*
Y34605D01*
X35218Y34626D01*
X35279Y34740D01*
X35298Y34900D01*
X35279Y35055D01*
X35218Y35164D01*
X35183Y35185D01*
Y35448D01*
X35289Y35375D01*
Y35596D01*
X35183Y35668D01*
Y35911D01*
X35289Y35984D01*
Y36205D01*
X35183Y36132D01*
Y37263D01*
X35324D01*
Y37546D01*
X35183D01*
Y38296D01*
X35351Y38233D01*
Y38445D01*
X35183Y38506D01*
Y38826D01*
X35351Y38886D01*
Y39097D01*
X35183Y39034D01*
Y39600D01*
X35192D01*
Y39239D01*
X35351D01*
Y39768D01*
X35183D01*
Y40809D01*
X35192D01*
Y40456D01*
X35351D01*
Y40985D01*
X35183D01*
Y41602D01*
G37*
G36*
Y39768D02*X34883D01*
X34928Y39652D01*
X34936Y39556D01*
X34902Y39432D01*
X34875Y39421D01*
Y40409D01*
X34915Y40418D01*
X35007Y40482D01*
X35061Y40580D01*
X35078Y40711D01*
Y40765D01*
X35068Y40809D01*
X35183D01*
Y39768D01*
G37*
G36*
Y39034D02*X34875Y38918D01*
Y39193D01*
X34915Y39201D01*
X35007Y39265D01*
X35061Y39363D01*
X35078Y39494D01*
Y39548D01*
X35068Y39600D01*
X35183D01*
Y39034D01*
G37*
G36*
Y38506D02*X34875Y38618D01*
Y38714D01*
X35183Y38826D01*
Y38506D01*
G37*
G36*
Y36132D02*X34875Y35920D01*
Y38412D01*
X35183Y38296D01*
Y37546D01*
X35042D01*
Y37263D01*
X35183D01*
Y36132D01*
G37*
G36*
Y35668D02*X35007Y35790D01*
X35183Y35911D01*
Y35668D01*
G37*
G36*
Y35185D02*X35108Y35230D01*
X34954Y35252D01*
X34875D01*
Y35661D01*
X35183Y35448D01*
Y35185D01*
G37*
G36*
Y34429D02*X34875Y34318D01*
Y34537D01*
X34954D01*
X35108Y34561D01*
X35183Y34605D01*
Y34429D01*
G37*
G36*
Y33855D02*X35140Y33868D01*
Y34202D01*
X35183Y34218D01*
Y33855D01*
G37*
G36*
Y33100D02*X34875D01*
Y33757D01*
X35183Y33642D01*
Y33100D01*
G37*
G36*
X34875Y41602D02*X35183D01*
Y40985D01*
X34883D01*
X34928Y40871D01*
X34936Y40773D01*
X34902Y40650D01*
X34875Y40639D01*
Y41602D01*
G37*
G36*
Y38618D02*X34743Y38666D01*
X34875Y38714D01*
Y38618D01*
G37*
G36*
X33746Y39873D02*X33966D01*
X33746Y39756D01*
Y39873D01*
G37*
G36*
Y35349D02*X33843D01*
Y35481D01*
X34002D01*
X34010Y35429D01*
X34019Y35367D01*
X34002Y35257D01*
X33949Y35173D01*
X33861Y35126D01*
X33746Y35110D01*
Y35349D01*
G37*
G36*
X34619Y33852D02*X34875Y33757D01*
Y33100D01*
X34619D01*
Y33852D01*
G37*
G36*
Y34537D02*X34875D01*
Y34318D01*
X34619Y34225D01*
Y34537D01*
G37*
G36*
Y35040D02*X34875D01*
Y34758D01*
X34619D01*
Y35040D01*
G37*
G36*
Y35495D02*X34865Y35667D01*
X34875Y35661D01*
Y35252D01*
X34619D01*
Y35495D01*
G37*
G36*
Y35861D02*X34725Y35790D01*
X34619Y35719D01*
Y35861D01*
G37*
G36*
Y38509D02*X34875Y38412D01*
Y35920D01*
X34865Y35914D01*
X34619Y36086D01*
Y37263D01*
X34760D01*
Y37546D01*
X34619D01*
Y38509D01*
G37*
G36*
Y39246D02*X34674Y39203D01*
X34795Y39177D01*
X34875Y39193D01*
Y38918D01*
X34619Y38822D01*
Y39246D01*
G37*
G36*
Y40456D02*X34674Y40416D01*
X34795Y40394D01*
X34875Y40409D01*
Y39421D01*
X34795Y39388D01*
X34689Y39432D01*
X34655Y39556D01*
X34671Y39670D01*
X34733Y39803D01*
X34619D01*
Y40005D01*
X34743D01*
Y40200D01*
X34619D01*
Y40456D01*
G37*
G36*
Y41602D02*X34875D01*
Y40639D01*
X34795Y40606D01*
X34689Y40650D01*
X34655Y40773D01*
X34671Y40887D01*
X34733Y41011D01*
X34619D01*
Y41602D01*
G37*
G36*
X34055Y40634D02*X34081Y40562D01*
X34064Y40430D01*
X34055Y40410D01*
Y40634D01*
G37*
G36*
Y41602D02*X34619D01*
Y41011D01*
X34566D01*
X34522Y40879D01*
X34513Y40738D01*
X34529Y40592D01*
X34583Y40482D01*
X34619Y40456D01*
Y40200D01*
X34531D01*
Y40005D01*
X34619D01*
Y39803D01*
X34566D01*
X34522Y39662D01*
X34513Y39520D01*
X34529Y39380D01*
X34583Y39274D01*
X34619Y39246D01*
Y38822D01*
X34531Y38789D01*
Y38542D01*
X34619Y38509D01*
Y37546D01*
X34478D01*
Y37263D01*
X34619D01*
Y36086D01*
X34460Y36196D01*
Y35966D01*
X34619Y35861D01*
Y35719D01*
X34460Y35614D01*
Y35385D01*
X34619Y35495D01*
Y35252D01*
X34460D01*
Y35040D01*
X34619D01*
Y34758D01*
X34460D01*
Y34537D01*
X34619D01*
Y34225D01*
X34460Y34168D01*
Y33912D01*
X34619Y33852D01*
Y33100D01*
X34055D01*
Y33691D01*
X34116D01*
X34160Y33850D01*
X34170Y34000D01*
X34154Y34144D01*
X34108Y34246D01*
X34055Y34287D01*
Y34521D01*
X34160D01*
Y34731D01*
X34055D01*
Y35016D01*
X34141Y35156D01*
X34170Y35341D01*
X34152Y35517D01*
X34098Y35676D01*
X34055D01*
Y37263D01*
X34196D01*
Y37546D01*
X34055D01*
Y38431D01*
X34108Y38462D01*
X34196Y38622D01*
X34222Y38903D01*
Y39123D01*
X34055D01*
Y39336D01*
X34222D01*
Y39538D01*
X34055D01*
Y39750D01*
X34222Y39839D01*
Y40067D01*
X34055D01*
Y40288D01*
X34178D01*
X34222Y40430D01*
X34240Y40588D01*
X34211Y40778D01*
X34126Y40923D01*
X34055Y40971D01*
Y41602D01*
G37*
G36*
Y40067D02*X33746D01*
Y40262D01*
X33851D01*
Y40588D01*
X33746D01*
Y40817D01*
X33807Y40827D01*
X33923Y40809D01*
X34010Y40755D01*
X34055Y40634D01*
Y40410D01*
X34002Y40288D01*
X34055D01*
Y40067D01*
G37*
G36*
Y39538D02*X33746D01*
Y39585D01*
X34055Y39750D01*
Y39538D01*
G37*
G36*
Y39123D02*X33746D01*
Y39336D01*
X34055D01*
Y39123D01*
G37*
G36*
Y35676D02*X33746D01*
Y38361D01*
X33807Y38348D01*
X33975Y38384D01*
X34055Y38431D01*
Y37546D01*
X33913D01*
Y37263D01*
X34055D01*
Y35676D01*
G37*
G36*
Y34731D02*X33746D01*
Y34890D01*
X33920Y34923D01*
X34054Y35014D01*
X34055Y35016D01*
Y34731D01*
G37*
G36*
Y34287D02*X34022Y34311D01*
X33905Y34335D01*
X33746Y34273D01*
Y34521D01*
X34055D01*
Y34287D01*
G37*
G36*
Y33100D02*X33746D01*
Y33771D01*
X33817Y33920D01*
X33833Y34000D01*
X33869Y34096D01*
X33931Y34124D01*
X33993Y34088D01*
X34019Y33982D01*
X34002Y33841D01*
X33931Y33691D01*
X34055D01*
Y33100D01*
G37*
G36*
X33746Y41602D02*X34055D01*
Y40971D01*
X33986Y41017D01*
X33807Y41047D01*
X33746Y41036D01*
Y41602D01*
G37*
G36*
Y40588D02*X33711D01*
Y40456D01*
X33552D01*
X33543Y40508D01*
X33534Y40570D01*
X33605Y40755D01*
X33690Y40807D01*
X33746Y40817D01*
Y40588D01*
G37*
G36*
Y39538D02*X33657D01*
X33746Y39585D01*
Y39538D01*
G37*
G36*
X33499Y33696D02*X33569Y33683D01*
X33729Y33735D01*
X33746Y33771D01*
Y33100D01*
X33657D01*
X33499Y33132D01*
Y33696D01*
G37*
G36*
Y34521D02*X33746D01*
Y34273D01*
X33745Y34273D01*
X33657Y34080D01*
X33640Y33992D01*
X33613Y33894D01*
X33561Y33876D01*
X33499Y33907D01*
Y34167D01*
X33534Y34273D01*
X33499D01*
Y34521D01*
G37*
G36*
Y34966D02*X33565Y34922D01*
X33745Y34890D01*
X33746Y34890D01*
Y34731D01*
X33499D01*
Y34966D01*
G37*
G36*
Y38493D02*X33516Y38462D01*
X33640Y38384D01*
X33746Y38361D01*
Y35676D01*
X33701D01*
Y35349D01*
X33746D01*
Y35110D01*
X33745Y35110D01*
X33628Y35130D01*
X33543Y35182D01*
X33499Y35302D01*
Y35528D01*
X33552Y35649D01*
X33499D01*
Y37263D01*
X33640D01*
Y37546D01*
X33499D01*
Y38493D01*
G37*
G36*
Y39336D02*X33746D01*
Y39123D01*
X33499D01*
Y39336D01*
G37*
G36*
Y39873D02*X33746D01*
Y39756D01*
X33499Y39625D01*
Y39873D01*
G37*
G36*
Y40262D02*X33746D01*
Y40067D01*
X33499D01*
Y40262D01*
G37*
G36*
X33657Y41602D02*X33746D01*
Y41036D01*
X33632Y41015D01*
X33499Y40924D01*
Y41571D01*
X33657Y41602D01*
G37*
G36*
X33499Y33907D02*X33490Y33912D01*
X33472Y34026D01*
X33490Y34140D01*
X33499Y34167D01*
Y33907D01*
G37*
G36*
Y35302D02*X33472Y35375D01*
X33490Y35507D01*
X33499Y35528D01*
Y35302D01*
G37*
G36*
Y40924D02*X33499Y40923D01*
X33412Y40782D01*
X33384Y40596D01*
X33402Y40420D01*
X33464Y40262D01*
X33499D01*
Y40067D01*
X33402D01*
Y39873D01*
X33499D01*
Y39625D01*
X33402Y39574D01*
Y39336D01*
X33499D01*
Y39123D01*
X33402D01*
Y38903D01*
X33408Y38740D01*
X33428Y38622D01*
X33499Y38493D01*
Y37546D01*
X33358D01*
Y37263D01*
X33499D01*
Y35649D01*
X33376D01*
X33332Y35507D01*
X33322Y35349D01*
X33346Y35159D01*
X33428Y35014D01*
X33499Y34966D01*
Y34731D01*
X33332D01*
Y34521D01*
X33499D01*
Y34273D01*
X33358D01*
X33332Y34132D01*
X33322Y33992D01*
X33336Y33861D01*
X33384Y33761D01*
X33461Y33704D01*
X33499Y33696D01*
Y33132D01*
X33461Y33140D01*
X33302Y33249D01*
X33194Y33409D01*
X33156Y33603D01*
Y41099D01*
X33194Y41295D01*
X33302Y41455D01*
X33461Y41564D01*
X33499Y41571D01*
Y40924D01*
G37*
G36*
X34980Y34150D02*Y33920D01*
X34655Y34036D01*
X34980Y34150D01*
G37*
G36*
X36004Y36134D02*X36188Y36064D01*
X36235Y35977D01*
X36250Y35860D01*
Y35790D01*
X35748D01*
Y35860D01*
X35765Y35979D01*
X35818Y36064D01*
X36004Y36134D01*
G37*
G36*
X33561Y38912D02*X34064D01*
Y38832D01*
X34044Y38721D01*
X33993Y38638D01*
X33807Y38568D01*
X33623Y38638D01*
X33574Y38721D01*
X33561Y38832D01*
Y38912D01*
G37*
G36*
X58486Y49355D02*X58607D01*
X58738Y49341D01*
X58827Y49302D01*
X58874Y49239D01*
X58889Y49142D01*
X58874Y49043D01*
X58827Y48976D01*
X58738Y48936D01*
X58607Y48922D01*
X58486D01*
Y49355D01*
G37*
G36*
Y51656D02*X58996D01*
X59190Y51616D01*
X59351Y51509D01*
X59460Y51349D01*
X59500Y51154D01*
Y47150D01*
X59460Y46954D01*
X59351Y46794D01*
X59190Y46686D01*
X58996Y46647D01*
X58486D01*
Y47432D01*
X59103Y47202D01*
Y47521D01*
X58882Y47599D01*
Y48102D01*
X59103Y48182D01*
Y48499D01*
X58486Y48270D01*
Y48605D01*
X58607D01*
X58834Y48638D01*
X58996Y48737D01*
X59093Y48906D01*
X59128Y49142D01*
X59093Y49375D01*
X58996Y49540D01*
X58834Y49639D01*
X58607Y49672D01*
X58486D01*
Y50282D01*
X59103Y49858D01*
Y50193D01*
X58677Y50483D01*
X59103Y50766D01*
Y51101D01*
X58486Y50677D01*
Y51656D01*
G37*
G36*
X57496Y47150D02*Y51154D01*
X57535Y51349D01*
X57644Y51509D01*
X57804Y51616D01*
X58001Y51656D01*
X58486D01*
Y50677D01*
X58475Y50670D01*
X57868Y51083D01*
Y50748D01*
X58265Y50483D01*
X57868Y50211D01*
Y49876D01*
X58475Y50289D01*
X58486Y50282D01*
Y49672D01*
X57868D01*
Y49355D01*
X58486D01*
Y48922D01*
X57868D01*
Y48605D01*
X58486D01*
Y48270D01*
X57868Y48040D01*
Y47661D01*
X58486Y47432D01*
Y46647D01*
X58001D01*
X57804Y46686D01*
X57644Y46794D01*
X57535Y46954D01*
X57496Y47150D01*
G37*
G36*
X58158Y47856D02*X58651Y48024D01*
Y47679D01*
X58158Y47856D01*
G37*
G36*
X45398Y44439D02*X45539Y44389D01*
X45583Y44248D01*
X45539Y44106D01*
X45398Y44062D01*
X45266Y44106D01*
X45212Y44248D01*
X45266Y44389D01*
X45398Y44439D01*
G37*
G36*
Y44944D02*X45513Y44900D01*
X45557Y44793D01*
X45513Y44679D01*
X45398Y44636D01*
X45284Y44679D01*
X45240Y44793D01*
X45284Y44900D01*
X45398Y44944D01*
G37*
G36*
X45398Y45509D02*X45848D01*
X46042Y45470D01*
X46202Y45362D01*
X46311Y45201D01*
X46351Y45006D01*
Y44010D01*
X46311Y43815D01*
X46202Y43656D01*
X46042Y43547D01*
X45848Y43507D01*
X45398D01*
Y43860D01*
X45398Y43860D01*
X45608Y43884D01*
X45760Y43954D01*
X45852Y44072D01*
X45883Y44230D01*
X45822Y44433D01*
X45627Y44547D01*
X45804Y44645D01*
X45857Y44821D01*
X45828Y44959D01*
X45742Y45057D01*
X45597Y45123D01*
X45398Y45145D01*
X45398Y45145D01*
Y45509D01*
G37*
G36*
X44220D02*X45398D01*
Y45145D01*
X45199Y45123D01*
X45054Y45057D01*
X44967Y44959D01*
X44940Y44821D01*
X45002Y44645D01*
X45168Y44547D01*
X44975Y44433D01*
X44913Y44230D01*
X44944Y44072D01*
X45036Y43954D01*
X45188Y43884D01*
X45398Y43860D01*
Y43507D01*
X44220D01*
Y43861D01*
X44226Y43860D01*
X44437Y43902D01*
X44595Y44028D01*
X44694Y44230D01*
X44727Y44503D01*
X44694Y44777D01*
X44595Y44980D01*
X44437Y45105D01*
X44226Y45145D01*
X44220Y45144D01*
Y45509D01*
G37*
G36*
X43855D02*X44220D01*
Y45144D01*
X44007Y45105D01*
X43845Y44980D01*
X43746Y44777D01*
X43713Y44503D01*
X43746Y44230D01*
X43845Y44028D01*
X44007Y43902D01*
X44220Y43861D01*
Y43507D01*
X43855D01*
X43659Y43547D01*
X43500Y43656D01*
X43391Y43815D01*
X43352Y44010D01*
Y45006D01*
X43391Y45201D01*
X43500Y45362D01*
X43659Y45470D01*
X43855Y45509D01*
G37*
G36*
X44226Y44925D02*X44310Y44901D01*
X44366Y44830D01*
X44398Y44702D01*
X44410Y44503D01*
X44398Y44306D01*
X44366Y44175D01*
X44310Y44105D01*
X44226Y44080D01*
X44135Y44105D01*
X44075Y44175D01*
X44042Y44306D01*
X44032Y44503D01*
X44042Y44702D01*
X44075Y44830D01*
X44135Y44901D01*
X44226Y44925D01*
G37*
G54D138*X49500Y12343D02*X49703Y12546D01*
Y11530D01*
X49500D02*X49881D01*
X43450Y46200D02*X45350D01*
X43450Y47200D02*X45350D01*
Y46200D01*
X43450Y47200D02*Y46200D01*
G54D139*X43050Y50550D02*X45750D01*
X43050Y47250D02*X45750D01*
X43050Y50550D02*Y47250D01*
X45750Y50550D02*Y47250D01*
X46400Y47000D02*X50800D01*
X46400Y50600D02*X50800D01*
Y47000D01*
X46400Y50600D02*Y47000D01*
G54D140*X50900Y47900D02*Y46900D01*
X49900D02*X50900D01*
G54D138*X47250Y51800D02*X49150D01*
X47250Y50800D02*X49150D01*
X47250Y51800D02*Y50800D01*
X49150Y51800D02*Y50800D01*
G54D139*X52350Y55600D02*X57050D01*
X52350Y52400D02*X57050D01*
X52350Y55600D02*Y52400D01*
X57050Y55600D02*Y52400D01*
X46000Y55750D02*X52000D01*
X46000Y52250D02*X52000D01*
X46000Y55750D02*Y52250D01*
X52000Y55750D02*Y52250D01*
X52100Y55850D02*Y52150D01*
X49800Y55850D02*X52100D01*
G54D141*X50200Y55550D02*X51900D01*
G54D139*X49800Y52150D02*X52100D01*
G54D141*X50200Y52450D02*X51900D01*
G54D142*X44800Y68000D02*Y56000D01*
X56000Y68000D02*Y56000D01*
X44800D02*X56000D01*
X44800Y68000D02*X56000D01*
X53760Y64000D02*X56000D01*
X49280D02*X51520D01*
X44800D02*X47040D01*
G54D139*X57550Y63450D02*Y60350D01*
X56050Y63450D02*Y60350D01*
Y63450D02*X57550D01*
X56050Y60350D02*X57550D01*
G54D138*X58600Y54150D02*Y52250D01*
X59600Y54150D02*Y52250D01*
X58600D02*X59600D01*
X58600Y54150D02*X59600D01*
G54D139*X56200Y60300D02*Y55900D01*
X59800Y60300D02*Y55900D01*
X56200D02*X59800D01*
X56200Y60300D02*X59800D01*
G54D140*X56100Y55800D02*X57100D01*
X56100Y56800D02*Y55800D01*
G54D138*X57400Y54400D02*X59800D01*
X57400Y55600D02*X59800D01*
Y54400D01*
X57400Y55600D02*Y54400D01*
X57300Y55700D02*Y54300D01*
X58100D01*
X57300Y55700D02*X58100D01*
G54D139*X33150Y42050D02*X37850D01*
X33150Y44350D02*X37850D01*
Y42050D01*
X33150Y44350D02*Y42050D01*
Y44350D02*X37850D01*
X33150Y46650D02*X37850D01*
Y44350D01*
X33150Y46650D02*Y44350D01*
G54D138*X31200Y53750D02*Y51850D01*
X32200Y53750D02*Y51850D01*
X31200D02*X32200D01*
X31200Y53750D02*X32200D01*
X32480Y51420D02*X44680D01*
X32480Y63620D02*X44680D01*
X32480D02*Y51420D01*
X44680Y63620D02*Y51420D01*
X44880Y52520D02*Y51220D01*
X43580D02*X44880D01*
Y52520D02*X43580Y51220D01*
X44880Y52320D02*X43780Y51220D01*
X44880Y52120D02*X43980Y51220D01*
X44880Y51920D02*X44180Y51220D01*
X44880Y51720D02*X44380Y51220D01*
X44880Y51520D02*X44580Y51220D01*
X44880Y51320D02*X44780Y51220D01*
G54D139*X33150Y46650D02*X37850D01*
X33150Y48950D02*X37850D01*
Y46650D01*
X33150Y48950D02*Y46650D01*
Y48950D02*X37850D01*
X33150Y51250D02*X37850D01*
Y48950D01*
X33150Y51250D02*Y48950D01*
X38050Y51300D02*X42750D01*
X38050Y48100D02*X42750D01*
X38050Y51300D02*Y48100D01*
X42750Y51300D02*Y48100D01*
X38050D02*X42750D01*
X38050Y44900D02*X42750D01*
X38050Y48100D02*Y44900D01*
X42750Y48100D02*Y44900D01*
X38050D02*X42750D01*
X38050Y41700D02*X42750D01*
X38050Y44900D02*Y41700D01*
X42750Y44900D02*Y41700D01*
X43150Y43000D02*X46650D01*
X43150Y41000D02*X46650D01*
X43150Y43000D02*Y41000D01*
X46650Y43000D02*Y41000D01*
G54D140*X42900Y42000D02*X43050D01*
G54D139*X45025Y43000D02*Y41000D01*
X44725Y42000D02*X45025D01*
G54D138*X51750Y51800D02*X53650D01*
X51750Y50800D02*X53650D01*
X51750Y51800D02*Y50800D01*
X53650Y51800D02*Y50800D01*
X55550D01*
X53650Y51800D02*X55550D01*
Y50800D01*
X53650Y51800D02*Y50800D01*
G54D139*X52700Y50600D02*X57100D01*
X52700Y47000D02*X57100D01*
X52700Y50600D02*Y47000D01*
X57100Y50600D02*Y47000D01*
G54D140*X52600Y50700D02*Y49700D01*
Y50700D02*X53600D01*
G54D138*X49200Y51900D02*X51600D01*
X49200Y50700D02*X51600D01*
X49200Y51900D02*Y50700D01*
X51600Y51900D02*Y50700D01*
X51700Y52000D02*Y50600D01*
X50900Y52000D02*X51700D01*
X50900Y50600D02*X51700D01*
X49000Y46100D02*Y43700D01*
X47800Y46100D02*Y43700D01*
Y46100D02*X49000D01*
X47800Y43700D02*X49000D01*
X47700Y43600D02*X49100D01*
Y44400D02*Y43600D01*
X47700Y44400D02*Y43600D01*
X58500Y45850D02*Y43950D01*
X59500Y45850D02*Y43950D01*
X58500D02*X59500D01*
X58500Y45850D02*X59500D01*
G54D139*X54650Y45900D02*X58150D01*
X54650Y43900D02*X58150D01*
X54650Y45900D02*Y43900D01*
X58150Y45900D02*Y43900D01*
G54D140*X54400Y44900D02*X54550D01*
G54D139*X56525Y45900D02*Y43900D01*
X56225Y44900D02*X56525D01*
X49450Y43400D02*X54150D01*
X49450Y46600D02*X54150D01*
Y43400D01*
X49450Y46600D02*Y43400D01*
G54D138*X30350Y62700D02*X32250D01*
X30350Y63700D02*X32250D01*
Y62700D01*
X30350Y63700D02*Y62700D01*
Y62300D02*X32250D01*
X30350Y61300D02*X32250D01*
X30350Y62300D02*Y61300D01*
X32250Y62300D02*Y61300D01*
X30000Y63450D02*Y61550D01*
X29000Y63450D02*Y61550D01*
Y63450D02*X30000D01*
X29000Y61550D02*X30000D01*
G54D139*X28800Y60700D02*Y56300D01*
X32400Y60700D02*Y56300D01*
X28800D02*X32400D01*
X28800Y60700D02*X32400D01*
G54D140*X28700Y56200D02*X29700D01*
X28700Y57200D02*Y56200D01*
G54D138*X29900Y54000D02*X32300D01*
X29900Y55200D02*X32300D01*
Y54000D01*
X29900Y55200D02*Y54000D01*
X29800Y55300D02*Y53900D01*
X30600D01*
X29800Y55300D02*X30600D01*
G54D139*X23500Y52450D02*X27700D01*
X23500Y55950D02*X27700D01*
Y52450D01*
X23500Y55950D02*Y52450D01*
G54D140*X27800Y53350D02*Y52350D01*
X26800D02*X27800D01*
G54D139*X17400Y55750D02*X23400D01*
X17400Y52250D02*X23400D01*
X17400Y55750D02*Y52250D01*
X23400Y55750D02*Y52250D01*
X23500Y55850D02*Y52150D01*
X21200Y55850D02*X23500D01*
G54D141*X21600Y55550D02*X23300D01*
G54D139*X21200Y52150D02*X23500D01*
G54D141*X21600Y52450D02*X23300D01*
G54D138*X27900Y55150D02*Y53250D01*
X28900Y55150D02*Y53250D01*
X27900D02*X28900D01*
X27900Y55150D02*X28900D01*
G54D142*X13500Y68000D02*Y56000D01*
X28500Y68000D02*Y56000D01*
X13500D02*X28500D01*
X13500Y68000D02*X28500D01*
X25500Y64000D02*X28500D01*
X19500D02*X22500D01*
X13500D02*X16500D01*
G54D139*X11950Y63150D02*Y60050D01*
X13450Y63150D02*Y60050D01*
X11950D02*X13450D01*
X11950Y63150D02*X13450D01*
G54D138*X10800Y52750D02*Y50850D01*
X11800Y52750D02*Y50850D01*
X10800D02*X11800D01*
X10800Y52750D02*X11800D01*
G54D139*X12050Y56050D02*Y52950D01*
X10550Y56050D02*Y52950D01*
Y56050D02*X12050D01*
X10550Y52950D02*X12050D01*
X17325Y55900D02*Y51100D01*
X12125Y55900D02*Y51100D01*
Y55900D02*X17325D01*
X12125Y51100D02*X17325D01*
G54D138*X11500Y50650D02*Y48750D01*
X10500Y50650D02*Y48750D01*
Y50650D02*X11500D01*
X10500Y48750D02*X11500D01*
G54D139*X11850Y48700D02*X15350D01*
X11850Y50700D02*X15350D01*
Y48700D01*
X11850Y50700D02*Y48700D01*
G54D140*X15450Y49700D02*X15600D01*
G54D139*X13475Y50700D02*Y48700D01*
Y49700D02*X13775D01*
G54D138*X25450Y52200D02*X27350D01*
X25450Y51200D02*X27350D01*
X25450Y52200D02*Y51200D01*
X27350Y52200D02*Y51200D01*
X23550D02*X25450D01*
X23550Y52200D02*X25450D01*
Y51200D01*
X23550Y52200D02*Y51200D01*
X27350Y52200D02*X29250D01*
X27350Y51200D02*X29250D01*
X27350Y52200D02*Y51200D01*
X29250Y52200D02*Y51200D01*
G54D139*X23350Y45600D02*X26850D01*
X23350Y43600D02*X26850D01*
X23350Y45600D02*Y43600D01*
X26850Y45600D02*Y43600D01*
G54D140*X23100Y44600D02*X23250D01*
G54D139*X25225Y45600D02*Y43600D01*
X24925Y44600D02*X25225D01*
X23350Y48100D02*X26850D01*
X23350Y46100D02*X26850D01*
X23350Y48100D02*Y46100D01*
X26850Y48100D02*Y46100D01*
G54D140*X23100Y47100D02*X23250D01*
G54D139*X25225Y48100D02*Y46100D01*
X24925Y47100D02*X25225D01*
X28450Y50400D02*X33150D01*
X28450Y47200D02*X33150D01*
X28450Y50400D02*Y47200D01*
X33150Y50400D02*Y47200D01*
X30350Y41150D02*Y37850D01*
X26850Y41150D02*Y37850D01*
Y41150D02*X30350D01*
X26850Y37850D02*X30350D01*
Y46250D02*Y42950D01*
X26850Y46250D02*Y42950D01*
Y46250D02*X30350D01*
X26850Y42950D02*X30350D01*
X23350Y40500D02*X26850D01*
X23350Y38500D02*X26850D01*
X23350Y40500D02*Y38500D01*
X26850Y40500D02*Y38500D01*
G54D140*X23100Y39500D02*X23250D01*
G54D139*X25225Y40500D02*Y38500D01*
X24925Y39500D02*X25225D01*
X23350Y43000D02*X26850D01*
X23350Y41000D02*X26850D01*
X23350Y43000D02*Y41000D01*
X26850Y43000D02*Y41000D01*
G54D140*X23100Y42000D02*X23250D01*
G54D139*X25225Y43000D02*Y41000D01*
X24925Y42000D02*X25225D01*
X30350Y36050D02*Y32750D01*
X26850Y36050D02*Y32750D01*
Y36050D02*X30350D01*
X26850Y32750D02*X30350D01*
X23350Y32900D02*X26850D01*
X23350Y30900D02*X26850D01*
X23350Y32900D02*Y30900D01*
X26850Y32900D02*Y30900D01*
G54D140*X23100Y31900D02*X23250D01*
G54D139*X25225Y32900D02*Y30900D01*
X24925Y31900D02*X25225D01*
X23350Y35400D02*X26850D01*
X23350Y33400D02*X26850D01*
X23350Y35400D02*Y33400D01*
X26850Y35400D02*Y33400D01*
G54D140*X23100Y34400D02*X23250D01*
G54D139*X25225Y35400D02*Y33400D01*
X24925Y34400D02*X25225D01*
X23350Y38000D02*X26850D01*
X23350Y36000D02*X26850D01*
X23350Y38000D02*Y36000D01*
X26850Y38000D02*Y36000D01*
G54D140*X23100Y37000D02*X23250D01*
G54D139*X25225Y38000D02*Y36000D01*
X24925Y37000D02*X25225D01*
G54D142*X23310Y48350D02*Y28030D01*
X15440Y48350D02*Y28030D01*
X12900Y48350D02*X23310D01*
X12900Y28030D02*X23310D01*
X12900Y48350D02*Y28030D01*
X10000Y48350D02*Y45810D01*
Y30570D02*Y28030D01*
G54D143*X7360Y47080D02*X12710D01*
X7360Y44540D02*X12710D01*
X7360Y42000D02*X12710D01*
X7360Y39460D02*X12710D01*
X7360Y36920D02*X12710D01*
X7360Y34380D02*X12710D01*
X7360Y31840D02*X12710D01*
X7360Y29300D02*X12710D01*
G54D144*X15440Y48350D02*Y45810D01*
X18230Y48350D02*Y45810D01*
X15440Y48350D02*X18230D01*
X15440Y45810D02*X18230D01*
G54D138*X21700Y51180D02*Y48780D01*
X20500Y51180D02*Y48780D01*
Y51180D02*X21700D01*
X20500Y48780D02*X21700D01*
X20400Y48680D02*X21800D01*
Y49480D02*Y48680D01*
X20400Y49480D02*Y48680D01*
G54D139*X16550Y50580D02*X20050D01*
X16550Y48580D02*X20050D01*
X16550Y50580D02*Y48580D01*
X20050Y50580D02*Y48580D01*
G54D138*X40850Y23000D02*X42750D01*
X40850Y22000D02*X42750D01*
X40850Y23000D02*Y22000D01*
X42750Y23000D02*Y22000D01*
X40900Y26850D02*Y24950D01*
X41900Y26850D02*Y24950D01*
X40900D02*X41900D01*
X40900Y26850D02*X41900D01*
Y24950D02*Y23050D01*
X40900Y24950D02*Y23050D01*
Y24950D02*X41900D01*
X40900Y23050D02*X41900D01*
G54D139*X39150Y21350D02*X43050D01*
X39150Y17850D02*X43050D01*
X39150Y21350D02*Y17850D01*
X43050Y21350D02*Y17850D01*
G54D140*X39050Y21450D02*Y20450D01*
Y21450D02*X40050D01*
G54D139*X31800Y32700D02*X40800D01*
X31800Y21700D02*X40800D01*
X31800Y32700D02*Y21700D01*
X40800Y32700D02*Y21700D01*
G54D140*X31700Y32800D02*Y31800D01*
Y32800D02*X32700D01*
G54D138*X31700Y28650D02*Y26750D01*
X30700Y28650D02*Y26750D01*
Y28650D02*X31700D01*
X30700Y26750D02*X31700D01*
G54D139*X33250Y21700D02*X36750D01*
X33250Y19700D02*X36750D01*
X33250Y21700D02*Y19700D01*
X36750Y21700D02*Y19700D01*
G54D140*X33000Y20700D02*X33150D01*
G54D139*X35125Y21700D02*Y19700D01*
X34825Y20700D02*X35125D01*
G54D138*X37800Y21650D02*Y19750D01*
X36800Y21650D02*Y19750D01*
Y21650D02*X37800D01*
X36800Y19750D02*X37800D01*
X30700Y24150D02*Y22250D01*
X31700Y24150D02*Y22250D01*
X30700D02*X31700D01*
X30700Y24150D02*X31700D01*
G54D139*X40850Y30250D02*Y26950D01*
X44350Y30250D02*Y26950D01*
X40850D02*X44350D01*
X40850Y30250D02*X44350D01*
G54D138*X44950Y25900D02*Y23900D01*
X42450Y25900D02*Y23900D01*
Y25900D02*X44950D01*
X42450Y23900D02*X44950D01*
X45400Y30250D02*Y28350D01*
X44400Y30250D02*Y28350D01*
Y30250D02*X45400D01*
X44400Y28350D02*X45400D01*
X45100Y19550D02*Y17650D01*
X44100Y19550D02*Y17650D01*
Y19550D02*X45100D01*
X44100Y17650D02*X45100D01*
G54D139*X49450Y29700D02*X54150D01*
X49450Y32900D02*X54150D01*
Y29700D01*
X49450Y32900D02*Y29700D01*
G54D138*X36900Y38950D02*X38900D01*
X36900Y36450D02*X38900D01*
X36900Y38950D02*Y36450D01*
X38900Y38950D02*Y36450D01*
X30900Y32950D02*X32900D01*
X30900Y35450D02*X32900D01*
Y32950D01*
X30900Y35450D02*Y32950D01*
Y38250D02*X32900D01*
X30900Y40750D02*X32900D01*
Y38250D01*
X30900Y40750D02*Y38250D01*
X42200Y32150D02*Y30250D01*
X41200Y32150D02*Y30250D01*
Y32150D02*X42200D01*
X41200Y30250D02*X42200D01*
G54D139*X39250Y36050D02*Y32750D01*
X42750Y36050D02*Y32750D01*
X39250D02*X42750D01*
X39250Y36050D02*X42750D01*
X39250Y41150D02*Y37850D01*
X42750Y41150D02*Y37850D01*
X39250D02*X42750D01*
X39250Y41150D02*X42750D01*
X43150Y35400D02*X46650D01*
X43150Y33400D02*X46650D01*
X43150Y35400D02*Y33400D01*
X46650Y35400D02*Y33400D01*
G54D140*X42900Y34400D02*X43050D01*
G54D139*X45025Y35400D02*Y33400D01*
X44725Y34400D02*X45025D01*
X43150Y37900D02*X46650D01*
X43150Y35900D02*X46650D01*
X43150Y37900D02*Y35900D01*
X46650Y37900D02*Y35900D01*
G54D140*X42900Y36900D02*X43050D01*
G54D139*X45025Y37900D02*Y35900D01*
X44725Y36900D02*X45025D01*
X43150Y40500D02*X46650D01*
X43150Y38500D02*X46650D01*
X43150Y40500D02*Y38500D01*
X46650Y40500D02*Y38500D01*
G54D140*X42900Y39500D02*X43050D01*
G54D139*X45025Y40500D02*Y38500D01*
X44725Y39500D02*X45025D01*
G54D142*X46690Y43270D02*Y33110D01*
X54560Y43270D02*Y33110D01*
X46690D02*X57100D01*
X46690Y43270D02*X57100D01*
Y33110D01*
X60000Y35650D02*Y33110D01*
Y43270D02*Y40730D01*
G54D143*X57290Y34380D02*X62640D01*
X57290Y36920D02*X62640D01*
X57290Y39460D02*X62640D01*
X57290Y42000D02*X62640D01*
G54D144*X54560Y35650D02*Y33110D01*
X51770Y35650D02*Y33110D01*
X54560D01*
X51770Y35650D02*X54560D01*
G54D139*X45150Y17800D02*X53050D01*
X45150Y25700D02*X53050D01*
Y17800D01*
X45150Y25700D02*Y17800D01*
G54D140*X53150Y18700D02*Y17700D01*
X52150D02*X53150D01*
G54D138*X45400Y28350D02*Y26450D01*
X44400Y28350D02*Y26450D01*
Y28350D02*X45400D01*
X44400Y26450D02*X45400D01*
Y25800D02*X47300D01*
X45400Y26800D02*X47300D01*
Y25800D01*
X45400Y26800D02*Y25800D01*
X47950D02*X49850D01*
X47950Y26800D02*X49850D01*
Y25800D01*
X47950Y26800D02*Y25800D01*
G54D139*X48250Y29400D02*X51750D01*
X48250Y27400D02*X51750D01*
X48250Y29400D02*Y27400D01*
X51750Y29400D02*Y27400D01*
G54D140*X48000Y28400D02*X48150D01*
G54D139*X50000Y29400D02*Y27400D01*
X49700Y28400D02*X50000D01*
G54D138*X46050Y29400D02*X47950D01*
X46050Y28400D02*X47950D01*
X46050Y29400D02*Y28400D01*
X47950Y29400D02*Y28400D01*
X46050D02*X47950D01*
X46050Y27400D02*X47950D01*
X46050Y28400D02*Y27400D01*
X47950Y28400D02*Y27400D01*
X57050Y24900D02*X58950D01*
X57050Y25900D02*X58950D01*
Y24900D01*
X57050Y25900D02*Y24900D01*
G54D139*X56150Y32350D02*X59450D01*
X56150Y28850D02*X59450D01*
X56150Y32350D02*Y28850D01*
X59450Y32350D02*Y28850D01*
G54D138*X53500Y26850D02*X55500D01*
X53500Y24350D02*X55500D01*
X53500Y26850D02*Y24350D01*
X55500Y26850D02*Y24350D01*
X53500Y29350D02*X55500D01*
X53500Y26850D02*X55500D01*
X53500Y29350D02*Y26850D01*
X55500Y29350D02*Y26850D01*
G54D139*X59650Y23850D02*Y17150D01*
X55350Y23850D02*Y17150D01*
Y23850D02*X59650D01*
X55350Y17150D02*X59650D01*
G54D138*X57750Y23900D02*X59650D01*
X57750Y24900D02*X59650D01*
Y23900D01*
X57750Y24900D02*Y23900D01*
X53250Y20900D02*X55150D01*
X53250Y21900D02*X55150D01*
Y20900D01*
X53250Y21900D02*Y20900D01*
Y22700D02*X55150D01*
X53250Y23700D02*X55150D01*
Y22700D01*
X53250Y23700D02*Y22700D01*
G54D139*X53300Y19650D02*Y16150D01*
X55300Y19650D02*Y16150D01*
X53300D02*X55300D01*
X53300Y19650D02*X55300D01*
G54D138*X56550Y17100D02*X58450D01*
X56550Y16100D02*X58450D01*
X56550Y17100D02*Y16100D01*
X58450Y17100D02*Y16100D01*
X50350Y17700D02*X52250D01*
X50350Y16700D02*X52250D01*
X50350Y17700D02*Y16700D01*
X52250Y17700D02*Y16700D01*
X45300Y17350D02*Y15450D01*
X44300Y17350D02*Y15450D01*
Y17350D02*X45300D01*
X44300Y15450D02*X45300D01*
G54D139*X47550Y13350D02*Y10250D01*
X49050Y13350D02*Y10250D01*
X47550D02*X49050D01*
X47550Y13350D02*X49050D01*
G54D138*X48800Y15250D02*Y13350D01*
X47800Y15250D02*Y13350D01*
Y15250D02*X48800D01*
X47800Y13350D02*X48800D01*
G54D139*X47300Y15400D02*Y8470D01*
X36900Y15400D02*Y8470D01*
Y15400D02*X47300D01*
X36900Y8470D02*X47300D01*
X36900Y10000D02*X38980D01*
X41060D02*X43140D01*
X45220D02*X47300D01*
G54D138*X44100Y17900D02*Y15500D01*
X42900Y17900D02*Y15500D01*
Y17900D02*X44100D01*
X42900Y15500D02*X44100D01*
X42800Y15400D02*X44200D01*
Y16200D02*Y15400D01*
X42800Y16200D02*Y15400D01*
G54D139*X33100Y15450D02*X39100D01*
X33100Y18950D02*X39100D01*
Y15450D01*
X33100Y18950D02*Y15450D01*
X33000Y19050D02*Y15350D01*
X35300D01*
G54D141*X33200Y15650D02*X34900D01*
G54D139*X33000Y19050D02*X35300D01*
G54D141*X33200Y18750D02*X34900D01*
G54D139*X50360Y15050D02*X56830D01*
X50360Y11600D02*X56830D01*
X50360Y15050D02*Y11600D01*
X56830Y15050D02*Y11600D01*
G54D140*X50310Y11500D02*X51700D01*
X50310Y13340D02*Y11500D01*
G54D139*X30550Y15100D02*Y10300D01*
X35750Y15100D02*Y10300D01*
X30550D02*X35750D01*
X30550Y15100D02*X35750D01*
G54D142*X17900Y26500D02*X18000D01*
X11400D02*X15100D01*
X17900Y19300D02*X18000D01*
X11400D02*X15100D01*
X18000Y26500D02*Y19300D01*
X11400Y26500D02*Y19300D01*
G54D145*X10775Y24650D02*Y21150D01*
G54D142*Y25150D02*X11400D01*
X10775Y20650D02*X11400D01*
G54D138*X18350Y21400D02*X20250D01*
X18350Y20400D02*X20250D01*
X18350Y21400D02*Y20400D01*
X20250Y21400D02*Y20400D01*
X18350Y22400D02*X20250D01*
X18350Y23400D02*X20250D01*
Y22400D01*
X18350Y23400D02*Y22400D01*
Y24400D02*X20250D01*
X18350Y23400D02*X20250D01*
X18350Y24400D02*Y23400D01*
X20250Y24400D02*Y23400D01*
X18350Y24400D02*X20250D01*
X18350Y25400D02*X20250D01*
Y24400D01*
X18350Y25400D02*Y24400D01*
X21400Y25350D02*Y23450D01*
X22400Y25350D02*Y23450D01*
X21400D02*X22400D01*
X21400Y25350D02*X22400D01*
G54D139*X18250Y28000D02*X21750D01*
X18250Y26000D02*X21750D01*
X18250Y28000D02*Y26000D01*
X21750Y28000D02*Y26000D01*
G54D138*X18350Y21400D02*X20250D01*
X18350Y22400D02*X20250D01*
Y21400D01*
X18350Y22400D02*Y21400D01*
X30700Y26750D02*Y24850D01*
X31700Y26750D02*Y24850D01*
X30700D02*X31700D01*
X30700Y26750D02*X31700D01*
G54D139*X30350Y30950D02*Y27650D01*
X26850Y30950D02*Y27650D01*
Y30950D02*X30350D01*
X26850Y27650D02*X30350D01*
X23350Y30300D02*X26850D01*
X23350Y28300D02*X26850D01*
X23350Y30300D02*Y28300D01*
X26850Y30300D02*Y28300D01*
G54D140*X23100Y29300D02*X23250D01*
G54D139*X25225Y30300D02*Y28300D01*
X24925Y29300D02*X25225D01*
G54D138*X28450Y25400D02*X30350D01*
X28450Y26400D02*X30350D01*
Y25400D01*
X28450Y26400D02*Y25400D01*
G54D139*X22600Y25200D02*X30600D01*
X22600Y19600D02*X30600D01*
X22600Y25200D02*Y19600D01*
X30600Y25200D02*Y19600D01*
G54D140*X22500Y25300D02*Y24300D01*
Y25300D02*X23500D01*
G54D142*X30415Y15200D02*Y6000D01*
X13785Y15200D02*Y6000D01*
Y15200D02*X30415D01*
X13785Y6000D02*X30415D01*
X13785Y10000D02*X17111D01*
X20437D02*X23763D01*
X27089D02*X30415D01*
G54D138*X35800Y12650D02*Y10750D01*
X36800Y12650D02*Y10750D01*
X35800D02*X36800D01*
X35800Y12650D02*X36800D01*
Y14650D02*Y12750D01*
X35800Y14650D02*Y12750D01*
Y14650D02*X36800D01*
X35800Y12750D02*X36800D01*
G54D139*X30450Y18850D02*Y15550D01*
X26950Y18850D02*Y15550D01*
Y18850D02*X30450D01*
X26950Y15550D02*X30450D01*
X30650Y20050D02*Y15350D01*
X32950Y20050D02*Y15350D01*
X30650D02*X32950D01*
X30650Y20050D02*X32950D01*
X26950Y18750D02*Y15650D01*
X25450Y18750D02*Y15650D01*
Y18750D02*X26950D01*
X25450Y15650D02*X26950D01*
G54D138*X24900Y19150D02*Y17250D01*
X23900Y19150D02*Y17250D01*
Y19150D02*X24900D01*
X23900Y17250D02*X24900D01*
X23900D02*Y15350D01*
X24900Y17250D02*Y15350D01*
X23900D02*X24900D01*
X23900Y17250D02*X24900D01*
X23900Y19150D02*Y17250D01*
X22900Y19150D02*Y17250D01*
Y19150D02*X23900D01*
X22900Y17250D02*X23900D01*
G54D139*X18550Y18850D02*X21850D01*
X18550Y15350D02*X21850D01*
X18550Y18850D02*Y15350D01*
X21850Y18850D02*Y15350D01*
G54D138*X22900Y17250D02*Y15350D01*
X21900Y17250D02*Y15350D01*
Y17250D02*X22900D01*
X21900Y15350D02*X22900D01*
X18500Y17250D02*Y15350D01*
X17500Y17250D02*Y15350D01*
Y17250D02*X18500D01*
X17500Y15350D02*X18500D01*
X16500Y17250D02*Y15350D01*
X17500Y17250D02*Y15350D01*
X16500D02*X17500D01*
X16500Y17250D02*X17500D01*
X22900D02*Y15350D01*
X23900Y17250D02*Y15350D01*
X22900D02*X23900D01*
X22900Y17250D02*X23900D01*
X18350Y20400D02*X20250D01*
X18350Y19400D02*X20250D01*
X18350Y20400D02*Y19400D01*
X20250Y20400D02*Y19400D01*
X22500Y21350D02*Y19450D01*
X21500Y21350D02*Y19450D01*
Y21350D02*X22500D01*
X21500Y19450D02*X22500D01*
Y23350D02*Y21450D01*
X21500Y23350D02*Y21450D01*
Y23350D02*X22500D01*
X21500Y21450D02*X22500D01*
G54D139*X13750Y18750D02*Y15650D01*
X15250Y18750D02*Y15650D01*
X13750D02*X15250D01*
X13750Y18750D02*X15250D01*
X10250Y18850D02*Y15550D01*
X13750Y18850D02*Y15550D01*
X10250D02*X13750D01*
X10250Y18850D02*X13750D01*
X13350Y15150D02*Y12050D01*
X11850Y15150D02*Y12050D01*
Y15150D02*X13350D01*
X11850Y12050D02*X13350D01*
G54D138*X10800Y15150D02*Y13250D01*
X11800Y15150D02*Y13250D01*
X10800D02*X11800D01*
X10800Y15150D02*X11800D01*
X15500Y17250D02*Y15350D01*
X16500Y17250D02*Y15350D01*
X15500D02*X16500D01*
X15500Y17250D02*X16500D01*
M02*
