G04 start of page 8 for group -4063 idx -4063 *
G04 Title: (unknown), componentmask *
G04 Creator: pcb 1.99z *
G04 CreationDate: Wed 03 Sep 2014 19:39:49 GMT UTC *
G04 For: rbarlow *
G04 Format: Gerber/RS-274X *
G04 PCB-Dimensions (mm): 70.00 74.00 *
G04 PCB-Coordinate-Origin: lower left *
%MOMM*%
%FSLAX43Y43*%
%LNTOPMASK*%
%ADD128R,5.300X5.300*%
%ADD127R,0.750X0.750*%
%ADD126R,2.070X2.070*%
%ADD125R,2.025X2.025*%
%ADD124R,1.925X1.925*%
%ADD123R,1.675X1.675*%
%ADD122R,1.760X1.760*%
%ADD121R,1.650X1.650*%
%ADD120R,0.600X0.600*%
%ADD119R,0.800X0.800*%
%ADD118R,1.700X1.700*%
%ADD117R,0.900X0.900*%
%ADD116R,2.300X2.300*%
%ADD115R,1.000X1.000*%
%ADD114R,1.250X1.250*%
%ADD113R,1.450X1.450*%
%ADD112R,1.100X1.100*%
%ADD111R,0.700X0.700*%
%ADD110R,0.920X0.920*%
%ADD109C,1.300*%
%ADD108C,1.400*%
%ADD107C,0.002*%
%ADD106C,3.500*%
%ADD105C,2.650*%
%ADD104C,1.900*%
%ADD103C,2.000*%
%ADD102C,2.500*%
G54D102*X16500Y19400D03*
G54D103*X14000Y25150D03*
Y20650D03*
G54D102*X16500Y26400D03*
G54D104*X16960Y42000D03*
Y39460D03*
Y36920D03*
Y34380D03*
Y31840D03*
Y29300D03*
X19500Y42000D03*
Y39460D03*
Y36920D03*
Y34380D03*
Y31840D03*
Y29300D03*
X22040Y42000D03*
Y39460D03*
Y36920D03*
Y34380D03*
Y31840D03*
Y29300D03*
G54D105*X16385Y14000D03*
X20195D03*
X24005D03*
X27815D03*
G54D106*X24750Y58000D03*
X17250D03*
G54D107*G36*
X16010Y48030D02*Y46130D01*
X17910D01*
Y48030D01*
X16010D01*
G37*
G54D104*X19500Y47080D03*
X22040D03*
G54D106*X52900Y58000D03*
X47900D03*
G54D107*G36*
X52090Y35330D02*Y33430D01*
X53990D01*
Y35330D01*
X52090D01*
G37*
G54D104*X53040Y36920D03*
Y39460D03*
Y42000D03*
X47960Y34380D03*
Y36920D03*
Y39460D03*
Y42000D03*
X16960Y44540D03*
X19500D03*
X22040D03*
X50500Y34380D03*
Y36920D03*
Y39460D03*
Y42000D03*
X38000Y11250D03*
X46200D03*
G54D108*X39675Y14330D03*
X44525D03*
G54D107*G36*
X50410Y13350D02*Y12050D01*
X51710D01*
Y13350D01*
X50410D01*
G37*
G54D109*X51060Y13970D03*
X52330Y12700D03*
Y13970D03*
X53600Y12700D03*
X54870D03*
X56140D03*
X53600Y13970D03*
X54870D03*
X56140D03*
G54D110*X41400Y26351D02*Y26349D01*
X41700Y31651D02*Y31649D01*
Y30751D02*Y30749D01*
G54D111*X39450Y31425D02*X40150D01*
G54D112*X39950Y34400D02*X40050D01*
G54D111*X39450Y30775D02*X40150D01*
X39450Y30125D02*X40150D01*
X39450Y29475D02*X40150D01*
G54D112*X41550Y28600D02*X41650D01*
G54D113*X44000Y34550D02*Y34250D01*
X45800Y34550D02*Y34250D01*
G54D112*X41950Y33450D02*X42050D01*
G54D113*X44000Y37050D02*Y36750D01*
X45800Y37050D02*Y36750D01*
X44000Y39650D02*Y39350D01*
X45800Y39650D02*Y39350D01*
X44000Y42150D02*Y41850D01*
X45800Y42150D02*Y41850D01*
G54D111*X39450Y28825D02*X40150D01*
X39450Y28175D02*X40150D01*
X39450Y27525D02*X40150D01*
X39450Y26875D02*X40150D01*
G54D112*X43550Y27650D02*X43650D01*
X43550Y29550D02*X43650D01*
G54D110*X44900Y29751D02*Y29749D01*
Y28851D02*Y28849D01*
Y27851D02*Y27849D01*
Y26951D02*Y26949D01*
X45899Y26300D02*X45901D01*
G54D114*X14475Y16400D02*X14525D01*
X14475Y18000D02*X14525D01*
G54D112*X12950Y16250D02*X13050D01*
G54D114*X12575Y14400D02*X12625D01*
X12575Y12800D02*X12625D01*
G54D110*X11300Y13751D02*Y13749D01*
Y14651D02*Y14649D01*
G54D112*X12950Y18150D02*X13050D01*
X10950Y17200D02*X11050D01*
G54D110*X19749Y21900D02*X19751D01*
X18849D02*X18851D01*
X18849Y20900D02*X18851D01*
X19749D02*X19751D01*
X19749Y22900D02*X19751D01*
X18849D02*X18851D01*
X16000Y15851D02*Y15849D01*
X18000Y15851D02*Y15849D01*
X17000Y15851D02*Y15849D01*
X16000Y16751D02*Y16749D01*
X18000Y16751D02*Y16749D01*
X17000Y16751D02*Y16749D01*
X18849Y19900D02*X18851D01*
X19749D02*X19751D01*
G54D112*X20200Y18150D02*Y18050D01*
G54D110*X22400Y16751D02*Y16749D01*
Y15851D02*Y15849D01*
G54D112*X19250Y16150D02*Y16050D01*
X21150Y16150D02*Y16050D01*
G54D110*X22000Y19951D02*Y19949D01*
X23400Y18651D02*Y18649D01*
Y17751D02*Y17749D01*
Y15851D02*Y15849D01*
Y16751D02*Y16749D01*
X11300Y51351D02*Y51349D01*
Y52251D02*Y52249D01*
G54D115*X12775Y52000D02*X13175D01*
G54D114*X11275Y55300D02*X11325D01*
G54D115*X12775Y55000D02*X13175D01*
G54D114*X11275Y53700D02*X11325D01*
G54D115*X12775Y53500D02*X13875D01*
X12775D02*X13175D01*
G54D116*X15175D02*X16025D01*
G54D107*G36*
X14625Y54100D02*Y52900D01*
X15825D01*
Y54100D01*
X14625D01*
G37*
G54D110*X11000Y50151D02*Y50149D01*
Y49251D02*Y49249D01*
G54D113*X12700Y49850D02*Y49550D01*
G54D114*X12675Y60800D02*X12725D01*
X12675Y62400D02*X12725D01*
G54D117*X16525Y54000D02*Y53000D01*
G54D118*X22400Y54120D02*Y53880D01*
X18400Y54120D02*Y53880D01*
G54D113*X14500Y49850D02*Y49550D01*
G54D119*X21100Y49530D02*Y49330D01*
Y50630D02*Y50430D01*
G54D113*X17400Y49730D02*Y49430D01*
X19200Y49730D02*Y49430D01*
G54D111*X32450Y30125D02*X33150D01*
X32450Y29475D02*X33150D01*
X32450Y28825D02*X33150D01*
X32450Y28175D02*X33150D01*
X32450Y27525D02*X33150D01*
X32450Y26875D02*X33150D01*
X32450Y26225D02*X33150D01*
G54D113*X34100Y20850D02*Y20550D01*
X35900Y20850D02*Y20550D01*
G54D110*X37300Y21151D02*Y21149D01*
Y20251D02*Y20249D01*
G54D111*X32450Y31425D02*X33150D01*
X32450Y30775D02*X33150D01*
G54D112*X27550Y30250D02*X27650D01*
X27550Y28350D02*X27650D01*
X29550Y29300D02*X29650D01*
G54D113*X26000Y29450D02*Y29150D01*
G54D111*X32350Y33400D02*X32450D01*
G54D120*X32300Y33950D02*X32500D01*
X32300Y34450D02*X32500D01*
G54D111*X31350Y33400D02*X31450D01*
G54D120*X31300Y33950D02*X31500D01*
X31300Y34450D02*X31500D01*
G54D111*X31350Y35000D02*X31450D01*
G54D110*X31200Y28151D02*Y28149D01*
Y27251D02*Y27249D01*
Y26251D02*Y26249D01*
G54D112*X27550Y33450D02*X27650D01*
G54D113*X24200Y32050D02*Y31750D01*
X26000Y32050D02*Y31750D01*
X24200Y34550D02*Y34250D01*
X26000Y34550D02*Y34250D01*
G54D112*X29550Y34400D02*X29650D01*
G54D111*X32450Y24925D02*X33150D01*
X32450Y24275D02*X33150D01*
X32450Y23625D02*X33150D01*
X32450Y22975D02*X33150D01*
X32450Y25575D02*X33150D01*
G54D110*X31200Y25351D02*Y25349D01*
G54D117*X28400Y24305D02*X30000D01*
G54D110*X29849Y25900D02*X29851D01*
X28949D02*X28951D01*
X31200Y23651D02*Y23649D01*
X41349Y22500D02*X41351D01*
X42249D02*X42251D01*
X41400Y25451D02*Y25449D01*
Y24451D02*Y24449D01*
Y23551D02*Y23549D01*
G54D111*X39450Y26225D02*X40150D01*
X39450Y25575D02*X40150D01*
X39450Y24925D02*X40150D01*
X39450Y24275D02*X40150D01*
X39450Y23625D02*X40150D01*
X39450Y22975D02*X40150D01*
G54D115*X39750Y20550D02*X40050D01*
X39750Y19600D02*X40050D01*
X39750Y18650D02*X40050D01*
G54D110*X44600Y19051D02*Y19049D01*
Y18151D02*Y18149D01*
G54D115*X42150Y18650D02*X42450D01*
X42150Y19600D02*X42450D01*
X42150Y20550D02*X42450D01*
G54D120*X45600Y19000D02*X45900D01*
X45600Y19500D02*X45900D01*
X45600Y20000D02*X45900D01*
X45600Y20500D02*X45900D01*
G54D110*X44800Y16851D02*Y16849D01*
G54D119*X43500Y17350D02*Y17150D01*
G54D111*X44500Y25450D02*Y25350D01*
G54D120*X43950Y25500D02*Y25300D01*
G54D111*X44500Y24450D02*Y24350D01*
G54D120*X43450Y25500D02*Y25300D01*
G54D111*X42900Y25450D02*Y25350D01*
G54D120*X43950Y24500D02*Y24300D01*
X43450Y24500D02*Y24300D01*
G54D111*X42900Y24450D02*Y24350D01*
G54D120*X45600Y21000D02*X45900D01*
X45600Y21500D02*X45900D01*
X45600Y22000D02*X45900D01*
X45600Y22500D02*X45900D01*
X45600Y23000D02*X45900D01*
X45600Y23500D02*X45900D01*
X45600Y24000D02*X45900D01*
X45600Y24500D02*X45900D01*
G54D110*X44800Y15951D02*Y15949D01*
G54D121*X44987Y12675D02*X45462D01*
G54D122*X44730Y14330D02*X45270D01*
G54D111*X43400Y14800D02*Y13600D01*
G54D119*X43500Y16250D02*Y16050D01*
G54D114*X48275Y11000D02*X48325D01*
X48275Y12600D02*X48325D01*
G54D110*X48300Y14751D02*Y14749D01*
Y13851D02*Y13849D01*
G54D123*X41163Y11613D02*Y10887D01*
X43037Y11613D02*Y10887D01*
G54D124*X46037Y11487D02*Y11012D01*
G54D111*X42750Y14800D02*Y13600D01*
X42100Y14800D02*Y13600D01*
X41450Y14800D02*Y13600D01*
X40800Y14800D02*Y13600D01*
G54D113*X19100Y27150D02*Y26850D01*
G54D110*X18849Y23900D02*X18851D01*
X19749D02*X19751D01*
X19749Y24900D02*X19751D01*
X18849D02*X18851D01*
G54D113*X20900Y27150D02*Y26850D01*
X24200Y29450D02*Y29150D01*
G54D110*X21900Y23951D02*Y23949D01*
Y24851D02*Y24849D01*
X22000Y22851D02*Y22849D01*
Y20851D02*Y20849D01*
Y21951D02*Y21949D01*
G54D117*X23200Y24305D02*X24800D01*
X23200Y23035D02*X24800D01*
X23200Y21765D02*X24800D01*
X23200Y20495D02*X24800D01*
G54D110*X31200Y22751D02*Y22749D01*
G54D117*X28400Y20495D02*X30000D01*
X28400Y21765D02*X30000D01*
X28400Y23035D02*X30000D01*
G54D114*X26175Y18000D02*X26225D01*
X26175Y16400D02*X26225D01*
G54D112*X27650Y18150D02*X27750D01*
X27650Y16250D02*X27750D01*
X29650Y17200D02*X29750D01*
G54D113*X31475Y19200D02*X32125D01*
G54D110*X24400Y18651D02*Y18649D01*
Y17751D02*Y17749D01*
Y15851D02*Y15849D01*
Y16751D02*Y16749D01*
G54D116*X31850Y12700D02*X32700D01*
G54D117*X31350Y13200D02*Y12200D01*
G54D107*G36*
X32050Y13300D02*Y12100D01*
X33250D01*
Y13300D01*
X32050D01*
G37*
G54D110*X36300Y11251D02*Y11249D01*
G54D124*X38163Y11487D02*Y11012D01*
G54D121*X38738Y12675D02*X39213D01*
G54D110*X36300Y12151D02*Y12149D01*
G54D115*X34700Y11200D02*X35100D01*
X34000Y12700D02*X35100D01*
X34700D02*X35100D01*
G54D110*X36300Y14151D02*Y14149D01*
Y13251D02*Y13249D01*
G54D122*X38930Y14330D02*X39470D01*
G54D115*X34700Y14200D02*X35100D01*
G54D118*X38100Y17320D02*Y17080D01*
X34100Y17320D02*Y17080D01*
G54D113*X31475Y16200D02*X32125D01*
G54D110*X29500Y62951D02*Y62949D01*
X30849Y61800D02*X30851D01*
X31749D02*X31751D01*
X29500Y62051D02*Y62049D01*
G54D111*X31575Y60230D02*Y59640D01*
X30925Y60230D02*Y59640D01*
X30275Y60230D02*Y59640D01*
X29625Y60230D02*Y59640D01*
X29832Y59570D02*X30120D01*
X31080D02*X31368D01*
G54D125*X30345Y59058D02*X30855D01*
G54D111*X29832Y58545D02*X30120D01*
X31080D02*X31368D01*
G54D110*X31700Y53251D02*Y53249D01*
G54D126*X34010Y55240D02*Y52940D01*
G54D119*X31550Y54600D02*X31750D01*
G54D110*X31749Y63200D02*X31751D01*
G54D107*G36*
X33355Y62755D02*Y61445D01*
X34665D01*
Y62755D01*
X33355D01*
G37*
G54D110*X30849Y63200D02*X30851D01*
G54D107*G36*
X37925Y62755D02*Y61445D01*
X39235D01*
Y62755D01*
X37925D01*
G37*
G36*
X35645D02*Y61445D01*
X36955D01*
Y62755D01*
X35645D01*
G37*
G36*
Y60465D02*Y59155D01*
X36955D01*
Y60465D01*
X35645D01*
G37*
G54D126*X36290Y52950D02*X38590D01*
G54D113*X37000Y50425D02*Y49775D01*
X34000Y50425D02*Y49775D01*
X38900Y50475D02*Y48925D01*
X32300Y49575D02*Y48025D01*
G54D107*G36*
X33355Y60465D02*Y59155D01*
X34665D01*
Y60465D01*
X33355D01*
G37*
G36*
X35645Y58175D02*Y56865D01*
X36955D01*
Y58175D01*
X35645D01*
G37*
G36*
X33355D02*Y56865D01*
X34665D01*
Y58175D01*
X33355D01*
G37*
G54D111*X31575Y57360D02*Y56770D01*
G54D127*X23975Y53225D02*X24625D01*
G54D110*X24949Y51700D02*X24951D01*
X24049D02*X24051D01*
G54D127*X26575Y53875D02*X27225D01*
X23975D02*X24625D01*
G54D110*X28400Y53751D02*Y53749D01*
G54D127*X26575Y54525D02*X27225D01*
X23975D02*X24625D01*
G54D119*X30450Y54600D02*X30650D01*
G54D110*X28400Y54651D02*Y54649D01*
G54D127*X26575Y55175D02*X27225D01*
X23975D02*X24625D01*
X26575Y53225D02*X27225D01*
G54D110*X25949Y51700D02*X25951D01*
X26849D02*X26851D01*
X27849D02*X27851D01*
X28749D02*X28751D01*
G54D111*X29625Y57360D02*Y56770D01*
X30275Y57360D02*Y56770D01*
X30925Y57360D02*Y56770D01*
G54D113*X29300Y49575D02*Y48025D01*
X53200Y54775D02*Y53225D01*
X53300Y45775D02*Y44225D01*
X50300Y45775D02*Y44225D01*
G54D110*X52249Y51300D02*X52251D01*
X53149D02*X53151D01*
G54D111*X53170Y48475D02*X53760D01*
X53170Y47825D02*X53760D01*
G54D110*X55049Y51300D02*X55051D01*
X54149D02*X54151D01*
G54D111*X53170Y49775D02*X53760D01*
X53170Y49125D02*X53760D01*
X54945Y49568D02*Y49280D01*
X56040Y47825D02*X56630D01*
X56040Y48475D02*X56630D01*
X54945Y48320D02*Y48032D01*
X55970Y48320D02*Y48032D01*
X56040Y49125D02*X56630D01*
X56040Y49775D02*X56630D01*
G54D125*X55458Y49055D02*Y48545D01*
G54D111*X55970Y49568D02*Y49280D01*
G54D110*X59100Y52751D02*Y52749D01*
Y53651D02*Y53649D01*
X59000Y44451D02*Y44449D01*
Y45351D02*Y45349D01*
G54D113*X55500Y45050D02*Y44750D01*
X57300Y45050D02*Y44750D01*
G54D110*X31700Y52351D02*Y52349D01*
G54D112*X27550Y45550D02*X27650D01*
X27550Y43650D02*X27650D01*
X29550Y44600D02*X29650D01*
G54D113*X24200Y44750D02*Y44450D01*
Y47250D02*Y46950D01*
Y42150D02*Y41850D01*
X26000Y44750D02*Y44450D01*
Y47250D02*Y46950D01*
Y42150D02*Y41850D01*
G54D111*X37350Y38500D02*X37450D01*
X38350D02*X38450D01*
G54D120*X38300Y37950D02*X38500D01*
X38300Y37450D02*X38500D01*
G54D111*X38350Y36900D02*X38450D01*
G54D112*X39950Y39500D02*X40050D01*
G54D120*X37300Y37950D02*X37500D01*
X37300Y37450D02*X37500D01*
G54D111*X37350Y36900D02*X37450D01*
G54D112*X41950Y35350D02*X42050D01*
X41950Y38550D02*X42050D01*
G54D111*X32350Y40300D02*X32450D01*
G54D113*X34000Y43525D02*Y42875D01*
Y45825D02*Y45175D01*
Y48125D02*Y47475D01*
X37000Y43525D02*Y42875D01*
Y45825D02*Y45175D01*
Y48125D02*Y47475D01*
X38900Y47275D02*Y45725D01*
Y44075D02*Y42525D01*
X41900Y44075D02*Y42525D01*
G54D112*X41950Y40450D02*X42050D01*
G54D111*X32350Y35000D02*X32450D01*
X32350Y38700D02*X32450D01*
G54D120*X32300Y39250D02*X32500D01*
X32300Y39750D02*X32500D01*
G54D111*X31350Y38700D02*X31450D01*
G54D120*X31300Y39250D02*X31500D01*
X31300Y39750D02*X31500D01*
G54D111*X31350Y40300D02*X31450D01*
G54D112*X29550Y39500D02*X29650D01*
X27550Y40450D02*X27650D01*
X27550Y38550D02*X27650D01*
X27550Y35350D02*X27650D01*
G54D113*X24200Y37150D02*Y36850D01*
Y39650D02*Y39350D01*
X26000Y37150D02*Y36850D01*
Y39650D02*Y39350D01*
G54D118*X47000Y54120D02*Y53880D01*
G54D107*G36*
X42505Y62755D02*Y61445D01*
X43815D01*
Y62755D01*
X42505D01*
G37*
G36*
Y60465D02*Y59155D01*
X43815D01*
Y60465D01*
X42505D01*
G37*
G36*
Y58175D02*Y56865D01*
X43815D01*
Y58175D01*
X42505D01*
G37*
G36*
Y55895D02*Y54585D01*
X43815D01*
Y55895D01*
X42505D01*
G37*
G36*
X40215Y62755D02*Y61445D01*
X41525D01*
Y62755D01*
X40215D01*
G37*
G36*
Y60465D02*Y59155D01*
X41525D01*
Y60465D01*
X40215D01*
G37*
G36*
Y55895D02*Y54585D01*
X41525D01*
Y55895D01*
X40215D01*
G37*
G54D126*X40860Y52950D02*X43160D01*
G54D118*X51000Y54120D02*Y53880D01*
G54D113*X56200Y54775D02*Y53225D01*
G54D114*X56775Y62700D02*X56825D01*
X56775Y61100D02*X56825D01*
G54D111*X57025Y56960D02*Y56370D01*
Y59830D02*Y59240D01*
X57675Y56960D02*Y56370D01*
G54D119*X57950Y55000D02*X58150D01*
G54D111*X58325Y56960D02*Y56370D01*
X58975Y56960D02*Y56370D01*
G54D119*X59050Y55000D02*X59250D01*
G54D111*X58975Y59830D02*Y59240D01*
X58325Y59830D02*Y59240D01*
X58480Y58145D02*X58768D01*
X58480Y59170D02*X58768D01*
X57675Y59830D02*Y59240D01*
G54D125*X57745Y58658D02*X58255D01*
G54D111*X57232Y58145D02*X57520D01*
X57232Y59170D02*X57520D01*
X46870Y49775D02*X47460D01*
X46870Y49125D02*X47460D01*
X47530Y49568D02*Y49280D01*
X46870Y48475D02*X47460D01*
X46870Y47825D02*X47460D01*
G54D125*X48042Y49055D02*Y48545D01*
G54D111*X48555Y48320D02*Y48032D01*
Y49568D02*Y49280D01*
X47530Y48320D02*Y48032D01*
G54D110*X47749Y51300D02*X47751D01*
X48649D02*X48651D01*
G54D111*X49740Y47825D02*X50330D01*
X49740Y48475D02*X50330D01*
X49740Y49125D02*X50330D01*
X49740Y49775D02*X50330D01*
G54D119*X50850Y51300D02*X51050D01*
X49750D02*X49950D01*
X48400Y44450D02*Y44250D01*
Y45550D02*Y45350D01*
G54D110*X44849Y46700D02*X44851D01*
X43949D02*X43951D01*
G54D115*X43750Y48050D02*Y47850D01*
X45050Y48050D02*Y47850D01*
X44400Y49950D02*Y49750D01*
G54D113*X41900Y47275D02*Y45725D01*
Y50475D02*Y48925D01*
G54D110*X58449Y25400D02*X58451D01*
G54D112*X56850Y29650D02*Y29550D01*
X58750Y29650D02*Y29550D01*
X57800Y31650D02*Y31550D01*
G54D110*X57549Y25400D02*X57551D01*
G54D111*X54950Y26400D02*X55050D01*
G54D120*X54900Y25850D02*X55100D01*
G54D111*X53950Y28900D02*X54050D01*
X54950D02*X55050D01*
G54D120*X53900Y28350D02*X54100D01*
X54900D02*X55100D01*
X54900Y27850D02*X55100D01*
G54D111*X54950Y27300D02*X55050D01*
G54D120*X53900Y27850D02*X54100D01*
G54D111*X53950Y27300D02*X54050D01*
G54D110*X50849Y17200D02*X50851D01*
X51749D02*X51751D01*
G54D120*X51850Y18550D02*Y18250D01*
X51350Y18550D02*Y18250D01*
X50850Y18550D02*Y18250D01*
X52300Y19000D02*X52600D01*
X52300Y19500D02*X52600D01*
X52300Y20000D02*X52600D01*
X52300Y20500D02*X52600D01*
G54D110*X54649Y21400D02*X54651D01*
X54649Y23200D02*X54651D01*
X53749Y21400D02*X53751D01*
X53749Y23200D02*X53751D01*
G54D113*X54150Y17000D02*X54450D01*
X54150Y18800D02*X54450D01*
G54D118*X56300Y18500D02*Y18100D01*
X58700Y18500D02*Y18100D01*
X56300Y22900D02*Y22500D01*
X58700Y22900D02*Y22500D01*
G54D110*X59149Y24400D02*X59151D01*
X58249D02*X58251D01*
X57049Y16600D02*X57051D01*
X57949D02*X57951D01*
G54D120*X52300Y21000D02*X52600D01*
X52300Y21500D02*X52600D01*
X52300Y22000D02*X52600D01*
X52300Y22500D02*X52600D01*
G54D111*X50450Y19500D02*X51250D01*
X50450Y20350D02*X51250D01*
X50450Y21300D02*X51250D01*
X50450Y22200D02*X51250D01*
G54D113*X53300Y32075D02*Y30525D01*
X50300Y32075D02*Y30525D01*
G54D111*X53950Y26400D02*X54050D01*
G54D117*X50600Y28875D02*X51200D01*
X50600Y27925D02*X51200D01*
G54D120*X53900Y25850D02*X54100D01*
G54D117*X48800Y28875D02*X49400D01*
X48800Y27925D02*X49400D01*
G54D120*X53900Y25350D02*X54100D01*
G54D111*X53950Y24800D02*X54050D01*
G54D120*X54900Y25350D02*X55100D01*
G54D111*X54950Y24800D02*X55050D01*
G54D120*X52300Y23000D02*X52600D01*
X52300Y23500D02*X52600D01*
X52300Y24000D02*X52600D01*
X52300Y24500D02*X52600D01*
X51850Y25250D02*Y24950D01*
X51350Y25250D02*Y24950D01*
X50850Y25250D02*Y24950D01*
X50350Y25250D02*Y24950D01*
Y18550D02*Y18250D01*
X49850Y18550D02*Y18250D01*
X49350Y18550D02*Y18250D01*
X48850Y18550D02*Y18250D01*
X48350Y18550D02*Y18250D01*
X47850Y18550D02*Y18250D01*
X47350Y18550D02*Y18250D01*
X46850Y18550D02*Y18250D01*
X46350Y18550D02*Y18250D01*
G54D128*X49099Y21750D02*X49101D01*
G54D111*X48650Y21300D02*X49550D01*
X48650Y22200D02*X49550D01*
X46950Y21300D02*X47750D01*
X46950Y22200D02*X47750D01*
X46950Y23150D02*X47750D01*
X50450D02*X51250D01*
X50450Y24000D02*X51250D01*
X48650Y23150D02*X49550D01*
X48650Y24000D02*X49550D01*
X48650Y19500D02*X49550D01*
X48650Y20350D02*X49550D01*
X46950Y19500D02*X47750D01*
X46950Y20350D02*X47750D01*
G54D110*X46799Y26300D02*X46801D01*
X48449D02*X48451D01*
X49349D02*X49351D01*
G54D120*X49850Y25250D02*Y24950D01*
X49350Y25250D02*Y24950D01*
X48850Y25250D02*Y24950D01*
X48350Y25250D02*Y24950D01*
X47850Y25250D02*Y24950D01*
X47350Y25250D02*Y24950D01*
X46850Y25250D02*Y24950D01*
X46350Y25250D02*Y24950D01*
G54D111*X46950Y24000D02*X47750D01*
G54D110*X46549Y28900D02*X46551D01*
X46549Y27900D02*X46551D01*
X47449Y28900D02*X47451D01*
X47449Y27900D02*X47451D01*
M02*
