G04 start of page 12 for group -4015 idx -4015 *
G04 Title: (unknown), toppaste *
G04 Creator: pcb 1.99z *
G04 CreationDate: Fri 15 Aug 2014 08:28:38 GMT UTC *
G04 For: rbarlow *
G04 Format: Gerber/RS-274X *
G04 PCB-Dimensions (mm): 152.40 127.00 *
G04 PCB-Coordinate-Origin: lower left *
%MOMM*%
%FSLAX43Y43*%
%LNTOPPASTE*%
%ADD163R,1.460X1.460*%
%ADD162R,1.350X1.350*%
%ADD161R,1.625X1.625*%
%ADD160R,1.375X1.375*%
%ADD159R,0.800X0.800*%
%ADD158R,0.600X0.600*%
%ADD157R,0.300X0.300*%
%ADD156R,0.450X0.450*%
%ADD155R,0.900X0.900*%
%ADD154R,1.770X1.770*%
%ADD153C,0.002*%
%ADD152R,0.400X0.400*%
%ADD151R,0.700X0.700*%
%ADD150R,0.950X0.950*%
%ADD149R,1.400X1.400*%
%ADD148R,1.150X1.150*%
%ADD147R,0.620X0.620*%
G54D147*X81349Y35500D02*X81351D01*
X82249D02*X82251D01*
X81400Y38451D02*Y38449D01*
Y39351D02*Y39349D01*
Y37451D02*Y37449D01*
Y36551D02*Y36549D01*
X81700Y44651D02*Y44649D01*
Y43751D02*Y43749D01*
G54D148*X93200Y67775D02*Y66225D01*
X96200Y67775D02*Y66225D01*
G54D149*X91000Y67120D02*Y66880D01*
X87000Y67120D02*Y66880D01*
G54D150*X96775Y75700D02*X96825D01*
X96775Y74100D02*X96825D01*
X52675Y73800D02*X52725D01*
X52675Y75400D02*X52725D01*
G54D147*X92249Y64300D02*X92251D01*
X93149D02*X93151D01*
X84849Y59700D02*X84851D01*
X83949D02*X83951D01*
G54D151*X83750Y61050D02*Y60850D01*
X85050Y61050D02*Y60850D01*
X84400Y62950D02*Y62750D01*
G54D147*X95049Y64300D02*X95051D01*
X94149D02*X94151D01*
G54D152*X89740Y60825D02*X90330D01*
X89740Y61475D02*X90330D01*
X89740Y62125D02*X90330D01*
X89740Y62775D02*X90330D01*
X86870D02*X87460D01*
X86870Y62125D02*X87460D01*
X86870Y61475D02*X87460D01*
X86870Y60825D02*X87460D01*
G54D151*X88555Y61320D02*Y61032D01*
Y62568D02*Y62280D01*
X87530Y61320D02*Y61032D01*
Y62568D02*Y62280D01*
G54D152*X93170Y62775D02*X93760D01*
X93170Y62125D02*X93760D01*
X93170Y61475D02*X93760D01*
X93170Y60825D02*X93760D01*
X96040D02*X96630D01*
X96040Y61475D02*X96630D01*
X96040Y62125D02*X96630D01*
X96040Y62775D02*X96630D01*
G54D151*X94945Y62568D02*Y62280D01*
Y61320D02*Y61032D01*
X95970Y62568D02*Y62280D01*
Y61320D02*Y61032D01*
G54D147*X99100Y65751D02*Y65749D01*
Y66651D02*Y66649D01*
G54D152*X97025Y69960D02*Y69370D01*
X97675Y69960D02*Y69370D01*
X98325Y69960D02*Y69370D01*
X98975Y69960D02*Y69370D01*
Y72830D02*Y72240D01*
X98325Y72830D02*Y72240D01*
X97675Y72830D02*Y72240D01*
X97025Y72830D02*Y72240D01*
G54D151*X97232Y71145D02*X97520D01*
X98480D02*X98768D01*
X97232Y72170D02*X97520D01*
X98480D02*X98768D01*
G54D147*X71700Y65351D02*Y65349D01*
Y66251D02*Y66249D01*
X71749Y76200D02*X71751D01*
X70849D02*X70851D01*
X70849Y74800D02*X70851D01*
X71749D02*X71751D01*
X69500Y75951D02*Y75949D01*
Y75051D02*Y75049D01*
G54D153*G36*
X82655Y75605D02*Y74595D01*
X83665D01*
Y75605D01*
X82655D01*
G37*
G36*
X80365D02*Y74595D01*
X81375D01*
Y75605D01*
X80365D01*
G37*
G36*
X78075D02*Y74595D01*
X79085D01*
Y75605D01*
X78075D01*
G37*
G36*
X75795D02*Y74595D01*
X76805D01*
Y75605D01*
X75795D01*
G37*
G36*
X73505D02*Y74595D01*
X74515D01*
Y75605D01*
X73505D01*
G37*
G36*
X82655Y73315D02*Y72305D01*
X83665D01*
Y73315D01*
X82655D01*
G37*
G36*
X80365D02*Y72305D01*
X81375D01*
Y73315D01*
X80365D01*
G37*
G36*
X75795D02*Y72305D01*
X76805D01*
Y73315D01*
X75795D01*
G37*
G36*
X73505D02*Y72305D01*
X74515D01*
Y73315D01*
X73505D01*
G37*
G36*
X82655Y71025D02*Y70015D01*
X83665D01*
Y71025D01*
X82655D01*
G37*
G36*
X75795D02*Y70015D01*
X76805D01*
Y71025D01*
X75795D01*
G37*
G36*
X73505D02*Y70015D01*
X74515D01*
Y71025D01*
X73505D01*
G37*
G36*
X82655Y68745D02*Y67735D01*
X83665D01*
Y68745D01*
X82655D01*
G37*
G36*
X80365D02*Y67735D01*
X81375D01*
Y68745D01*
X80365D01*
G37*
G54D154*X80860Y65950D02*X83160D01*
X76290D02*X78590D01*
X74010Y68240D02*Y65940D01*
G54D147*X51300Y64351D02*Y64349D01*
Y65251D02*Y65249D01*
G54D150*X51275Y68300D02*X51325D01*
X51275Y66700D02*X51325D01*
G54D151*X52775Y68000D02*X53175D01*
X52775Y66500D02*X53175D01*
X52775Y65000D02*X53175D01*
G54D155*X56525Y67000D02*Y66000D01*
G54D153*G36*
X54625Y67100D02*Y65900D01*
X55825D01*
Y67100D01*
X54625D01*
G37*
G54D156*X66575Y66225D02*X67225D01*
X66575Y66875D02*X67225D01*
X66575Y67525D02*X67225D01*
X66575Y68175D02*X67225D01*
X63975Y66225D02*X64625D01*
X63975Y66875D02*X64625D01*
X63975Y67525D02*X64625D01*
X63975Y68175D02*X64625D01*
G54D149*X62400Y67120D02*Y66880D01*
X58400Y67120D02*Y66880D01*
G54D152*X69625Y70360D02*Y69770D01*
X70275Y70360D02*Y69770D01*
X70925Y70360D02*Y69770D01*
X71575Y70360D02*Y69770D01*
Y73230D02*Y72640D01*
X70925Y73230D02*Y72640D01*
X70275Y73230D02*Y72640D01*
X69625Y73230D02*Y72640D01*
G54D151*X69832Y71545D02*X70120D01*
X71080D02*X71368D01*
X69832Y72570D02*X70120D01*
X71080D02*X71368D01*
G54D152*X72450Y44425D02*X73150D01*
X72450Y43775D02*X73150D01*
X72450Y43125D02*X73150D01*
X72450Y42475D02*X73150D01*
X72450Y41825D02*X73150D01*
X72450Y41175D02*X73150D01*
X72450Y40525D02*X73150D01*
X72450Y39875D02*X73150D01*
X72450Y39225D02*X73150D01*
X72450Y38575D02*X73150D01*
X72450Y37925D02*X73150D01*
X72450Y37275D02*X73150D01*
X72450Y36625D02*X73150D01*
X72450Y35975D02*X73150D01*
X79450Y44425D02*X80150D01*
X79450Y43775D02*X80150D01*
X79450Y43125D02*X80150D01*
X79450Y42475D02*X80150D01*
X79450Y41825D02*X80150D01*
X79450Y41175D02*X80150D01*
X79450Y40525D02*X80150D01*
X79450Y39875D02*X80150D01*
X79450Y39225D02*X80150D01*
X79450Y38575D02*X80150D01*
X79450Y37925D02*X80150D01*
X79450Y37275D02*X80150D01*
X79450Y36625D02*X80150D01*
X79450Y35975D02*X80150D01*
X77350Y51500D02*X77450D01*
G54D157*X77300Y50950D02*X77500D01*
X77300Y50450D02*X77500D01*
G54D152*X77350Y49900D02*X77450D01*
X78350Y51500D02*X78450D01*
G54D157*X78300Y50950D02*X78500D01*
X78300Y50450D02*X78500D01*
G54D152*X78350Y49900D02*X78450D01*
G54D147*X87749Y64300D02*X87751D01*
X88649D02*X88651D01*
G54D158*X90850D02*X91050D01*
X89750D02*X89950D01*
X97950Y68000D02*X98150D01*
X99050D02*X99250D01*
X70450Y67600D02*X70650D01*
X71550D02*X71750D01*
G54D152*X72350Y46400D02*X72450D01*
G54D157*X72300Y46950D02*X72500D01*
X72300Y47450D02*X72500D01*
G54D152*X72350Y48000D02*X72450D01*
X71350Y46400D02*X71450D01*
G54D157*X71300Y46950D02*X71500D01*
X71300Y47450D02*X71500D01*
G54D152*X71350Y48000D02*X71450D01*
X72350Y51700D02*X72450D01*
G54D157*X72300Y52250D02*X72500D01*
X72300Y52750D02*X72500D01*
G54D152*X72350Y53300D02*X72450D01*
X71350Y51700D02*X71450D01*
G54D157*X71300Y52250D02*X71500D01*
X71300Y52750D02*X71500D01*
G54D152*X71350Y53300D02*X71450D01*
G54D147*X71200Y41151D02*Y41149D01*
Y40251D02*Y40249D01*
Y38351D02*Y38349D01*
Y39251D02*Y39249D01*
G54D148*X77000Y56525D02*Y55875D01*
X74000Y56525D02*Y55875D01*
X77000Y58825D02*Y58175D01*
X74000Y58825D02*Y58175D01*
X77000Y61125D02*Y60475D01*
X74000Y61125D02*Y60475D01*
X77000Y63425D02*Y62775D01*
X74000Y63425D02*Y62775D01*
X78900Y60275D02*Y58725D01*
X81900Y60275D02*Y58725D01*
X78900Y63475D02*Y61925D01*
X81900Y63475D02*Y61925D01*
X78900Y57075D02*Y55525D01*
X81900Y57075D02*Y55525D01*
G54D147*X68400Y66751D02*Y66749D01*
Y67651D02*Y67649D01*
G54D148*X93300Y45075D02*Y43525D01*
X90300Y45075D02*Y43525D01*
G54D158*X88400Y57450D02*Y57250D01*
Y58550D02*Y58350D01*
G54D147*X99000Y57451D02*Y57449D01*
Y58351D02*Y58349D01*
G54D148*X95500Y58050D02*Y57750D01*
X97300Y58050D02*Y57750D01*
X93300Y58775D02*Y57225D01*
X90300Y58775D02*Y57225D01*
G54D159*X81950Y46450D02*X82050D01*
X81950Y48350D02*X82050D01*
X79950Y47400D02*X80050D01*
X81950Y51550D02*X82050D01*
X81950Y53450D02*X82050D01*
X79950Y52500D02*X80050D01*
G54D148*X84000Y47550D02*Y47250D01*
X85800Y47550D02*Y47250D01*
X84000Y50050D02*Y49750D01*
X85800Y50050D02*Y49750D01*
X84000Y52650D02*Y52350D01*
X85800Y52650D02*Y52350D01*
X84000Y55150D02*Y54850D01*
X85800Y55150D02*Y54850D01*
X69300Y62575D02*Y61025D01*
X72300Y62575D02*Y61025D01*
G54D147*X65949Y64700D02*X65951D01*
X66849D02*X66851D01*
X64949D02*X64951D01*
X64049D02*X64051D01*
X67849D02*X67851D01*
X68749D02*X68751D01*
X51000Y63151D02*Y63149D01*
Y62251D02*Y62249D01*
G54D148*X54500Y62850D02*Y62550D01*
X52700Y62850D02*Y62550D01*
G54D159*X67550Y43250D02*X67650D01*
X67550Y41350D02*X67650D01*
X69550Y42300D02*X69650D01*
G54D148*X59100Y40150D02*Y39850D01*
X60900Y40150D02*Y39850D01*
G54D159*X67550Y53450D02*X67650D01*
X67550Y51550D02*X67650D01*
X69550Y52500D02*X69650D01*
X67550Y58550D02*X67650D01*
X67550Y56650D02*X67650D01*
X69550Y57600D02*X69650D01*
X67550Y48350D02*X67650D01*
X67550Y46450D02*X67650D01*
X69550Y47400D02*X69650D01*
G54D148*X64200Y57750D02*Y57450D01*
X66000Y57750D02*Y57450D01*
X64200Y60250D02*Y59950D01*
X66000Y60250D02*Y59950D01*
X64200Y42450D02*Y42150D01*
X66000Y42450D02*Y42150D01*
X64200Y45050D02*Y44750D01*
X66000Y45050D02*Y44750D01*
X64200Y47550D02*Y47250D01*
X66000Y47550D02*Y47250D01*
X64200Y50150D02*Y49850D01*
X66000Y50150D02*Y49850D01*
X64200Y52650D02*Y52350D01*
X66000Y52650D02*Y52350D01*
X64200Y55150D02*Y54850D01*
X66000Y55150D02*Y54850D01*
G54D158*X61100Y62530D02*Y62330D01*
Y63630D02*Y63430D01*
G54D148*X57400Y62730D02*Y62430D01*
X59200Y62730D02*Y62430D01*
G54D159*X83550Y40650D02*X83650D01*
X83550Y42550D02*X83650D01*
X81550Y41600D02*X81650D01*
G54D147*X84900Y42751D02*Y42749D01*
Y41851D02*Y41849D01*
Y40851D02*Y40849D01*
Y39951D02*Y39949D01*
X86799Y39300D02*X86801D01*
X85899D02*X85901D01*
X84600Y32051D02*Y32049D01*
Y31151D02*Y31149D01*
X90849Y30200D02*X90851D01*
X91749D02*X91751D01*
X58849Y32900D02*X58851D01*
X59749D02*X59751D01*
G54D148*X74100Y33850D02*Y33550D01*
X75900Y33850D02*Y33550D01*
G54D147*X77300Y34151D02*Y34149D01*
Y33251D02*Y33249D01*
X89349Y39300D02*X89351D01*
X88449D02*X88451D01*
X98449Y38400D02*X98451D01*
X97549D02*X97551D01*
G54D151*X79750Y33550D02*X80050D01*
X79750Y32600D02*X80050D01*
X79750Y31650D02*X80050D01*
X82150D02*X82450D01*
X82150Y32600D02*X82450D01*
X82150Y33550D02*X82450D01*
G54D149*X96300Y35900D02*Y35500D01*
Y31500D02*Y31100D01*
X98700Y31500D02*Y31100D01*
Y35900D02*Y35500D01*
G54D159*X96850Y42650D02*Y42550D01*
X98750Y42650D02*Y42550D01*
X97800Y44650D02*Y44550D01*
G54D147*X59749Y34900D02*X59751D01*
X58849D02*X58851D01*
X58849Y33900D02*X58851D01*
X59749D02*X59751D01*
X59749Y35900D02*X59751D01*
X58849D02*X58851D01*
G54D150*X54475Y29400D02*X54525D01*
X54475Y31000D02*X54525D01*
G54D159*X52950Y29250D02*X53050D01*
X52950Y31150D02*X53050D01*
X50950Y30200D02*X51050D01*
G54D147*X69849Y38900D02*X69851D01*
X68949D02*X68951D01*
X61900Y36951D02*Y36949D01*
Y37851D02*Y37849D01*
X62000Y33851D02*Y33849D01*
Y32951D02*Y32949D01*
Y35851D02*Y35849D01*
Y34951D02*Y34949D01*
X71200Y35751D02*Y35749D01*
Y36651D02*Y36649D01*
G54D158*X63200Y37305D02*X64800D01*
X63200Y36035D02*X64800D01*
X63200Y34765D02*X64800D01*
X63200Y33495D02*X64800D01*
X68400D02*X70000D01*
X68400Y34765D02*X70000D01*
X68400Y36035D02*X70000D01*
X68400Y37305D02*X70000D01*
G54D147*X58849Y36900D02*X58851D01*
X59749D02*X59751D01*
G54D152*X93950Y39400D02*X94050D01*
G54D157*X93900Y38850D02*X94100D01*
X93900Y38350D02*X94100D01*
G54D152*X93950Y37800D02*X94050D01*
X94950Y39400D02*X95050D01*
G54D157*X94900Y38850D02*X95100D01*
X94900Y38350D02*X95100D01*
G54D152*X94950Y37800D02*X95050D01*
X84500Y38450D02*Y38350D01*
G54D157*X83950Y38500D02*Y38300D01*
X83450Y38500D02*Y38300D01*
G54D152*X82900Y38450D02*Y38350D01*
X84500Y37450D02*Y37350D01*
G54D157*X83950Y37500D02*Y37300D01*
X83450Y37500D02*Y37300D01*
G54D152*X82900Y37450D02*Y37350D01*
G54D157*X92300Y32000D02*X92600D01*
X92300Y32500D02*X92600D01*
X92300Y33000D02*X92600D01*
X92300Y33500D02*X92600D01*
X92300Y34000D02*X92600D01*
X92300Y34500D02*X92600D01*
X92300Y35000D02*X92600D01*
X92300Y35500D02*X92600D01*
X92300Y36000D02*X92600D01*
X92300Y36500D02*X92600D01*
X92300Y37000D02*X92600D01*
X92300Y37500D02*X92600D01*
X91850Y38250D02*Y37950D01*
X91350Y38250D02*Y37950D01*
X90850Y38250D02*Y37950D01*
X90350Y38250D02*Y37950D01*
X89850Y38250D02*Y37950D01*
X89350Y38250D02*Y37950D01*
X88850Y38250D02*Y37950D01*
X88350Y38250D02*Y37950D01*
X87850Y38250D02*Y37950D01*
X87350Y38250D02*Y37950D01*
X86850Y38250D02*Y37950D01*
X86350Y38250D02*Y37950D01*
X85600Y32000D02*X85900D01*
X85600Y32500D02*X85900D01*
X85600Y33000D02*X85900D01*
X85600Y33500D02*X85900D01*
X85600Y34000D02*X85900D01*
X85600Y34500D02*X85900D01*
X85600Y35000D02*X85900D01*
X85600Y35500D02*X85900D01*
X85600Y36000D02*X85900D01*
X85600Y36500D02*X85900D01*
X85600Y37000D02*X85900D01*
X85600Y37500D02*X85900D01*
X91850Y31550D02*Y31250D01*
X91350Y31550D02*Y31250D01*
X90850Y31550D02*Y31250D01*
X90350Y31550D02*Y31250D01*
X89850Y31550D02*Y31250D01*
X89350Y31550D02*Y31250D01*
X88850Y31550D02*Y31250D01*
X88350Y31550D02*Y31250D01*
X87850Y31550D02*Y31250D01*
X87350Y31550D02*Y31250D01*
X86850Y31550D02*Y31250D01*
X86350Y31550D02*Y31250D01*
G54D158*X90450Y32500D02*X91250D01*
X90450Y33350D02*X91250D01*
X90450Y34300D02*X91250D01*
X90450Y35200D02*X91250D01*
X90450Y36150D02*X91250D01*
X90450Y37000D02*X91250D01*
X88650Y32500D02*X89550D01*
X88650Y33350D02*X89550D01*
X88650Y34300D02*X89550D01*
X88650Y35200D02*X89550D01*
X88650Y36150D02*X89550D01*
X88650Y37000D02*X89550D01*
X86950Y32500D02*X87750D01*
X86950Y33350D02*X87750D01*
X86950Y34300D02*X87750D01*
X86950Y35200D02*X87750D01*
X86950Y36150D02*X87750D01*
X86950Y37000D02*X87750D01*
G54D152*X93950Y41900D02*X94050D01*
G54D157*X93900Y41350D02*X94100D01*
X93900Y40850D02*X94100D01*
G54D152*X93950Y40300D02*X94050D01*
X94950Y41900D02*X95050D01*
G54D157*X94900Y41350D02*X95100D01*
X94900Y40850D02*X95100D01*
G54D152*X94950Y40300D02*X95050D01*
G54D147*X59749Y37900D02*X59751D01*
X58849D02*X58851D01*
X99149Y37400D02*X99151D01*
X98249D02*X98251D01*
X97049Y29600D02*X97051D01*
X97949D02*X97951D01*
X94649Y34400D02*X94651D01*
X93749D02*X93751D01*
G54D158*X90600Y41875D02*X91200D01*
X88800D02*X89400D01*
X88800Y40925D02*X89400D01*
X90600D02*X91200D01*
G54D147*X86549Y41900D02*X86551D01*
X87449D02*X87451D01*
X86549Y40900D02*X86551D01*
X87449D02*X87451D01*
X76300Y24251D02*Y24249D01*
Y25151D02*Y25149D01*
Y27151D02*Y27149D01*
Y26251D02*Y26249D01*
G54D150*X52575Y27400D02*X52625D01*
X52575Y25800D02*X52625D01*
G54D147*X84800Y29851D02*Y29849D01*
Y28951D02*Y28949D01*
G54D150*X66175Y31000D02*X66225D01*
X66175Y29400D02*X66225D01*
X88275Y24000D02*X88325D01*
X88275Y25600D02*X88325D01*
G54D147*X88300Y27751D02*Y27749D01*
Y26851D02*Y26849D01*
G54D148*X94150Y30000D02*X94450D01*
X94150Y31800D02*X94450D01*
G54D160*X81163Y24613D02*Y23887D01*
X83037Y24613D02*Y23887D01*
G54D161*X78163Y24487D02*Y24012D01*
X86037Y24487D02*Y24012D01*
G54D162*X78738Y25675D02*X79213D01*
X84987D02*X85462D01*
G54D163*X78930Y27330D02*X79470D01*
X84730D02*X85270D01*
G54D152*X83400Y27800D02*Y26600D01*
X82750Y27800D02*Y26600D01*
X82100Y27800D02*Y26600D01*
X81450Y27800D02*Y26600D01*
X80800Y27800D02*Y26600D01*
G54D158*X83500Y29250D02*Y29050D01*
Y30350D02*Y30150D01*
G54D151*X74700Y24200D02*X75100D01*
X74700Y25700D02*X75100D01*
X74700Y27200D02*X75100D01*
G54D155*X71350Y26200D02*Y25200D01*
G54D153*G36*
X72050Y26300D02*Y25100D01*
X73250D01*
Y26300D01*
X72050D01*
G37*
G54D147*X51300Y26751D02*Y26749D01*
Y27651D02*Y27649D01*
G54D159*X67650Y31150D02*X67750D01*
X67650Y29250D02*X67750D01*
X69650Y30200D02*X69750D01*
G54D149*X74100Y30320D02*Y30080D01*
X78100Y30320D02*Y30080D01*
G54D148*X71475Y29200D02*X72125D01*
X71475Y32200D02*X72125D01*
G54D147*X64400Y31651D02*Y31649D01*
Y30751D02*Y30749D01*
Y28851D02*Y28849D01*
Y29751D02*Y29749D01*
X63400Y31651D02*Y31649D01*
Y30751D02*Y30749D01*
X56000Y28851D02*Y28849D01*
Y29751D02*Y29749D01*
G54D159*X59250Y29150D02*Y29050D01*
X61150Y29150D02*Y29050D01*
X60200Y31150D02*Y31050D01*
G54D147*X62400Y29751D02*Y29749D01*
Y28851D02*Y28849D01*
X58000Y29751D02*Y29749D01*
Y28851D02*Y28849D01*
X57000Y28851D02*Y28849D01*
Y29751D02*Y29749D01*
X63400Y28851D02*Y28849D01*
Y29751D02*Y29749D01*
X94649Y36200D02*X94651D01*
X93749D02*X93751D01*
M02*
