M48
METRIC,000.000
T101C0.300
T100C0.650
T99C0.800
T98C1.600
T97C1.200
T96C1.000
T95C1.300
%
T101
X010800Y060700
X010800Y059300
X010800Y057900
X010800Y056500
X010800Y027500
X010800Y026100
X010800Y024700
X010800Y023300
X010800Y021900
X010800Y020500
X010800Y019100
X010800Y016100
X011000Y048400
X011300Y013000
X011300Y012300
X012000Y018100
X012000Y017200
X012100Y011300
X012200Y051100
X013100Y056300
X013100Y051100
X013200Y010800
X013600Y015300
X013800Y014400
X014100Y055100
X014400Y014800
X014400Y014000
X014500Y048400
X015000Y055100
X015200Y015400
X015200Y010800
X016600Y010800
X016800Y048400
X017300Y028000
X017400Y048400
X017700Y028400
X017700Y027600
X018000Y048400
X018000Y024900
X018000Y023900
X018000Y020900
X018000Y015000
X018000Y010800
X018100Y028800
X018100Y028000
X018100Y027200
X018500Y028400
X019200Y018100
X019400Y010800
X019600Y056400
X019900Y056900
X020200Y056400
X020400Y050500
X020600Y024900
X020600Y023000
X020600Y021600
X020800Y010800
X021100Y024200
X021100Y022300
X021100Y020800
X021100Y019900
X021200Y018100
X021800Y050500
X022400Y015000
X022500Y018900
X022600Y017800
X023100Y047900
X023100Y045300
X023100Y042800
X023100Y040300
X023100Y037800
X023100Y035200
X023100Y032700
X023100Y030100
X023300Y052600
X023400Y025200
X024000Y019500
X025000Y052600
X025200Y016300
X025400Y055000
X025600Y054100
X025800Y015400
X025900Y055700
X025900Y024800
X025900Y024100
X025900Y022700
X025900Y022000
X026200Y014800
X026600Y015400
X027100Y047100
X027100Y044600
X027100Y042000
X027100Y039500
X027100Y037000
X027100Y034400
X027100Y031900
X027100Y029300
X027200Y050000
X027200Y049200
X027200Y048400
X027600Y021400
X027600Y020700
X027700Y049600
X027700Y048800
X027700Y048000
X028000Y056100
X028100Y025900
X028200Y050000
X028200Y049200
X028200Y048400
X028200Y047600
X028400Y056700
X028400Y055500
X028400Y052900
X028400Y046800
X028600Y044600
X028600Y039500
X028600Y034400
X028600Y029300
X028800Y056100
X028800Y016300
X028800Y015500
X029000Y046800
X029200Y055500
X029200Y054200
X029400Y015900
X029600Y056100
X029600Y054900
X030000Y055500
X030000Y012300
X030000Y011700
X030400Y056100
X030400Y046500
X030500Y013200
X030500Y012600
X030500Y012000
X030500Y011400
X030800Y055500
X030800Y052300
X031200Y056100
X031200Y029000
X031200Y024500
X031300Y046500
X031600Y055500
X032000Y056100
X032000Y014400
X032000Y011000
X032235Y057065
X032300Y047000
X032700Y046600
X032800Y014400
X032800Y011000
X033000Y020700
X033300Y063200
X033600Y014400
X033600Y011000
X033900Y025400
X033900Y023600
X033900Y022400
X034700Y063200
X034900Y024600
X035000Y027100
X035700Y015400
X035800Y054900
X036100Y063200
X036200Y055400
X036200Y054400
X036300Y015800
X036300Y015000
X036600Y054900
X037000Y055400
X037000Y054400
X037400Y054900
X037500Y063200
X037800Y060500
X037800Y059500
X037800Y058500
X037800Y055400
X037800Y054400
X038200Y060000
X038200Y059000
X038200Y054900
X038200Y021100
X038600Y060500
X038600Y059500
X038600Y058500
X038600Y055400
X038600Y054400
X038700Y024300
X038900Y063200
X039000Y060000
X039000Y059000
X039000Y054900
X039400Y060500
X039400Y059500
X039400Y058500
X039800Y032500
X040300Y063200
X040600Y051700
X040700Y032500
X040800Y012900
X040900Y051100
X040900Y027100
X041000Y039500
X041000Y034400
X041100Y029900
X041200Y051700
X041600Y032500
X041700Y063200
X041800Y051700
X041900Y017300
X042300Y016700
X042400Y051700
X042600Y030100
X042600Y026700
X042700Y017300
X042900Y041100
X042900Y039500
X042900Y036900
X042900Y034400
X043000Y051700
X043100Y063200
X043300Y026200
X043400Y021000
X043400Y018200
X043600Y051700
X043700Y021900
X043700Y019000
X043800Y045800
X044000Y026700
X044200Y051700
X044300Y059800
X044300Y057500
X044400Y053900
X044400Y053100
X044400Y052300
X044500Y063200
X044500Y021500
X044600Y019900
X044800Y053500
X044800Y052700
X045000Y026100
X045200Y045800
X045400Y050600
X045400Y049600
X045600Y025400
X045700Y050100
X045700Y049100
X045700Y047100
X045700Y015900
X045900Y063200
X046000Y050600
X046000Y049600
X046000Y048600
X046000Y047600
X046200Y017500
X046300Y050100
X046300Y049100
X046300Y048100
X046300Y047100
X046300Y016300
X046300Y015500
X046600Y050600
X046900Y042900
X046900Y040300
X046900Y037800
X046900Y035200
X047300Y063200
X047400Y014600
X047400Y011800
X047700Y045700
X047700Y045100
X048200Y022700
X048200Y020800
X048600Y017600
X048700Y063200
X048900Y027100
X049300Y017000
X049600Y010800
X049800Y027100
X050000Y022700
X050000Y020800
X050000Y017600
X050100Y063200
X050100Y050500
X050500Y027100
X050900Y016300
X051000Y010800
X051500Y063200
X052100Y047500
X052200Y028800
X052400Y017600
X052400Y010800
X052600Y018300
X052700Y043200
X052700Y033100
X052900Y063200
X053100Y017800
X053300Y043200
X053300Y033100
X053500Y047100
X053700Y022300
X053800Y010800
X053900Y043200
X053900Y033100
X053900Y015900
X054200Y055000
X054200Y054400
X054200Y053800
X054200Y053200
X054200Y052600
X054300Y063200
X054700Y022300
X054700Y015900
X055200Y010800
X055500Y043600
X055600Y016800
X055700Y063200
X055700Y055900
X055800Y029100
X055800Y027900
X055800Y026600
X055800Y025400
X056100Y056400
X056300Y019900
X056400Y055900
X056500Y028500
X056500Y027300
X056500Y026000
X056500Y024800
X056600Y010800
X057400Y054000
X057400Y053000
X057400Y052000
X057500Y050000
X057500Y049200
X057500Y048400
X057500Y047600
X057500Y030600
X057600Y028500
X057800Y053500
X057800Y052500
X058000Y050400
X058000Y049600
X058000Y048800
X058000Y048000
X058000Y047200
X058000Y011200
X058100Y062600
X058100Y030600
X058200Y054000
X058200Y053000
X058200Y052000
X058500Y050000
X058500Y049200
X058500Y048400
X058500Y047600
X058500Y028500
X058700Y021100
X058900Y012300
X059100Y055700
X059200Y016400
X059200Y015100
X059200Y013700
X059300Y051900
X059300Y025400
T100
X051060Y013970
X051060Y012700
X052330Y013970
X052330Y012700
X053600Y013970
X053600Y012700
X054870Y013970
X054870Y012700
X056140Y013970
X056140Y012700
T99
X039675Y014330
X044525Y014330
T96
X014000Y025150
X014000Y020650
X016960Y047080
X016960Y044540
X016960Y042000
X016960Y039460
X016960Y036920
X016960Y034380
X016960Y031840
X016960Y029300
X019500Y047080
X019500Y044540
X019500Y042000
X019500Y039460
X019500Y036920
X019500Y034380
X019500Y031840
X019500Y029300
X022040Y047080
X022040Y044540
X022040Y042000
X022040Y039460
X022040Y036920
X022040Y034380
X022040Y031840
X022040Y029300
X047960Y042000
X047960Y039460
X047960Y036920
X047960Y034380
X050500Y042000
X050500Y039460
X050500Y036920
X050500Y034380
X053040Y042000
X053040Y039460
X053040Y036920
X053040Y034380
T97
X016385Y014000
X020195Y014000
X024005Y014000
X027815Y014000
X038000Y011250
X046200Y011250
T95
X016500Y026400
X016500Y019400
T98
X017250Y058000
X024750Y058000
X047900Y058000
X052900Y058000
M30
