G04 start of page 9 for group -4062 idx -4062 *
G04 Title: (unknown), soldermask *
G04 Creator: pcb 1.99z *
G04 CreationDate: Wed 03 Sep 2014 19:39:49 GMT UTC *
G04 For: rbarlow *
G04 Format: Gerber/RS-274X *
G04 PCB-Dimensions (mm): 70.00 74.00 *
G04 PCB-Coordinate-Origin: lower left *
%MOMM*%
%FSLAX43Y43*%
%LNBOTTOMMASK*%
%ADD136C,1.300*%
%ADD135C,1.400*%
%ADD134C,0.002*%
%ADD133C,3.500*%
%ADD132C,2.650*%
%ADD131C,1.900*%
%ADD130C,2.000*%
%ADD129C,2.500*%
G54D129*X16500Y19400D03*
G54D130*X14000Y25150D03*
Y20650D03*
G54D129*X16500Y26400D03*
G54D131*X16960Y42000D03*
Y39460D03*
Y36920D03*
Y34380D03*
Y31840D03*
Y29300D03*
X19500Y42000D03*
Y39460D03*
Y36920D03*
Y34380D03*
Y31840D03*
Y29300D03*
X22040Y42000D03*
Y39460D03*
Y36920D03*
Y34380D03*
Y31840D03*
Y29300D03*
G54D132*X16385Y14000D03*
X20195D03*
X24005D03*
X27815D03*
G54D133*X24750Y58000D03*
X17250D03*
G54D134*G36*
X16010Y48030D02*Y46130D01*
X17910D01*
Y48030D01*
X16010D01*
G37*
G54D131*X19500Y47080D03*
X22040D03*
G54D133*X52900Y58000D03*
X47900D03*
G54D134*G36*
X52090Y35330D02*Y33430D01*
X53990D01*
Y35330D01*
X52090D01*
G37*
G54D131*X53040Y36920D03*
Y39460D03*
Y42000D03*
X47960Y34380D03*
Y36920D03*
Y39460D03*
Y42000D03*
X16960Y44540D03*
X19500D03*
X22040D03*
X50500Y34380D03*
Y36920D03*
Y39460D03*
Y42000D03*
X38000Y11250D03*
X46200D03*
G54D135*X39675Y14330D03*
X44525D03*
G54D134*G36*
X50410Y13350D02*Y12050D01*
X51710D01*
Y13350D01*
X50410D01*
G37*
G54D136*X51060Y13970D03*
X52330Y12700D03*
Y13970D03*
X53600Y12700D03*
X54870D03*
X56140D03*
X53600Y13970D03*
X54870D03*
X56140D03*
X41800Y30700D03*
X43400Y32500D03*
X19600Y22300D03*
X18300Y16300D03*
X14200Y11400D03*
X19600Y20200D03*
X22200Y16300D03*
X24100Y18200D03*
X12400Y58500D03*
X36200Y24600D03*
Y22400D03*
X29400Y24600D03*
X32800Y12600D03*
Y15700D03*
X20000Y58000D03*
X22000D03*
X32200Y58700D03*
X26300Y48600D03*
X30700D03*
X52900Y61000D03*
X51800Y51400D03*
Y48800D03*
X56000Y46100D03*
X46300Y61000D03*
X42100Y53500D03*
X42900Y61000D03*
X49600D03*
X57800Y55700D03*
X51100Y18600D03*
X55300Y21000D03*
X51700Y20800D03*
M02*
