G04 start of page 11 for group -4078 idx -4078 *
G04 Title: (unknown), bottomsilk *
G04 Creator: pcb 1.99z *
G04 CreationDate: Wed 03 Sep 2014 19:39:49 GMT UTC *
G04 For: rbarlow *
G04 Format: Gerber/RS-274X *
G04 PCB-Dimensions (mm): 70.00 74.00 *
G04 PCB-Coordinate-Origin: lower left *
%MOMM*%
%FSLAX43Y43*%
%LNBOTTOMSILK*%
%ADD148C,0.150*%
%ADD147C,0.200*%
%ADD146C,0.002*%
G54D146*G36*
X35501Y41248D02*X35176D01*
X34850Y41664D01*
Y41945D01*
X35286Y41381D01*
X35291D01*
Y42516D01*
X34850D01*
Y42693D01*
X35291D01*
Y43128D01*
X35501D01*
Y42693D01*
X35782D01*
Y42516D01*
X35501D01*
Y41248D01*
G37*
G36*
X34850Y41664D02*X34238Y42445D01*
Y42693D01*
X34850D01*
Y42516D01*
X34409D01*
X34850Y41945D01*
Y41664D01*
G37*
G36*
X34172Y41811D02*X33957D01*
X33731Y42527D01*
X33665Y42753D01*
X33632Y42864D01*
X33599Y42980D01*
X33593D01*
X33555Y42864D01*
X33522Y42753D01*
X33450Y42527D01*
X33213Y41811D01*
X33015D01*
X33456Y43128D01*
X33731D01*
X34172Y41811D01*
G37*
G36*
X32320Y43144D02*X32353Y43150D01*
X32608Y43114D01*
X32772Y43007D01*
X32862Y42802D01*
X32893Y42483D01*
X32864Y42152D01*
X32783Y41943D01*
X32626Y41827D01*
X32381Y41789D01*
X32320Y41799D01*
Y41950D01*
X32331Y41948D01*
X32512Y41975D01*
X32618Y42053D01*
X32670Y42209D01*
X32689Y42478D01*
X32670Y42734D01*
X32618Y42886D01*
X32514Y42960D01*
X32342Y42985D01*
X32320Y42982D01*
Y43144D01*
G37*
G36*
X31752Y43128D02*X31945D01*
X31934Y42963D01*
X31940D01*
X32094Y43103D01*
X32320Y43144D01*
Y42982D01*
X32133Y42961D01*
X32017Y42891D01*
X31967Y42727D01*
X31951Y42434D01*
X31969Y42194D01*
X32028Y42048D01*
X32141Y41973D01*
X32320Y41950D01*
Y41799D01*
X32091Y41837D01*
X31951Y41982D01*
X31945Y41976D01*
Y41248D01*
X31752D01*
Y43128D01*
G37*
G36*
X31432Y42152D02*Y42108D01*
X31399Y41968D01*
X31300Y41869D01*
X31138Y41808D01*
X30909Y41789D01*
X30636Y41808D01*
X30473Y41866D01*
X30389Y41975D01*
X30363Y42158D01*
X30396Y42355D01*
X30501Y42472D01*
X30713Y42526D01*
X31080Y42544D01*
X31219Y42596D01*
X31267Y42753D01*
X31247Y42872D01*
X31190Y42941D01*
X31076Y42974D01*
X30881Y42985D01*
X30719Y42975D01*
X30622Y42946D01*
X30573Y42880D01*
X30556Y42770D01*
X30551Y42709D01*
X30352D01*
Y42781D01*
X30381Y42959D01*
X30473Y43073D01*
X30644Y43131D01*
X30920Y43150D01*
X31185Y43130D01*
X31350Y43068D01*
X31440Y42946D01*
X31471Y42759D01*
X31448Y42601D01*
X31380Y42486D01*
X31269Y42413D01*
X31113Y42384D01*
X30914Y42373D01*
X30760Y42368D01*
X30614Y42308D01*
X30567Y42152D01*
X30580Y42045D01*
X30622Y41987D01*
X30720Y41958D01*
X30898Y41948D01*
X31084Y41957D01*
X31185Y41982D01*
X31224Y42041D01*
X31240Y42152D01*
X31432D01*
G37*
G36*
X30044Y41248D02*X29884D01*
X28230Y43696D01*
X28390D01*
X30044Y41248D01*
G37*
G36*
X38543Y38283D02*Y39600D01*
X38736D01*
Y38812D01*
X38756Y38636D01*
X38816Y38510D01*
X38918Y38435D01*
X39062Y38410D01*
X39226Y38461D01*
X39282Y38614D01*
X39276Y38685D01*
X39271Y38718D01*
X39464D01*
Y38625D01*
X39440Y38461D01*
X39373Y38343D01*
X39259Y38273D01*
X39100Y38250D01*
X38873Y38297D01*
X38725Y38437D01*
X38720Y38432D01*
X38736Y38283D01*
X38543D01*
G37*
G36*
X40754D02*X40561D01*
X40572Y38459D01*
X40566D01*
X40409Y38310D01*
X40186Y38269D01*
Y38421D01*
X40366Y38444D01*
X40478Y38514D01*
X40535Y38659D01*
X40555Y38906D01*
X40535Y39188D01*
X40478Y39352D01*
X40366Y39431D01*
X40186Y39456D01*
Y39612D01*
X40411Y39575D01*
X40555Y39435D01*
X40561D01*
Y39705D01*
X40540Y39865D01*
X40484Y39964D01*
X40369Y40014D01*
X40186Y40030D01*
Y40189D01*
X40452Y40161D01*
X40627Y40080D01*
X40721Y39928D01*
X40754Y39689D01*
Y38283D01*
G37*
G36*
X40186Y40030D02*X40011Y40015D01*
X39910Y39975D01*
X39864Y39894D01*
X39850Y39755D01*
X39662D01*
X39687Y39966D01*
X39767Y40097D01*
X39923Y40165D01*
X40175Y40190D01*
X40186Y40189D01*
Y40030D01*
G37*
G36*
Y38269D02*X40142Y38261D01*
X39884Y38298D01*
X39723Y38410D01*
X39639Y38616D01*
X39613Y38950D01*
X39639Y39272D01*
X39723Y39479D01*
X39877Y39586D01*
X40126Y39622D01*
X40186Y39612D01*
Y39456D01*
X40180Y39457D01*
X39990Y39434D01*
X39883Y39363D01*
X39833Y39208D01*
X39817Y38939D01*
X39833Y38672D01*
X39883Y38520D01*
X39990Y38446D01*
X40180Y38421D01*
X40186Y38421D01*
Y38269D01*
G37*
G36*
X37645Y38261D02*X37645Y38261D01*
Y38421D01*
X37645Y38421D01*
X37849Y38443D01*
X37959Y38509D01*
X38009Y38658D01*
X38025Y38939D01*
X38009Y39224D01*
X37959Y39374D01*
X37849Y39436D01*
X37645Y39457D01*
X37645Y39457D01*
Y39622D01*
X37645Y39622D01*
X37943Y39591D01*
X38113Y39496D01*
X38195Y39290D01*
X38224Y38939D01*
X38195Y38589D01*
X38113Y38388D01*
X37943Y38293D01*
X37645Y38261D01*
G37*
G36*
X37645Y38261D02*X37343Y38293D01*
X37171Y38388D01*
X37087Y38589D01*
X37061Y38939D01*
X37087Y39290D01*
X37171Y39496D01*
X37343Y39591D01*
X37645Y39622D01*
Y39457D01*
X37434Y39436D01*
X37325Y39374D01*
X37278Y39224D01*
X37264Y38939D01*
X37278Y38658D01*
X37325Y38509D01*
X37434Y38443D01*
X37645Y38421D01*
Y38261D01*
G37*
G36*
X36757Y39347D02*X36548D01*
Y39600D01*
X36757D01*
Y39347D01*
G37*
G36*
X35666Y39622D02*X35964Y39591D01*
X36135Y39496D01*
X36216Y39290D01*
X36245Y38939D01*
X36216Y38589D01*
X36135Y38388D01*
X35964Y38293D01*
X35666Y38261D01*
Y38421D01*
X35870Y38443D01*
X35980Y38509D01*
X36030Y38658D01*
X36046Y38939D01*
X36030Y39224D01*
X35980Y39374D01*
X35870Y39436D01*
X35666Y39457D01*
Y39622D01*
G37*
G36*
X35666Y38261D02*X35364Y38293D01*
X35192Y38388D01*
X35108Y38589D01*
X35082Y38939D01*
X35108Y39290D01*
X35192Y39496D01*
X35364Y39591D01*
X35666Y39622D01*
X35666Y39622D01*
Y39457D01*
X35666Y39457D01*
X35455Y39436D01*
X35346Y39374D01*
X35299Y39224D01*
X35286Y38939D01*
X35299Y38658D01*
X35346Y38509D01*
X35455Y38443D01*
X35666Y38421D01*
X35666Y38421D01*
Y38261D01*
X35666Y38261D01*
G37*
G36*
X13756Y47633D02*Y47743D01*
X13883D01*
Y47633D01*
X13756D01*
G37*
G36*
X14291D02*Y47743D01*
X14418D01*
Y47633D01*
X14291D01*
G37*
G36*
X14220Y47989D02*X14242D01*
X14330Y48027D01*
X14346Y48176D01*
X14308Y48336D01*
X14235Y48361D01*
X14104Y48369D01*
Y47895D01*
X14054D01*
X13930Y47906D01*
Y48011D01*
X13999Y47994D01*
X14032Y47989D01*
Y48363D01*
X13930Y48343D01*
Y48455D01*
X14082Y48468D01*
X14260Y48454D01*
X14363Y48413D01*
X14412Y48322D01*
X14429Y48170D01*
X14390Y47955D01*
X14242Y47889D01*
X14220Y47895D01*
Y47989D01*
G37*
G36*
X13930Y47906D02*X13900Y47909D01*
X13812Y47950D01*
X13766Y48037D01*
X13751Y48187D01*
X13768Y48326D01*
X13817Y48413D01*
X13916Y48454D01*
X13930Y48455D01*
Y48343D01*
X13867Y48330D01*
X13828Y48176D01*
X13861Y48027D01*
X13930Y48011D01*
Y47906D01*
G37*
G36*
X14087Y49187D02*X14248Y49174D01*
X14357Y49132D01*
X14411Y49052D01*
X14429Y48923D01*
X14404Y48788D01*
X14330Y48713D01*
Y48708D01*
X14418Y48713D01*
Y48620D01*
X14087D01*
Y48714D01*
X14213Y48723D01*
X14297Y48752D01*
X14334Y48807D01*
X14346Y48906D01*
X14297Y49050D01*
X14214Y49074D01*
X14087Y49082D01*
Y49187D01*
G37*
G36*
X13476Y48620D02*Y48713D01*
X13839D01*
X13845Y48719D01*
X13774Y48788D01*
X13751Y48928D01*
X13769Y49054D01*
X13823Y49132D01*
X13922Y49174D01*
X14076Y49188D01*
X14087Y49187D01*
Y49082D01*
X14076Y49083D01*
X13878Y49050D01*
X13828Y48906D01*
X13878Y48758D01*
X13951Y48724D01*
X14071Y48713D01*
X14087Y48714D01*
Y48620D01*
X13476D01*
G37*
G36*
X14087Y49901D02*X14087Y49901D01*
X14265Y49888D01*
X14368Y49846D01*
X14414Y49759D01*
X14429Y49609D01*
X14414Y49459D01*
X14368Y49372D01*
X14265Y49331D01*
X14087Y49317D01*
X14087Y49317D01*
Y49422D01*
X14087Y49422D01*
X14231Y49430D01*
X14308Y49455D01*
X14337Y49507D01*
X14346Y49609D01*
X14337Y49712D01*
X14308Y49769D01*
X14231Y49794D01*
X14087Y49802D01*
X14087Y49802D01*
Y49901D01*
G37*
G36*
X13751Y49609D02*X13768Y49759D01*
X13817Y49846D01*
X13915Y49888D01*
X14087Y49901D01*
Y49802D01*
X13945Y49794D01*
X13872Y49769D01*
X13839Y49712D01*
X13828Y49609D01*
X13839Y49507D01*
X13872Y49455D01*
X13945Y49430D01*
X14087Y49422D01*
Y49317D01*
X13915Y49331D01*
X13817Y49372D01*
X13768Y49459D01*
X13751Y49609D01*
G37*
G36*
X14155Y52981D02*Y52717D01*
X13201D01*
Y51829D01*
X13226Y51672D01*
X13304Y51560D01*
X13433Y51493D01*
X13615Y51471D01*
X14155D01*
Y51206D01*
X13554D01*
X13364Y51230D01*
X13225Y51300D01*
X13135Y51417D01*
X13096Y51581D01*
X13091D01*
X13034Y51383D01*
X12931Y51261D01*
X12751Y51195D01*
X12504Y51176D01*
Y51430D01*
X12540Y51427D01*
X12753Y51454D01*
X12887Y51537D01*
X12957Y51695D01*
X12981Y51950D01*
Y52717D01*
X12504D01*
Y52981D01*
X14155D01*
G37*
G36*
X12504Y51176D02*X12474Y51173D01*
X12159Y51212D01*
X11956Y51327D01*
X11840Y51538D01*
X11801Y51862D01*
Y52981D01*
X12504D01*
Y52717D01*
X12027D01*
Y51862D01*
X12052Y51639D01*
X12126Y51509D01*
X12277Y51447D01*
X12504Y51430D01*
Y51176D01*
G37*
G36*
X12440Y53269D02*X12100Y53309D01*
X11906Y53429D01*
X11811Y53681D01*
X11779Y54118D01*
X11814Y54551D01*
X11917Y54813D01*
X12117Y54941D01*
X12452Y54984D01*
X12706Y54946D01*
X12895Y54835D01*
X13015Y54649D01*
X13069Y54388D01*
X13085Y54124D01*
X13096Y53848D01*
X13127Y53660D01*
X13185Y53550D01*
X13292Y53497D01*
X13471Y53479D01*
X13739Y53505D01*
X13879Y53584D01*
X13937Y53776D01*
X13956Y54146D01*
X13937Y54468D01*
X13879Y54642D01*
X13743Y54712D01*
X13488Y54735D01*
X13427D01*
Y55000D01*
X13532D01*
X13857Y54959D01*
X14050Y54835D01*
X14145Y54578D01*
X14177Y54151D01*
X14145Y53670D01*
X14050Y53396D01*
X13846Y53268D01*
X13488Y53225D01*
X13161Y53262D01*
X12975Y53374D01*
X12881Y53623D01*
X12832Y54074D01*
X12800Y54449D01*
X12749Y54636D01*
X12632Y54706D01*
X12402Y54730D01*
X12194Y54700D01*
X12077Y54609D01*
X12023Y54414D01*
X12005Y54074D01*
X12024Y53786D01*
X12082Y53627D01*
X12207Y53557D01*
X12440Y53534D01*
Y53269D01*
G37*
G36*
X14181Y50111D02*X14319Y50144D01*
X14346Y50282D01*
X14335Y50390D01*
X14302Y50452D01*
X14228Y50477D01*
X14093Y50485D01*
X13956Y50477D01*
X13878Y50452D01*
X13828Y50315D01*
X13856Y50160D01*
X13955Y50122D01*
X13972D01*
Y50028D01*
X13865Y50043D01*
X13801Y50089D01*
X13763Y50170D01*
X13751Y50304D01*
X13769Y50443D01*
X13823Y50530D01*
X13922Y50571D01*
X14087Y50585D01*
X14258Y50571D01*
X14363Y50530D01*
X14412Y50440D01*
X14429Y50293D01*
X14375Y50086D01*
X14214Y50017D01*
X14181D01*
Y50111D01*
G37*
G36*
X11993Y47895D02*Y48148D01*
X11838D01*
Y48248D01*
X11993D01*
Y48336D01*
X12075D01*
Y48248D01*
X12500D01*
X12624Y48199D01*
X12665Y48055D01*
X12615Y47918D01*
X12467Y47873D01*
X12423D01*
Y47961D01*
X12489D01*
X12559Y47984D01*
X12582Y48055D01*
X12556Y48125D01*
X12478Y48148D01*
X12075D01*
Y47895D01*
X11993D01*
G37*
G36*
X10655Y29101D02*Y47101D01*
X15654D01*
Y29101D01*
X10655D01*
G37*
G36*
X11993Y48799D02*X12654D01*
Y48700D01*
X12257D01*
X12108Y48660D01*
X12059Y48540D01*
X12085Y48457D01*
X12164Y48430D01*
X12197D01*
X12213Y48435D01*
Y48341D01*
X12169Y48336D01*
X12028Y48381D01*
X11982Y48518D01*
X12005Y48632D01*
X12075Y48711D01*
X12070D01*
X11993Y48700D01*
Y48799D01*
G37*
G36*
X12456Y49549D02*X12461Y49551D01*
X12614Y49489D01*
X12665Y49303D01*
X12644Y49161D01*
X12582Y49077D01*
X12654Y49083D01*
Y48984D01*
X12456D01*
Y49079D01*
X12461Y49077D01*
X12552Y49128D01*
X12582Y49281D01*
X12560Y49413D01*
X12456Y49445D01*
Y49549D01*
G37*
G36*
X12180Y49424D02*X12158D01*
X12084Y49380D01*
X12059Y49248D01*
X12092Y49116D01*
X12241Y49083D01*
X12323D01*
X12270Y49154D01*
X12252Y49292D01*
X12264Y49418D01*
X12301Y49496D01*
X12456Y49549D01*
Y49445D01*
X12450Y49447D01*
X12351Y49413D01*
X12329Y49270D01*
X12356Y49116D01*
X12456Y49079D01*
Y48984D01*
X12219D01*
X12104Y48999D01*
X12037Y49044D01*
X12000Y49127D01*
X11987Y49265D01*
X11997Y49394D01*
X12026Y49474D01*
X12180Y49524D01*
Y49424D01*
G37*
G36*
X12323Y50248D02*X12935D01*
Y50150D01*
X12577D01*
X12643Y50068D01*
X12665Y49934D01*
X12647Y49813D01*
X12593Y49736D01*
X12493Y49694D01*
X12334Y49681D01*
X12323Y49682D01*
Y49781D01*
X12334Y49780D01*
X12459Y49790D01*
X12533Y49819D01*
X12582Y49956D01*
X12533Y50111D01*
X12457Y50140D01*
X12329Y50150D01*
X12323Y50149D01*
Y50248D01*
G37*
G36*
X11993D02*X12323D01*
Y50149D01*
X12193Y50141D01*
X12114Y50116D01*
X12064Y49962D01*
X12114Y49813D01*
X12194Y49788D01*
X12323Y49781D01*
Y49682D01*
X12168Y49694D01*
X12064Y49736D01*
X12006Y49813D01*
X11987Y49934D01*
X12011Y50071D01*
X12081Y50150D01*
Y50155D01*
X11993Y50150D01*
Y50248D01*
G37*
G36*
X34244Y39616D02*X34277Y39622D01*
X34532Y39586D01*
X34696Y39479D01*
X34785Y39274D01*
X34817Y38956D01*
X34788Y38625D01*
X34707Y38415D01*
X34550Y38300D01*
X34304Y38261D01*
X34244Y38271D01*
Y38422D01*
X34255Y38421D01*
X34435Y38447D01*
X34541Y38526D01*
X34594Y38681D01*
X34613Y38950D01*
X34594Y39206D01*
X34541Y39358D01*
X34438Y39432D01*
X34266Y39457D01*
X34244Y39455D01*
Y39616D01*
G37*
G36*
X33676Y39600D02*X33869D01*
X33858Y39435D01*
X33864D01*
X34018Y39575D01*
X34244Y39616D01*
Y39455D01*
X34056Y39434D01*
X33941Y39363D01*
X33891Y39199D01*
X33874Y38906D01*
X33893Y38666D01*
X33952Y38520D01*
X34065Y38446D01*
X34244Y38422D01*
Y38271D01*
X34015Y38309D01*
X33874Y38454D01*
X33869Y38448D01*
Y37721D01*
X33676D01*
Y39600D01*
G37*
G36*
X32794Y38261D02*X32794Y38261D01*
Y38421D01*
X32794Y38421D01*
X32998Y38443D01*
X33108Y38509D01*
X33158Y38658D01*
X33174Y38939D01*
X33158Y39224D01*
X33108Y39374D01*
X32998Y39436D01*
X32794Y39457D01*
X32794Y39457D01*
Y39622D01*
X32794Y39622D01*
X33092Y39591D01*
X33263Y39496D01*
X33344Y39290D01*
X33373Y38939D01*
X33344Y38589D01*
X33263Y38388D01*
X33092Y38293D01*
X32794Y38261D01*
G37*
G36*
X32794Y38261D02*X32492Y38293D01*
X32320Y38388D01*
X32236Y38589D01*
X32210Y38939D01*
X32236Y39290D01*
X32320Y39496D01*
X32492Y39591D01*
X32794Y39622D01*
Y39457D01*
X32583Y39436D01*
X32474Y39374D01*
X32428Y39224D01*
X32414Y38939D01*
X32428Y38658D01*
X32474Y38509D01*
X32583Y38443D01*
X32794Y38421D01*
Y38261D01*
G37*
G36*
X31140Y38283D02*Y39600D01*
X31333D01*
Y38812D01*
X31353Y38636D01*
X31413Y38510D01*
X31515Y38435D01*
X31659Y38410D01*
X31823Y38461D01*
X31879Y38614D01*
X31874Y38685D01*
X31868Y38718D01*
X32061D01*
Y38625D01*
X32038Y38461D01*
X31970Y38343D01*
X31856Y38273D01*
X31697Y38250D01*
X31470Y38297D01*
X31322Y38437D01*
X31317Y38432D01*
X31333Y38283D01*
X31140D01*
G37*
G36*
X30804Y38625D02*Y38581D01*
X30771Y38440D01*
X30672Y38341D01*
X30509Y38280D01*
X30281Y38261D01*
X30008Y38280D01*
X29845Y38338D01*
X29761Y38447D01*
X29735Y38630D01*
X29768Y38827D01*
X29873Y38944D01*
X30085Y38998D01*
X30452Y39016D01*
X30591Y39068D01*
X30639Y39226D01*
X30618Y39344D01*
X30562Y39413D01*
X30447Y39446D01*
X30253Y39457D01*
X30090Y39447D01*
X29994Y39418D01*
X29944Y39352D01*
X29928Y39242D01*
X29922Y39181D01*
X29724D01*
Y39253D01*
X29753Y39431D01*
X29845Y39545D01*
X30016Y39603D01*
X30292Y39622D01*
X30556Y39602D01*
X30722Y39540D01*
X30811Y39418D01*
X30843Y39231D01*
X30819Y39073D01*
X30752Y38958D01*
X30640Y38885D01*
X30485Y38856D01*
X30286Y38845D01*
X30132Y38840D01*
X29986Y38780D01*
X29939Y38625D01*
X29951Y38517D01*
X29994Y38459D01*
X30092Y38430D01*
X30270Y38421D01*
X30456Y38429D01*
X30556Y38454D01*
X30596Y38513D01*
X30611Y38625D01*
X30804D01*
G37*
G36*
X29443Y39347D02*X29233D01*
Y39600D01*
X29443D01*
Y39347D01*
G37*
G36*
X29057Y38283D02*X28847D01*
X28665Y39011D01*
X28605Y39242D01*
X28577Y39352D01*
X28550Y39468D01*
X28544D01*
X28522Y39352D01*
X28495Y39242D01*
X28440Y39016D01*
X28258Y38283D01*
X27977D01*
X27800Y39011D01*
X27745Y39242D01*
X27718Y39352D01*
X27690Y39468D01*
X27684D01*
X27657Y39352D01*
X27629Y39242D01*
X27569Y39011D01*
X27387Y38283D01*
X27183D01*
X27541Y39600D01*
X27833D01*
X28010Y38867D01*
X28065Y38647D01*
X28087Y38531D01*
X28114Y38421D01*
X28120D01*
X28147Y38531D01*
X28169Y38647D01*
X28224Y38867D01*
X28401Y39600D01*
X28688D01*
X29057Y38283D01*
G37*
G36*
X27166D02*X26957D01*
X26775Y39011D01*
X26714Y39242D01*
X26687Y39352D01*
X26659Y39468D01*
X26654D01*
X26632Y39352D01*
X26604Y39242D01*
X26549Y39016D01*
X26367Y38283D01*
X26086D01*
X25910Y39011D01*
X25854Y39242D01*
X25827Y39352D01*
X25799Y39468D01*
X25794D01*
X25766Y39352D01*
X25739Y39242D01*
X25678Y39011D01*
X25496Y38283D01*
X25292D01*
X25650Y39600D01*
X25943D01*
X26119Y38867D01*
X26174Y38647D01*
X26196Y38531D01*
X26224Y38421D01*
X26229D01*
X26257Y38531D01*
X26279Y38647D01*
X26334Y38867D01*
X26510Y39600D01*
X26797D01*
X27166Y38283D01*
G37*
G36*
X25276D02*X25066D01*
X24884Y39011D01*
X24823Y39242D01*
X24796Y39352D01*
X24768Y39468D01*
X24763D01*
X24741Y39352D01*
X24713Y39242D01*
X24658Y39016D01*
X24476Y38283D01*
X24195D01*
X24019Y39011D01*
X23964Y39242D01*
X23936Y39352D01*
X23909Y39468D01*
X23903D01*
X23876Y39352D01*
X23848Y39242D01*
X23787Y39011D01*
X23605Y38283D01*
X23401D01*
X23760Y39600D01*
X24052D01*
X24228Y38867D01*
X24283Y38647D01*
X24305Y38531D01*
X24333Y38421D01*
X24339D01*
X24366Y38531D01*
X24388Y38647D01*
X24443Y38867D01*
X24620Y39600D01*
X24906D01*
X25276Y38283D01*
G37*
G36*
X35742Y28615D02*X35388Y28285D01*
X35005Y27993D01*
X34595Y27740D01*
X34164Y27525D01*
X33715Y27352D01*
X33250Y27223D01*
X32776Y27138D01*
X32297Y27100D01*
X32157Y27103D01*
Y29253D01*
X32219D01*
X32271Y29266D01*
X32297D01*
X32361Y29291D01*
X32477Y29319D01*
X32631Y29356D01*
X33027Y29472D01*
X33520Y29626D01*
X34074Y29807D01*
X34661Y30016D01*
X35255Y30253D01*
X35827Y30516D01*
X35933Y30584D01*
X36019Y30678D01*
X36075Y30790D01*
X36100Y30916D01*
X36088Y31042D01*
X36041Y31160D01*
X35965Y31262D01*
X35866Y31340D01*
X35364Y31626D01*
X34897Y31876D01*
X34453Y32100D01*
X34023Y32308D01*
X34467Y32522D01*
X34874Y32746D01*
X35085Y32874D01*
X35277Y33000D01*
X35448Y33114D01*
X35596Y33217D01*
X35716Y33304D01*
X35804Y33370D01*
X35860Y33413D01*
X35880Y33428D01*
X35997Y33566D01*
X36053Y33742D01*
X36042Y33926D01*
X35962Y34090D01*
X35819Y34203D01*
X35643Y34252D01*
X35459Y34236D01*
X35299Y34150D01*
X35232Y34099D01*
X35047Y33966D01*
X34762Y33773D01*
X34397Y33545D01*
X33974Y33308D01*
X33523Y33095D01*
X33074Y32929D01*
X32658Y32836D01*
X32514Y32788D01*
X32393Y32696D01*
X32306Y32574D01*
X32264Y32430D01*
X32272Y32280D01*
X32328Y32141D01*
X32425Y32025D01*
X32554Y31947D01*
X33077Y31739D01*
X33569Y31514D01*
X34050Y31269D01*
X34539Y31006D01*
X33872Y30742D01*
X33236Y30516D01*
X32764Y30369D01*
X32386Y30259D01*
X32157Y30190D01*
Y37101D01*
X32644Y37074D01*
X33129Y37001D01*
X33604Y36880D01*
X34066Y36715D01*
X34510Y36505D01*
X34931Y36256D01*
X35326Y35965D01*
X35691Y35637D01*
X36019Y35272D01*
X36310Y34878D01*
X36559Y34456D01*
X36768Y34012D01*
X36935Y33550D01*
X37055Y33076D01*
X37130Y32590D01*
X37156Y32101D01*
X37131Y31619D01*
X37061Y31143D01*
X36943Y30675D01*
X36784Y30222D01*
X36582Y29783D01*
X36340Y29367D01*
X36059Y28976D01*
X35742Y28615D01*
G37*
G36*
X32157Y27103D02*X31796Y27111D01*
X31302Y27175D01*
X30814Y27286D01*
X30340Y27445D01*
X29884Y27649D01*
X29450Y27895D01*
X29043Y28185D01*
X28668Y28514D01*
X28328Y28879D01*
X28027Y29279D01*
X27768Y29705D01*
X27552Y30155D01*
X27380Y30625D01*
X27256Y31109D01*
X27179Y31602D01*
X27154Y32101D01*
X27179Y32590D01*
X27252Y33076D01*
X27373Y33550D01*
X27538Y34012D01*
X27748Y34456D01*
X27998Y34878D01*
X28289Y35272D01*
X28619Y35637D01*
X28982Y35965D01*
X29377Y36256D01*
X29798Y36505D01*
X30242Y36715D01*
X30704Y36880D01*
X31179Y37001D01*
X31664Y37074D01*
X32155Y37101D01*
X32157Y37101D01*
Y30190D01*
X32128Y30181D01*
X31910Y30245D01*
X31532Y30355D01*
X31059Y30502D01*
X30424Y30735D01*
X29757Y31006D01*
X30745Y31524D01*
X31743Y31921D01*
X31881Y31989D01*
X31988Y32102D01*
X32054Y32243D01*
X32072Y32397D01*
X32032Y32546D01*
X31947Y32676D01*
X31824Y32772D01*
X31678Y32823D01*
X31202Y32942D01*
X30728Y33121D01*
X30275Y33337D01*
X29862Y33567D01*
X29506Y33786D01*
X29228Y33972D01*
X29047Y34102D01*
X28984Y34150D01*
X28823Y34236D01*
X28639Y34252D01*
X28463Y34203D01*
X28321Y34090D01*
X28241Y33926D01*
X28230Y33742D01*
X28285Y33566D01*
X28404Y33428D01*
X28440Y33398D01*
X28543Y33318D01*
X28708Y33195D01*
X28929Y33042D01*
X29200Y32866D01*
X29513Y32678D01*
X29864Y32488D01*
X30248Y32308D01*
X29822Y32098D01*
X29388Y31872D01*
X28930Y31622D01*
X28442Y31340D01*
X28273Y31164D01*
X28215Y30927D01*
X28288Y30693D01*
X28468Y30529D01*
X29039Y30263D01*
X29633Y30018D01*
X30221Y29800D01*
X30775Y29614D01*
X31267Y29465D01*
X31664Y29356D01*
X31936Y29279D01*
X32025Y29253D01*
X32157D01*
Y27103D01*
G37*
G36*
X45727Y50629D02*X45920D01*
X46167Y50598D01*
X46328Y50508D01*
X46418Y50342D01*
X46449Y50089D01*
X46430Y49919D01*
X46372Y49790D01*
X46277Y49696D01*
X46146Y49642D01*
X46326Y49502D01*
X46389Y49245D01*
X46360Y48990D01*
X46278Y48843D01*
X46113Y48773D01*
X45832Y48749D01*
X45727D01*
Y48926D01*
X45826D01*
X46011Y48939D01*
X46118Y48981D01*
X46168Y49070D01*
X46185Y49229D01*
X46164Y49411D01*
X46107Y49515D01*
X45984Y49561D01*
X45766Y49576D01*
X45727D01*
Y49752D01*
X45755D01*
X46025Y49768D01*
X46168Y49813D01*
X46224Y49918D01*
X46245Y50122D01*
X46224Y50287D01*
X46168Y50386D01*
X46052Y50432D01*
X45854Y50447D01*
X45727D01*
Y50629D01*
G37*
G36*
X45000D02*X45727D01*
Y50447D01*
X45209D01*
Y49752D01*
X45727D01*
Y49576D01*
X45209D01*
Y48926D01*
X45727D01*
Y48749D01*
X45000D01*
Y50629D01*
G37*
G36*
X44123Y49311D02*X43908D01*
X43682Y50028D01*
X43616Y50254D01*
X43583Y50364D01*
X43550Y50480D01*
X43544D01*
X43506Y50364D01*
X43473Y50254D01*
X43401Y50028D01*
X43164Y49311D01*
X42965D01*
X43406Y50629D01*
X43682D01*
X44123Y49311D01*
G37*
G36*
X48271Y45222D02*X48078D01*
Y45949D01*
X48072D01*
X47928Y45809D01*
X47703Y45771D01*
Y45924D01*
X47878Y45946D01*
X47995Y46021D01*
X48052Y46165D01*
X48072Y46401D01*
X48053Y46692D01*
X48001Y46859D01*
X47886Y46933D01*
X47703Y46956D01*
Y47115D01*
X47928Y47075D01*
X48078Y46930D01*
X48084D01*
X48078Y47101D01*
X48271D01*
Y45222D01*
G37*
G36*
X47703Y45771D02*X47643Y45762D01*
X47397Y45799D01*
X47240Y45910D01*
X47156Y46110D01*
X47130Y46423D01*
X47156Y46762D01*
X47240Y46974D01*
X47401Y47086D01*
X47659Y47123D01*
X47703Y47115D01*
Y46956D01*
X47692Y46958D01*
X47507Y46933D01*
X47400Y46859D01*
X47351Y46697D01*
X47334Y46423D01*
X47351Y46171D01*
X47406Y46021D01*
X47510Y45946D01*
X47687Y45922D01*
X47703Y45924D01*
Y45771D01*
G37*
G36*
X46060Y45784D02*Y47101D01*
X46253D01*
Y46313D01*
X46273Y46136D01*
X46334Y46011D01*
X46435Y45935D01*
X46579Y45910D01*
X46743Y45961D01*
X46799Y46114D01*
X46794Y46186D01*
X46788Y46219D01*
X46981D01*
Y46126D01*
X46958Y45961D01*
X46890Y45844D01*
X46776Y45774D01*
X46617Y45751D01*
X46390Y45797D01*
X46242Y45938D01*
X46237Y45932D01*
X46253Y45784D01*
X46060D01*
G37*
G36*
X45132Y45918D02*X45162Y45916D01*
X45333Y45932D01*
X45432Y45982D01*
X45476Y46088D01*
X45493Y46274D01*
Y46434D01*
X45487D01*
X45351Y46331D01*
X45132Y46303D01*
Y46452D01*
X45305Y46464D01*
X45421Y46506D01*
X45483Y46582D01*
X45504Y46710D01*
X45478Y46817D01*
X45400Y46896D01*
X45274Y46941D01*
X45132Y46955D01*
Y47112D01*
X45336Y47082D01*
X45504Y46958D01*
X45509D01*
X45493Y47101D01*
X45686D01*
Y46230D01*
X45657Y46003D01*
X45570Y45861D01*
X45400Y45786D01*
X45132Y45762D01*
Y45918D01*
G37*
G36*
Y46303D02*X45074Y46296D01*
X44824Y46320D01*
X44666Y46390D01*
X44582Y46517D01*
X44556Y46720D01*
X44586Y46896D01*
X44680Y47023D01*
X44837Y47097D01*
X45057Y47123D01*
X45132Y47112D01*
Y46955D01*
X45096Y46958D01*
X44925Y46945D01*
X44826Y46908D01*
X44776Y46831D01*
X44760Y46699D01*
X44776Y46572D01*
X44826Y46500D01*
X44931Y46463D01*
X45118Y46451D01*
X45132Y46452D01*
Y46303D01*
G37*
G36*
X44804Y46153D02*Y46114D01*
X44826Y46028D01*
X44892Y45966D01*
X45004Y45928D01*
X45132Y45918D01*
Y45762D01*
X45123Y45762D01*
X44869Y45782D01*
X44716Y45844D01*
X44641Y45960D01*
X44616Y46153D01*
X44804D01*
G37*
G36*
X43724Y45762D02*X43723Y45762D01*
Y45922D01*
X43724Y45922D01*
X43927Y45943D01*
X44038Y46010D01*
X44087Y46158D01*
X44104Y46440D01*
X44087Y46725D01*
X44038Y46875D01*
X43927Y46937D01*
X43724Y46958D01*
X43723Y46958D01*
Y47123D01*
X43724Y47123D01*
X44021Y47092D01*
X44192Y46996D01*
X44273Y46791D01*
X44302Y46440D01*
X44273Y46090D01*
X44192Y45888D01*
X44021Y45793D01*
X43724Y45762D01*
G37*
G36*
X43723Y45762D02*X43422Y45793D01*
X43249Y45888D01*
X43165Y46090D01*
X43139Y46440D01*
X43165Y46791D01*
X43249Y46996D01*
X43422Y47092D01*
X43723Y47123D01*
Y46958D01*
X43512Y46937D01*
X43404Y46875D01*
X43357Y46725D01*
X43343Y46440D01*
X43357Y46158D01*
X43404Y46010D01*
X43512Y45943D01*
X43723Y45922D01*
Y45762D01*
G37*
G36*
X42271Y50006D02*X42844D01*
Y49901D01*
X42815Y49591D01*
X42728Y49411D01*
X42553Y49320D01*
X42271Y49291D01*
Y49449D01*
X42271Y49449D01*
X42461Y49466D01*
X42574Y49515D01*
X42626Y49617D01*
X42646Y49791D01*
Y49857D01*
X42271D01*
Y50006D01*
G37*
G36*
X42646Y50232D02*Y50270D01*
X42626Y50384D01*
X42574Y50447D01*
X42467Y50476D01*
X42276Y50485D01*
X42271Y50485D01*
Y50650D01*
X42282Y50651D01*
X42547Y50630D01*
X42718Y50568D01*
X42811Y50454D01*
X42844Y50276D01*
Y50232D01*
X42646D01*
G37*
G36*
X42271Y50485D02*X42074Y50465D01*
X41962Y50403D01*
X41913Y50260D01*
X41896Y50006D01*
X42271D01*
Y49857D01*
X41896D01*
X41913Y49648D01*
X41968Y49526D01*
X42078Y49469D01*
X42271Y49449D01*
Y49291D01*
X42254Y49289D01*
X41972Y49324D01*
X41802Y49427D01*
X41718Y49626D01*
X41692Y49956D01*
X41718Y50309D01*
X41802Y50519D01*
X41980Y50618D01*
X42271Y50650D01*
Y50485D01*
G37*
G36*
X40708Y49868D02*X40904D01*
X41028Y49888D01*
X41118Y49950D01*
X41171Y50050D01*
X41190Y50193D01*
Y50629D01*
X41400D01*
Y50150D01*
X41381Y49998D01*
X41326Y49888D01*
X41232Y49816D01*
X41102Y49785D01*
Y49780D01*
X41262Y49730D01*
X41361Y49648D01*
X41411Y49504D01*
X41427Y49284D01*
X41394Y49032D01*
X41301Y48871D01*
X41133Y48780D01*
X40876Y48749D01*
X40708D01*
Y48926D01*
X40882D01*
X41057Y48945D01*
X41157Y49003D01*
X41207Y49124D01*
X41224Y49334D01*
X41200Y49506D01*
X41135Y49615D01*
X41007Y49668D01*
X40805Y49686D01*
X40708D01*
Y49868D01*
G37*
G36*
X39984Y50629D02*X40193D01*
Y49868D01*
X40708D01*
Y49686D01*
X40193D01*
Y48926D01*
X40708D01*
Y48749D01*
X39984D01*
Y50629D01*
G37*
G36*
X38705Y48749D02*X38379D01*
X38054Y49164D01*
Y49446D01*
X38490Y48881D01*
X38495D01*
Y50017D01*
X38054D01*
Y50193D01*
X38495D01*
Y50629D01*
X38705D01*
Y50193D01*
X38986D01*
Y50017D01*
X38705D01*
Y48749D01*
G37*
G36*
X38054Y49164D02*X37442Y49945D01*
Y50193D01*
X38054D01*
Y50017D01*
X37613D01*
X38054Y49446D01*
Y49164D01*
G37*
G36*
X37150Y48749D02*X36660Y50171D01*
X36566Y50458D01*
X36560D01*
X36516Y50315D01*
X36467Y50166D01*
X35965Y48749D01*
X35734D01*
X36412Y50629D01*
X36715D01*
X37376Y48749D01*
X37150D01*
G37*
G36*
X42174Y47101D02*X42367D01*
X42614Y47071D01*
X42775Y46979D01*
X42865Y46814D01*
X42897Y46561D01*
X42877Y46391D01*
X42819Y46262D01*
X42724Y46168D01*
X42593Y46114D01*
X42774Y45974D01*
X42836Y45718D01*
X42807Y45463D01*
X42726Y45315D01*
X42560Y45245D01*
X42279Y45222D01*
X42174D01*
Y45398D01*
X42274D01*
X42458Y45412D01*
X42566Y45453D01*
X42615Y45543D01*
X42632Y45701D01*
X42611Y45883D01*
X42555Y45988D01*
X42432Y46033D01*
X42213Y46048D01*
X42174D01*
Y46225D01*
X42202D01*
X42472Y46240D01*
X42615Y46285D01*
X42672Y46390D01*
X42693Y46594D01*
X42672Y46759D01*
X42615Y46859D01*
X42500Y46904D01*
X42301Y46919D01*
X42174D01*
Y47101D01*
G37*
G36*
X41447D02*X42174D01*
Y46919D01*
X41656D01*
Y46225D01*
X42174D01*
Y46048D01*
X41656D01*
Y45398D01*
X42174D01*
Y45222D01*
X41447D01*
Y47101D01*
G37*
G36*
X39848Y47123D02*X40146Y47092D01*
X40317Y46996D01*
X40398Y46791D01*
X40427Y46440D01*
X40398Y46090D01*
X40317Y45888D01*
X40146Y45793D01*
X39848Y45762D01*
Y45922D01*
X40052Y45943D01*
X40162Y46010D01*
X40212Y46158D01*
X40229Y46440D01*
X40212Y46725D01*
X40162Y46875D01*
X40052Y46937D01*
X39848Y46958D01*
Y47123D01*
G37*
G36*
X39848Y45762D02*X39547Y45793D01*
X39374Y45888D01*
X39290Y46090D01*
X39264Y46440D01*
X39290Y46791D01*
X39374Y46996D01*
X39547Y47092D01*
X39848Y47123D01*
X39848Y47123D01*
Y46958D01*
X39848Y46958D01*
X39638Y46937D01*
X39529Y46875D01*
X39482Y46725D01*
X39468Y46440D01*
X39482Y46158D01*
X39529Y46010D01*
X39638Y45943D01*
X39848Y45922D01*
X39848Y45922D01*
Y45762D01*
X39848Y45762D01*
G37*
G36*
X39143Y45784D02*X38928D01*
X38702Y46500D01*
X38636Y46726D01*
X38603Y46836D01*
X38570Y46952D01*
X38564D01*
X38526Y46836D01*
X38492Y46726D01*
X38421Y46500D01*
X38184Y45784D01*
X37985D01*
X38426Y47101D01*
X38702D01*
X39143Y45784D01*
G37*
G36*
X37059D02*Y47101D01*
X37252D01*
Y46313D01*
X37272Y46136D01*
X37332Y46011D01*
X37434Y45935D01*
X37577Y45910D01*
X37741Y45961D01*
X37798Y46114D01*
X37792Y46186D01*
X37787Y46219D01*
X37980D01*
Y46126D01*
X37956Y45961D01*
X37889Y45844D01*
X37774Y45774D01*
X37616Y45751D01*
X37389Y45797D01*
X37241Y45938D01*
X37236Y45932D01*
X37252Y45784D01*
X37059D01*
G37*
G36*
X36166Y46478D02*X36739D01*
Y46373D01*
X36710Y46063D01*
X36624Y45883D01*
X36449Y45792D01*
X36166Y45763D01*
Y45922D01*
X36356Y45938D01*
X36469Y45988D01*
X36522Y46090D01*
X36541Y46263D01*
Y46330D01*
X36166D01*
Y46478D01*
G37*
G36*
X36541Y46704D02*Y46743D01*
X36522Y46856D01*
X36469Y46919D01*
X36362Y46948D01*
X36172Y46958D01*
X36166Y46957D01*
Y47122D01*
X36177Y47123D01*
X36442Y47102D01*
X36613Y47040D01*
X36706Y46926D01*
X36739Y46748D01*
Y46704D01*
X36541D01*
G37*
G36*
X36166Y46957D02*X35969Y46937D01*
X35858Y46875D01*
X35808Y46732D01*
X35791Y46478D01*
X36166D01*
Y46330D01*
X35791D01*
X35808Y46120D01*
X35863Y45999D01*
X35973Y45941D01*
X36166Y45922D01*
X36166Y45922D01*
Y45763D01*
X36150Y45762D01*
X35867Y45796D01*
X35698Y45900D01*
X35614Y46098D01*
X35588Y46428D01*
X35614Y46781D01*
X35698Y46991D01*
X35876Y47090D01*
X36166Y47122D01*
Y46957D01*
G37*
G36*
X35345Y45728D02*X35312Y45455D01*
X35213Y45298D01*
X35011Y45224D01*
X34667Y45199D01*
X34317Y45227D01*
X34110Y45310D01*
X34005Y45468D01*
X33972Y45734D01*
X34001Y45938D01*
X34089Y46090D01*
X34238Y46186D01*
X34446Y46230D01*
X34656Y46241D01*
X34876Y46252D01*
X35025Y46276D01*
X35113Y46324D01*
X35157Y46408D01*
X35174Y46550D01*
X35154Y46768D01*
X35091Y46881D01*
X34936Y46926D01*
X34639Y46941D01*
X34383Y46926D01*
X34248Y46881D01*
X34189Y46772D01*
X34171Y46566D01*
Y46517D01*
X33956D01*
X33961Y46605D01*
X33994Y46863D01*
X34094Y47018D01*
X34293Y47097D01*
X34634Y47123D01*
X35018Y47097D01*
X35240Y47018D01*
X35342Y46853D01*
X35378Y46566D01*
X35346Y46305D01*
X35257Y46158D01*
X35058Y46083D01*
X34700Y46043D01*
X34398Y46018D01*
X34248Y45977D01*
X34189Y45883D01*
X34171Y45701D01*
X34193Y45534D01*
X34265Y45442D01*
X34422Y45396D01*
X34700Y45381D01*
X34927Y45396D01*
X35053Y45442D01*
X35109Y45544D01*
X35130Y45728D01*
X35345D01*
G37*
G54D147*X21900Y12800D02*Y15100D01*
X21300Y20300D02*X20800D01*
X44600Y58700D02*X45800Y59900D01*
X50300Y56300D02*Y59600D01*
X50000Y59900D01*
X19000Y59700D02*X19600Y59100D01*
X23000Y59700D02*X22400Y59100D01*
G54D148*X16206Y17900D02*X16137Y17831D01*
Y17694D02*Y17831D01*
Y17694D02*X16206Y17626D01*
X16686Y17694D02*X16617Y17626D01*
X16686Y17694D02*Y17831D01*
X16617Y17900D02*X16686Y17831D01*
X16384Y17694D02*Y17831D01*
X16206Y17626D02*X16315D01*
X16453D02*X16617D01*
X16453D02*X16384Y17694D01*
X16315Y17626D02*X16384Y17694D01*
X16686Y17393D02*Y17461D01*
X16206Y17228D02*X16137Y17159D01*
Y17022D02*Y17159D01*
Y17022D02*X16206Y16954D01*
X16686Y17022D02*X16617Y16954D01*
X16686Y17022D02*Y17159D01*
X16617Y17228D02*X16686Y17159D01*
X16384Y17022D02*Y17159D01*
X16206Y16954D02*X16315D01*
X16453D02*X16617D01*
X16453D02*X16384Y17022D01*
X16315Y16954D02*X16384Y17022D01*
X16617Y16789D02*X16206Y16378D01*
X16137Y15939D02*Y16213D01*
X16411D01*
X16343Y16144D01*
Y16007D02*Y16144D01*
Y16007D02*X16411Y15939D01*
X16617D01*
X16686Y16007D02*X16617Y15939D01*
X16686Y16007D02*Y16144D01*
X16617Y16213D02*X16686Y16144D01*
X16137Y15774D02*X16686Y15637D01*
X16137Y15500D01*
X27393Y17114D02*X27490Y17017D01*
X27393Y17114D02*Y17403D01*
X27490Y17500D02*X27393Y17403D01*
X27490Y17500D02*X28069D01*
X28165Y17403D01*
Y17114D02*Y17403D01*
Y17114D02*X28069Y17017D01*
X27876D02*X28069D01*
X27779Y17114D02*X27876Y17017D01*
X27779Y17114D02*Y17307D01*
X27393Y16786D02*X28165D01*
X27393D02*X28165Y16303D01*
X27393D02*X28165D01*
X27393Y15975D02*X28165D01*
X27393Y15724D02*X27528Y15589D01*
X28030D01*
X28165Y15724D02*X28030Y15589D01*
X28165Y15724D02*Y16072D01*
X27393Y15724D02*Y16072D01*
X19937Y17931D02*X20486D01*
X19937Y17753D02*X20033Y17657D01*
X20390D01*
X20486Y17753D02*X20390Y17657D01*
X20486Y17753D02*Y18000D01*
X19937Y17753D02*Y18000D01*
X20280Y17493D02*X20417D01*
X20280D02*X20211Y17424D01*
Y17287D02*Y17424D01*
Y17287D02*X20280Y17218D01*
X20417D01*
X20486Y17287D02*X20417Y17218D01*
X20486Y17287D02*Y17424D01*
X20417Y17493D02*X20486Y17424D01*
X20211Y17054D02*X20417D01*
X20486Y16985D01*
Y16848D02*Y16985D01*
Y16848D02*X20417Y16779D01*
X20211D02*X20417D01*
X19937Y16546D02*X20417D01*
X20486Y16478D01*
X20143D02*Y16615D01*
X20211Y15819D02*Y16093D01*
X20074Y15655D02*X20211Y15517D01*
X20349Y15655D02*X20211Y15517D01*
X23493Y16803D02*X24265D01*
X23493Y16553D02*X23628Y16417D01*
X24130D01*
X24265Y16553D02*X24130Y16417D01*
X24265Y16553D02*Y16900D01*
X23493Y16553D02*Y16900D01*
X23686Y16186D02*X23705D01*
X23976D02*X24265D01*
X23976Y15896D02*X24265D01*
X23976D02*X23879Y15800D01*
Y15703D02*Y15800D01*
Y15703D02*X23976Y15607D01*
X24265D01*
X23879Y15993D02*X23976Y15896D01*
X24979Y16500D02*X24786Y16307D01*
X24979Y16500D02*X25172Y16307D01*
X24979Y15689D02*Y16075D01*
G54D147*X42100Y61000D02*G75*G03X42100Y61000I800J0D01*G01*
X41300Y53500D02*G75*G03X41300Y53500I800J0D01*G01*
X48800Y61000D02*G75*G03X48800Y61000I800J0D01*G01*
X52100D02*G75*G03X52100Y61000I800J0D01*G01*
X57000Y55700D02*G75*G03X57000Y55700I800J0D01*G01*
X45500Y61000D02*G75*G03X45500Y61000I800J0D01*G01*
X31400Y58700D02*G75*G03X31400Y58700I800J0D01*G01*
X51000Y48800D02*G75*G03X51000Y48800I800J0D01*G01*
Y51400D02*G75*G03X51000Y51400I800J0D01*G01*
X55200Y46100D02*G75*G03X55200Y46100I800J0D01*G01*
X19200Y58000D02*G75*G03X19200Y58000I800J0D01*G01*
X21200D02*G75*G03X21200Y58000I800J0D01*G01*
X11600Y58500D02*G75*G03X11600Y58500I800J0D01*G01*
X25500Y48600D02*G75*G03X25500Y48600I800J0D01*G01*
X29900D02*G75*G03X29900Y48600I800J0D01*G01*
X42600Y32500D02*G75*G03X42600Y32500I800J0D01*G01*
X41000Y30700D02*G75*G03X41000Y30700I800J0D01*G01*
X50900Y20800D02*G75*G03X50900Y20800I800J0D01*G01*
X50300Y18600D02*G75*G03X50300Y18600I800J0D01*G01*
X54500Y21000D02*G75*G03X54500Y21000I800J0D01*G01*
X18800Y22300D02*G75*G03X18800Y22300I800J0D01*G01*
X28600Y24600D02*G75*G03X28600Y24600I800J0D01*G01*
X35400D02*G75*G03X35400Y24600I800J0D01*G01*
Y22400D02*G75*G03X35400Y22400I800J0D01*G01*
X32000Y12600D02*G75*G03X32000Y12600I800J0D01*G01*
Y15700D02*G75*G03X32000Y15700I800J0D01*G01*
X23300Y18200D02*G75*G03X23300Y18200I800J0D01*G01*
X18800Y20200D02*G75*G03X18800Y20200I800J0D01*G01*
X21400Y16300D02*G75*G03X21400Y16300I800J0D01*G01*
X17500D02*G75*G03X17500Y16300I800J0D01*G01*
X13400Y11400D02*G75*G03X13400Y11400I800J0D01*G01*
G54D148*X56200Y57154D02*X56708D01*
X56454D02*Y58170D01*
X57140Y57154D02*Y58170D01*
X57013Y57154D02*X57521D01*
X57648Y57281D01*
Y57535D01*
X57521Y57662D02*X57648Y57535D01*
X57140Y57662D02*X57521D01*
X57953Y57281D02*X58080Y57154D01*
X58461D01*
X58588Y57281D01*
Y57535D01*
X57953Y58170D02*X58588Y57535D01*
X57953Y58170D02*X58588D01*
X58892Y57154D02*X59400D01*
X58892D02*Y57662D01*
X59019Y57535D01*
X59273D01*
X59400Y57662D01*
Y58043D01*
X59273Y58170D02*X59400Y58043D01*
X59019Y58170D02*X59273D01*
X58892Y58043D02*X59019Y58170D01*
X54200Y60454D02*X54708D01*
X54454D02*Y61470D01*
X55140Y60454D02*Y61470D01*
X55013Y60454D02*X55521D01*
X55648Y60581D01*
Y60835D01*
X55521Y60962D02*X55648Y60835D01*
X55140Y60962D02*X55521D01*
X55953Y60581D02*X56080Y60454D01*
X56461D01*
X56588Y60581D01*
Y60835D01*
X55953Y61470D02*X56588Y60835D01*
X55953Y61470D02*X56588D01*
X56892Y60581D02*X57019Y60454D01*
X57400D01*
X57527Y60581D01*
Y60835D01*
X56892Y61470D02*X57527Y60835D01*
X56892Y61470D02*X57527D01*
X53000Y50854D02*X53508D01*
X53254D02*Y51870D01*
X53940Y50854D02*Y51870D01*
X53813Y50854D02*X54321D01*
X54448Y50981D01*
Y51235D01*
X54321Y51362D02*X54448Y51235D01*
X53940Y51362D02*X54321D01*
X54753Y50981D02*X54880Y50854D01*
X55261D01*
X55388Y50981D01*
Y51235D01*
X54753Y51870D02*X55388Y51235D01*
X54753Y51870D02*X55388D01*
X55819D02*X56327Y50854D01*
X55692D02*X56327D01*
X51500Y45554D02*X52008D01*
X51754D02*Y46570D01*
X52440Y45554D02*Y46570D01*
X52313Y45554D02*X52821D01*
X52948Y45681D01*
Y45935D01*
X52821Y46062D02*X52948Y45935D01*
X52440Y46062D02*X52821D01*
X53253Y45681D02*X53380Y45554D01*
X53761D01*
X53888Y45681D01*
Y45935D01*
X53253Y46570D02*X53888Y45935D01*
X53253Y46570D02*X53888D01*
X54192Y45681D02*X54319Y45554D01*
X54573D01*
X54700Y45681D01*
X54573Y46570D02*X54700Y46443D01*
X54319Y46570D02*X54573D01*
X54192Y46443D02*X54319Y46570D01*
Y46011D02*X54573D01*
X54700Y45681D02*Y45884D01*
Y46138D02*Y46443D01*
Y46138D02*X54573Y46011D01*
X54700Y45884D02*X54573Y46011D01*
X48700Y54954D02*X49208D01*
X48954D02*Y55970D01*
X49640Y54954D02*Y55970D01*
X49513Y54954D02*X50021D01*
X50148Y55081D01*
Y55335D01*
X50021Y55462D02*X50148Y55335D01*
X49640Y55462D02*X50021D01*
X50453Y55081D02*X50580Y54954D01*
X50961D01*
X51088Y55081D01*
Y55335D01*
X50453Y55970D02*X51088Y55335D01*
X50453Y55970D02*X51088D01*
X51773Y54954D02*X51900Y55081D01*
X51519Y54954D02*X51773D01*
X51392Y55081D02*X51519Y54954D01*
X51392Y55081D02*Y55843D01*
X51519Y55970D01*
X51773Y55411D02*X51900Y55538D01*
X51392Y55411D02*X51773D01*
X51519Y55970D02*X51773D01*
X51900Y55843D01*
Y55538D02*Y55843D01*
X53000Y48254D02*X53508D01*
X53254D02*Y49270D01*
X53940Y48254D02*Y49270D01*
X53813Y48254D02*X54321D01*
X54448Y48381D01*
Y48635D01*
X54321Y48762D02*X54448Y48635D01*
X53940Y48762D02*X54321D01*
X54753Y48381D02*X54880Y48254D01*
X55261D01*
X55388Y48381D01*
Y48635D01*
X54753Y49270D02*X55388Y48635D01*
X54753Y49270D02*X55388D01*
X55692Y48889D02*X56200Y48254D01*
X55692Y48889D02*X56327D01*
X56200Y48254D02*Y49270D01*
X50400Y22054D02*X50908D01*
X50654D02*Y23070D01*
X51340Y22054D02*Y23070D01*
X51213Y22054D02*X51721D01*
X51848Y22181D01*
Y22435D01*
X51721Y22562D02*X51848Y22435D01*
X51340Y22562D02*X51721D01*
X52153Y22257D02*X52356Y22054D01*
Y23070D01*
X52153D02*X52534D01*
X52838Y22257D02*X53042Y22054D01*
Y23070D01*
X52838D02*X53219D01*
X47600Y18254D02*X48108D01*
X47854D02*Y19270D01*
X48540Y18254D02*Y19270D01*
X48413Y18254D02*X48921D01*
X49048Y18381D01*
Y18635D01*
X48921Y18762D02*X49048Y18635D01*
X48540Y18762D02*X48921D01*
X49353Y19143D02*X49480Y19270D01*
X49353Y18940D02*Y19143D01*
Y18940D02*X49530Y18762D01*
X49683D01*
X49861Y18940D01*
Y19143D01*
X49734Y19270D02*X49861Y19143D01*
X49480Y19270D02*X49734D01*
X49353Y18584D02*X49530Y18762D01*
X49353Y18381D02*Y18584D01*
Y18381D02*X49480Y18254D01*
X49734D01*
X49861Y18381D01*
Y18584D01*
X49683Y18762D02*X49861Y18584D01*
X56100Y22054D02*X56608D01*
X56354D02*Y23070D01*
X57040Y22054D02*Y23070D01*
X56913Y22054D02*X57421D01*
X57548Y22181D01*
Y22435D01*
X57421Y22562D02*X57548Y22435D01*
X57040Y22562D02*X57421D01*
X57853Y22181D02*X57980Y22054D01*
X58234D01*
X58361Y22181D01*
X58234Y23070D02*X58361Y22943D01*
X57980Y23070D02*X58234D01*
X57853Y22943D02*X57980Y23070D01*
Y22511D02*X58234D01*
X58361Y22181D02*Y22384D01*
Y22638D02*Y22943D01*
Y22638D02*X58234Y22511D01*
X58361Y22384D02*X58234Y22511D01*
X44600Y31954D02*X45108D01*
X44854D02*Y32970D01*
X45540Y31954D02*Y32970D01*
X45413Y31954D02*X45921D01*
X46048Y32081D01*
Y32335D01*
X45921Y32462D02*X46048Y32335D01*
X45540Y32462D02*X45921D01*
X46353Y32081D02*X46480Y31954D01*
X46861D01*
X46988Y32081D01*
Y32335D01*
X46353Y32970D02*X46988Y32335D01*
X46353Y32970D02*X46988D01*
X47292Y32843D02*X47419Y32970D01*
X47292Y32640D02*Y32843D01*
Y32640D02*X47470Y32462D01*
X47623D01*
X47800Y32640D01*
Y32843D01*
X47673Y32970D02*X47800Y32843D01*
X47419Y32970D02*X47673D01*
X47292Y32284D02*X47470Y32462D01*
X47292Y32081D02*Y32284D01*
Y32081D02*X47419Y31954D01*
X47673D01*
X47800Y32081D01*
Y32284D01*
X47623Y32462D02*X47800Y32284D01*
X43200Y30154D02*X43708D01*
X43454D02*Y31170D01*
X44140Y30154D02*Y31170D01*
X44013Y30154D02*X44521D01*
X44648Y30281D01*
Y30535D01*
X44521Y30662D02*X44648Y30535D01*
X44140Y30662D02*X44521D01*
X44953Y30281D02*X45080Y30154D01*
X45334D01*
X45461Y30281D01*
X45334Y31170D02*X45461Y31043D01*
X45080Y31170D02*X45334D01*
X44953Y31043D02*X45080Y31170D01*
Y30611D02*X45334D01*
X45461Y30281D02*Y30484D01*
Y30738D02*Y31043D01*
Y30738D02*X45334Y30611D01*
X45461Y30484D02*X45334Y30611D01*
X45765Y30357D02*X45969Y30154D01*
Y31170D01*
X45765D02*X46146D01*
X11600Y60154D02*X12108D01*
X11854D02*Y61170D01*
X12540Y60154D02*Y61170D01*
X12413Y60154D02*X12921D01*
X13048Y60281D01*
Y60535D01*
X12921Y60662D02*X13048Y60535D01*
X12540Y60662D02*X12921D01*
X13353Y60357D02*X13556Y60154D01*
Y61170D01*
X13353D02*X13734D01*
X14419Y60154D02*X14546Y60281D01*
X14165Y60154D02*X14419D01*
X14038Y60281D02*X14165Y60154D01*
X14038Y60281D02*Y61043D01*
X14165Y61170D01*
X14419Y60611D02*X14546Y60738D01*
X14038Y60611D02*X14419D01*
X14165Y61170D02*X14419D01*
X14546Y61043D01*
Y60738D02*Y61043D01*
X17300Y60154D02*X17808D01*
X17554D02*Y61170D01*
X18240Y60154D02*Y61170D01*
X18113Y60154D02*X18621D01*
X18748Y60281D01*
Y60535D01*
X18621Y60662D02*X18748Y60535D01*
X18240Y60662D02*X18621D01*
X19053Y60357D02*X19256Y60154D01*
Y61170D01*
X19053D02*X19434D01*
X19865D02*X20373Y60154D01*
X19738D02*X20373D01*
X21700D02*X22208D01*
X21954D02*Y61170D01*
X22640Y60154D02*Y61170D01*
X22513Y60154D02*X23021D01*
X23148Y60281D01*
Y60535D01*
X23021Y60662D02*X23148Y60535D01*
X22640Y60662D02*X23021D01*
X23453Y60357D02*X23656Y60154D01*
Y61170D01*
X23453D02*X23834D01*
X24138Y60281D02*X24265Y60154D01*
X24519D01*
X24646Y60281D01*
X24519Y61170D02*X24646Y61043D01*
X24265Y61170D02*X24519D01*
X24138Y61043D02*X24265Y61170D01*
Y60611D02*X24519D01*
X24646Y60281D02*Y60484D01*
Y60738D02*Y61043D01*
Y60738D02*X24519Y60611D01*
X24646Y60484D02*X24519Y60611D01*
X30800Y59954D02*X31308D01*
X31054D02*Y60970D01*
X31740Y59954D02*Y60970D01*
X31613Y59954D02*X32121D01*
X32248Y60081D01*
Y60335D01*
X32121Y60462D02*X32248Y60335D01*
X31740Y60462D02*X32121D01*
X32553Y60157D02*X32756Y59954D01*
Y60970D01*
X32553D02*X32934D01*
X33238Y59954D02*X33746D01*
X33238D02*Y60462D01*
X33365Y60335D01*
X33619D01*
X33746Y60462D01*
Y60843D01*
X33619Y60970D02*X33746Y60843D01*
X33365Y60970D02*X33619D01*
X33238Y60843D02*X33365Y60970D01*
X40600Y54754D02*X41108D01*
X40854D02*Y55770D01*
X41540Y54754D02*Y55770D01*
X41413Y54754D02*X41921D01*
X42048Y54881D01*
Y55135D01*
X41921Y55262D02*X42048Y55135D01*
X41540Y55262D02*X41921D01*
X42353Y54957D02*X42556Y54754D01*
Y55770D01*
X42353D02*X42734D01*
X43038Y54881D02*X43165Y54754D01*
X43546D01*
X43673Y54881D01*
Y55135D01*
X43038Y55770D02*X43673Y55135D01*
X43038Y55770D02*X43673D01*
X38800Y61354D02*X39308D01*
X39054D02*Y62370D01*
X39740Y61354D02*Y62370D01*
X39613Y61354D02*X40121D01*
X40248Y61481D01*
Y61735D01*
X40121Y61862D02*X40248Y61735D01*
X39740Y61862D02*X40121D01*
X40553Y61481D02*X40680Y61354D01*
X41061D01*
X41188Y61481D01*
Y61735D01*
X40553Y62370D02*X41188Y61735D01*
X40553Y62370D02*X41188D01*
X41492Y61557D02*X41696Y61354D01*
Y62370D01*
X41492D02*X41873D01*
X41000Y58154D02*X41508D01*
X41254D02*Y59170D01*
X41940Y58154D02*Y59170D01*
X41813Y58154D02*X42321D01*
X42448Y58281D01*
Y58535D01*
X42321Y58662D02*X42448Y58535D01*
X41940Y58662D02*X42321D01*
X42753Y58281D02*X42880Y58154D01*
X43261D01*
X43388Y58281D01*
Y58535D01*
X42753Y59170D02*X43388Y58535D01*
X42753Y59170D02*X43388D01*
X43692Y59043D02*X43819Y59170D01*
X43692Y58281D02*Y59043D01*
Y58281D02*X43819Y58154D01*
X44073D01*
X44200Y58281D01*
Y59043D01*
X44073Y59170D02*X44200Y59043D01*
X43819Y59170D02*X44073D01*
X43692Y58916D02*X44200Y58408D01*
X22900Y49754D02*X23408D01*
X23154D02*Y50770D01*
X23840Y49754D02*Y50770D01*
X23713Y49754D02*X24221D01*
X24348Y49881D01*
Y50135D01*
X24221Y50262D02*X24348Y50135D01*
X23840Y50262D02*X24221D01*
X24653Y49957D02*X24856Y49754D01*
Y50770D01*
X24653D02*X25034D01*
X25465D02*X25846Y50262D01*
Y49881D02*Y50262D01*
X25719Y49754D02*X25846Y49881D01*
X25465Y49754D02*X25719D01*
X25338Y49881D02*X25465Y49754D01*
X25338Y49881D02*Y50135D01*
X25465Y50262D01*
X25846D01*
X29200Y49754D02*X29708D01*
X29454D02*Y50770D01*
X30140Y49754D02*Y50770D01*
X30013Y49754D02*X30521D01*
X30648Y49881D01*
Y50135D01*
X30521Y50262D02*X30648Y50135D01*
X30140Y50262D02*X30521D01*
X30953Y49957D02*X31156Y49754D01*
Y50770D01*
X30953D02*X31334D01*
X31638Y50643D02*X31765Y50770D01*
X31638Y50440D02*Y50643D01*
Y50440D02*X31816Y50262D01*
X31969D01*
X32146Y50440D01*
Y50643D01*
X32019Y50770D02*X32146Y50643D01*
X31765Y50770D02*X32019D01*
X31638Y50084D02*X31816Y50262D01*
X31638Y49881D02*Y50084D01*
Y49881D02*X31765Y49754D01*
X32019D01*
X32146Y49881D01*
Y50084D01*
X31969Y50262D02*X32146Y50084D01*
X34000Y12054D02*X34508D01*
X34254D02*Y13070D01*
X34940Y12054D02*Y13070D01*
X34813Y12054D02*X35321D01*
X35448Y12181D01*
Y12435D01*
X35321Y12562D02*X35448Y12435D01*
X34940Y12562D02*X35321D01*
X35753Y12257D02*X35956Y12054D01*
Y13070D01*
X35753D02*X36134D01*
X31700Y16854D02*X32208D01*
X31954D02*Y17870D01*
X32640Y16854D02*Y17870D01*
X32513Y16854D02*X33021D01*
X33148Y16981D01*
Y17235D01*
X33021Y17362D02*X33148Y17235D01*
X32640Y17362D02*X33021D01*
X33453Y16981D02*X33580Y16854D01*
X33961D01*
X34088Y16981D01*
Y17235D01*
X33453Y17870D02*X34088Y17235D01*
X33453Y17870D02*X34088D01*
X34800Y25754D02*X35308D01*
X35054D02*Y26770D01*
X35740Y25754D02*Y26770D01*
X35613Y25754D02*X36121D01*
X36248Y25881D01*
Y26135D01*
X36121Y26262D02*X36248Y26135D01*
X35740Y26262D02*X36121D01*
X36553Y25881D02*X36680Y25754D01*
X36934D01*
X37061Y25881D01*
X36934Y26770D02*X37061Y26643D01*
X36680Y26770D02*X36934D01*
X36553Y26643D02*X36680Y26770D01*
Y26211D02*X36934D01*
X37061Y25881D02*Y26084D01*
Y26338D02*Y26643D01*
Y26338D02*X36934Y26211D01*
X37061Y26084D02*X36934Y26211D01*
X37365Y26643D02*X37492Y26770D01*
X37365Y25881D02*Y26643D01*
Y25881D02*X37492Y25754D01*
X37746D01*
X37873Y25881D01*
Y26643D01*
X37746Y26770D02*X37873Y26643D01*
X37492Y26770D02*X37746D01*
X37365Y26516D02*X37873Y26008D01*
X21600Y19954D02*X22108D01*
X21854D02*Y20970D01*
X22540Y19954D02*Y20970D01*
X22413Y19954D02*X22921D01*
X23048Y20081D01*
Y20335D01*
X22921Y20462D02*X23048Y20335D01*
X22540Y20462D02*X22921D01*
X23480Y20970D02*X23861Y20462D01*
Y20081D02*Y20462D01*
X23734Y19954D02*X23861Y20081D01*
X23480Y19954D02*X23734D01*
X23353Y20081D02*X23480Y19954D01*
X23353Y20081D02*Y20335D01*
X23480Y20462D01*
X23861D01*
X25200Y18854D02*X25708D01*
X25454D02*Y19870D01*
X26140Y18854D02*Y19870D01*
X26013Y18854D02*X26521D01*
X26648Y18981D01*
Y19235D01*
X26521Y19362D02*X26648Y19235D01*
X26140Y19362D02*X26521D01*
X27080Y19870D02*X27588Y18854D01*
X26953D02*X27588D01*
X15400Y21754D02*X15908D01*
X15654D02*Y22770D01*
X16340Y21754D02*Y22770D01*
X16213Y21754D02*X16721D01*
X16848Y21881D01*
Y22135D01*
X16721Y22262D02*X16848Y22135D01*
X16340Y22262D02*X16721D01*
X17153Y21957D02*X17356Y21754D01*
Y22770D01*
X17153D02*X17534D01*
X17838Y22643D02*X17965Y22770D01*
X17838Y21881D02*Y22643D01*
Y21881D02*X17965Y21754D01*
X18219D01*
X18346Y21881D01*
Y22643D01*
X18219Y22770D02*X18346Y22643D01*
X17965Y22770D02*X18219D01*
X17838Y22516D02*X18346Y22008D01*
X27900Y22454D02*X28408D01*
X28154D02*Y23470D01*
X28840Y22454D02*Y23470D01*
X28713Y22454D02*X29221D01*
X29348Y22581D01*
Y22835D01*
X29221Y22962D02*X29348Y22835D01*
X28840Y22962D02*X29221D01*
X29653Y22657D02*X29856Y22454D01*
Y23470D01*
X29653D02*X30034D01*
X30338Y23089D02*X30846Y22454D01*
X30338Y23089D02*X30973D01*
X30846Y22454D02*Y23470D01*
X37400Y21854D02*X37908D01*
X37654D02*Y22870D01*
X38340Y21854D02*Y22870D01*
X38213Y21854D02*X38721D01*
X38848Y21981D01*
Y22235D01*
X38721Y22362D02*X38848Y22235D01*
X38340Y22362D02*X38721D01*
X39153Y21981D02*X39280Y21854D01*
X39661D01*
X39788Y21981D01*
Y22235D01*
X39153Y22870D02*X39788Y22235D01*
X39153Y22870D02*X39788D01*
X40219D02*X40600Y22362D01*
Y21981D02*Y22362D01*
X40473Y21854D02*X40600Y21981D01*
X40219Y21854D02*X40473D01*
X40092Y21981D02*X40219Y21854D01*
X40092Y21981D02*Y22235D01*
X40219Y22362D01*
X40600D01*
X21100Y11454D02*X21608D01*
X21354D02*Y12470D01*
X22040Y11454D02*Y12470D01*
X21913Y11454D02*X22421D01*
X22548Y11581D01*
Y11835D01*
X22421Y11962D02*X22548Y11835D01*
X22040Y11962D02*X22421D01*
X23234Y11454D02*X23361Y11581D01*
X22980Y11454D02*X23234D01*
X22853Y11581D02*X22980Y11454D01*
X22853Y11581D02*Y12343D01*
X22980Y12470D01*
X23234Y11911D02*X23361Y12038D01*
X22853Y11911D02*X23234D01*
X22980Y12470D02*X23234D01*
X23361Y12343D01*
Y12038D02*Y12343D01*
X15400Y11454D02*X15908D01*
X15654D02*Y12470D01*
X16340Y11454D02*Y12470D01*
X16213Y11454D02*X16721D01*
X16848Y11581D01*
Y11835D01*
X16721Y11962D02*X16848Y11835D01*
X16340Y11962D02*X16721D01*
X17153Y12089D02*X17661Y11454D01*
X17153Y12089D02*X17788D01*
X17661Y11454D02*Y12470D01*
X17400Y17596D02*X17791D01*
X17596D02*Y18378D01*
X18124Y17596D02*Y18378D01*
X18026Y17596D02*X18417D01*
X18515Y17693D01*
Y17889D01*
X18417Y17987D02*X18515Y17889D01*
X18124Y17987D02*X18417D01*
X18750Y17596D02*X19141D01*
X18750D02*Y17987D01*
X18847Y17889D01*
X19043D01*
X19141Y17987D01*
Y18280D01*
X19043Y18378D02*X19141Y18280D01*
X18847Y18378D02*X19043D01*
X18750Y18280D02*X18847Y18378D01*
M02*
